<svg xmlns="http://www.w3.org/2000/svg" xmlns:xlink="http://www.w3.org/1999/xlink" width="62" height="62" viewBox="0 0 62 62">
  <defs>
    <clipPath id="clip-path">
      <rect id="Rect치ngulo_346390" data-name="Rect치ngulo 346390" width="31.768" height="31.763" fill="#627289"/>
    </clipPath>
  </defs>
  <g id="Grupo_1016397" data-name="Grupo 1016397" transform="translate(-1265 -1815)">
    <g id="Grupo_1015765" data-name="Grupo 1015765" transform="translate(0 -11091)">
      <g id="Grupo_1014859" data-name="Grupo 1014859" transform="translate(880.001 10848)">
        <path id="Uni칩n_12" data-name="Uni칩n 12" d="M44.385,58.97a31.027,31.027,0,1,1,10.348-8.025L58.991,62Z" transform="translate(384.999 2058)" fill="#a3bfe4"/>
        <circle id="Elipse_4842" data-name="Elipse 4842" cx="26" cy="26" r="26" transform="translate(389.999 2063)" fill="#fff"/>
      </g>
    </g>
    <g id="Grupo_1015802" data-name="Grupo 1015802" transform="translate(1280.245 1829.747)">
      <g id="Grupo_1015801" data-name="Grupo 1015801" clip-path="url(#clip-path)">
        <path id="Trazado_606622" data-name="Trazado 606622" d="M0,15.843q0-5.76,0-11.52A4.287,4.287,0,0,1,4.311,0Q15.886,0,27.46,0A4.286,4.286,0,0,1,31.767,4.29q0,11.591,0,23.182a4.288,4.288,0,0,1-4.272,4.289q-11.61,0-23.221,0A4.288,4.288,0,0,1,0,27.505q-.01-5.831,0-11.662m15.883,13.65H27.194a2.09,2.09,0,0,0,2.3-2.305q0-11.308,0-22.616a2.089,2.089,0,0,0-2.305-2.3H4.575a2.088,2.088,0,0,0-2.3,2.3q0,11.308,0,22.616a2.089,2.089,0,0,0,2.305,2.3H15.885" transform="translate(0 0)" fill="#627289"/>
        <path id="Trazado_606623" data-name="Trazado 606623" d="M107.832,66.639q0-2.782,0-5.564a1.133,1.133,0,0,1,1.762-1.048q5.046,2.789,10.08,5.6a1.135,1.135,0,0,1,0,2.055q-5.049,2.82-10.111,5.615a1.131,1.131,0,0,1-1.736-1.057q0-2.8,0-5.6m2.284,3.743,6.708-3.729-6.708-3.726Z" transform="translate(-97.62 -54.176)" fill="#627289"/>
        <path id="Trazado_606624" data-name="Trazado 606624" d="M61.668,217.757a3.4,3.4,0,0,1,2.167-2.112,3.367,3.367,0,0,1,4.13,1.834.388.388,0,0,0,.44.283c.341-.021.685-.009,1.027,0a1.133,1.133,0,0,1,.016,2.265c-.448.008-.9,0-1.356,0a3.5,3.5,0,0,1-1.362,1.727,3.37,3.37,0,0,1-4.91-1.41.478.478,0,0,0-.525-.322q-6.13.012-12.26,0a1.151,1.151,0,0,1-1.165-.932,1.139,1.139,0,0,1,.8-1.291,1.806,1.806,0,0,1,.49-.043q6.042,0,12.083,0Zm4.344,1.145a1.132,1.132,0,1,0-1.142,1.121,1.165,1.165,0,0,0,1.142-1.121" transform="translate(-43.323 -195.07)" fill="#627289"/>
      </g>
    </g>
  </g>
</svg>
