<svg xmlns="http://www.w3.org/2000/svg" xmlns:xlink="http://www.w3.org/1999/xlink" width="62" height="62" viewBox="0 0 62 62">
  <defs>
    <clipPath id="clip-path">
      <rect id="Rect치ngulo_346391" data-name="Rect치ngulo 346391" width="34.961" height="34.97" fill="#627289"/>
    </clipPath>
  </defs>
  <g id="Grupo_1016395" data-name="Grupo 1016395" transform="translate(-769 -1815)">
    <g id="Grupo_1015764" data-name="Grupo 1015764" transform="translate(0 -11091)">
      <g id="Grupo_1014857" data-name="Grupo 1014857" transform="translate(384.001 10848)">
        <path id="Uni칩n_12" data-name="Uni칩n 12" d="M44.385,58.97a31.027,31.027,0,1,1,10.348-8.025L58.991,62Z" transform="translate(384.999 2058)" fill="#a3bfe4"/>
        <circle id="Elipse_4842" data-name="Elipse 4842" cx="26" cy="26" r="26" transform="translate(389.999 2063)" fill="#fff"/>
      </g>
    </g>
    <g id="Grupo_1015804" data-name="Grupo 1015804" transform="translate(782.788 1829.787)">
      <g id="Grupo_1015803" data-name="Grupo 1015803" clip-path="url(#clip-path)">
        <path id="Trazado_606625" data-name="Trazado 606625" d="M17.753,34.971h-.546a1.6,1.6,0,0,1-.783-.805c-1.182-2.274-2.382-4.539-3.566-6.812a.474.474,0,0,0-.49-.3q-3.342.016-6.684,0A5.521,5.521,0,0,1,4.4,26.928,5.6,5.6,0,0,1,.28,22.973c-.121-.361-.188-.739-.28-1.11V5.206c.134-.488.239-.987.407-1.462A5.66,5.66,0,0,1,5.764,0c7.884.047,15.769.013,23.653.025a5.361,5.361,0,0,1,1.41.188,5.839,5.839,0,0,1,4.129,5.57q.013,7.747,0,15.493a5.508,5.508,0,0,1-.589,2.5,5.406,5.406,0,0,1-5.144,3.283c-2.207-.008-4.414,0-6.622-.008a.473.473,0,0,0-.5.295c-1.183,2.277-2.385,4.543-3.568,6.82a1.617,1.617,0,0,1-.785.806m-.277-3.258c.1-.174.156-.281.213-.389.972-1.849,1.956-3.691,2.908-5.55A1.29,1.29,0,0,1,21.9,25c2.5.02,5.006.01,7.509.007a3.062,3.062,0,0,0,1.765-.538,3.975,3.975,0,0,0,1.735-3.478q.019-7.457,0-14.914a5.3,5.3,0,0,0-.138-1.146,3.545,3.545,0,0,0-3.408-2.858q-11.879-.011-23.757,0a3.185,3.185,0,0,0-2.1.754A4.1,4.1,0,0,0,2.05,6.14q-.006,7.235,0,14.47a8.841,8.841,0,0,0,.065,1.122,3.654,3.654,0,0,0,3.64,3.283c2.457-.04,4.915,0,7.373-.016a1.228,1.228,0,0,1,1.217.744c.8,1.565,1.63,3.119,2.448,4.677.215.41.432.819.683,1.293" transform="translate(0 -0.001)" fill="#627289"/>
        <path id="Trazado_606626" data-name="Trazado 606626" d="M75.065,61.955a3.93,3.93,0,1,1,6.075-.02c.326.2.665.382.974.606A6.481,6.481,0,0,1,84.947,68a1.815,1.815,0,0,1-1.8,1.849q-5.052.023-10.1,0a1.823,1.823,0,0,1-1.806-1.884,6.541,6.541,0,0,1,3.537-5.855c.088-.05.177-.1.291-.158m7.828,5.819a4.36,4.36,0,0,0-2.379-3.785,4.947,4.947,0,0,0-5.186.208,4.29,4.29,0,0,0-2.014,3.578Zm-4.8-6.487a1.855,1.855,0,0,0,1.867-1.853,1.891,1.891,0,0,0-1.877-1.857,1.87,1.87,0,0,0-1.842,1.849,1.842,1.842,0,0,0,1.853,1.861" transform="translate(-64.739 -50.46)" fill="#627289"/>
        <path id="Trazado_606627" data-name="Trazado 606627" d="M261.655,93.778c-.162.093-.275.161-.392.223a.6.6,0,0,1-.868-.251.883.883,0,0,1,.3-1.246q.838-.522,1.688-1.025a.918.918,0,0,1,1.437.823q0,4.057,0,8.115c0,.572-.189.807-.757.886a2.444,2.444,0,0,1-.707-.006.724.724,0,0,1-.7-.836q0-3.137,0-6.274Z" transform="translate(-236.52 -82.994)" fill="#627289"/>
      </g>
    </g>
  </g>
</svg>
