<svg xmlns="http://www.w3.org/2000/svg" xmlns:xlink="http://www.w3.org/1999/xlink" width="202.917" height="146.293" viewBox="0 0 202.917 146.293">
  <defs>
    <clipPath id="clip-path">
      <rect id="Rectángulo_345731" data-name="Rectángulo 345731" width="202.917" height="146.293" fill="none"/>
    </clipPath>
  </defs>
  <g id="Grupo_1015255" data-name="Grupo 1015255" transform="translate(29.135 10.243)">
    <g id="Grupo_1015254" data-name="Grupo 1015254" transform="translate(-29.135 -10.243)" clip-path="url(#clip-path)">
      <path id="Trazado_605497" data-name="Trazado 605497" d="M158.828,124.792H29.818a5.338,5.338,0,0,1-5.323-5.323V33.333a5.338,5.338,0,0,1,5.323-5.322H158.828a5.338,5.338,0,0,1,5.323,5.322v86.136a5.338,5.338,0,0,1-5.323,5.323" transform="translate(-0.867 -0.991)" fill="#fff"/>
      <path id="Trazado_605498" data-name="Trazado 605498" d="M60.118,52.256H5.322A5.337,5.337,0,0,1,0,46.934V5.322A5.338,5.338,0,0,1,5.322,0h54.8A5.339,5.339,0,0,1,65.44,5.322V46.934a5.338,5.338,0,0,1-5.322,5.323" transform="translate(0 0)" fill="#fff198"/>
      <path id="Trazado_605499" data-name="Trazado 605499" d="M144.8,129.186c-.139-1.162-.528-1.935-1.084-1.994s-15.446,0-15.446,0a4.312,4.312,0,0,0,.7-4.335l-7.936-20.667a6.2,6.2,0,0,0-5.914-3.58H85c-4.2,0-7.185,3.376-5.915,6.685l2.342,6.1,3.37,8.778,2.223,5.791a5.576,5.576,0,0,0,3.27,3.085c-.017,0,.427,1.874,1.409,1.754h52.294a1.575,1.575,0,0,0,.809-1.617" transform="translate(-2.787 -3.489)" fill="#1a1a1a"/>
      <path id="Trazado_605500" data-name="Trazado 605500" d="M149.42,76.843s-5.406.777-8.827,3.983a25.455,25.455,0,0,0-7.457,11.289c-1.975,5.431-.9,5.719-3.019,10.173s-2.683,5.518-2.683,5.518l5.082,13.777s.521,3.848-1.252,4.768l1.372.138s3.76-3.261,5.068-5.9,2.371-5.56,2.371-5.56a57.971,57.971,0,0,1-.261,5.937c-.3,2.613-1,4.607-2.348,5.428l7.386.1a1.492,1.492,0,0,1,1.674,1.134,2.408,2.408,0,0,1-.813,2.222l3.708.157a51.15,51.15,0,0,0,11.228,2.234c5.662.37,7.789-1.522,7.789-1.522l1.541,9.074a36.466,36.466,0,0,0,10.09-.232,56.048,56.048,0,0,0,7.737-2.289s-4.913-23.525-5.385-25.6-2.969-12.5-3.539-14.542a45.038,45.038,0,0,0-4.231-10.684c-2.566-4.519-4.54-6.477-6.411-7.418S161.827,75.7,157,76.009a69.36,69.36,0,0,0-7.584.834" transform="translate(-4.508 -2.688)" fill="#33ece0"/>
      <path id="Trazado_605501" data-name="Trazado 605501" d="M157.6,75.455l-1.455-6.776s1.981.021,2.6-1.432a2.445,2.445,0,0,0-1.649-3.215,5.349,5.349,0,0,0-1.8.016l-.75-3.18c-.174,0-.333.953-.333.953l-6.639.221-.409-1.732L145.887,62l-1.492.121.683,6.834s.7,5.415,2.888,5.383,2.054-.155,2.054-.155l.59,2.782s-1.191,6.327,1.735,6.131,4.436-4.155,4.7-5.16.556-2.478.556-2.478" transform="translate(-5.108 -2.134)" fill="#fff"/>
      <path id="Trazado_605502" data-name="Trazado 605502" d="M177.354,142.366v1s-2.677,4.139-3.219,4.957a1.762,1.762,0,0,0,.826,2.631c1.161.32,2.4-1.224,3.079-2.068s1.648-1.936,2.636-1.848a22.066,22.066,0,0,1,6.743,1.438c2.994,1.214,3.435,1.813,4.755,1.843a2.327,2.327,0,0,0,2.06-.973,2.11,2.11,0,0,0,2.006-.488c1.121-.86.285-1.69.285-1.69a.855.855,0,0,0,.307-1.127c-.284-.836-1.446-1.348-2.8-2.027s-3.223-.871-4.432-1.665a24.693,24.693,0,0,1-2.36-1.8,46.233,46.233,0,0,1-9.885,1.817" transform="translate(-6.15 -4.972)" fill="#fff"/>
      <path id="Trazado_605503" data-name="Trazado 605503" d="M170.741,79.817a11.7,11.7,0,0,0-3.1-4.983c-2.265-2.012-6.4-2.278-6.4-2.278s-2.084,1.95-3.35,1.9l.294,1.427a17.17,17.17,0,0,1,5.712.811,55.182,55.182,0,0,1,6.838,3.124" transform="translate(-5.586 -2.567)" fill="#1a1a1a"/>
      <path id="Trazado_605504" data-name="Trazado 605504" d="M156.4,69.882a6.225,6.225,0,0,0,3.5-3.217,10.494,10.494,0,0,0,.489-6.878c-.526-2.276-1.516-4.346-3.56-4.761a9.75,9.75,0,0,0-3.947.083,7.019,7.019,0,0,0-4.558-.631c-2.553.529-5.427,2.46-5.364,7.54l2.768-.2L147.064,60l.286,1.781,6.813-.168s.442-2.426.442-2.337a11.764,11.764,0,0,0,.641,4.565s2.662-.822,3.318,1.186-.535,3.56-2.467,3.445,0-.116,0-.116Z" transform="translate(-5.057 -1.922)" fill="#1a1a1a"/>
      <path id="Trazado_605505" data-name="Trazado 605505" d="M159.359,68.785a7.8,7.8,0,0,1,1.548,2.269c.348,1.041.02,2.374-2.86,3.3-.3,0-1.152-3.963-1.152-3.963s1.908-.565,2.464-1.608" transform="translate(-5.551 -2.433)" fill="#ffce26"/>
      <path id="Trazado_605506" data-name="Trazado 605506" d="M183.048,107.818a6.308,6.308,0,0,0-4.5,7.388c1.012,5.936,5.7,6.935,7.578,6.259Z" transform="translate(-6.312 -3.814)" fill="#ccc"/>
      <path id="Trazado_605507" data-name="Trazado 605507" d="M103.764,114.423c.941,1.629.834,3.452-.238,4.072s-2.7-.2-3.645-1.829-.834-3.453.238-4.073,2.7.2,3.645,1.83" transform="translate(-3.511 -3.976)" fill="#fff"/>
      <path id="Trazado_605508" data-name="Trazado 605508" d="M98.513,131.979a17.231,17.231,0,0,0-7.271,14.274h46.847a48.188,48.188,0,0,0,10.729,1.357c5.98.077,9.886-.413,12.829-1.3s4.529-1.821,5.508-3.9a10.234,10.234,0,0,0,.968-4l-.968-5.72a15.415,15.415,0,0,1-9.31,1.336,44.181,44.181,0,0,1-9.38-2.169Z" transform="translate(-3.228 -4.665)" fill="#1a1a1a"/>
      <path id="Trazado_605509" data-name="Trazado 605509" d="M34.427,130.72s-4.95-1.743-4.5-6.184,3.022-8.1,5.794-10.894,8.633-8.411,14.4-10.389a86.772,86.772,0,0,1-2.053,11.018c-1.285,4.518-2.891,11.006-6.442,14.549s-7.2,1.9-7.2,1.9" transform="translate(-1.058 -3.653)" fill="#1a1a1a"/>
      <path id="Trazado_605510" data-name="Trazado 605510" d="M29.095,107.86,21.251,72.187S14.976,81.49,14.67,90.9A16.312,16.312,0,0,0,29.095,107.86" transform="translate(-0.519 -2.554)" fill="#1a1a1a"/>
      <path id="Trazado_605511" data-name="Trazado 605511" d="M12.03,60.29h54.3a5.587,5.587,0,0,0,5.571-5.57V44.257L61.879,39.136a13.536,13.536,0,0,0-9.157-.673l-7.512,2.549a12.329,12.329,0,0,1-9.007-.948l-8.054-4.8s-8.025-5.756-14.259.683c-4.436,4.582-7.43,7.6-7.43,7.6V54.721a5.586,5.586,0,0,0,5.57,5.57" transform="translate(-0.229 -1.164)" fill="#1a1a1a"/>
      <path id="Trazado_605512" data-name="Trazado 605512" d="M58.047,28a5.76,5.76,0,1,1,5.758-5.76A5.762,5.762,0,0,1,58.047,28" transform="translate(-1.85 -0.583)" fill="#fff"/>
      <path id="Trazado_605513" data-name="Trazado 605513" d="M77.659,64.974,66.741,58.217a.675.675,0,0,0-1.029.607l.628,12.824a.676.676,0,0,0,1.018.549l2.952-1.741a.675.675,0,0,1,.924.239l4.291,7.278a.675.675,0,0,0,.924.239l2.336-1.377a.674.674,0,0,0,.238-.924l-4.291-7.278a.674.674,0,0,1,.238-.924l2.676-1.579a.674.674,0,0,0,.013-1.155" transform="translate(-2.325 -2.056)" fill="#bcbcbc"/>
      <path id="Trazado_605514" data-name="Trazado 605514" d="M142.828,19.79H123.856a2.746,2.746,0,0,1-2.739-2.739V5.468a2.746,2.746,0,0,1,2.739-2.739h18.972a2.747,2.747,0,0,1,2.739,2.739V17.052a2.747,2.747,0,0,1-2.739,2.739" transform="translate(-4.285 -0.097)" fill="#ff7e7e"/>
      <path id="Trazado_605515" data-name="Trazado 605515" d="M140.163,3.868a1.046,1.046,0,0,0-1.972,0l-4.168,7.137c-.543.929-.106,1.689.968,1.689h8.374c1.077,0,1.512-.76.969-1.688Z" transform="translate(-4.733 -0.112)" fill="#fff"/>
      <path id="Trazado_605516" data-name="Trazado 605516" d="M96.639,44.9a3.358,3.358,0,1,1-3.359-3.359A3.359,3.359,0,0,1,96.639,44.9" transform="translate(-3.181 -1.47)" fill="#983333"/>
      <path id="Trazado_605517" data-name="Trazado 605517" d="M93.87,57.19a3.358,3.358,0,1,1-3.359-3.358A3.359,3.359,0,0,1,93.87,57.19" transform="translate(-3.083 -1.904)" fill="#983333"/>
      <path id="Trazado_605518" data-name="Trazado 605518" d="M94.526,74.437a3.358,3.358,0,1,1-3.358-3.359,3.358,3.358,0,0,1,3.358,3.359" transform="translate(-3.106 -2.515)" fill="#983333"/>
      <path id="Trazado_605519" data-name="Trazado 605519" d="M20.8,129.771A6.178,6.178,0,0,0,23.65,123.9c-.293-4.162-2.9-6.762-7.959-10.593s-14.54-6.835-14.54-6.835,1.584,5.184,2.338,7.32,4.394,11.284,7.88,14.536,6.69,3.748,9.433,1.441" transform="translate(-0.041 -3.767)" fill="#7eded8"/>
      <path id="Trazado_605520" data-name="Trazado 605520" d="M148.393,57.92c1.456-2.721,1.964-3.174,4.256-2.811a5.708,5.708,0,0,0-4.327-.631c-2.554.528-5.428,2.46-5.365,7.54l2.768-.2L147.064,60l.286,1.781,1.1-.027a5.5,5.5,0,0,1-.058-3.831" transform="translate(-5.057 -1.922)" fill="#fff"/>
      <path id="Trazado_605521" data-name="Trazado 605521" d="M60.943,59.751H12.021a5.808,5.808,0,0,1-5.8-5.8V12.682a5.807,5.807,0,0,1,5.8-5.8h54.3a5.807,5.807,0,0,1,5.8,5.8V53.948a5.782,5.782,0,0,1-.759,2.863c.053-1.029.3-1.94.3-2.863V12.682a5.345,5.345,0,0,0-5.338-5.337h-54.3a5.344,5.344,0,0,0-5.337,5.337V53.948a5.344,5.344,0,0,0,5.337,5.339H60.943c.232.361.128.464,0,.464" transform="translate(-0.22 -0.243)" fill="#1a1a1a"/>
      <path id="Trazado_605522" data-name="Trazado 605522" d="M174.425,147.209h-10.7c0-.464,10.7-.464,10.7-.464.232.36.127.464,0,.464" transform="translate(-5.792 -5.191)" fill="#1a1a1a"/>
      <path id="Trazado_605523" data-name="Trazado 605523" d="M135.529,147.209H6.461c0-.464,129.068-.464,129.068-.464.232.36.128.464,0,.464" transform="translate(-0.229 -5.191)" fill="#1a1a1a"/>
      <path id="Trazado_605524" data-name="Trazado 605524" d="M209.772,147.209h-12.1c0-.464,12.1-.464,12.1-.464.232.36.128.464,0,.464" transform="translate(-6.993 -5.191)" fill="#1a1a1a"/>
      <path id="Trazado_605525" data-name="Trazado 605525" d="M148.521,74.7a2.437,2.437,0,0,1-.82-.134,2.868,2.868,0,0,1-1.282-1c-1.333-1.763-1.541-3.975-1.743-6.113l-.054-.558c-.129-1.309-.274-4.606-.275-4.641.464.014.609,3.3.737,4.594l.054.561c.2,2.073.4,4.217,1.651,5.877a2.414,2.414,0,0,0,1.068.846,3.286,3.286,0,0,0,1.841-.07c.168-.04.334-.077.5-.108a20.073,20.073,0,0,0,2.428-.622,4.055,4.055,0,0,1-2.342,1.079c-.161.03-.322.066-.484.1a5.877,5.877,0,0,1-1.279.188" transform="translate(-5.107 -2.202)" fill="#1a1a1a"/>
      <path id="Trazado_605526" data-name="Trazado 605526" d="M151.027,64.167c-.187-.008-.3.085-.279.754.026.747.232.856.4.829s.306-.272.237-.8-.11-.773-.356-.783" transform="translate(-5.333 -2.27)" fill="#1a1a1a"/>
      <path id="Trazado_605527" data-name="Trazado 605527" d="M145.914,64.593c-.187-.014-.3.075-.3.745,0,.747.2.862.368.842s.314-.262.264-.792-.084-.776-.329-.795" transform="translate(-5.151 -2.285)" fill="#1a1a1a"/>
      <path id="Trazado_605528" data-name="Trazado 605528" d="M144.717,63.588c.136-.721.552-1,1.5-.871a3.293,3.293,0,0,0-1.333.8.237.237,0,0,1-.171.074" transform="translate(-5.12 -2.218)" fill="#1a1a1a"/>
      <path id="Trazado_605529" data-name="Trazado 605529" d="M156.809,69.032a2.648,2.648,0,0,1-.942-.174,3.448,3.448,0,0,1,1.329-.325,2.186,2.186,0,1,0-1.906-3.722,1.1,1.1,0,0,1,1.057-1.039,2.65,2.65,0,1,1,.931,5.219,2.663,2.663,0,0,1-.469.041" transform="translate(-5.494 -2.255)" fill="#1a1a1a"/>
      <path id="Trazado_605530" data-name="Trazado 605530" d="M157.692,67.634c-.083-.015-2.007-.756-2.007-.756-.1-.356,1.241-2.149,1.241-2.149.371.279-.789,1.826-.789,1.826l1.638.631c.1.392.011.449-.083.449" transform="translate(-5.508 -2.29)" fill="#1a1a1a"/>
      <path id="Trazado_605531" data-name="Trazado 605531" d="M152.589,83.835a1.8,1.8,0,0,1-.873-.21,3.191,3.191,0,0,1-1.291-2.226,8.483,8.483,0,0,1-.017-1.958c.014-.2.027-.4.037-.6,0-.038.051-1.129.051-1.129l-.506-2.983c.458-.078.968,2.954.968,2.954,0,.05-.047,1.153-.048,1.181-.01.2-.024.407-.039.611a8.087,8.087,0,0,0,.014,1.853,2.751,2.751,0,0,0,1.054,1.892,1.653,1.653,0,0,0,1.327.03c2.757-.993,3.863-4.527,4.307-7.319-.205,4.253-1.8,6.909-4.15,7.755a2.464,2.464,0,0,1-.833.151" transform="translate(-5.306 -2.644)" fill="#1a1a1a"/>
      <path id="Trazado_605532" data-name="Trazado 605532" d="M149.569,70.962a2.952,2.952,0,0,1-.449-.038c.609-.376,1.025-.461,1.315-.715a1.724,1.724,0,0,0,.478-1.2c.464.032.475.981-.174,1.547a1.724,1.724,0,0,1-1.171.4" transform="translate(-5.275 -2.442)" fill="#1a1a1a"/>
      <path id="Trazado_605533" data-name="Trazado 605533" d="M158.026,76c-.227-.181-1.681-6.75-1.681-6.75.452-.1,1.907,6.469,1.907,6.469-.193.28-.209.282-.226.282" transform="translate(-5.531 -2.45)" fill="#1a1a1a"/>
      <path id="Trazado_605534" data-name="Trazado 605534" d="M147.108,69.313c-.46-.624-1.011-1.831-.651-2.282.22-.278.839-.226,1.327-.13l-.179-2.935c.464-.029.663,3.213.663,3.213-.792.115-1.347.071-1.455.15a3.336,3.336,0,0,0,.5,1.649c-.135.329-.171.337-.206.337" transform="translate(-5.177 -2.263)" fill="#1a1a1a"/>
      <path id="Trazado_605535" data-name="Trazado 605535" d="M175.435,151.331a1.955,1.955,0,0,1-1.874-1.389,2.721,2.721,0,0,1,.66-2.141c.09-.136.177-.27.253-.4a14.929,14.929,0,0,1,.927-1.3,10.72,10.72,0,0,0,1.743-2.8l.066-.888c.462.038.387.974.387.974a10.719,10.719,0,0,1-1.826,3,14.457,14.457,0,0,0-.9,1.251c-.08.137-.171.276-.263.419a2.352,2.352,0,0,0-.6,1.771,1.5,1.5,0,0,0,1.735,1.005,2.256,2.256,0,0,0,1.079-.7,10.164,10.164,0,0,0,.835-1.06c.209-.293.425-.594.666-.876a2.962,2.962,0,0,1,2.537-1.309,23.7,23.7,0,0,1,6.179,1.262,16.229,16.229,0,0,1,1.718.806c1.569.81,3.191,1.651,4.758.936a.866.866,0,0,0,.4-.307.8.8,0,0,0-.091-.778,6.467,6.467,0,0,0-1.941-1.743,17.207,17.207,0,0,0-2.694-1.518,16.639,16.639,0,0,0-3.071-1.127,5.722,5.722,0,0,1,3.264.7,17.032,17.032,0,0,1,2.58,1.432,7.5,7.5,0,0,1,2.255,2.006,1.234,1.234,0,0,1,.095,1.263,1.292,1.292,0,0,1-.606.492c-1.771.807-3.573-.123-5.165-.947a15.532,15.532,0,0,0-1.667-.782,23.224,23.224,0,0,0-6.059-1.234,2.5,2.5,0,0,0-2.142,1.146c-.229.265-.438.56-.642.844a10.387,10.387,0,0,1-.876,1.11,2.7,2.7,0,0,1-1.308.833,1.823,1.823,0,0,1-.419.048" transform="translate(-6.138 -5.038)" fill="#1a1a1a"/>
      <path id="Trazado_605536" data-name="Trazado 605536" d="M195.354,149.686a2.3,2.3,0,0,1-.474-.045c.15-.447,1.511-.178,2.091-1.334a.792.792,0,0,0-.012-.715c-.607-1.345-4.042-3.083-8.356-4.227,3.871.546,8,2.318,8.779,4.038a1.246,1.246,0,0,1,0,1.112,2.188,2.188,0,0,1-2.033,1.171" transform="translate(-6.672 -5.072)" fill="#1a1a1a"/>
      <path id="Trazado_605537" data-name="Trazado 605537" d="M175.246,140.3a28.377,28.377,0,0,1-4.222-.275c-3.671-20.389-8.24-49.269-8.285-49.559.5.217,5.047,28.939,8.525,49.126a34.151,34.151,0,0,0,17.363-2.452c-.516-2.619-6.437-32.525-10.075-44.045-.42-1.329-4.245-10.77-8.8-13.547a23.551,23.551,0,0,0-11.659-3.3,20.7,20.7,0,0,1,11.9,2.9C174.669,82,178.568,91.6,179,92.953c3.795,12.017,10.06,43.955,10.123,44.278a31.651,31.651,0,0,1-13.872,3.067" transform="translate(-5.593 -2.696)" fill="#1a1a1a"/>
      <path id="Trazado_605538" data-name="Trazado 605538" d="M197.051,147.477c-.144-.415.089-.653.022-1.047-.083-.482-.611-1.256-2.653-2.2a23.162,23.162,0,0,0-2.64-.981c-1.769-.573-3.3-1.067-4.251-2.577a11.252,11.252,0,0,0,4.395,2.136,23.385,23.385,0,0,1,2.69,1c1.8.828,2.779,1.687,2.919,2.554a1.219,1.219,0,0,1-.325,1.049.232.232,0,0,1-.157.062" transform="translate(-6.634 -4.977)" fill="#1a1a1a"/>
      <path id="Trazado_605539" data-name="Trazado 605539" d="M108.431,146.68c-.125-4.3.336-8.4,2.965-10.818a15.394,15.394,0,0,1,8.574-4.056,19.7,19.7,0,0,0-8.259,4.4c-2.5,2.3-2.944,6.288-3.047,10.252a.232.232,0,0,1-.232.226" transform="translate(-3.835 -4.663)" fill="#1a1a1a"/>
      <path id="Trazado_605540" data-name="Trazado 605540" d="M150.953,148.082c-14.076,0-18.137-4.382-18.307-4.575.389-.261,4.7,4.345,19.517,4.1,15.046-.263,16.617-3.889,17.2-8.984-.144,5.383-1.763,9.177-17.188,9.448-.414.008-.821.011-1.218.011" transform="translate(-4.693 -4.904)" fill="#1a1a1a"/>
      <path id="Trazado_605541" data-name="Trazado 605541" d="M156.508,70.107c3.377-1.66,4.856-6.118,3.442-11.051a5.412,5.412,0,0,0-2.628-3.574,6.1,6.1,0,0,0-4.372-.161c-.408-.108-5.919-2.491-8.751,2.173a6.558,6.558,0,0,0-1.064,4.27l2.738-.22.993-1.786c.431.073.729,1.831.729,1.831l6.36-.213.378-2.248c.462.067.585,3.507,1.112,4.6-.705-.394-.879-1.555-.981-2.582l-.083.494c-.221.193-6.973.419-6.973.419a4.776,4.776,0,0,1-.457-1.5l-.732,1.315c-.184.12-3.254.366-3.254.366-.266-.257-.791-2.305.838-4.99,2.843-4.682,8.312-2.7,9.073-2.4a6.435,6.435,0,0,1,4.65.211,5.851,5.851,0,0,1,2.87,3.862c1.485,5.178-.119,9.873-3.812,11.166a.207.207,0,0,1-.076.013" transform="translate(-5.047 -1.917)" fill="#1a1a1a"/>
      <path id="Trazado_605542" data-name="Trazado 605542" d="M152.668,63.789c-1.357-1.6-2.66-.777-2.716-.741-.238-.4,1.459-1.492,2.9.367-.083.359-.133.374-.183.374" transform="translate(-5.304 -2.206)" fill="#1a1a1a"/>
      <path id="Trazado_605543" data-name="Trazado 605543" d="M186.127,121.541c-3.449.711-6.75-1.8-7.531-5.585s1.034-7.427,4.483-8.138Z" transform="translate(-6.312 -3.814)" fill="#1a1a1a"/>
      <path id="Trazado_605544" data-name="Trazado 605544" d="M184.936,121.885a6.974,6.974,0,0,1-6.575-5.892,7.989,7.989,0,0,1,.678-5.377,5.805,5.805,0,0,1,3.985-3.035,8.1,8.1,0,0,0-3.576,3.253,7.537,7.537,0,0,0-.633,5.065c.766,3.712,3.953,6.079,7.257,5.4a1.136,1.136,0,0,1-1.136.581" transform="translate(-6.303 -3.806)" fill="#1a1a1a"/>
      <path id="Trazado_605545" data-name="Trazado 605545" d="M129.506,127.481a6.522,6.522,0,0,0,1.073-5.445l-7.936-20.667a5.946,5.946,0,0,0-5.7-3.43H86.822a11.6,11.6,0,0,0-4.715,1.525,7.351,7.351,0,0,1,4.715-1.988h30.122a6.411,6.411,0,0,1,6.132,3.726l7.935,20.668a5.588,5.588,0,0,1-1.356,5.558.233.233,0,0,1-.15.053" transform="translate(-2.905 -3.448)" fill="#1a1a1a"/>
      <path id="Trazado_605546" data-name="Trazado 605546" d="M123.046,129.765H92.924a6.409,6.409,0,0,1-6.131-3.727l-2.223-5.789c.434-.166,2.657,5.623,2.657,5.623a5.947,5.947,0,0,0,5.7,3.43h30.122a6.227,6.227,0,0,0,5.209-2.5,4.078,4.078,0,0,0,.489-3.868l-7.935-20.668a5.949,5.949,0,0,0-5.7-3.431H84.988a6.225,6.225,0,0,0-5.208,2.5,4.085,4.085,0,0,0-.489,3.869l2.342,6.1c-.433.166-2.776-5.933-2.776-5.933a4.528,4.528,0,0,1,.541-4.3,6.686,6.686,0,0,1,5.59-2.7H115.11a6.411,6.411,0,0,1,6.132,3.729l7.936,20.667a4.531,4.531,0,0,1-.54,4.3,6.692,6.692,0,0,1-5.592,2.7" transform="translate(-2.779 -3.48)" fill="#1a1a1a"/>
      <path id="Trazado_605547" data-name="Trazado 605547" d="M103.811,117.528a2.622,2.622,0,0,1-1.175-.3,4.979,4.979,0,0,1-2.537-4.394,1.988,1.988,0,0,1,3.082-1.778,4.971,4.971,0,0,1,2.537,4.393,2.162,2.162,0,0,1-.99,1.842,1.809,1.809,0,0,1-.917.24m-1.8-6.315a1.371,1.371,0,0,0-.687.176,1.728,1.728,0,0,0-.759,1.47,4.519,4.519,0,0,0,2.282,3.95,1.53,1.53,0,0,0,2.411-1.39,4.52,4.52,0,0,0-2.282-3.952,2.17,2.17,0,0,0-.965-.254" transform="translate(-3.541 -3.918)" fill="#1a1a1a"/>
      <path id="Trazado_605548" data-name="Trazado 605548" d="M143.725,132.086H92.318a1.836,1.836,0,0,1-1.736-1.79c.481.6,1.03,1.308,1.736,1.308h51.407a1.206,1.206,0,0,0,1.255-1.145v-.74a1.205,1.205,0,0,0-1.255-1.145H128.679c0-.483,15.046-.483,15.046-.483a1.686,1.686,0,0,1,1.736,1.628v.74a1.686,1.686,0,0,1-1.736,1.627" transform="translate(-3.205 -4.532)" fill="#1a1a1a"/>
      <path id="Trazado_605549" data-name="Trazado 605549" d="M91.242,146.483a17.277,17.277,0,0,1,7.5-14.706c.164.444-7.243,4.995-7.271,14.473a.233.233,0,0,1-.232.232" transform="translate(-3.228 -4.662)" fill="#1a1a1a"/>
      <path id="Trazado_605550" data-name="Trazado 605550" d="M162.187,134.468c-.465,0-.946-.021-1.439-.068a66.23,66.23,0,0,1-10.507-2.194h-4.567c0-.464,4.6-.464,4.6-.464a67.723,67.723,0,0,0,10.516,2.195,15.925,15.925,0,0,0,8.183-1.457c.081.482-2.828,1.985-6.787,1.987" transform="translate(-5.154 -4.661)" fill="#1a1a1a"/>
      <path id="Trazado_605551" data-name="Trazado 605551" d="M157.766,74.595c1.787-.939,2.822-1.641,3.016-2.545.307-1.434-1.59-2.983-1.609-3,.378-.291,2.43,1.38,2.062,3.094-.232,1.092-1.38,1.912-3.41,2.441a.212.212,0,0,1-.06.008" transform="translate(-5.581 -2.442)" fill="#1a1a1a"/>
      <path id="Trazado_605552" data-name="Trazado 605552" d="M170.984,80.179c-3.156-8.093-9.72-7.353-9.785-7.344.013-.47,6.939-1.255,10,7.032-.163.307-.191.312-.217.312" transform="translate(-5.703 -2.567)" fill="#1a1a1a"/>
      <path id="Trazado_605553" data-name="Trazado 605553" d="M127.435,107.9a48.726,48.726,0,0,0,4.321-11.864c4.445-18.718,17.871-19.428,18-19.433-.114.469-13.193,1.181-17.553,19.54A35.942,35.942,0,0,1,127.63,107.8a.231.231,0,0,1-.195.105" transform="translate(-4.508 -2.71)" fill="#1a1a1a"/>
      <path id="Trazado_605554" data-name="Trazado 605554" d="M166.031,71.2c-.231-.232-.231-37.631-.231-37.631a5.412,5.412,0,0,0-5.469-5.337h-82.7c0-.464,82.7-.464,82.7-.464a5.875,5.875,0,0,1,5.932,5.8v37.4a.231.231,0,0,1-.232.232" transform="translate(-2.746 -0.982)" fill="#1a1a1a"/>
      <path id="Trazado_605555" data-name="Trazado 605555" d="M24.487,68.552c-.232-.232-.232-7.1-.232-7.1.463,0,.463,6.869.463,6.869a.232.232,0,0,1-.232.232" transform="translate(-0.858 -2.174)" fill="#1a1a1a"/>
      <path id="Trazado_605556" data-name="Trazado 605556" d="M85.212,128.564H48.361c0-.463,36.851-.463,36.851-.463.232.36.128.463,0,.463" transform="translate(-1.711 -4.532)" fill="#1a1a1a"/>
      <path id="Trazado_605557" data-name="Trazado 605557" d="M71.905,44.48c-.105-.025-10.127-5.144-10.127-5.144a13.2,13.2,0,0,0-8.978-.662l-7.513,2.549a12.547,12.547,0,0,1-9.2-.969l-8.054-4.8c-.094-.067-7.952-5.57-13.974.645-4.387,4.531-7.4,7.572-7.431,7.6-.3-.357,2.713-3.4,7.1-7.925,6.3-6.51,14.48-.769,14.562-.709l8.037,4.786a12.034,12.034,0,0,0,8.813.928l7.512-2.548a13.728,13.728,0,0,1,9.338.686l10.021,5.12c.061.393-.021.438-.106.438" transform="translate(-0.234 -1.156)" fill="#1a1a1a"/>
      <path id="Trazado_605558" data-name="Trazado 605558" d="M54.28,28.221a5.991,5.991,0,1,1,5.989-5.991,6,6,0,0,1-5.989,5.991m0-11.519a5.528,5.528,0,1,0,5.526,5.527A5.535,5.535,0,0,0,54.28,16.7" transform="translate(-1.708 -0.574)" fill="#1a1a1a"/>
      <path id="Trazado_605559" data-name="Trazado 605559" d="M137.619,127.239c2.505-1.459,2.805-9.163,2.6-13.094-.774-15.019-.671-18.865.053-23.5-.26,4.675-.361,8.5.41,23.479.063,1.2.5,11.743-2.981,13.105a.238.238,0,0,1-.085.014" transform="translate(-4.869 -3.207)" fill="#1a1a1a"/>
      <path id="Trazado_605560" data-name="Trazado 605560" d="M132.81,128.045c5.221-4.041,7.279-11.82,7.3-11.9.429.2-1.673,8.145-7.168,11.859a.234.234,0,0,1-.13.04" transform="translate(-4.699 -4.109)" fill="#1a1a1a"/>
      <path id="Trazado_605561" data-name="Trazado 605561" d="M141.529,14.011h-8.373a1.4,1.4,0,0,1-1.293-.612,1.4,1.4,0,0,1,.122-1.425l4.168-7.137a1.274,1.274,0,0,1,2.374,0l4.171,7.138a1.4,1.4,0,0,1,.123,1.425,1.4,1.4,0,0,1-1.293.612M137.341,4.49a.983.983,0,0,0-.787.582l-4.167,7.137a.967.967,0,0,0-.121.96.968.968,0,0,0,.89.379h8.373a.965.965,0,0,0,.889-.379.967.967,0,0,0-.121-.96l-4.172-7.138a.983.983,0,0,0-.785-.581" transform="translate(-4.66 -0.142)" fill="#1a1a1a"/>
      <path id="Trazado_605562" data-name="Trazado 605562" d="M144.156,17.642h-16.14a3.313,3.313,0,0,1-3.31-3.31V3.427a3.313,3.313,0,0,1,3.31-3.309h18.293a3.313,3.313,0,0,1,3.31,3.309V12.4c-.463,0-.463-8.977-.463-8.977A2.849,2.849,0,0,0,146.309.582H128.016a2.848,2.848,0,0,0-2.846,2.845V14.333a2.849,2.849,0,0,0,2.846,2.847h16.14c.231.36.128.463,0,.463" transform="translate(-4.412 -0.004)" fill="#1a1a1a"/>
      <path id="Trazado_605563" data-name="Trazado 605563" d="M32.8,110.532c-.129-.016-9.446-1.532-13.143-9.29-3.136-6.583-1.421-15.578,5.1-26.732.427.068,8.271,35.74,8.271,35.74-.1.255-.163.282-.227.282M24.856,75.26c-6.192,10.775-7.8,19.446-4.783,25.78,3.2,6.712,10.737,8.618,12.422,8.967Z" transform="translate(-0.642 -2.636)" fill="#1a1a1a"/>
      <path id="Trazado_605564" data-name="Trazado 605564" d="M18.676,129.855c-2.424,0-4.852-1.621-7.254-4.855,3.883,4.452,7.419,5.579,10.884,3.074,2.506-1.813,3.449-4.061,2.8-6.681-1.775-7.157-14.685-15.049-21.852-16.254.293,1.066,1.272,4.5,2.788,8.417a50.283,50.283,0,0,1-3.329-8.643c7.461.727,21,8.93,22.844,16.368.7,2.822-.3,5.235-2.98,7.169a6.621,6.621,0,0,1-3.9,1.4" transform="translate(-0.096 -3.712)" fill="#1a1a1a"/>
      <path id="Trazado_605565" data-name="Trazado 605565" d="M39.18,133.036a6.965,6.965,0,0,1-3.093-.784c-2.872-1.416-4.218-3.587-4-6.449.588-7.781,13.113-18.885,20.33-21.177.194,1.186-2.408,23.3-10.416,27.67a5.834,5.834,0,0,1-2.821.741m13.031-27.853c-7.152,2.489-19.1,13.159-19.662,20.654-.2,2.657,1.058,4.675,3.743,6a5.671,5.671,0,0,0,5.486.052c7.253-3.96,10.056-23.769,10.433-26.706" transform="translate(-1.134 -3.701)" fill="#1a1a1a"/>
      <path id="Trazado_605566" data-name="Trazado 605566" d="M29.59,145.887c-6.566-22.809-18.7-34.4-18.818-34.509.441-.223,12.664,11.452,19.042,34.214-.182.292-.2.3-.224.3" transform="translate(-0.381 -3.94)" fill="#1a1a1a"/>
      <path id="Trazado_605567" data-name="Trazado 605567" d="M33.335,146.594c-.232-.241.33-15.244.33-15.244.464.018-.1,15.021-.1,15.021a.231.231,0,0,1-.232.223" transform="translate(-1.177 -4.647)" fill="#1a1a1a"/>
      <path id="Trazado_605568" data-name="Trazado 605568" d="M33.621,121.738c-.232-.226-.524-10.118-.524-10.118.463-.013.755,9.879.755,9.879-.228.239-.23.239-.232.239" transform="translate(-1.171 -3.949)" fill="#1a1a1a"/>
      <path id="Trazado_605569" data-name="Trazado 605569" d="M37.31,145.9c-4.083-24.094,10.343-35.977,10.489-36.094.147.477-14.07,12.2-10.261,35.825-.2.269-.217.269-.229.269" transform="translate(-1.294 -3.885)" fill="#1a1a1a"/>
      <path id="Trazado_605570" data-name="Trazado 605570" d="M74.615,75.762a1.012,1.012,0,0,1-.783-.447l-4.291-7.278c-.608-.156-3.558,1.585-3.558,1.585a.909.909,0,0,1-1.368-.739l-.628-12.824a.907.907,0,0,1,1.384-.815L76.288,62a.907.907,0,0,1-.016,1.553l-2.677,1.577a.445.445,0,0,0-.155.608l4.291,7.278a.909.909,0,0,1-.32,1.242l-2.336,1.377a.917.917,0,0,1-.458.125m-5.459-8.408a.907.907,0,0,1,.783.449l4.293,7.278c.6.154,2.942-1.222,2.942-1.222a.443.443,0,0,0,.156-.606l-4.292-7.278a.911.911,0,0,1,.32-1.243l2.677-1.578a.442.442,0,0,0,.007-.757L65.126,55.639a.443.443,0,0,0-.675.4l.628,12.824a.438.438,0,0,0,.232.368.445.445,0,0,0,.435-.009L68.7,67.479a.914.914,0,0,1,.459-.125" transform="translate(-2.264 -1.95)" fill="#1a1a1a"/>
      <path id="Trazado_605571" data-name="Trazado 605571" d="M133.749,46.055h-30.6c0-.463,30.6-.463,30.6-.463.231.36.127.463,0,.463" transform="translate(-3.649 -1.613)" fill="#1a1a1a"/>
      <path id="Trazado_605572" data-name="Trazado 605572" d="M133.749,51.4h-30.6c0-.464,30.6-.464,30.6-.464.231.36.127.464,0,.464" transform="translate(-3.649 -1.802)" fill="#1a1a1a"/>
      <path id="Trazado_605573" data-name="Trazado 605573" d="M91.979,52.025a3.59,3.59,0,1,1,3.59-3.589,3.593,3.593,0,0,1-3.59,3.589m0-6.716a3.126,3.126,0,1,0,3.126,3.126,3.129,3.129,0,0,0-3.126-3.126" transform="translate(-3.127 -1.587)" fill="#1a1a1a"/>
      <path id="Trazado_605574" data-name="Trazado 605574" d="M133.749,60.459h-30.6c0-.464,30.6-.464,30.6-.464.231.36.127.464,0,.464" transform="translate(-3.649 -2.122)" fill="#1a1a1a"/>
      <path id="Trazado_605575" data-name="Trazado 605575" d="M133.749,65.807h-30.6c0-.464,30.6-.464,30.6-.464.231.36.127.464,0,.464" transform="translate(-3.649 -2.312)" fill="#1a1a1a"/>
      <path id="Trazado_605576" data-name="Trazado 605576" d="M91.979,66.428a3.59,3.59,0,1,1,3.59-3.59,3.594,3.594,0,0,1-3.59,3.59m0-6.717a3.126,3.126,0,1,0,3.126,3.126,3.129,3.129,0,0,0-3.126-3.126" transform="translate(-3.127 -2.096)" fill="#1a1a1a"/>
      <path id="Trazado_605577" data-name="Trazado 605577" d="M133.749,74.767h-30.6c0-.463,30.6-.463,30.6-.463.231.36.127.463,0,.463" transform="translate(-3.649 -2.629)" fill="#1a1a1a"/>
      <path id="Trazado_605578" data-name="Trazado 605578" d="M133.749,80.116h-30.6c0-.464,30.6-.464,30.6-.464.231.36.127.464,0,.464" transform="translate(-3.649 -2.818)" fill="#1a1a1a"/>
      <path id="Trazado_605579" data-name="Trazado 605579" d="M91.979,80.737a3.59,3.59,0,1,1,3.59-3.59,3.593,3.593,0,0,1-3.59,3.59m0-6.716a3.126,3.126,0,1,0,3.126,3.125,3.128,3.128,0,0,0-3.126-3.125" transform="translate(-3.127 -2.602)" fill="#1a1a1a"/>
      <path id="Trazado_605580" data-name="Trazado 605580" d="M70.291,98.517H46.174c0-.464,23.885-.464,23.885-.464V89.441c.464,0,.464,8.844.464,8.844a.233.233,0,0,1-.232.232" transform="translate(-1.634 -3.164)" fill="#1a1a1a"/>
      <path id="Trazado_605581" data-name="Trazado 605581" d="M39.055,95.528c-.232-.232-.232-18.085-.232-18.085.232-.232,28.814-.232,28.814-.232,0,.463-28.35.463-28.35.463V95.3a.231.231,0,0,1-.232.232" transform="translate(-1.373 -2.732)" fill="#1a1a1a"/>
    </g>
  </g>
</svg>
