<svg xmlns="http://www.w3.org/2000/svg" xmlns:xlink="http://www.w3.org/1999/xlink" width="357" height="243" viewBox="0 0 357 243">
  <defs>
    <clipPath id="clip-path">
      <rect id="Rectángulo_346416" data-name="Rectángulo 346416" width="251" height="227.939" fill="none"/>
    </clipPath>
    <clipPath id="clip-path-2">
      <rect id="Rectángulo_346391" data-name="Rectángulo 346391" width="34.961" height="34.97" fill="#fff198"/>
    </clipPath>
  </defs>
  <g id="Grupo_1015819" data-name="Grupo 1015819" transform="translate(-328 -5535)">
    <rect id="Rectángulo_346417" data-name="Rectángulo 346417" width="357" height="54" rx="27" transform="translate(328 5724)" fill="#a3bfe4"/>
    <g id="Grupo_1015818" data-name="Grupo 1015818" transform="translate(-37 3)">
      <g id="Grupo_1015816" data-name="Grupo 1015816" transform="translate(418 5532)">
        <g id="Grupo_1015815" data-name="Grupo 1015815" clip-path="url(#clip-path)">
          <path id="Trazado_606641" data-name="Trazado 606641" d="M199.485,102.974h-82.9a8.549,8.549,0,0,1-8.524-8.525V45.906a8.548,8.548,0,0,1,8.524-8.525h82.9a8.55,8.55,0,0,1,8.525,8.525V94.449a8.551,8.551,0,0,1-8.525,8.525" transform="translate(42.614 14.741)" fill="#fff"/>
          <path id="Trazado_606642" data-name="Trazado 606642" d="M198.987,37.382H117.081A9.048,9.048,0,0,0,108.06,46.4c0,.556,99.95.556,99.95.556,0-5.519-4.06-9.579-9.023-9.579" transform="translate(42.614 14.742)" fill="#1a1a1a"/>
          <path id="Trazado_606643" data-name="Trazado 606643" d="M143.147,124.14H188.07a9.578,9.578,0,0,1,9.55,9.55v27.5a9.578,9.578,0,0,1-9.55,9.549H143.147a9.578,9.578,0,0,1-9.55-9.549v-27.5a9.578,9.578,0,0,1,9.55-9.55" transform="translate(52.684 48.955)" fill="#1a1a1a"/>
          <path id="Trazado_606644" data-name="Trazado 606644" d="M159.061,100.516l-3.438,10.477s-3.175-10.607-12.121-14.051-13.854-2.425-13.854-2.425,2.652-1.834,2.309-4.158-4.19-4.175-4.19-4.175l-14.657.526s-3.436,1.279-3.65,3.843a4.583,4.583,0,0,0,1.827,3.964s-7.863-.4-12.426,1.683S87.975,100.8,84.6,110.993a87.711,87.711,0,0,0-3.71,21.777l-15.357,3.9s-4.345,2.628-3.681,4.295l3.139,17.362s3.355,14.531,14.116,14.519S92.644,164.9,92.644,164.9s-3.065,22.774-5.485,28.673h66.3s-4.89-18.786-6.386-33.905c0,0-1.5-11.7-.785-16.329,0,0,1.407,12.573,10.345,14.68s14.376-2.925,17.509-10.334,4.986-20.933,5.633-24.981,2.9-18.609,2.9-18.609.439-3.07-10.532-4.638-12.21-1.3-13.086,1.057" transform="translate(24.363 33.987)" fill="#33ece0"/>
          <path id="Trazado_606645" data-name="Trazado 606645" d="M107.522,135.137H45.274a8.551,8.551,0,0,1-8.526-8.525V88.5a8.551,8.551,0,0,1,8.526-8.525h62.248a8.55,8.55,0,0,1,8.525,8.525v38.113a8.55,8.55,0,0,1-8.525,8.525" transform="translate(14.492 31.538)" fill="#fff"/>
          <path id="Trazado_606646" data-name="Trazado 606646" d="M89.116,44.459a19.19,19.19,0,1,1-19.19-19.192,19.191,19.191,0,0,1,19.19,19.192" transform="translate(20.007 9.964)" fill="#ffce26"/>
          <path id="Trazado_606647" data-name="Trazado 606647" d="M95.287,84.889S92.336,73.5,97.808,71.923a16.286,16.286,0,0,1,4.267-3.286s-5.128-6.291-3.862-9.724,4.876-4.286,9.246-4.335,9.176,1.283,9.455,4.656-4.1,9.3-4.1,9.3,6.4,1.641,6.7,6.975a37.51,37.51,0,0,1-.441,8.872l-1.481,1.089-21.242,1.29Z" transform="translate(37.263 21.522)" fill="#1a1a1a"/>
          <path id="Trazado_606648" data-name="Trazado 606648" d="M118.111,86.606s5.863,1.8,5.979-3.742c0,0-.409-4.674-5.444-3.362l-.272-1.1s-4.19.74-9.162-2.75a88.844,88.844,0,0,1-7.707-5.958,69.951,69.951,0,0,1-3.387,7.2L98.112,79.6s-4.758-1.482-5.621,3.259c0,0,.013,3.779,3.042,4.066s2.885-.559,2.885-.559.7,5.833,3.954,7.523l-.314,4.281s2.294,2.105,6.664,1.585,5.72-1.683,5.72-1.683l-.243-4.183s3.162-2.082,3.911-7.287" transform="translate(36.474 27.486)" fill="#fff"/>
          <path id="Trazado_606649" data-name="Trazado 606649" d="M135.194,103.132s2.506-5.671,2.242-6.952-2.768-4.111-4.007-5.155-1.254-3.13,0-3.832,3.224.007,5.12,1.654,4.253,4.193,5.107,4.159c0,0,6.524-4.919,9.3-5.63s4.08-.862,4.783.286c0,0,2.309.12,2.842,1.755,0,0,1.972-.4,2.676.795s-.262,3.512-2.56,5.119a31.1,31.1,0,0,1-8.383,4.316c-2.563.667-3.578,6.413-3.578,6.413s-8.609-.284-13.539-2.927" transform="translate(52.249 34.238)" fill="#fff"/>
          <path id="Trazado_606650" data-name="Trazado 606650" d="M82.525,133.636l-1.654-6.1s2.5-3.049,1.053-9.076-5.456-4.766-5.456-4.766a80.489,80.489,0,0,1-3.165-9.154c-.713-3.171-2.727-7-5.377-6.489S64.9,102.8,65.7,106.115s2.538,8.122,2.538,8.122-2.994-2.591-4.12-2.5-3.431,1.019-4.038,2.439a12.964,12.964,0,0,0-.818,2.849,4.569,4.569,0,0,0-2.316,3.475c-.071,2.26,1.5,4.661,7.464,8.287a5.264,5.264,0,0,0,4.219,3.448l.878,5.342a33.7,33.7,0,0,0,6.965-1.456c3.08-1.1,6.057-2.481,6.057-2.481" transform="translate(22.454 38.65)" fill="#fff"/>
          <path id="Trazado_606651" data-name="Trazado 606651" d="M180.957,88.366,163.271,77.419a1.094,1.094,0,0,0-1.669.984l1.018,20.774a1.093,1.093,0,0,0,1.648.888l4.781-2.819a1.094,1.094,0,0,1,1.5.388l6.954,11.791a1.092,1.092,0,0,0,1.5.386l3.784-2.231a1.094,1.094,0,0,0,.388-1.5l-6.954-11.792a1.094,1.094,0,0,1,.388-1.5l4.334-2.557a1.092,1.092,0,0,0,.021-1.871" transform="translate(63.728 30.465)" fill="#afafaf"/>
          <path id="Trazado_606652" data-name="Trazado 606652" d="M63.577,54.327v7.541s.668,3.756,5.583,3.756,5.968-3.358,5.968-3.358l.236-7.935s-4.809,2.227-11.786,0" transform="translate(25.072 21.424)" fill="#1a1a1a"/>
          <path id="Trazado_606653" data-name="Trazado 606653" d="M75.279,98.111a7.87,7.87,0,1,1-7.87-7.87,7.87,7.87,0,0,1,7.87,7.87" transform="translate(23.48 35.587)" fill="#ffce26"/>
          <path id="Trazado_606654" data-name="Trazado 606654" d="M177.6,41.543a2.789,2.789,0,1,1-2.789-2.789,2.789,2.789,0,0,1,2.789,2.789" transform="translate(67.839 15.283)" fill="#ffce26"/>
          <path id="Trazado_606655" data-name="Trazado 606655" d="M171.655,41.543a2.789,2.789,0,1,1-2.789-2.789,2.79,2.79,0,0,1,2.789,2.789" transform="translate(65.493 15.283)" fill="#fff"/>
          <path id="Trazado_606656" data-name="Trazado 606656" d="M165.705,41.543a2.789,2.789,0,1,1-2.789-2.789,2.789,2.789,0,0,1,2.789,2.789" transform="translate(63.147 15.283)" fill="#fff"/>
          <path id="Trazado_606657" data-name="Trazado 606657" d="M65.156,122.391l1.357.305,1.3,5.35s-5.655.173-5.973-1.362,3.32-4.293,3.32-4.293" transform="translate(24.377 48.265)" fill="#1a1a1a"/>
          <path id="Trazado_606658" data-name="Trazado 606658" d="M74.338,120.038l1.326,5.11s5.049-2.617,3.874-4.576-5.2-.534-5.2-.534" transform="translate(29.315 47.14)" fill="#1a1a1a"/>
          <path id="Trazado_606659" data-name="Trazado 606659" d="M137.071,95.059s-.757,4.318-1.544,4.834-4.427-1.663-3.809-3.423,5.353-1.411,5.353-1.411" transform="translate(51.915 37.476)" fill="#1a1a1a"/>
          <path id="Trazado_606660" data-name="Trazado 606660" d="M145.991,96.649s-1.887,3.883-1.708,5.451c0,0,5.536.028,5.865-2.129.261-1.709-4.157-3.321-4.157-3.321" transform="translate(56.894 38.114)" fill="#1a1a1a"/>
          <path id="Trazado_606661" data-name="Trazado 606661" d="M50.664,90.528a3.191,3.191,0,1,1-3.192-3.192,3.192,3.192,0,0,1,3.192,3.192" transform="translate(17.463 34.441)" fill="#1a1a1a"/>
          <path id="Trazado_606662" data-name="Trazado 606662" d="M92.871,101.23a3.191,3.191,0,1,1-3.192-3.192,3.191,3.191,0,0,1,3.192,3.192" transform="translate(34.107 38.661)" fill="#1a1a1a"/>
          <rect id="Rectángulo_346415" data-name="Rectángulo 346415" width="15.521" height="15.521" transform="translate(163.17 69.712)" fill="#983333"/>
          <path id="Trazado_606663" data-name="Trazado 606663" d="M116.534,84.355a37.51,37.51,0,0,0,.441-8.872c-.3-5.335-6.7-6.976-6.7-6.976s4.384-5.927,4.1-9.3c-.237-2.85-3.709-4.237-7.417-4.571,1.96,2.238,5.9,8-.2,13.285a8.4,8.4,0,0,1,4.985,8.975c-.9,6.648-10.827,1.425-10.827,1.425s3.476,4.558,5.812,7.626l8.326-.5Z" transform="translate(39.796 21.546)" fill="#fff"/>
          <path id="Trazado_606665" data-name="Trazado 606665" d="M135.266,103.739c.823-3.055,2.437-7.426,1.818-8.426a11.808,11.808,0,0,0-2.613-2.871c-.337-.29-.664-.573-.966-.87-1.825-1.785-1.394-3.162-1.122-3.669a2.747,2.747,0,0,1,3.03-1.2c2.269.468,5.006,3.147,7.2,5.3,1.46,1.428,5.978,1.426,7.616,1.326a.361.361,0,0,1,.4.351c-.6.417-6.584.774-8.345-.95-2.21-2.165-4.971-4.869-7.022-5.292a2.016,2.016,0,0,0-2.216.818c-.4.76-.045,1.774.984,2.78.293.286.607.558.933.838a12.614,12.614,0,0,1,2.759,3.044c1.014,1.633-1.584,7.453-2.115,8.6a.376.376,0,0,1-.342.219" transform="translate(52.107 34.162)" fill="#1a1a1a"/>
          <path id="Trazado_606666" data-name="Trazado 606666" d="M145.6,105.807a.385.385,0,0,1-.371-.434c.036-.247.955-6.038,3.862-6.721,2.818-.662,10.127-4.228,10.9-7.835a1.226,1.226,0,0,0-.354-1.22,2.166,2.166,0,0,0-2.087-.305c-1.67.508-7.831,4.073-7.891,4.108-.3.039-6.485-.7-9.239,2.285,2.266-3.561,8.009-3.1,8.968-3a74.311,74.311,0,0,1,7.942-4.116,2.912,2.912,0,0,1,2.815.471,1.992,1.992,0,0,1,.58,1.931c-.906,4.21-9.014,7.833-11.466,8.408-2.006.473-3.058,4.568-3.293,6.1a.375.375,0,0,1-.371.321" transform="translate(55.378 34.866)" fill="#1a1a1a"/>
          <path id="Trazado_606667" data-name="Trazado 606667" d="M143.016,93.827c.809-1.316,9.689-6.781,11.48-6.544a2.561,2.561,0,0,1,2.3,2.037c-.754.056-.991-1.138-2.384-1.29-1.181-.137-7.486,3.455-11.2,5.741a.381.381,0,0,1-.2.056" transform="translate(56.399 34.417)" fill="#1a1a1a"/>
          <path id="Trazado_606668" data-name="Trazado 606668" d="M140.361,93.534c-.05-.792,3.632-3.208,4.509-3.678.421-.224.917-.517,1.458-.839,1.871-1.106,4.2-2.483,5.9-2.571,2.342-.139,2.821,1.372,2.838,1.435-.74.155-1.068-.778-2.8-.683-1.521.077-3.854,1.457-5.558,2.467-.552.328-1.06.627-1.486.858-.849.452-4.621,2.928-4.659,2.952a.375.375,0,0,1-.206.061" transform="translate(55.351 34.086)" fill="#1a1a1a"/>
          <path id="Trazado_606669" data-name="Trazado 606669" d="M229.992,163.686H36.749c0-.752,193.243-.752,193.243-.752.376.583.208.752,0,.752" transform="translate(14.492 64.253)" fill="#1a1a1a"/>
          <path id="Trazado_606670" data-name="Trazado 606670" d="M100.145,76.739c.3-.047.5.081.588,1.163.1,1.206-.218,1.418-.487,1.407s-.542-.382-.53-1.244.035-1.265.428-1.326" transform="translate(39.323 30.259)" fill="#1a1a1a"/>
          <path id="Trazado_606671" data-name="Trazado 606671" d="M107.544,76.809c.3-.039.5.095.558,1.18.064,1.206-.254,1.411-.524,1.394s-.531-.4-.495-1.259.067-1.262.462-1.315" transform="translate(42.227 30.287)" fill="#1a1a1a"/>
          <path id="Trazado_606672" data-name="Trazado 606672" d="M96.511,84.826a4.419,4.419,0,0,1-3.222-1.454,4.3,4.3,0,0,1,.381-6.061,4.165,4.165,0,0,1,3.109-1.064,4.267,4.267,0,0,1,1.323.3A1.484,1.484,0,0,1,96.73,77a3.6,3.6,0,0,0-2.564.88,3.543,3.543,0,0,0,2.122,6.192,3.661,3.661,0,0,0,1.852-.39,1.452,1.452,0,0,1-1.629,1.149" transform="translate(36.365 30.063)" fill="#1a1a1a"/>
          <path id="Trazado_606673" data-name="Trazado 606673" d="M94.819,82.252c-.23-.673,2.019-2.411,2.019-2.411l-2.52-1.867c.448-.6,3.369,1.557,3.369,1.557.006.6-2.638,2.642-2.638,2.642a.376.376,0,0,1-.23.078" transform="translate(37.194 30.707)" fill="#1a1a1a"/>
          <path id="Trazado_606674" data-name="Trazado 606674" d="M112.905,84.825a4.28,4.28,0,0,1-1.974-.481,5.416,5.416,0,0,1,2.2-.277,3.543,3.543,0,0,0,2.121-6.192,3.542,3.542,0,0,0-3.728-.605c.152-.881.627-.994,1.115-1.025a4.295,4.295,0,1,1,.54,8.572q-.136.008-.272.008" transform="translate(43.746 30.064)" fill="#1a1a1a"/>
          <path id="Trazado_606675" data-name="Trazado 606675" d="M113.781,82.392c-.23-.078-2.877-2.121-2.877-2.121.007-.6,2.928-2.759,2.928-2.759.449.6-2.073,2.469-2.073,2.469l2.252,1.737c-.007.623-.119.673-.23.673" transform="translate(43.735 30.567)" fill="#1a1a1a"/>
          <path id="Trazado_606676" data-name="Trazado 606676" d="M136.731,153.838c-.4,0-.812-.015-1.23-.049-6.457-.5-13.309-5.526-13.182-18.1.63,12.067,7.124,16.874,13.241,17.353.392.031.774.045,1.149.045,12.75,0,15.769-17.364,16.781-23.181,1.52-8.734,4.911-30.52,4.944-30.74.71.336-2.683,22.128-4.2,30.87-1.039,5.975-4.138,23.8-17.5,23.8" transform="translate(48.236 39.105)" fill="#1a1a1a"/>
          <path id="Trazado_606677" data-name="Trazado 606677" d="M125.528,131.827a.383.383,0,0,1-.375-.41,100.47,100.47,0,0,1,2.206-13.372,186.6,186.6,0,0,1,6.569-22.078c.665.363-2.924,9.748-5.838,22.248a99.955,99.955,0,0,0-2.186,13.27.379.379,0,0,1-.375.342" transform="translate(49.354 37.845)" fill="#1a1a1a"/>
          <path id="Trazado_606678" data-name="Trazado 606678" d="M106.8,93.858a10.867,10.867,0,0,1-6.739-2.071c-1.658-1.318-2.755-3.433-3.355-6.47a83.021,83.021,0,0,1-.449-10.4c.59-.365.756-.2.752.013a83.1,83.1,0,0,0,.435,10.246c.563,2.853,1.573,4.823,3.087,6.026a10.124,10.124,0,0,0,6.269,1.907c.376.583.208.752,0,.752" transform="translate(37.957 29.458)" fill="#1a1a1a"/>
          <path id="Trazado_606679" data-name="Trazado 606679" d="M103.819,93.366c1.767-.752,4.286-1.082,6.272-2.659,1.513-1.2,2.522-3.174,3.086-6.026a59.591,59.591,0,0,0,.376-8.733c.781,1.761.768,6.818.361,8.878-.6,3.037-1.7,5.154-3.355,6.47a10.868,10.868,0,0,1-6.74,2.071" transform="translate(40.941 29.95)" fill="#1a1a1a"/>
          <path id="Trazado_606680" data-name="Trazado 606680" d="M116.219,78.866c-7.146,0-14.485-6.7-16.363-8.54-.475,1.5-1.785,5.372-3.126,6.889.972-2.235,2.575-7.649,2.591-7.7.718-.064,9.489,8.935,17.367,8.592-.132.759-.3.763-.468.763" transform="translate(38.146 27.412)" fill="#1a1a1a"/>
          <path id="Trazado_606681" data-name="Trazado 606681" d="M99.5,91.47a.383.383,0,0,1-.375-.411c.2-2.1.261-4,.261-4.017.752.042.693,1.966.488,4.09a.376.376,0,0,1-.374.339" transform="translate(39.089 34.325)" fill="#1a1a1a"/>
          <path id="Trazado_606682" data-name="Trazado 606682" d="M108.41,91.279a23.266,23.266,0,0,1-.62-4.221c.752-.006.809,1.786.994,3.809-.351.411-.363.411-.374.411" transform="translate(42.507 34.331)" fill="#1a1a1a"/>
          <path id="Trazado_606683" data-name="Trazado 606683" d="M95.518,81.912c-.456-.579-2.691-7.983-.406-11.866A4.452,4.452,0,0,1,98,67.9a10.285,10.285,0,0,1,6.213-3.882c5.166-.915,13.358.371,15.362,6.067.9,2.552.9,5.469.017,11.145.121-5.654.127-8.475-.725-10.9-1.859-5.279-9.611-6.442-14.524-5.576a9.653,9.653,0,0,0-5.809,3.688,4.312,4.312,0,0,0-2.778,1.981c-2.117,3.6.1,10.923.119,11-.286.481-.323.487-.36.487" transform="translate(37.109 25.141)" fill="#1a1a1a"/>
          <path id="Trazado_606684" data-name="Trazado 606684" d="M79.981,184.984c1.557-4.385,8.89-42.653,6.473-53.628-2.465-11.184,1.492-22.322,1.534-22.432.668.365-3.217,11.305-.8,22.272,2.442,11.078-4.957,49.7-6.869,53.579a.377.377,0,0,1-.337.209" transform="translate(31.541 42.954)" fill="#1a1a1a"/>
          <path id="Trazado_606685" data-name="Trazado 606685" d="M129.995,184.913c-2.249-4.09-9.645-42.715-7.207-53.789,2.419-10.975-1.465-21.907-1.5-22.018.746-.144,4.7,10.994,2.239,22.179-2.416,10.972,4.914,49.242,6.81,53.086-.224.53-.282.542-.337.542" transform="translate(47.828 43.026)" fill="#1a1a1a"/>
          <path id="Trazado_606686" data-name="Trazado 606686" d="M149.1,103.281a35.842,35.842,0,0,1-6.277-.608c-5.474-.989-10.194-3.009-11.223-4.808a1.443,1.443,0,0,1-.155-1.256c.745-2.03,3.691-2.041,6.033-1.7-1.8.494-4.728.321-5.328,1.955a.716.716,0,0,0,.1.623c.913,1.6,5.515,3.5,10.7,4.442a30.794,30.794,0,0,0,8.361.484c2.087-.224,3.412-.789,3.543-1.51.121-.673-1.1-1.967-3.664-3.136,2.46.293,4.661,1.848,4.4,3.27-.2,1.115-1.654,1.85-4.2,2.125a21.52,21.52,0,0,1-2.3.114" transform="translate(51.805 37.362)" fill="#1a1a1a"/>
          <path id="Trazado_606687" data-name="Trazado 606687" d="M80.339,157.846a13.508,13.508,0,0,1-7.645-2.239c-5.7-3.8-7.913-11.516-8.723-15.774-.342-1.793-.752-4.3-1.187-6.962-.383-2.34-.795-4.855-1.219-7.262.51-.481.7-.336.739-.131.427,2.408.838,4.928,1.221,7.272.434,2.653.844,5.159,1.182,6.942.789,4.144,2.93,11.64,8.4,15.289,3.03,2.02,6.708,2.593,10.923,1.709a10.93,10.93,0,0,0,8.869-9.634,10.62,10.62,0,0,1-8.716,10.368,18.62,18.62,0,0,1-3.85.421" transform="translate(24.278 49.407)" fill="#1a1a1a"/>
          <path id="Trazado_606688" data-name="Trazado 606688" d="M85.324,141.22c-3.855-11.145-7.4-20.608-7.433-20.7.74-.17,4.288,9.313,7.79,20.213-.28.487-.319.491-.357.491" transform="translate(30.716 47.525)" fill="#1a1a1a"/>
          <path id="Trazado_606689" data-name="Trazado 606689" d="M65.831,129.607c-2.256,0-3.911-.482-4.26-1.634,1.148,1.2,6.162,1.406,12.663-.561,5.048-1.525,9.4-3.95,10.124-5.637a.721.721,0,0,0,.029-.632c-.743-1.477-3.118-1.189-4.979-.693a.37.37,0,0,1-.46-.266c3.366-1.293,5.329-.923,6.111.62a1.456,1.456,0,0,1-.01,1.267c-.816,1.9-5.273,4.451-10.6,6.061a31.9,31.9,0,0,1-8.62,1.474" transform="translate(24.281 47.085)" fill="#1a1a1a"/>
          <path id="Trazado_606690" data-name="Trazado 606690" d="M61.875,127.151c-.76-1.588,1.325-3.688,3.487-4.99-1.88,2.009-3.338,3.811-3.128,4.505-.289.481-.323.485-.36.485" transform="translate(24.338 48.174)" fill="#1a1a1a"/>
          <path id="Trazado_606691" data-name="Trazado 606691" d="M98.161,76.655c.319-2.361,2.89-2.895,4.421-2.553.238.653.046.788-.166.733-1.249-.272-3.4.192-3.9,1.571a.374.374,0,0,1-.353.248" transform="translate(38.71 29.185)" fill="#1a1a1a"/>
          <path id="Trazado_606692" data-name="Trazado 606692" d="M104.66,85.656a5.785,5.785,0,0,1-1.641-.244c.251-.708,2.072-.134,3.247-.934a2.734,2.734,0,0,0,1.033-2.227,2.033,2.033,0,0,1-.614,2.851,3.589,3.589,0,0,1-2.026.554" transform="translate(40.626 32.436)" fill="#1a1a1a"/>
          <path id="Trazado_606693" data-name="Trazado 606693" d="M102.367,84.688A3.577,3.577,0,0,1,100.79,82.3a1.452,1.452,0,0,1,.428-1.086,1.619,1.619,0,0,1,1.187-.519,2.441,2.441,0,0,1,1.28.434c.227-2.071.388-4.974-.029-5.611,1.382.733.814,5.439.693,6.372-.82.031-1.406-.442-1.944-.442a.881.881,0,0,0-.65.293,2.6,2.6,0,0,0,.863,2.3c-.045.614-.149.655-.251.655" transform="translate(39.746 29.779)" fill="#1a1a1a"/>
          <path id="Trazado_606694" data-name="Trazado 606694" d="M98.459,69.216a13.91,13.91,0,0,1-1.518-1.867c.614-.435,1.825,1.274,1.825,1.274-.155.57-.231.593-.307.593" transform="translate(38.229 26.531)" fill="#1a1a1a"/>
          <path id="Trazado_606695" data-name="Trazado 606695" d="M19.925,131.282a1.638,1.638,0,1,0-1.638-1.637,1.638,1.638,0,0,0,1.638,1.637" transform="translate(7.212 50.48)" fill="#1a1a1a"/>
          <path id="Trazado_606696" data-name="Trazado 606696" d="M29.076,131.391a1.723,1.723,0,1,0-1.722-1.723,1.724,1.724,0,0,0,1.722,1.723" transform="translate(10.787 50.456)" fill="#1a1a1a"/>
          <path id="Trazado_606697" data-name="Trazado 606697" d="M38.169,131.229a1.6,1.6,0,1,0-1.594-1.6,1.595,1.595,0,0,0,1.594,1.6" transform="translate(14.423 50.492)" fill="#1a1a1a"/>
          <path id="Trazado_606698" data-name="Trazado 606698" d="M19.949,140.519a1.722,1.722,0,1,0-1.723-1.722,1.722,1.722,0,0,0,1.723,1.722" transform="translate(7.187 54.056)" fill="#1a1a1a"/>
          <path id="Trazado_606699" data-name="Trazado 606699" d="M29.1,140.629a1.808,1.808,0,1,0-1.807-1.807,1.807,1.807,0,0,0,1.807,1.807" transform="translate(10.763 54.031)" fill="#1a1a1a"/>
          <path id="Trazado_606700" data-name="Trazado 606700" d="M38.193,140.465a1.68,1.68,0,1,0-1.679-1.68,1.68,1.68,0,0,0,1.679,1.68" transform="translate(14.399 54.068)" fill="#1a1a1a"/>
          <path id="Trazado_606701" data-name="Trazado 606701" d="M19.913,149.486a1.6,1.6,0,1,0-1.6-1.6,1.595,1.595,0,0,0,1.6,1.6" transform="translate(7.224 57.691)" fill="#1a1a1a"/>
          <path id="Trazado_606702" data-name="Trazado 606702" d="M29.064,149.593a1.68,1.68,0,1,0-1.679-1.68,1.68,1.68,0,0,0,1.679,1.68" transform="translate(10.799 57.667)" fill="#1a1a1a"/>
          <path id="Trazado_606703" data-name="Trazado 606703" d="M38.161,149.448a1.567,1.567,0,1,0-1.567-1.567,1.568,1.568,0,0,0,1.567,1.567" transform="translate(14.431 57.699)" fill="#1a1a1a"/>
          <path id="Trazado_606704" data-name="Trazado 606704" d="M1.7,131.282a1.638,1.638,0,1,0-1.637-1.637A1.637,1.637,0,0,0,1.7,131.282" transform="translate(0.024 50.48)" fill="#1a1a1a"/>
          <path id="Trazado_606705" data-name="Trazado 606705" d="M10.85,131.391a1.723,1.723,0,1,0-1.722-1.723,1.722,1.722,0,0,0,1.722,1.723" transform="translate(3.6 50.456)" fill="#1a1a1a"/>
          <path id="Trazado_606706" data-name="Trazado 606706" d="M19.943,131.229a1.6,1.6,0,1,0-1.6-1.6,1.595,1.595,0,0,0,1.6,1.6" transform="translate(7.236 50.492)" fill="#1a1a1a"/>
          <path id="Trazado_606707" data-name="Trazado 606707" d="M1.722,140.519A1.722,1.722,0,1,0,0,138.8a1.723,1.723,0,0,0,1.722,1.722" transform="translate(0 54.056)" fill="#1a1a1a"/>
          <path id="Trazado_606708" data-name="Trazado 606708" d="M10.874,140.629a1.808,1.808,0,1,0-1.807-1.807,1.808,1.808,0,0,0,1.807,1.807" transform="translate(3.576 54.031)" fill="#1a1a1a"/>
          <path id="Trazado_606709" data-name="Trazado 606709" d="M19.967,140.465a1.68,1.68,0,1,0-1.68-1.68,1.681,1.681,0,0,0,1.68,1.68" transform="translate(7.212 54.068)" fill="#1a1a1a"/>
          <path id="Trazado_606710" data-name="Trazado 606710" d="M1.686,149.486a1.6,1.6,0,1,0-1.6-1.6,1.595,1.595,0,0,0,1.6,1.6" transform="translate(0.036 57.691)" fill="#1a1a1a"/>
          <path id="Trazado_606711" data-name="Trazado 606711" d="M10.838,149.593a1.68,1.68,0,1,0-1.68-1.68,1.681,1.681,0,0,0,1.68,1.68" transform="translate(3.611 57.667)" fill="#1a1a1a"/>
          <path id="Trazado_606712" data-name="Trazado 606712" d="M19.935,149.448a1.567,1.567,0,1,0-1.567-1.567,1.567,1.567,0,0,0,1.567,1.567" transform="translate(7.243 57.699)" fill="#1a1a1a"/>
          <path id="Trazado_606713" data-name="Trazado 606713" d="M70.7,66.1H68.428a5.125,5.125,0,0,1-5.121-5.117v-6.2a28.609,28.609,0,0,0,12.007-.69c.5.69.5,6.9.5,6.9A5.124,5.124,0,0,1,70.7,66.1M64.059,54.934v6.045a4.372,4.372,0,0,0,4.37,4.366H70.7a4.372,4.372,0,0,0,4.37-4.366V54.945a19.739,19.739,0,0,1-11.007-.011" transform="translate(24.965 21.328)" fill="#1a1a1a"/>
          <path id="Trazado_606714" data-name="Trazado 606714" d="M73.343,66.328A19.558,19.558,0,1,1,79.3,65.4a19.454,19.454,0,0,1-5.959.927m0-38.381A18.816,18.816,0,1,0,92.159,46.762,18.838,18.838,0,0,0,73.343,27.948" transform="translate(21.205 10.725)" fill="#1a1a1a"/>
          <path id="Trazado_606715" data-name="Trazado 606715" d="M59.694,50.341c-.211,0-.413-.006-.6-.014,1.166-.7,2.794-.745,3.864-1.677a3.968,3.968,0,0,0,.619-.693,5.883,5.883,0,0,1-1.248-1.2,5.721,5.721,0,0,1-1.117-4.232c.068-.517.542-2.564,1.6-3.14a1.19,1.19,0,0,1,1.117-.028c.721.337.994,1.325,1.175,1.98a9.089,9.089,0,0,1,.369,2.6,8.654,8.654,0,0,1-.86,3.78,12.583,12.583,0,0,0,6.316,1.115,12.136,12.136,0,0,0,3.988-.685,6.578,6.578,0,0,0,3.174-2.412,4.021,4.021,0,0,1-2.276-2.874,3.586,3.586,0,0,1,.356-1.949,2.413,2.413,0,0,1,1.372-1.347,1.33,1.33,0,0,1,1.252.177c.947.7.986,2.61.984,2.987a6.084,6.084,0,0,1-.619,2.662,17.95,17.95,0,0,0,6.3.795,9.808,9.808,0,0,1-6.678-.134,7.28,7.28,0,0,1-3.606,2.8,12.849,12.849,0,0,1-4.232.732,13.179,13.179,0,0,1-6.726-1.224,4.771,4.771,0,0,1-.77.855,5.639,5.639,0,0,1-3.754,1.125m3.694-10.354c-.844.4-1.334,1.9-1.435,2.641a4.976,4.976,0,0,0,.969,3.674,5.162,5.162,0,0,0,1.043,1.01,7.658,7.658,0,0,0,.752-3.377,8.014,8.014,0,0,0-.3-2.248c-.177-.634-.4-1.454-.812-1.645a.5.5,0,0,0-.216-.054m14.63.254a1.7,1.7,0,0,0-1.173,1,2.8,2.8,0,0,0-.286,1.535,3.1,3.1,0,0,0,1.666,2.188,3.041,3.041,0,0,0,.8-2.232,3.435,3.435,0,0,0-.68-2.377.513.513,0,0,0-.325-.109" transform="translate(23.303 15.472)" fill="#1a1a1a"/>
          <path id="Trazado_606716" data-name="Trazado 606716" d="M172.977,91.361c4.995-.752,9.058-4.631,9.058-9.4V67.785c.752,0,.752,14.175.752,14.175a9.621,9.621,0,0,1-9.809,9.4" transform="translate(68.214 26.731)" fill="#1a1a1a"/>
          <path id="Trazado_606717" data-name="Trazado 606717" d="M107.924,60.13c-.375-.376-.375-13.62-.375-13.62a9.621,9.621,0,0,1,9.808-9.4h81.42a9.622,9.622,0,0,1,9.811,9.4V59.635c-.752,0-.752-13.125-.752-13.125a8.87,8.87,0,0,0-9.059-8.646h-81.42A8.868,8.868,0,0,0,108.3,46.51V59.754a.377.377,0,0,1-.376.376" transform="translate(42.412 14.635)" fill="#1a1a1a"/>
          <path id="Trazado_606718" data-name="Trazado 606718" d="M166.7,84.906H115.473c0-.752,51.231-.752,51.231-.752.376.583.208.752,0,.752" transform="translate(45.537 33.186)" fill="#1a1a1a"/>
          <path id="Trazado_606719" data-name="Trazado 606719" d="M93.585,135.793H82.15c0-.753,11.435-.753,11.435-.753a8.656,8.656,0,0,0,8.646-8.646V89.1a8.656,8.656,0,0,0-8.646-8.648H70.828c0-.753,22.757-.753,22.757-.753a9.41,9.41,0,0,1,9.4,9.4v37.289a9.41,9.41,0,0,1-9.4,9.4" transform="translate(27.931 31.431)" fill="#1a1a1a"/>
          <path id="Trazado_606720" data-name="Trazado 606720" d="M68.264,135.793H45.879a9.41,9.41,0,0,1-9.4-9.4V89.1a9.411,9.411,0,0,1,9.4-9.4H60.911c0,.753-15.033.753-15.033.753A8.657,8.657,0,0,0,37.23,89.1v37.289a8.656,8.656,0,0,0,8.649,8.646H68.264c.376.584.206.753,0,.753" transform="translate(14.385 31.431)" fill="#1a1a1a"/>
          <path id="Trazado_606721" data-name="Trazado 606721" d="M66.155,115.165c-2.8-5.711-4.551-12.988-2.612-16a2.945,2.945,0,0,1,2.61-1.393c3.345,0,4.568,4.352,5.863,8.96a30.62,30.62,0,0,0,2.493,6.866c-1.765-1.5-2.5-4.123-3.218-6.662-1.216-4.325-2.365-8.412-5.119-8.412a2.215,2.215,0,0,0-2,1.049c-1.507,2.34-.531,8.674,2.322,15.063-.24.517-.291.528-.343.528" transform="translate(24.735 38.557)" fill="#1a1a1a"/>
          <path id="Trazado_606722" data-name="Trazado 606722" d="M80.915,129.681c-.364-.277-2.018-6.374-2.018-6.374,1.039-1.079,2.479-8.61-.367-12.585-1.467-2.046-9.533-.579-14.108,1.994-1.984,1.115-2.921,2.227-2.571,3.049a4.374,4.374,0,0,0,2.851,2.492c2.584.823,6.372.05,9.642-1.967-3.055,2.768-7.086,3.571-9.869,2.684a5.154,5.154,0,0,1-3.314-2.914c-.374-.871-.174-2.274,2.892-4,4.606-2.591,13.2-4.421,15.088-1.775,2.924,4.084,1.736,11.481.537,13.029l1.6,5.893c-.3.47-.33.474-.363.474" transform="translate(24.064 42.981)" fill="#1a1a1a"/>
          <path id="Trazado_606723" data-name="Trazado 606723" d="M71.937,123.584a7.315,7.315,0,0,1-1.555-.173,16.433,16.433,0,0,1-6.441-3.353A23.647,23.647,0,0,1,60,116.212a5.852,5.852,0,0,1-1.571-3.854,4.113,4.113,0,0,1,.326-1.368c.706-1.663,2.45-3.408,4.32-3.408a4.508,4.508,0,0,1,2.748,1.254c1.242.959,1.97,1.544,2.842,2.271a5.556,5.556,0,0,1-3.059-1.486,4.367,4.367,0,0,0-2.481-1.286c-1.541,0-3.061,1.488-3.677,2.948a3.305,3.305,0,0,0-.268,1.117,4.962,4.962,0,0,0,1.4,3.339,22.973,22.973,0,0,0,3.816,3.724,15.722,15.722,0,0,0,6.139,3.211,5.549,5.549,0,0,0,3.042-.113,3.154,3.154,0,0,0,1.5-1.075,2.844,2.844,0,0,0-.2-3.176,2.4,2.4,0,0,1,.809,3.613,3.845,3.845,0,0,1-1.861,1.346,5.572,5.572,0,0,1-1.9.315" transform="translate(23.04 42.425)" fill="#1a1a1a"/>
          <path id="Trazado_606724" data-name="Trazado 606724" d="M70.557,125.68c-.238,0-.482-.011-.729-.033a16.441,16.441,0,0,1-6.795-2.556,23.406,23.406,0,0,1-4.373-3.346,5.827,5.827,0,0,1-2.022-3.636,4.039,4.039,0,0,1,.159-1.4,5.153,5.153,0,0,1,2.543-3.31,11.826,11.826,0,0,0-1.821,3.517,3.361,3.361,0,0,0-.132,1.141,4.969,4.969,0,0,0,1.8,3.147,22.778,22.778,0,0,0,4.235,3.239A15.758,15.758,0,0,0,69.9,124.9a5.518,5.518,0,0,0,3.009-.48,3.144,3.144,0,0,0,1.362-1.247,1.9,1.9,0,0,0,.187-1.715c.99.565.917,1.258.474,2.073a3.836,3.836,0,0,1-1.687,1.56,5.969,5.969,0,0,1-2.687.59" transform="translate(22.332 43.932)" fill="#1a1a1a"/>
          <path id="Trazado_606725" data-name="Trazado 606725" d="M67.563,129.186c-.368-.3-1.436-5.312-1.436-5.312-1.8-.51-2.977-1.779-4.264-3.641,1.86,1.366,2.971,2.561,4.672,2.97a53.822,53.822,0,0,1,1.4,5.529c-.315.452-.342.455-.368.455" transform="translate(24.396 47.414)" fill="#1a1a1a"/>
          <path id="Trazado_606726" data-name="Trazado 606726" d="M75.533,130.94c-.381-.541-.673-17.707,6.714-29.056,7.447-11.443,23.966-9.929,24.128-9.91.319.616.128.785-.074.747-.16-.015-16.23-1.482-23.424,9.571-7.259,11.153-6.973,28.093-6.969,28.262-.371.385-.374.385-.375.385" transform="translate(29.724 36.24)" fill="#1a1a1a"/>
          <path id="Trazado_606727" data-name="Trazado 606727" d="M136.418,109.049a73.462,73.462,0,0,0-3.77-6.83c-7.2-11.059-22.015-9.66-22.166-9.648.079-.766,15.35-2.2,22.8,9.246a44.194,44.194,0,0,1,3.491,6.738c-.276.488-.317.494-.356.494" transform="translate(43.569 36.307)" fill="#1a1a1a"/>
          <path id="Trazado_606728" data-name="Trazado 606728" d="M47.32,93.027a2.652,2.652,0,1,1,2.652-2.652,2.655,2.655,0,0,1-2.652,2.652m0-4.553a1.9,1.9,0,1,0,1.9,1.9,1.9,1.9,0,0,0-1.9-1.9" transform="translate(17.615 34.594)" fill="#fff"/>
          <path id="Trazado_606729" data-name="Trazado 606729" d="M89.474,103.486a2.463,2.463,0,1,1,2.462-2.464,2.466,2.466,0,0,1-2.462,2.464m0-4.175a1.712,1.712,0,1,0,1.711,1.711,1.714,1.714,0,0,0-1.711-1.711" transform="translate(34.313 38.867)" fill="#fff"/>
          <path id="Trazado_606730" data-name="Trazado 606730" d="M55.5,115.429a5.214,5.214,0,0,1-3.6-1.467,19.931,19.931,0,0,0,3.6.717c.2.75,0,.75,0,.75m3.872-1.132a35.238,35.238,0,0,1,2.442-3.352,4.659,4.659,0,0,1-2.237,3.291.367.367,0,0,1-.2.061m-9.437-3.431a13.307,13.307,0,0,1-1.705-3.953,11.524,11.524,0,0,1,2.046,3.415c-.23.527-.284.538-.34.538m14.181-2.69a4.723,4.723,0,0,1,.614-2.437c.268-.544.534-1.085.8-1.613a1.954,1.954,0,0,1-.131,1.947c-.314.633-.627,1.272-.952,1.9a.377.377,0,0,1-.335.2m-16.388-4.815a15.947,15.947,0,0,1-.938-4.217,8.651,8.651,0,0,1,1.308,3.775c-.325.441-.35.442-.369.442m-.9-7.794a23.14,23.14,0,0,1-.517-4.309c.752.167.757,1.7.894,3.91-.361.4-.368.4-.376.4" transform="translate(18.259 35.988)" fill="#1a1a1a"/>
          <path id="Trazado_606731" data-name="Trazado 606731" d="M86.221,123.949a5.636,5.636,0,0,1-3.115-1,19.471,19.471,0,0,0,3.858.191c-.172.784-.453.8-.743.8m4.2-1.82a32.077,32.077,0,0,1,1.933-3.723,4.971,4.971,0,0,1-1.672,3.617.369.369,0,0,1-.261.106m-9.872-1.854a16.878,16.878,0,0,1-2.429-3.5,10.845,10.845,0,0,1,2.729,2.9c-.141.577-.22.6-.3.6m13.634-4.939a19.039,19.039,0,0,1,.665-4.242,6.491,6.491,0,0,1-.31,3.984.375.375,0,0,1-.356.258m-17.506-1.861a25.442,25.442,0,0,1-1.963-3.794,7.705,7.705,0,0,1,2.3,3.257c-.23.524-.286.537-.339.537m19.252-5.781a.389.389,0,0,1-.374-.432c.339-2.26.441-3.864.441-3.879.75.063.646,1.694.3,3.991a.376.376,0,0,1-.371.321m-22.452-1.378c-1-1.7-1.51-2.8-1.988-3.765,1.157.646,1.668,1.746,2.331,3.236-.238.519-.291.528-.343.528m-3.537-6.987a5.7,5.7,0,0,1-.9-1.042c.814-.152,1.016.149,1.216.464-.178.559-.248.577-.318.577" transform="translate(27.225 38.744)" fill="#1a1a1a"/>
          <path id="Trazado_606734" data-name="Trazado 606734" d="M202.823,44.734H111.055c0-.752,91.768-.752,91.768-.752.376.584.208.752,0,.752" transform="translate(43.795 17.344)" fill="#1a1a1a"/>
          <path id="Trazado_606735" data-name="Trazado 606735" d="M174.651,43.582a2.2,2.2,0,1,1,2.206-2.2,2.207,2.207,0,0,1-2.206,2.2m0-3.657a1.453,1.453,0,1,0,1.454,1.454,1.455,1.455,0,0,0-1.454-1.454" transform="translate(68.004 15.448)" fill="#1a1a1a"/>
          <path id="Trazado_606736" data-name="Trazado 606736" d="M168.7,43.582a2.2,2.2,0,1,1,2.2-2.2,2.207,2.207,0,0,1-2.2,2.2m0-3.657a1.453,1.453,0,1,0,1.453,1.454,1.456,1.456,0,0,0-1.453-1.454" transform="translate(65.658 15.448)" fill="#1a1a1a"/>
          <path id="Trazado_606737" data-name="Trazado 606737" d="M162.752,43.582a2.2,2.2,0,1,1,2.206-2.2,2.207,2.207,0,0,1-2.206,2.2m0-3.657a1.453,1.453,0,1,0,1.454,1.454,1.455,1.455,0,0,0-1.454-1.454" transform="translate(63.312 15.448)" fill="#1a1a1a"/>
          <path id="Trazado_606738" data-name="Trazado 606738" d="M101.165,69.064c-.515-.4-5.9-6.735-3.943-11.011,1.1-2.394,4.261-3.609,9.4-3.609s8.281,1.2,9.355,3.577c1.92,4.247-3.558,10.544-3.793,10.81-.509-.558,4.829-6.7,3.107-10.5-.94-2.08-3.858-3.136-8.669-3.136s-7.75,1.068-8.715,3.172c-1.762,3.837,3.491,10.014,3.544,10.076-.112.593-.2.622-.286.622" transform="translate(38.171 21.47)" fill="#1a1a1a"/>
          <path id="Trazado_606739" data-name="Trazado 606739" d="M174.545,108.081a1.649,1.649,0,0,1-1.27-.724l-6.949-11.791a.721.721,0,0,0-.984-.254l-4.781,2.819a1.47,1.47,0,0,1-2.216-1.195l-1.018-20.774a1.471,1.471,0,0,1,2.243-1.32l17.686,10.946a1.47,1.47,0,0,1-.026,2.515l-4.335,2.556c-.255.982,6.7,12.774,6.7,12.774a1.469,1.469,0,0,1-.52,2.013l-3.784,2.23a1.442,1.442,0,0,1-.743.2M165.7,94.463a1.472,1.472,0,0,1,1.269.722l6.952,11.791c.983.255,4.767-1.977,4.767-1.977.254-.982-6.7-12.774-6.7-12.774a1.457,1.457,0,0,1-.158-1.114,1.475,1.475,0,0,1,.678-.9l4.334-2.554a.72.72,0,0,0,.014-1.23L159.174,75.48a.71.71,0,0,0-.743-.007.7.7,0,0,0-.351.653L159.1,96.9a.717.717,0,0,0,1.081.583l4.781-2.819a1.464,1.464,0,0,1,.745-.2" transform="translate(62.041 29.427)" fill="#1a1a1a"/>
          <path id="Trazado_606740" data-name="Trazado 606740" d="M130.642,64.258H115.311c-.375-.376-.375-15.7-.375-15.7.375-.376,15.706-.376,15.706-.376.376.376.376,15.7.376,15.7a.376.376,0,0,1-.376.376m-14.956-.752h14.579V48.927H115.686Z" transform="translate(45.325 18.999)" fill="#1a1a1a"/>
          <path id="Trazado_606741" data-name="Trazado 606741" d="M127.294,78.2H117.184c-.376-.375-.376-10.484-.376-10.484.376-.376,10.486-.376,10.486-.376.376.376.376,10.486.376,10.486a.377.377,0,0,1-.376.375m-9.734-.75h9.359V68.09H117.56Z" transform="translate(46.063 26.555)" fill="#1a1a1a"/>
          <path id="Trazado_606742" data-name="Trazado 606742" d="M184.705,50.478H138.258c0-.752,46.447-.752,46.447-.752.375.583.206.752,0,.752" transform="translate(54.522 19.61)" fill="#1a1a1a"/>
          <path id="Trazado_606743" data-name="Trazado 606743" d="M184.705,58.959H138.258c0-.752,46.447-.752,46.447-.752.375.583.206.752,0,.752" transform="translate(54.522 22.954)" fill="#1a1a1a"/>
          <path id="Trazado_606744" data-name="Trazado 606744" d="M184.705,67.44H138.258c0-.752,46.447-.752,46.447-.752.375.583.206.752,0,.752" transform="translate(54.522 26.299)" fill="#1a1a1a"/>
          <path id="Trazado_606745" data-name="Trazado 606745" d="M67.115,104.646a6.829,6.829,0,1,1,6.828-6.83,6.837,6.837,0,0,1-6.828,6.83m0-12.906a6.077,6.077,0,1,0,6.077,6.077,6.084,6.084,0,0,0-6.077-6.077" transform="translate(23.774 35.881)" fill="#1a1a1a"/>
          <path id="Trazado_606746" data-name="Trazado 606746" d="M105.946,92.539c-7.086,0-7.6-3.356-7.62-3.5.749-.072,1.255,2.748,7.62,2.748,6.344,0,6.676-2.8,6.679-2.826.739.2.429,3.578-6.679,3.578" transform="translate(38.775 35.082)" fill="#1a1a1a"/>
          <path id="Trazado_606747" data-name="Trazado 606747" d="M100.033,95.982c-2.769-1.235-4.329-3.256-4.329-5.439,0-1.276.736-3.063,4.243-4.328-2.231,1.6-3.491,2.822-3.491,4.328,0,1.881,1.4,3.648,3.735,4.721.121.637-.015.718-.158.718" transform="translate(37.741 33.999)" fill="#1a1a1a"/>
          <path id="Trazado_606748" data-name="Trazado 606748" d="M104.907,97.139a25.142,25.142,0,0,1-3.045-.177,5.244,5.244,0,0,1,3.045-.574c7.065,0,10.879-3.1,10.879-6.012,0-1.513-1.439-2.839-4.056-3.737,3.187.3,4.808,1.878,4.808,3.737,0,3.278-4.076,6.764-11.63,6.764" transform="translate(40.169 34.166)" fill="#1a1a1a"/>
          <path id="Trazado_606749" data-name="Trazado 606749" d="M97.754,98.286a.381.381,0,0,1-.375-.4c.318-4.222-.432-5.86-.439-5.877.711-.257,1.525,1.465,1.188,5.934a.375.375,0,0,1-.374.347" transform="translate(38.228 36.272)" fill="#1a1a1a"/>
          <path id="Trazado_606750" data-name="Trazado 606750" d="M110.5,98.359c-.713-4.817.1-6.5.139-6.566.665.351-.081,1.945.236,6.162-.357.4-.365.4-.375.4" transform="translate(43.46 36.199)" fill="#1a1a1a"/>
          <path id="Trazado_606751" data-name="Trazado 606751" d="M62.96,31.886c-.351-.243-8.4-21.728-8.4-21.728.7-.265,8.754,21.221,8.754,21.221-.264.5-.308.508-.353.508" transform="translate(21.515 4.005)" fill="#1a1a1a"/>
          <path id="Trazado_606752" data-name="Trazado 606752" d="M38.744,80.48C38.477,79.84,62.466,55.6,62.466,55.6,63,56.125,39.011,80.37,39.011,80.37a.376.376,0,0,1-.268.11" transform="translate(15.278 21.924)" fill="#1a1a1a"/>
          <path id="Trazado_606753" data-name="Trazado 606753" d="M91.588,67.1C91.344,67.011,78.34,56,78.34,56c.487-.573,13.49,10.441,13.49,10.441-.031.618-.137.662-.243.662" transform="translate(30.894 22.074)" fill="#1a1a1a"/>
          <path id="Trazado_606754" data-name="Trazado 606754" d="M84.045,37.642c-.187-.7,14.381-9.049,14.381-9.049.374.653-14.195,9-14.195,9a.384.384,0,0,1-.187.05" transform="translate(33.143 11.276)" fill="#1a1a1a"/>
          <path id="Trazado_606755" data-name="Trazado 606755" d="M91.991,84.419H76.266c0-.753,15.725-.753,15.725-.753.375.584.208.753,0,.753" transform="translate(30.076 32.994)" fill="#1a1a1a"/>
          <path id="Trazado_606756" data-name="Trazado 606756" d="M89.619,87.32H82.282c0-.752,7.337-.752,7.337-.752.375.583.208.752,0,.752" transform="translate(32.448 34.138)" fill="#1a1a1a"/>
          <path id="Trazado_606757" data-name="Trazado 606757" d="M81.718,87.32H77.513c0-.752,4.205-.752,4.205-.752.375.583.208.752,0,.752" transform="translate(30.567 34.138)" fill="#1a1a1a"/>
          <path id="Trazado_606758" data-name="Trazado 606758" d="M50.158,45.429H40.215c0-.752,9.943-.752,9.943-.752.376.583.208.752,0,.752" transform="translate(15.859 17.618)" fill="#1a1a1a"/>
          <path id="Trazado_606759" data-name="Trazado 606759" d="M116.943,12.29a6.145,6.145,0,1,1,6.145-6.144,6.151,6.151,0,0,1-6.145,6.144m0-11.538a5.393,5.393,0,1,0,5.393,5.395A5.4,5.4,0,0,0,116.943.752" transform="translate(43.693 0)" fill="#1a1a1a"/>
          <path id="Trazado_606760" data-name="Trazado 606760" d="M7.728,75.669a6.146,6.146,0,1,1,6.145-6.145,6.153,6.153,0,0,1-6.145,6.145m0-11.54a5.393,5.393,0,1,0,5.393,5.395A5.4,5.4,0,0,0,7.728,64.13" transform="translate(0.624 24.993)" fill="#1a1a1a"/>
          <path id="Trazado_606761" data-name="Trazado 606761" d="M157.969,43.185a42.021,42.021,0,0,1-1.238-4.526,8.572,8.572,0,0,1,1.61,4.1c-.339.427-.356.428-.372.428m-2.192-8.373c-.849-1.576-1.418-2.9-2.047-4.19a7.442,7.442,0,0,1,2.4,3.682c-.264.5-.307.508-.351.508m-3.794-7.772c-1.068-1.394-1.885-2.585-2.744-3.716a7.394,7.394,0,0,1,3.065,3.144c-.185.555-.252.572-.321.572m-5.232-6.874c-1.244-1.16-2.277-2.165-3.346-3.109a7.406,7.406,0,0,1,3.621,2.479c-.092.6-.184.63-.275.63m-6.473-5.717c-1.358-.9-2.564-1.69-3.8-2.428A7.542,7.542,0,0,1,140.5,13.77c.011.627-.1.679-.22.679m-7.415-4.421c-1.432-.653-2.755-1.231-4.1-1.754a7.665,7.665,0,0,1,4.261,1.042c.11.636-.024.713-.165.713m-8.038-3.154c-1.439-.429-2.833-.813-4.254-1.153a7.908,7.908,0,0,1,4.367.418c.2.633.047.735-.113.735" transform="translate(47.547 2.193)" fill="#1a1a1a"/>
          <path id="Trazado_606762" data-name="Trazado 606762" d="M72.871,34.152c-.311-.6.381-2.058,1.85-4.346a32.852,32.852,0,0,1-1.51,4.13.375.375,0,0,1-.34.216m4.652-7.318a10.831,10.831,0,0,1,2.461-3.978,10.405,10.405,0,0,1-2.16,3.83.382.382,0,0,1-.3.148m5.717-6.5A10.135,10.135,0,0,1,86.2,16.753,10.253,10.253,0,0,1,83.5,20.226a.38.38,0,0,1-.264.107m6.608-5.583a9.365,9.365,0,0,1,3.408-3.09,10.339,10.339,0,0,1-3.189,3.02.371.371,0,0,1-.219.07m7.387-4.49a8.733,8.733,0,0,1,3.8-2.511A10.447,10.447,0,0,1,97.4,10.222a.377.377,0,0,1-.167.039m8.006-3.249a8.267,8.267,0,0,1,4.09-1.871A10.439,10.439,0,0,1,105.354,7a.4.4,0,0,1-.113.017m8.419-1.931a7.938,7.938,0,0,1,4.267-1.23.357.357,0,0,1,.4.346,32.581,32.581,0,0,1-4.615.88.357.357,0,0,1-.054,0m10.413-.639c-.494-.01-.97-.015-1.447-.015-.559.031-.725-.163-.726-.371a5.758,5.758,0,0,1,2.181-.365c.364.588.2.752-.007.752" transform="translate(28.708 1.454)" fill="#1a1a1a"/>
          <path id="Trazado_606763" data-name="Trazado 606763" d="M41.921,121.2c-.4-.1-.692-.188-.98-.279.509-.629.795-.541,1.085-.459.208.632.059.738-.1.738M37,119.441a38.391,38.391,0,0,1-4.076-1.93,10.941,10.941,0,0,1,4.222,1.207c.138.636,0,.722-.146.722M29.4,115.314a34.847,34.847,0,0,1-3.719-2.651,10.717,10.717,0,0,1,3.929,1.963c.029.63-.088.687-.211.687m-6.724-5.432a30.321,30.321,0,0,1-3.27-3.259,10.633,10.633,0,0,1,3.531,2.61c-.063.609-.162.648-.261.648m-5.7-6.5a26.134,26.134,0,0,1-2.74-3.766,10.49,10.49,0,0,1,3.042,3.168c-.148.574-.224.6-.3.6m-4.529-7.366a22.921,22.921,0,0,1-2.145-4.168,10.523,10.523,0,0,1,2.479,3.623c-.219.534-.277.545-.335.545m-3.292-8A21.019,21.019,0,0,1,7.594,83.58a10.241,10.241,0,0,1,1.924,3.947c-.28.488-.319.494-.358.494M7.043,79.636a19.107,19.107,0,0,1-1.008-4.613,10.108,10.108,0,0,1,1.379,4.169c-.326.441-.35.443-.371.443" transform="translate(2.38 29.585)" fill="#1a1a1a"/>
          <path id="Trazado_606764" data-name="Trazado 606764" d="M6.741,74.164a.391.391,0,0,1-.371-.439c.25-1.439.547-2.874.891-4.263a10.231,10.231,0,0,1-.148,4.389.379.379,0,0,1-.372.312m2.082-8.4A12.807,12.807,0,0,1,10,61.2a10.332,10.332,0,0,1-.821,4.313.372.372,0,0,1-.357.257m3.387-7.952a11.282,11.282,0,0,1,1.892-4.3,10.625,10.625,0,0,1-1.562,4.1.375.375,0,0,1-.33.2M16.965,50.6a10.067,10.067,0,0,1,2.626-3.857,10.878,10.878,0,0,1-2.334,3.717.373.373,0,0,1-.291.139m6.106-6.111a9.029,9.029,0,0,1,3.3-3.225,11.189,11.189,0,0,1-3.063,3.141.37.37,0,0,1-.236.084M30.316,39.8a8.6,8.6,0,0,1,3.791-2.525,10.78,10.78,0,0,1-3.617,2.485.418.418,0,0,1-.174.04m8-3.271a8.384,8.384,0,0,1,4.076-1.916,10.289,10.289,0,0,1-3.961,1.9.323.323,0,0,1-.114.02m8.4-2.1a8.327,8.327,0,0,1,4.218-1.457,9.962,9.962,0,0,1-4.148,1.45.408.408,0,0,1-.07.007m8.568-1.247a8.6,8.6,0,0,1,4.278-1.153,9.292,9.292,0,0,1-4.239,1.15.2.2,0,0,1-.039,0m8.625-.7a8.759,8.759,0,0,1,4.3-.986,8.985,8.985,0,0,1-4.281.986Z" transform="translate(2.51 12.42)" fill="#1a1a1a"/>
        </g>
      </g>
      <g id="Grupo_1015817" data-name="Grupo 1015817" transform="translate(619.788 5711.787)">
        <g id="Grupo_1015803" data-name="Grupo 1015803" clip-path="url(#clip-path-2)">
          <path id="Trazado_606625" data-name="Trazado 606625" d="M17.753,34.971h-.546a1.6,1.6,0,0,1-.783-.805c-1.182-2.274-2.382-4.539-3.566-6.812a.474.474,0,0,0-.49-.3q-3.342.016-6.684,0A5.521,5.521,0,0,1,4.4,26.928,5.6,5.6,0,0,1,.28,22.973c-.121-.361-.188-.739-.28-1.11V5.206c.134-.488.239-.987.407-1.462A5.66,5.66,0,0,1,5.764,0c7.884.047,15.769.013,23.653.025a5.361,5.361,0,0,1,1.41.188,5.839,5.839,0,0,1,4.129,5.57q.013,7.747,0,15.493a5.508,5.508,0,0,1-.589,2.5,5.406,5.406,0,0,1-5.144,3.283c-2.207-.008-4.414,0-6.622-.008a.473.473,0,0,0-.5.295c-1.183,2.277-2.385,4.543-3.568,6.82a1.617,1.617,0,0,1-.785.806m-.277-3.258c.1-.174.156-.281.213-.389.972-1.849,1.956-3.691,2.908-5.55A1.29,1.29,0,0,1,21.9,25c2.5.02,5.006.01,7.509.007a3.062,3.062,0,0,0,1.765-.538,3.975,3.975,0,0,0,1.735-3.478q.019-7.457,0-14.914a5.3,5.3,0,0,0-.138-1.146,3.545,3.545,0,0,0-3.408-2.858q-11.879-.011-23.757,0a3.185,3.185,0,0,0-2.1.754A4.1,4.1,0,0,0,2.05,6.14q-.006,7.235,0,14.47a8.841,8.841,0,0,0,.065,1.122,3.654,3.654,0,0,0,3.64,3.283c2.457-.04,4.915,0,7.373-.016a1.228,1.228,0,0,1,1.217.744c.8,1.565,1.63,3.119,2.448,4.677.215.41.432.819.683,1.293" transform="translate(0 -0.001)" fill="#fff198"/>
          <path id="Trazado_606626" data-name="Trazado 606626" d="M75.065,61.955a3.93,3.93,0,1,1,6.075-.02c.326.2.665.382.974.606A6.481,6.481,0,0,1,84.947,68a1.815,1.815,0,0,1-1.8,1.849q-5.052.023-10.1,0a1.823,1.823,0,0,1-1.806-1.884,6.541,6.541,0,0,1,3.537-5.855c.088-.05.177-.1.291-.158m7.828,5.819a4.36,4.36,0,0,0-2.379-3.785,4.947,4.947,0,0,0-5.186.208,4.29,4.29,0,0,0-2.014,3.578Zm-4.8-6.487a1.855,1.855,0,0,0,1.867-1.853,1.891,1.891,0,0,0-1.877-1.857,1.87,1.87,0,0,0-1.842,1.849,1.842,1.842,0,0,0,1.853,1.861" transform="translate(-64.739 -50.46)" fill="#fff198"/>
          <path id="Trazado_606627" data-name="Trazado 606627" d="M261.655,93.778c-.162.093-.275.161-.392.223a.6.6,0,0,1-.868-.251.883.883,0,0,1,.3-1.246q.838-.522,1.688-1.025a.918.918,0,0,1,1.437.823q0,4.057,0,8.115c0,.572-.189.807-.757.886a2.444,2.444,0,0,1-.707-.006.724.724,0,0,1-.7-.836q0-3.137,0-6.274Z" transform="translate(-236.52 -82.994)" fill="#fff198"/>
        </g>
      </g>
    </g>
  </g>
</svg>
