<svg xmlns="http://www.w3.org/2000/svg" xmlns:xlink="http://www.w3.org/1999/xlink" width="62" height="62" viewBox="0 0 62 62">
  <defs>
    <clipPath id="clip-path">
      <rect id="Rect치ngulo_346386" data-name="Rect치ngulo 346386" width="34.873" height="39.396" fill="#627289"/>
    </clipPath>
  </defs>
  <g id="Grupo_1015794" data-name="Grupo 1015794" transform="translate(-273 -1815)">
    <g id="Grupo_1015767" data-name="Grupo 1015767" transform="translate(0 -11091)">
      <g id="Grupo_1014856" data-name="Grupo 1014856" transform="translate(-111.999 10848)">
        <path id="Uni칩n_12" data-name="Uni칩n 12" d="M44.385,58.97a31.027,31.027,0,1,1,10.348-8.025L58.991,62Z" transform="translate(384.999 2058)" fill="#a3bfe4"/>
        <circle id="Elipse_4842" data-name="Elipse 4842" cx="26" cy="26" r="26" transform="translate(389.999 2063)" fill="#fff"/>
      </g>
    </g>
    <g id="Grupo_1015793" data-name="Grupo 1015793" transform="translate(287.221 1824.945)">
      <g id="Grupo_1015792" data-name="Grupo 1015792" clip-path="url(#clip-path)">
        <path id="Trazado_606600" data-name="Trazado 606600" d="M2.858,39.4a1.051,1.051,0,0,1-.542-1.052c.021-1.525,0-3.051.013-4.577a1.122,1.122,0,0,0-.249-.733A10.4,10.4,0,0,1,5.7,17.512a19.846,19.846,0,0,1,2.31-.814l.253-.086A10.6,10.6,0,0,1,9.32,2.825,9.987,9.987,0,0,1,25.7,6.724a10.473,10.473,0,0,1-.018,7.242,10.031,10.031,0,0,1,8.21,5.924,10.312,10.312,0,0,1-6.723,14.364A9.594,9.594,0,0,1,19.013,32.7c-.146-.1-.288-.21-.448-.326-.27.359-.513.718-.791,1.047a9.886,9.886,0,0,1-8.343,3.658.305.305,0,0,1-.077-.006,2.751,2.751,0,0,0-2.215.4c-1.113.6-2.263,1.141-3.4,1.709-.121.061-.231.144-.346.217Zm12.7-19.283A8.29,8.29,0,0,0,6.3,18.953a8.864,8.864,0,0,0-2.841,13.3,1.833,1.833,0,0,1,.437,1.259c-.025,1.128-.009,2.256-.007,3.385,0,.134.011.267.02.453.188-.092.325-.157.459-.224,1.089-.544,2.171-1.1,3.273-1.623a1.858,1.858,0,0,1,.84-.118c.576.024,1.152.161,1.723.139a8.381,8.381,0,0,0,7-3.961.412.412,0,0,0-.038-.591A10.278,10.278,0,0,1,14.723,24a10.762,10.762,0,0,1,.834-3.884m9.234-4.619c-.459.042-.92.071-1.377.132a6.078,6.078,0,0,0-.86.193A8.81,8.81,0,0,0,17.4,28.588a8.316,8.316,0,0,0,12.015,2.979,8.5,8.5,0,0,0,3.747-8.74,8.566,8.566,0,0,0-8.368-7.333m-8.485,3.189.214-.309a9.935,9.935,0,0,1,7.011-4.333.668.668,0,0,0,.637-.506,8.985,8.985,0,0,0,.27-5.652A8.455,8.455,0,0,0,13.692,1.966,8.833,8.833,0,0,0,10.08,16.294a.7.7,0,0,0,.391.177c.506.078,1.021.1,1.523.2a9.816,9.816,0,0,1,4.312,2.012" transform="translate(0 0)" fill="#627289"/>
        <path id="Trazado_606601" data-name="Trazado 606601" d="M49.605,255.376c1.181,0,2.361,0,3.542,0a.815.815,0,0,1,.89.763.806.806,0,0,1-.847.807c-.115.008-.231,0-.346,0H46.607c-.167,0-.334,0-.5,0-.555-.021-.911-.329-.913-.785s.378-.786.946-.788c1.155,0,2.31,0,3.465,0" transform="translate(-40.549 -229.125)" fill="#627289"/>
        <path id="Trazado_606602" data-name="Trazado 606602" d="M49.463,226.906c-1.129,0-2.258,0-3.386,0a.793.793,0,0,1-.879-.762.819.819,0,0,1,.9-.786c2.245,0,4.49,0,6.735,0a.74.74,0,0,1,.785.434,1.2,1.2,0,0,1-.031.754c-.114.307-.426.369-.74.368-1.129,0-2.258,0-3.387,0" transform="translate(-40.552 -202.189)" fill="#627289"/>
        <path id="Trazado_606603" data-name="Trazado 606603" d="M48.29,286.978c-.719,0-1.439,0-2.158,0-.569,0-.947-.333-.938-.8a.822.822,0,0,1,.923-.776q2.177-.011,4.354,0c.573,0,.947.333.938.8s-.381.773-.961.776c-.719,0-1.439,0-2.158,0" transform="translate(-40.548 -256.061)" fill="#627289"/>
        <path id="Trazado_606604" data-name="Trazado 606604" d="M195.172,182.688c0-.685,0-1.348,0-2.011,0-.747.28-1.015,1.031-1a3.567,3.567,0,0,1,3.184,2.5.627.627,0,0,0,.734.531c.86-.027,1.72-.011,2.581-.007.717,0,1.01.294,1.011,1,0,.9.01,1.794-.006,2.691a1.638,1.638,0,0,1-.152.661c-.461.956-.949,1.9-1.418,2.85a.892.892,0,0,1-.881.55c-2.748-.008-5.5,0-8.244,0-.648,0-.927-.287-.927-.948q0-2.922,0-5.844c0-.642.286-.933.94-.945.578-.01,1.156,0,1.733,0,.125,0,.25-.012.415-.02m1.594-1.287v7.5c1.343,0,2.662,0,3.981-.01.089,0,.207-.132.259-.23.241-.451.419-.942.7-1.364.63-.937.4-1.965.429-3.016-.737,0-1.44,0-2.143,0a1.967,1.967,0,0,1-2.06-1.551,2.025,2.025,0,0,0-1.169-1.327m-3.108,7.47h1.493V184.3h-1.493Z" transform="translate(-172.339 -161.212)" fill="#627289"/>
        <path id="Trazado_606605" data-name="Trazado 606605" d="M99.63,50.261a3.441,3.441,0,0,1,1.915-2.892,3.537,3.537,0,0,1,3.792.142.481.481,0,0,0,.631-.005,3.694,3.694,0,0,1,4.784.647,3.618,3.618,0,0,1,0,4.873c-1.473,1.555-3.013,3.046-4.535,4.555a.731.731,0,0,1-1.129,0c-1.521-1.509-3.043-3.018-4.537-4.553a3.632,3.632,0,0,1-.918-2.763m6.016,5.661a.936.936,0,0,0,.113-.079c1.245-1.241,2.5-2.472,3.729-3.728a2.115,2.115,0,0,0,.053-2.98,2.143,2.143,0,0,0-2.955-.161c-.938.786-.938.786-1.858.012a2.121,2.121,0,0,0-2.953.141,2.091,2.091,0,0,0-.018,2.919c1.271,1.3,2.578,2.574,3.889,3.877" transform="translate(-89.389 -42.066)" fill="#627289"/>
      </g>
    </g>
  </g>
</svg>
