<svg xmlns="http://www.w3.org/2000/svg" xmlns:xlink="http://www.w3.org/1999/xlink" width="295" height="170" viewBox="0 0 295 170">
  <defs>
    <clipPath id="clip-path">
      <rect id="Rect치ngulo_347010" data-name="Rect치ngulo 347010" width="238.62" height="149.411" fill="none"/>
    </clipPath>
  </defs>
  <g id="Grupo_1016315" data-name="Grupo 1016315" transform="translate(-390 -8256)">
    <rect id="Rect치ngulo_347011" data-name="Rect치ngulo 347011" width="295" height="65" rx="32.5" transform="translate(390 8361)" fill="#a3bfe4"/>
    <g id="Grupo_1016314" data-name="Grupo 1016314" transform="translate(414.821 8256)">
      <g id="Grupo_1016313" data-name="Grupo 1016313" clip-path="url(#clip-path)">
        <path id="Trazado_607914" data-name="Trazado 607914" d="M146.443,77.412H66.276a6.643,6.643,0,0,1-6.644-6.642V27.312a6.644,6.644,0,0,1,6.644-6.644h80.167a6.644,6.644,0,0,1,6.643,6.644V70.77a6.643,6.643,0,0,1-6.643,6.642" transform="translate(5.32 1.844)" fill="#fff"/>
        <path id="Trazado_607915" data-name="Trazado 607915" d="M154.529,124.882v-.591s-1.381-.863-5.992-.863-5.359,1.07-5.359,1.07v12.881s1.51.742,5.644.742,5.623-.749,5.623-.749l.215-2.105s5.111-.493,5.111-5.155-2.911-4.772-5.241-5.228m.077,8.571V126.76s3.259-.432,3.407,2.383c.172,3.277-3.407,4.31-3.407,4.31" transform="translate(12.775 11.013)" fill="#e8e8e8"/>
        <path id="Trazado_607916" data-name="Trazado 607916" d="M186.513,68.839s-9.468.737-15.952,7.559-11.329,19.17-11.887,20.893-4.054,10.313,3,14.8c0,0,2.967,1.38,9.523,1.985,0,0,0,9.549-.347,14.077s-1.323,11.33-1.323,11.33h44.336s.4-10.336.357-15.089-.162-9.925-.162-9.925,4.761-3.871,4.547-9.463a79.138,79.138,0,0,0-3.335-20.328c-2.2-6.634-5.184-11.623-10.559-13.965a32.384,32.384,0,0,0-9.256-2.238Z" transform="translate(14.036 6.11)" fill="#33ece0"/>
        <path id="Trazado_607917" data-name="Trazado 607917" d="M96.646,81.662s-9.367.484-13.439,2.628-8.889,3.455-12.874,13.2-4.422,11.538-5.091,14.86-1.789,9.66-1.221,13.886,2.025,9.153,7.191,11.212a12.754,12.754,0,0,0,4.485.861c2.335-.033,53.236,0,53.236,0a19.541,19.541,0,0,0,3.68-1.5,11.792,11.792,0,0,0,4.452-6.321,29.982,29.982,0,0,0,.736-9.707,68.728,68.728,0,0,0-1.433-8.949,118.106,118.106,0,0,0-4.182-12.811c-1.221-2.718-3.242-7.232-5.452-9.561a26.438,26.438,0,0,0-9.25-5.861,39.439,39.439,0,0,0-11.014-1.938c-3.96.005-9.826,0-9.826,0" transform="translate(5.698 7.286)" fill="#1a1a1a"/>
        <path id="Trazado_607918" data-name="Trazado 607918" d="M125.779,136.862H75.561a3.821,3.821,0,0,1-3.82-3.821V101.883a3.82,3.82,0,0,1,3.82-3.821h50.219a3.82,3.82,0,0,1,3.82,3.821v31.158a3.821,3.821,0,0,1-3.82,3.821" transform="translate(6.401 8.749)" fill="#e8e8e8"/>
        <path id="Trazado_607919" data-name="Trazado 607919" d="M31.861,120.819s-.917-.07-1.023.589.635.727,2.113.8,29.167-.034,29.167-.034,1.869-.85,1.912-2.061.058-6.359.058-6.359a3.02,3.02,0,0,0-2.441-2.261c-1.983-.246-30.1-.047-30.1-.047s-.687.364-.713.794,1.023.652,1.023.652Z" transform="translate(2.751 9.937)" fill="#ccc"/>
        <path id="Trazado_607920" data-name="Trazado 607920" d="M63.814,123.623l.809-.276.369-.736-.273-.906-1.091-.537-39.83.222s-2.9,1.046-3.173,3.227S20.6,134.4,20.6,134.4s.591,3.432,3.3,3.687,40.176-.025,40.176-.025,1.072-.493.914-1.408-1.425-.986-1.425-.986Z" transform="translate(1.829 10.811)" fill="#ffce26"/>
        <path id="Trazado_607921" data-name="Trazado 607921" d="M94.035,85.553s.463-1.887.647-3.143.371-4.194.371-4.194a6.611,6.611,0,0,1-2.858-5.131c-.233-.282-3.89,1.124-4.472-2.6s3.7-3.209,4.172-2.858l.005-2.011a13.889,13.889,0,0,0,4.515-2.412,14.732,14.732,0,0,0,2.972-3.85,11.015,11.015,0,0,0,3.415,4.185,26.011,26.011,0,0,0,4.119,2.077l.005,2.011s3.862-1.3,4.219,2.415c0,0,.172,2.7-1.821,2.879a5.573,5.573,0,0,1-2.548-.106,9.83,9.83,0,0,1-2.961,5.4,50.615,50.615,0,0,0,.664,6.016s.721,1.353.318,2.186a5.556,5.556,0,0,1-5.411,2.67c-3.354-.178-4.582-1.709-4.864-1.971a4.57,4.57,0,0,1-.488-1.563" transform="translate(7.822 5.296)" fill="#fff"/>
        <path id="Trazado_607922" data-name="Trazado 607922" d="M103.751,117.727a4.082,4.082,0,1,1-4.082-4.082,4.082,4.082,0,0,1,4.082,4.082" transform="translate(8.528 10.14)" fill="#fff"/>
        <path id="Trazado_607923" data-name="Trazado 607923" d="M31.776,120.694v-7.926H61.188l.908.495.221.771v5.677l-.486.729-.808.252Z" transform="translate(2.835 10.061)" fill="#fff"/>
        <path id="Trazado_607924" data-name="Trazado 607924" d="M22.64,125.152l.259-.906.818-.695,1.05-.13h38.67v12.233H23.818l-.913-.815-.258-.777Z" transform="translate(2.02 11.012)" fill="#fff"/>
        <path id="Trazado_607925" data-name="Trazado 607925" d="M90.412,67.456s-.865-4.577-.3-7,2.127-5.476,8.928-5.639c0,0,4.428.109,6.511,1.7a6.734,6.734,0,0,1,2.745,6.374c-.222,2.727-.427,4.84-.427,4.84l-1.139.3-.005-2.011s-5.457-1.405-7.534-6.262c0,0-2.3,5.345-7.487,6.262l-.16,1.936Z" transform="translate(8.023 4.891)" fill="#983333"/>
        <path id="Trazado_607926" data-name="Trazado 607926" d="M91.3,72.173s.931,5.062-1.052,6.63-5.051,3.4-5.1,4.89c0,0,3.336-.584,5.195-.774s4.4-.368,4.4-.368l.672-5.346a7.358,7.358,0,0,1-3.038-5.49Z" transform="translate(7.598 6.398)" fill="#983333"/>
        <path id="Trazado_607927" data-name="Trazado 607927" d="M106.416,71.982a11.783,11.783,0,0,0-.107,4.7c.517,2.088,2.186,3.063,3.288,3.811s2.524,1.614,2.974,3.378a66.124,66.124,0,0,0-6.984-1.143l-2.562-.181-.533-5.435a8.018,8.018,0,0,0,2.961-5.4Z" transform="translate(9.145 6.398)" fill="#983333"/>
        <path id="Trazado_607928" data-name="Trazado 607928" d="M72.755,55.386A14.628,14.628,0,1,1,58.126,40.758,14.628,14.628,0,0,1,72.755,55.386" transform="translate(3.881 3.637)" fill="#fff198"/>
        <path id="Trazado_607929" data-name="Trazado 607929" d="M55.684,69.042v5.7s.169,3.145,4.1,3.145,4.787-2.215,4.787-2.215l.351-6.629a10.807,10.807,0,0,1-4.619.717,24.843,24.843,0,0,1-4.619-.717" transform="translate(4.968 6.16)" fill="#ffce26"/>
        <path id="Trazado_607932" data-name="Trazado 607932" d="M142.245,113.315s2.2,5.546,9.6,2.421c0,0-1.232,3.323-6.18,2.8-4.472-.472-3.422-5.223-3.422-5.223" transform="translate(12.682 10.11)" fill="#ccc"/>
        <path id="Trazado_607933" data-name="Trazado 607933" d="M144.205,96.553a2.662,2.662,0,0,0,3.233,0s-.415,1.462-1.479,1.582-1.754-1.582-1.754-1.582" transform="translate(12.866 8.615)" fill="#ccc"/>
        <path id="Trazado_607934" data-name="Trazado 607934" d="M181.025,90.773l-6.1-2.837s-3.431-.534-4.8,1.578c0,0-4.067.545-3.947,3.651,0,0,3.05-.292,4.66.562s4.472,2.775,4.472,2.775,3.287-4.576,5.716-5.729" transform="translate(14.826 7.84)" fill="#fff"/>
        <path id="Trazado_607935" data-name="Trazado 607935" d="M189.251,94.736s1.24-2.744,4.466-1.031c0,0,1.615-1.535,4.677,0a3.089,3.089,0,0,1,3.353.37,19.407,19.407,0,0,1,2.85,3.615,2.04,2.04,0,0,1-2.006,2.693,2.121,2.121,0,0,1-2.244,2.337,3.568,3.568,0,0,1-3.383-2.02s-.417,2.085-2.133,1.98a1.939,1.939,0,0,1-2.085-1.9,8.5,8.5,0,0,0,.025-2.455c-.264-.686-2-3.446-3.52-3.584" transform="translate(16.885 8.3)" fill="#fff"/>
        <path id="Trazado_607936" data-name="Trazado 607936" d="M196.074,92.952a6.894,6.894,0,0,0-4.8-1.908,4.73,4.73,0,0,0-4.118,2.859l2.287,1.169s.732-1.452,1.663-1.627a6.853,6.853,0,0,1,2.6.405,3.534,3.534,0,0,1,2.572-.792Z" transform="translate(16.698 8.123)" fill="#1a1a1a"/>
        <path id="Trazado_607937" data-name="Trazado 607937" d="M192.826,61.965s3.816,1.716,4.524-2.019-4.013-3.176-4.013-3.176-5.432-3.452-6.917-4.393a34.949,34.949,0,0,1-3.943-3.346l-1.938,9.952s-1.695,7.708,4.083,7.92l-.161,3.673s-2.639,7.407.9,7.436,7.771-6.945,7.814-7.368.133-8.237.133-8.237Z" transform="translate(16.087 4.375)" fill="#fff"/>
        <path id="Trazado_607938" data-name="Trazado 607938" d="M206.861,75.333s.981-2.93-.952-4.641-5.3-2.27-5.747-4.631S201.595,59.867,203,56.7s1.322-6.49-.892-7.836-5.932-2.954-7.469-2.928c0,0-3.238-2.6-6.637-2.22s-5.87.669-7.283,3.341a9.624,9.624,0,0,0,.375,9.061l1.436-6.821s5.525,5.943,10.83,7.78a9.537,9.537,0,0,1,2.417.254,2.879,2.879,0,0,1,1.576,3.313,3.2,3.2,0,0,1-3.993,2.239l.076,7.574a30.059,30.059,0,0,1,7.234,1.549,50.607,50.607,0,0,1,6.194,3.326" transform="translate(16.038 3.897)" fill="#1a1a1a"/>
        <path id="Trazado_607939" data-name="Trazado 607939" d="M182.589,65.263s-1.821,2.241-.16,4.145l1.906-.281.282-3.516Z" transform="translate(16.214 5.823)" fill="#3a3a3a"/>
        <path id="Trazado_607940" data-name="Trazado 607940" d="M182.527,49.29s5.291,5.69,10.489,7.655c-1.514-1.224-7.248-5.978-8.343-8.631s2.076-4.2,2.93-4.561c-3.192.362-5.53.73-6.887,3.3a9.622,9.622,0,0,0,.376,9.06Z" transform="translate(16.038 3.904)" fill="#fff"/>
        <path id="Trazado_607941" data-name="Trazado 607941" d="M182.589,65.263s-1.821,2.241-.16,4.145l1.1-.161c-.809-1.137-.175-3.382-.036-3.828Z" transform="translate(16.214 5.823)" fill="#fff"/>
        <path id="Trazado_607942" data-name="Trazado 607942" d="M104.767,56.481a8.217,8.217,0,0,0-3.08-1.258,5.581,5.581,0,0,1,3.2,4.772c.071,3.415-6.229-.27-6.229-.27l.1.728c2.28,4.27,7.182,5.534,7.182,5.534l0,2.011,1.139-.3s.2-2.114.427-4.84a6.732,6.732,0,0,0-2.744-6.374" transform="translate(8.802 4.927)" fill="#fff"/>
        <path id="Trazado_607943" data-name="Trazado 607943" d="M112.427,83.872c-.449-1.762-1.871-2.628-2.974-3.378s-2.771-1.722-3.288-3.811a11.783,11.783,0,0,1,.107-4.7l-.963-.268a8.614,8.614,0,0,1-1.109,3.26c-.1.677-.39,3.448,1.115,4.984a4.8,4.8,0,0,1,1.066,2.862c2.573.3,6.045,1.052,6.045,1.052" transform="translate(9.289 6.398)" fill="#fff"/>
        <path id="Trazado_607944" data-name="Trazado 607944" d="M214.641,101.374a8.467,8.467,0,0,0-8.731,1.584c-4.25,3.643-4.911,8.693-2.377,11.315,0,0,5.459-.8,8.26-4.485a15.8,15.8,0,0,0,2.848-8.413" transform="translate(18.027 8.993)" fill="#fff"/>
        <path id="Trazado_607945" data-name="Trazado 607945" d="M146.717,120.111c-2.939-.085-4.033-1.379-4.484-2.45a6.351,6.351,0,0,1,1.3-6.222c.031-.036.884-1.095.037-3.638a5.3,5.3,0,0,1,.359-4.555,4.913,4.913,0,0,1,7.445-.513,4.872,4.872,0,0,1,1.211,4.1c-.481,2.306-.609,2.915,0,4.895a7.649,7.649,0,0,1-1.1,6.264,5.646,5.646,0,0,1-4.763,2.115m1.29-18.3a4.957,4.957,0,0,0-.513.028,4.006,4.006,0,0,0-3.1,1.709,4.756,4.756,0,0,0-.3,4.076c.973,2.918-.106,4.14-.152,4.19a5.839,5.839,0,0,0-1.195,5.63c.557,1.32,1.835,2.048,3.7,2.1a5.258,5.258,0,0,0,4.591-1.891,7.134,7.134,0,0,0,1.005-5.764,7.667,7.667,0,0,1-.066-4.882,4.479,4.479,0,0,0-1.021-3.9,3.857,3.857,0,0,0-2.95-1.3" transform="translate(12.659 9.034)" fill="#1a1a1a"/>
        <path id="Trazado_607946" data-name="Trazado 607946" d="M145.848,98.731c-1.1,0-1.956-1.247-1.956-2.841s.859-2.842,1.956-2.842,1.957,1.248,1.957,2.842-.862,2.841-1.957,2.841m0-5.126c-.757,0-1.4,1.047-1.4,2.285s.64,2.284,1.4,2.284,1.4-1.046,1.4-2.284-.64-2.285-1.4-2.285" transform="translate(12.838 8.302)" fill="#1a1a1a"/>
        <path id="Trazado_607947" data-name="Trazado 607947" d="M186.371,67.207c-.576,0-1.131-.014-1.562-.032a6.273,6.273,0,0,1-2.416-.5,3.738,3.738,0,0,1-2.077-2.94,20.08,20.08,0,0,1,.216-6.632c.249-1.724,1.653-8.233,1.7-8.36.475.393-.889,6.615-1.109,8.133a20.583,20.583,0,0,0-.264,6.755,3.216,3.216,0,0,0,1.763,2.537,5.709,5.709,0,0,0,2.207.451,31.874,31.874,0,0,0,3.224-.019,1.91,1.91,0,0,1-1.687.608" transform="translate(16.07 4.349)" fill="#1a1a1a"/>
        <path id="Trazado_607948" data-name="Trazado 607948" d="M193.379,57.1c-9.488-5.026-11.631-8.554-11.718-8.7.5-.247,2.665,3.276,11.849,8.178.065.471-.032.524-.131.524" transform="translate(16.208 4.318)" fill="#1a1a1a"/>
        <path id="Trazado_607949" data-name="Trazado 607949" d="M187.937,54.777c-.216-.063-.376.013-.541.8-.185.878.025,1.063.225,1.081s.435-.23.505-.864.094-.933-.19-1.016" transform="translate(16.713 4.886)" fill="#1a1a1a"/>
        <path id="Trazado_607950" data-name="Trazado 607950" d="M182.556,53.917c-.215-.07-.377,0-.569.781-.215.871-.011,1.063.188,1.088s.441-.216.535-.847.125-.928-.155-1.022" transform="translate(16.229 4.809)" fill="#1a1a1a"/>
        <path id="Trazado_607951" data-name="Trazado 607951" d="M181.62,52.425c.232-.766.876-1.051,2.01-.594a4.474,4.474,0,0,0-1.856.547.276.276,0,0,1-.154.047" transform="translate(16.205 4.605)" fill="#1a1a1a"/>
        <path id="Trazado_607952" data-name="Trazado 607952" d="M193.469,62.087a3.35,3.35,0,0,1-1.815-.565,4.082,4.082,0,0,1,1.644,0,2.666,2.666,0,0,0,2.791-2.45,2.629,2.629,0,0,0-2.45-2.789,2.683,2.683,0,0,0-1.494.352,1.326,1.326,0,0,1,1.53-.908,3.182,3.182,0,0,1-.206,6.358" transform="translate(17.1 4.972)" fill="#1a1a1a"/>
        <path id="Trazado_607953" data-name="Trazado 607953" d="M193.888,60.61c-.2-.081-1.946-1.831-1.946-1.831.06-.44,2.409-1.753,2.409-1.753.273.485-1.756,1.619-1.756,1.619l1.489,1.49c-.052.448-.125.475-.2.475" transform="translate(17.125 5.088)" fill="#1a1a1a"/>
        <path id="Trazado_607954" data-name="Trazado 607954" d="M185.295,76.829a4.758,4.758,0,0,1-.9-.086,1.558,1.558,0,0,1-1.094-.8c-1.063-1.859.48-6.4.65-6.893l.274-3.645c.554.042.279,3.723.279,3.723-.032.12-1.694,4.835-.721,6.539a1.01,1.01,0,0,0,.718.524c4.8.928,8.182-7.124,8.217-7.205.379.54-2.669,7.838-7.425,7.838" transform="translate(16.322 5.836)" fill="#1a1a1a"/>
        <path id="Trazado_607955" data-name="Trazado 607955" d="M185.285,61.725a2.908,2.908,0,0,1-1.114-.247c.817-.264,1.33-.246,1.735-.453a2.1,2.1,0,0,0,.905-1.262c.534.171.272,1.281-.646,1.756a1.908,1.908,0,0,1-.88.207" transform="translate(16.432 5.332)" fill="#1a1a1a"/>
        <path id="Trazado_607956" data-name="Trazado 607956" d="M192.166,69.736c-.279-.284-.088-8.36-.088-8.36.559.012.367,8.087.367,8.087a.279.279,0,0,1-.279.272" transform="translate(17.132 5.476)" fill="#1a1a1a"/>
        <path id="Trazado_607957" data-name="Trazado 607957" d="M182.6,59.808c-.425-.869-.72-2.432-.17-2.858.335-.257,1.041-.02,1.585.23l.633-3.472c.549.1-.15,3.935-.15,3.935-.957-.093-1.6-.3-1.738-.245a4.026,4.026,0,0,0,.112,2.068c-.23.339-.251.342-.271.342" transform="translate(16.25 4.792)" fill="#1a1a1a"/>
        <path id="Trazado_607958" data-name="Trazado 607958" d="M94.383,73.2c-1.9,0-3.448-1.948-3.448-4.342s1.546-4.341,3.448-4.341,3.45,1.946,3.45,4.341a4.735,4.735,0,0,1-.132,1.183,1.341,1.341,0,0,1-.427-1.183c0-2.086-1.3-3.784-2.891-3.784s-2.891,1.7-2.891,3.784,1.3,3.784,2.891,3.784a2.429,2.429,0,0,0,2-1.055,1.833,1.833,0,0,1-2,1.613" transform="translate(8.113 5.756)" fill="#1a1a1a"/>
        <path id="Trazado_607959" data-name="Trazado 607959" d="M103.031,73.2c-1.9,0-3.448-1.949-3.448-4.343s1.548-4.341,3.448-4.341,3.451,1.948,3.451,4.341-1.548,4.343-3.451,4.343m0-8.126c-1.592,0-2.889,1.7-2.889,3.783s1.3,3.785,2.889,3.785,2.892-1.7,2.892-3.785-1.3-3.783-2.892-3.783" transform="translate(8.885 5.756)" fill="#1a1a1a"/>
        <path id="Trazado_607960" data-name="Trazado 607960" d="M99.963,68.859a2.379,2.379,0,0,0-1.637-.727,1.594,1.594,0,0,0-1.02.534c-.415-.373.11-1.027.978-1.09a2.481,2.481,0,0,1,1.869.8c-.041.453-.117.481-.191.481" transform="translate(8.669 6.029)" fill="#1a1a1a"/>
        <path id="Trazado_607961" data-name="Trazado 607961" d="M125.8,137.163H75.584a4.105,4.105,0,0,1-4.1-4.1V101.906a4.106,4.106,0,0,1,4.1-4.1H125.8a4.105,4.105,0,0,1,4.1,4.1v31.157a4.1,4.1,0,0,1-4.1,4.1m-50.217-38.8a3.546,3.546,0,0,0-3.542,3.542v31.157a3.547,3.547,0,0,0,3.542,3.543H125.8a3.546,3.546,0,0,0,3.541-3.543V101.906a3.545,3.545,0,0,0-3.541-3.542Z" transform="translate(6.378 8.726)" fill="#1a1a1a"/>
        <path id="Trazado_607962" data-name="Trazado 607962" d="M98.723,120.824a4.361,4.361,0,1,1,4.36-4.361,4.368,4.368,0,0,1-4.36,4.361m0-8.165a3.8,3.8,0,1,0,3.8,3.8,3.808,3.808,0,0,0-3.8-3.8" transform="translate(8.419 10.002)" fill="#1a1a1a"/>
        <path id="Trazado_607963" data-name="Trazado 607963" d="M123.156,138.568c4.891-.558,8.194-2.784,9.823-7.177,4.6-12.4-5.286-37.807-10.361-42.17-6.539-5.62-11.747-6.87-19.653-7.3,8.061-.117,13.356,1.153,20.016,6.881,5.15,4.428,15.183,30.212,10.521,42.786-1.719,4.634-5.2,6.983-10.345,6.983" transform="translate(9.187 7.308)" fill="#1a1a1a"/>
        <path id="Trazado_607964" data-name="Trazado 607964" d="M76.449,138.627c-5.851,0-9.763-2.542-11.621-7.556-4.671-12.6,5.387-37.683,10.673-42.227,6.483-5.574,12.9-6.979,21.151-7.438-8.1,1.011-14.423,2.39-20.786,7.861-5.21,4.479-15.12,29.2-10.516,41.61,1.77,4.773,5.5,7.192,11.1,7.192.279.434.154.558,0,.558" transform="translate(5.677 7.263)" fill="#1a1a1a"/>
        <path id="Trazado_607965" data-name="Trazado 607965" d="M198.732,94.308a42.514,42.514,0,0,1-.407-10.979c.549.118-.053,6.368.681,10.654-.242.325-.257.326-.273.326" transform="translate(17.678 7.435)" fill="#1a1a1a"/>
        <path id="Trazado_607966" data-name="Trazado 607966" d="M199.467,103.073a3.043,3.043,0,0,1-2.328-1.095,3.078,3.078,0,0,1-.82-1.693c.481.239,1.183,2.3,3.148,2.3a2.316,2.316,0,0,0,2.068-.772c.656-1.029-.217-2.914-.739-4.039-.1-.207-.18-.388-.241-.535a5.56,5.56,0,0,0-2.8-3.346,5.346,5.346,0,0,0-4.488-.111c-.122-.479,2.14-1.594,4.7-.32A6.04,6.04,0,0,1,201,97.06c.059.142.139.317.234.517.562,1.216,1.5,3.249.709,4.5a2.727,2.727,0,0,1-2.456,1Z" transform="translate(17.244 8.287)" fill="#1a1a1a"/>
        <path id="Trazado_607967" data-name="Trazado 607967" d="M201.67,100.692c1.2-.738,1.928-1.214,2.1-1.888.32-1.232-1.2-3.092-2.6-4.309a3.976,3.976,0,0,0-3.611-.616c-.061-.489,2.2-1.25,3.929.252.765.666,3.224,2.978,2.751,4.8-.227.866-1.076,1.458-2.523,1.761a.264.264,0,0,1-.049,0" transform="translate(17.627 8.32)" fill="#1a1a1a"/>
        <path id="Trazado_607968" data-name="Trazado 607968" d="M187.095,94.343c.907-2.6,2.55-3.667,4.774-3.667a6.7,6.7,0,0,1,4.6,2.365c-1.834-1.064-3.244-1.8-4.585-1.807a4.82,4.82,0,0,0-4.549,2.961.278.278,0,0,1-.245.149" transform="translate(16.693 8.09)" fill="#1a1a1a"/>
        <path id="Trazado_607969" data-name="Trazado 607969" d="M199.183,118.128a40.633,40.633,0,0,1-13.943-2.978,58.289,58.289,0,0,1-13.535-7.219,22.594,22.594,0,0,1,2.009-8.254,17.893,17.893,0,0,1,6.637-7.437c.252-.013,11.558,5,11.558,5-.227.51-11.4-4.447-11.4-4.447a17.747,17.747,0,0,0-6.289,7.117,27.45,27.45,0,0,0-2.056,7.662,57.67,57.67,0,0,0,13.272,7.054c5.709,2.125,10.506,3.088,14.613,2.928a28.445,28.445,0,0,0,8.74-1.453,13.458,13.458,0,0,0,6.261-4.546c1.888-2.618,2.068-5.887,2.015-8.441a65.052,65.052,0,0,0-2.22-14.25c-.4-1.582-.845-3.2-1.334-4.827-2.929-9.707-9.259-14.713-19.354-15.3,10.389.049,16.882,5.185,19.888,15.141.492,1.631.943,3.263,1.341,4.852a65.809,65.809,0,0,1,2.239,14.373c.052,2.642-.138,6.028-2.122,8.779a14.007,14.007,0,0,1-6.519,4.744,28.966,28.966,0,0,1-8.913,1.489c-.292.011-.587.015-.887.015" transform="translate(15.318 6.133)" fill="#1a1a1a"/>
        <path id="Trazado_607970" data-name="Trazado 607970" d="M173.641,114.362c-5.031,0-10.657-.561-13.158-2.788-6.441-5.739-2.315-14.413.7-20.746.194-.406.394-.839.6-1.293,3.277-7.053,8.765-18.858,24.713-20.978-15.572,2.633-20.977,14.263-24.208,21.213-.211.455-.414.889-.608,1.3-2.935,6.174-6.957,14.632-.828,20.092,4.744,4.226,22.117,2.1,22.289,2.077-.286.6-4.614,1.127-9.5,1.127" transform="translate(14.015 6.117)" fill="#1a1a1a"/>
        <path id="Trazado_607971" data-name="Trazado 607971" d="M168.547,136.031a.289.289,0,0,1-.272-.335c1.878-8.976,1.668-25.184,1.664-25.346.56.155.771,16.423-1.12,25.461a.278.278,0,0,1-.272.221" transform="translate(15.013 9.846)" fill="#1a1a1a"/>
        <path id="Trazado_607972" data-name="Trazado 607972" d="M209.235,136c.382-11.361-.078-25.145-.081-25.282.56.119,1.02,13.927.357,25.021a.276.276,0,0,1-.277.261" transform="translate(18.661 9.878)" fill="#1a1a1a"/>
        <path id="Trazado_607973" data-name="Trazado 607973" d="M181.292,91.479a101.387,101.387,0,0,1,11.111-.8c-.051.558-5.956.631-11.1.8Z" transform="translate(16.175 8.09)" fill="#1a1a1a"/>
        <path id="Trazado_607974" data-name="Trazado 607974" d="M160.013,101.839c-.207-.037-.3-.184-.271-.335,1.587-7.645,6.778-8.785,7-8.83,5.154-1.152,9.179,3.052,9.347,3.231-.445.34-4.4-3.769-9.229-2.685-.057.011-5.062,1.131-6.572,8.4a.277.277,0,0,1-.272.221" transform="translate(14.252 8.251)" fill="#1a1a1a"/>
        <path id="Trazado_607975" data-name="Trazado 607975" d="M166.238,93.51c-.29-.264-.963-2.19,2.049-3.7,2.923-1.466,6.516.6,6.668.688-.317.462-3.77-1.523-6.417-.188-2.546,1.278-2.059,2.769-2.037,2.832-.2.367-.232.373-.264.373" transform="translate(14.808 7.966)" fill="#1a1a1a"/>
        <path id="Trazado_607976" data-name="Trazado 607976" d="M180.672,91.076a22.256,22.256,0,0,0-5.757-2.668,4.671,4.671,0,0,0-5.223,1.524c-.44-.344,1.584-3.2,5.385-2.058a19.368,19.368,0,0,1,5.764,2.7c0,.462-.087.5-.17.5" transform="translate(15.135 7.816)" fill="#1a1a1a"/>
        <path id="Trazado_607977" data-name="Trazado 607977" d="M90.647,72.778a3.284,3.284,0,0,1-2.39-1.078,3.183,3.183,0,0,1,.282-4.491,3.191,3.191,0,0,1,3.284-.57,1.107,1.107,0,0,1-1.015.338,2.624,2.624,0,1,0-.328,5.238,2.7,2.7,0,0,0,1.372-.29,1.075,1.075,0,0,1-1.206.853" transform="translate(7.804 5.925)" fill="#1a1a1a"/>
        <path id="Trazado_607978" data-name="Trazado 607978" d="M89.8,71.084c-.17-.5,1.417-1.723,1.417-1.723.339.44-1.248,1.664-1.248,1.664a.264.264,0,0,1-.169.059" transform="translate(8.011 6.189)" fill="#1a1a1a"/>
        <path id="Trazado_607979" data-name="Trazado 607979" d="M91.272,69.316c-.167-.054-1.815-1.274-1.815-1.274.333-.448,1.981.772,1.981.772,0,.463-.082.5-.167.5" transform="translate(7.982 6.062)" fill="#1a1a1a"/>
        <path id="Trazado_607980" data-name="Trazado 607980" d="M106.68,72.778a3.178,3.178,0,0,1-1.465-.357,3.983,3.983,0,0,1,1.631-.206,2.625,2.625,0,0,0,1.573-4.588,2.571,2.571,0,0,0-1.9-.651,2.616,2.616,0,0,0-.862.2c.111-.655.463-.737.826-.759a3.181,3.181,0,0,1,.4,6.35c-.068,0-.134.008-.2.008" transform="translate(9.387 5.925)" fill="#1a1a1a"/>
        <path id="Trazado_607981" data-name="Trazado 607981" d="M107.295,71.058c-.17-.059-1.79-1.309-1.79-1.309.34-.44,1.96.81,1.96.81,0,.462-.087.5-.17.5" transform="translate(9.413 6.215)" fill="#1a1a1a"/>
        <path id="Trazado_607982" data-name="Trazado 607982" d="M105.718,69.429c-.167-.5,1.6-1.806,1.6-1.806.332.448-1.43,1.751-1.43,1.751a.28.28,0,0,1-.167.054" transform="translate(9.431 6.033)" fill="#1a1a1a"/>
        <path id="Trazado_607983" data-name="Trazado 607983" d="M99.1,78.641a8.045,8.045,0,0,1-4.992-1.534,7.747,7.747,0,0,1-2.489-4.8,14.617,14.617,0,0,1-.176-1.606,2.637,2.637,0,0,1,.724,1.5,7.22,7.22,0,0,0,2.287,4.466A7.489,7.489,0,0,0,99.1,78.083c.279.434.154.558,0,.558" transform="translate(8.158 6.309)" fill="#1a1a1a"/>
        <path id="Trazado_607984" data-name="Trazado 607984" d="M91.625,67.072A3.52,3.52,0,0,1,91.3,65.1a3.7,3.7,0,0,1,.606,1.674c-.266.3-.27.3-.278.3" transform="translate(8.146 5.808)" fill="#1a1a1a"/>
        <path id="Trazado_607985" data-name="Trazado 607985" d="M91.553,65.906a13.684,13.684,0,0,0,7.231-6.649c.43.416-1.611,5.11-7.157,6.639a.3.3,0,0,1-.074.01" transform="translate(8.169 5.287)" fill="#1a1a1a"/>
        <path id="Trazado_607986" data-name="Trazado 607986" d="M98.427,78.662c1.309-.558,3.176-.8,4.647-1.971a7.219,7.219,0,0,0,2.286-4.466,14.519,14.519,0,0,0,.186-1.759,2.5,2.5,0,0,1,.363,1.867,7.752,7.752,0,0,1-2.489,4.8,8.048,8.048,0,0,1-4.993,1.534" transform="translate(8.782 6.287)" fill="#1a1a1a"/>
        <path id="Trazado_607987" data-name="Trazado 607987" d="M105.367,67.086a6.983,6.983,0,0,1-.28-1.975c.566.392.566,1,.559,1.7a.278.278,0,0,1-.279.274" transform="translate(9.376 5.809)" fill="#1a1a1a"/>
        <path id="Trazado_607988" data-name="Trazado 607988" d="M105.982,65.888a12.306,12.306,0,0,1-7.79-6.43c.532-.175,2.584,4.427,7.864,5.883.161.467.048.547-.074.547" transform="translate(8.761 5.305)" fill="#1a1a1a"/>
        <path id="Trazado_607989" data-name="Trazado 607989" d="M99,87.822a6.356,6.356,0,0,1-5.272-2.375,2.279,2.279,0,0,1-.315-2.184c.71-1.674.864-6.551.866-6.6.551.221.4,5.049-.354,6.817a1.748,1.748,0,0,0,.268,1.658A5.822,5.822,0,0,0,99,87.264c2.249,0,3.973-.656,4.73-1.8a2.078,2.078,0,0,0,.221-1.982c-.752-1.769-.9-6.6-.908-6.8.556.033.71,4.909,1.42,6.583a2.627,2.627,0,0,1-.268,2.508c-.508.766-1.857,2.05-5.2,2.05" transform="translate(8.32 6.84)" fill="#1a1a1a"/>
        <path id="Trazado_607990" data-name="Trazado 607990" d="M107.049,67.723a.289.289,0,0,1-.277-.321c.643-4.1.644-6.192.013-7.987-1.114-3.167-5.049-4.312-8.361-4.329,3.505-.54,7.677.7,8.888,4.142.664,1.894.669,4.055.012,8.26a.279.279,0,0,1-.276.235" transform="translate(8.782 4.904)" fill="#1a1a1a"/>
        <path id="Trazado_607991" data-name="Trazado 607991" d="M90.433,67.759c-.932-4.44-.928-6.6-.265-8.495,1.21-3.439,5.384-4.683,8.886-4.7-3.31.573-7.246,1.718-8.358,4.884-.632,1.8-.631,3.886.012,7.988-.247.32-.261.321-.276.321" transform="translate(8.003 4.868)" fill="#1a1a1a"/>
        <path id="Trazado_607992" data-name="Trazado 607992" d="M94.688,65.092a1.809,1.809,0,0,1,2-.725,8.593,8.593,0,0,1-1.9.707.291.291,0,0,1-.1.019" transform="translate(8.448 5.738)" fill="#1a1a1a"/>
        <path id="Trazado_607993" data-name="Trazado 607993" d="M102.765,65.089a3.185,3.185,0,0,0-1.922-.181,1.619,1.619,0,0,1,2.034-.353c.1.472-.005.534-.111.534" transform="translate(8.997 5.741)" fill="#1a1a1a"/>
        <path id="Trazado_607994" data-name="Trazado 607994" d="M98.927,74.643a4.3,4.3,0,0,1-1.217-.181c.184-.526,1.539-.1,2.409-.693a2.029,2.029,0,0,0,.764-1.652,1.511,1.511,0,0,1-.453,2.115,2.662,2.662,0,0,1-1.5.411" transform="translate(8.718 6.434)" fill="#1a1a1a"/>
        <path id="Trazado_607995" data-name="Trazado 607995" d="M96.765,72.526a2.653,2.653,0,0,1-1.17-1.773,1.078,1.078,0,0,1,.319-.8,1.2,1.2,0,0,1,.879-.384,1.8,1.8,0,0,1,.948.321c.171-1.534.29-3.686-.022-4.158,1.026.545.6,4.03.514,4.721-.608.024-1.04-.327-1.44-.327a.659.659,0,0,0-.484.218,1.921,1.921,0,0,0,.64,1.7c-.034.456-.11.487-.185.487" transform="translate(8.529 5.864)" fill="#1a1a1a"/>
        <path id="Trazado_607996" data-name="Trazado 607996" d="M153.6,133.491c.063-.578,3.016-1.278,3.2-4.211a2.186,2.186,0,0,0-.587-1.8,3.675,3.675,0,0,0-2.56-.7c.02-.562,1.856-.744,2.943.293a2.715,2.715,0,0,1,.758,2.241c-.206,3.355-3.654,4.162-3.689,4.17a.29.29,0,0,1-.061.007" transform="translate(13.705 11.271)" fill="#1a1a1a"/>
        <path id="Trazado_607997" data-name="Trazado 607997" d="M153.72,135.428c.184-.577,5.159-1.133,4.815-5.935a4.579,4.579,0,0,0-1.5-3.36,4.932,4.932,0,0,0-3.34-.953c.027-.563,2.1-.794,3.689.521a5.106,5.106,0,0,1,1.7,3.755c.383,5.346-5.286,5.966-5.345,5.972h-.026" transform="translate(13.713 11.129)" fill="#1a1a1a"/>
        <path id="Trazado_607998" data-name="Trazado 607998" d="M148.844,137.273c-.989,0-5.922-.056-5.922-1.175a23.518,23.518,0,0,0,5.922.619c3.167,0,5.229-.4,5.445-.679.541,1.18-4.446,1.235-5.445,1.235" transform="translate(12.752 12.138)" fill="#1a1a1a"/>
        <path id="Trazado_607999" data-name="Trazado 607999" d="M143.2,137.415c-.279-.279-.279-13.005-.279-13.005.559,0,.559,12.726.559,12.726a.28.28,0,0,1-.28.279" transform="translate(12.752 11.1)" fill="#1a1a1a"/>
        <path id="Trazado_608000" data-name="Trazado 608000" d="M153.626,137.423c-.279-.279-.279-13.1-.279-13.1.558,0,.558,12.821.558,12.821a.279.279,0,0,1-.279.279" transform="translate(13.682 11.092)" fill="#1a1a1a"/>
        <path id="Trazado_608001" data-name="Trazado 608001" d="M148.879,125.871c-.244,0-5.958-.015-5.958-1.351s5.714-1.35,5.958-1.35,5.956.015,5.956,1.35-5.712,1.351-5.956,1.351m-5.391-1.351c.23.3,2.145.794,5.391.794,3.329,0,5.258-.524,5.4-.817-.145-.247-2.074-.771-5.4-.771-3.246,0-5.161.5-5.391.794" transform="translate(12.752 10.99)" fill="#1a1a1a"/>
        <path id="Trazado_608002" data-name="Trazado 608002" d="M224.562,134.017H155.694c0-.558,68.868-.558,68.868-.558.28.432.155.558,0,.558" transform="translate(13.891 11.907)" fill="#1a1a1a"/>
        <path id="Trazado_608003" data-name="Trazado 608003" d="M150.581,134.017H60.191c0-.558,90.39-.558,90.39-.558.28.432.155.558,0,.558" transform="translate(5.37 11.907)" fill="#1a1a1a"/>
        <path id="Trazado_608004" data-name="Trazado 608004" d="M21.89,134.017H4.884c0-.558,17.006-.558,17.006-.558.279.432.154.558,0,.558" transform="translate(0.436 11.907)" fill="#1a1a1a"/>
        <path id="Trazado_608005" data-name="Trazado 608005" d="M47.138,9.061a1.213,1.213,0,1,0-1.214-1.214,1.213,1.213,0,0,0,1.214,1.214" transform="translate(4.097 0.592)" fill="#1a1a1a"/>
        <path id="Trazado_608006" data-name="Trazado 608006" d="M55.8,9.129a1.277,1.277,0,1,0-1.277-1.278A1.278,1.278,0,0,0,55.8,9.129" transform="translate(4.865 0.587)" fill="#1a1a1a"/>
        <path id="Trazado_608007" data-name="Trazado 608007" d="M64.456,9.027a1.182,1.182,0,1,0-1.183-1.183,1.182,1.182,0,0,0,1.183,1.183" transform="translate(5.645 0.594)" fill="#1a1a1a"/>
        <path id="Trazado_608008" data-name="Trazado 608008" d="M47.144,17.788a1.276,1.276,0,1,0-1.277-1.275,1.276,1.276,0,0,0,1.277,1.275" transform="translate(4.092 1.359)" fill="#1a1a1a"/>
        <path id="Trazado_608009" data-name="Trazado 608009" d="M55.809,17.856a1.339,1.339,0,1,0-1.339-1.339,1.339,1.339,0,0,0,1.339,1.339" transform="translate(4.86 1.354)" fill="#1a1a1a"/>
        <path id="Trazado_608010" data-name="Trazado 608010" d="M64.461,17.754a1.244,1.244,0,1,0-1.246-1.244,1.244,1.244,0,0,0,1.246,1.244" transform="translate(5.64 1.362)" fill="#1a1a1a"/>
        <path id="Trazado_608011" data-name="Trazado 608011" d="M47.136,26.347a1.182,1.182,0,1,0-1.182-1.182,1.181,1.181,0,0,0,1.182,1.182" transform="translate(4.1 2.14)" fill="#1a1a1a"/>
        <path id="Trazado_608012" data-name="Trazado 608012" d="M55.8,26.414a1.245,1.245,0,1,0-1.245-1.245A1.245,1.245,0,0,0,55.8,26.414" transform="translate(4.868 2.135)" fill="#1a1a1a"/>
        <path id="Trazado_608013" data-name="Trazado 608013" d="M64.454,26.323a1.162,1.162,0,1,0-1.162-1.161,1.161,1.161,0,0,0,1.162,1.161" transform="translate(5.647 2.141)" fill="#1a1a1a"/>
        <path id="Trazado_608014" data-name="Trazado 608014" d="M164.837,48.6h-30.46a8.817,8.817,0,0,1-8.807-8.806V25.313a8.817,8.817,0,0,1,8.807-8.806h30.713a8.817,8.817,0,0,1,8.807,8.806V39.795a8.558,8.558,0,0,1-5.209,7.931,9.59,9.59,0,0,0,4.65-7.931V25.313a8.258,8.258,0,0,0-8.249-8.249H134.376a8.258,8.258,0,0,0-8.249,8.249V39.795a8.259,8.259,0,0,0,8.249,8.25h30.46c.279.432.155.557,0,.557" transform="translate(11.204 1.473)" fill="#1a1a1a"/>
        <path id="Trazado_608016" data-name="Trazado 608016" d="M60.833,78.185H59.057a4,4,0,0,1-4-3.991V69.336a22.136,22.136,0,0,0,9.391-.524c.375.524.375,5.382.375,5.382a4,4,0,0,1-4,3.991M55.621,69.44v4.753a3.438,3.438,0,0,0,3.436,3.434h1.775a3.439,3.439,0,0,0,3.436-3.434V69.45a15.418,15.418,0,0,1-8.648-.01" transform="translate(4.913 6.14)" fill="#1a1a1a"/>
        <path id="Trazado_608017" data-name="Trazado 608017" d="M60.814,72.471a15.3,15.3,0,1,1,4.661-.725,15.231,15.231,0,0,1-4.661.725m0-30.049A14.748,14.748,0,1,0,75.56,57.168,14.763,14.763,0,0,0,60.814,42.422" transform="translate(4.06 3.735)" fill="#1a1a1a"/>
        <path id="Trazado_608018" data-name="Trazado 608018" d="M65.516,73.627H54.5c0-.558,11.013-.558,11.013-.558.279.434.155.558,0,.558" transform="translate(4.863 6.519)" fill="#1a1a1a"/>
        <path id="Trazado_608019" data-name="Trazado 608019" d="M65.516,76.167H54.5c0-.558,11.013-.558,11.013-.558.279.434.155.558,0,.558" transform="translate(4.863 6.746)" fill="#1a1a1a"/>
        <path id="Trazado_608020" data-name="Trazado 608020" d="M65.516,71.087H54.5c0-.558,11.013-.558,11.013-.558.279.434.155.558,0,.558" transform="translate(4.863 6.293)" fill="#1a1a1a"/>
        <path id="Trazado_608021" data-name="Trazado 608021" d="M65.516,73.627H54.5c0-.558,11.013-.558,11.013-.558.279.434.155.558,0,.558" transform="translate(4.863 6.519)" fill="#1a1a1a"/>
        <path id="Trazado_608022" data-name="Trazado 608022" d="M51.3,62.6c-.166,0-.322,0-.471-.01.916-.52,2.195-.554,3.031-1.287a3.256,3.256,0,0,0,.5-.554,4.649,4.649,0,0,1-.991-.945,4.464,4.464,0,0,1-.869-3.3c.052-.4.418-2,1.24-2.446a.927.927,0,0,1,.86-.021c.556.259.769,1.023.91,1.529A7.063,7.063,0,0,1,55.8,57.6a6.718,6.718,0,0,1-.681,2.966,9.719,9.719,0,0,0,4.968.882,9.535,9.535,0,0,0,3.127-.537A5.164,5.164,0,0,0,65.718,59a3.126,3.126,0,0,1-1.786-2.245,2.75,2.75,0,0,1,.274-1.517,1.872,1.872,0,0,1,1.064-1.049,1.03,1.03,0,0,1,.966.138c.735.545.766,2.031.766,2.323a4.783,4.783,0,0,1-.49,2.095,14.015,14.015,0,0,0,4.956.63,7.858,7.858,0,0,1-5.234-.139,5.69,5.69,0,0,1-2.824,2.2A10.092,10.092,0,0,1,60.1,62a10.419,10.419,0,0,1-5.272-.963,3.811,3.811,0,0,1-.607.677A4.4,4.4,0,0,1,51.3,62.6m2.889-8.107A3.01,3.01,0,0,0,53.05,56.57a3.905,3.905,0,0,0,.76,2.888,4.041,4.041,0,0,0,.841.809,6.177,6.177,0,0,0,.591-2.672,6.272,6.272,0,0,0-.236-1.765c-.147-.532-.32-1.146-.644-1.3a.413.413,0,0,0-.178-.044m11.456.2a1.335,1.335,0,0,0-.931.788,2.2,2.2,0,0,0-.227,1.21A2.436,2.436,0,0,0,65.8,58.411a2.334,2.334,0,0,0,.645-1.762,2.677,2.677,0,0,0-.539-1.875.427.427,0,0,0-.262-.086" transform="translate(4.535 4.812)" fill="#1a1a1a"/>
        <path id="Trazado_608023" data-name="Trazado 608023" d="M37.07,74.9c-.175-.495,10.958-9.557,10.958-9.557.351.431-10.782,9.494-10.782,9.494a.273.273,0,0,1-.175.063" transform="translate(3.307 5.83)" fill="#1a1a1a"/>
        <path id="Trazado_608024" data-name="Trazado 608024" d="M46.269,47.058C46.1,47,40.1,42.325,40.1,42.325c.343-.441,6.344,4.235,6.344,4.235-.008.461-.088.5-.172.5" transform="translate(3.578 3.774)" fill="#1a1a1a"/>
        <path id="Trazado_608025" data-name="Trazado 608025" d="M59.568,41.311c-.28-.278-.28-13.993-.28-13.993a6.974,6.974,0,0,1,6.967-6.966h63.861c0,.557-63.861.557-63.861.557a6.415,6.415,0,0,0-6.408,6.409V41.033a.278.278,0,0,1-.279.278" transform="translate(5.29 1.816)" fill="#1a1a1a"/>
        <path id="Trazado_608026" data-name="Trazado 608026" d="M89.628,73.006H65.683c0-.558,23.945-.558,23.945-.558.28.434.155.558,0,.558" transform="translate(5.86 6.464)" fill="#1a1a1a"/>
        <path id="Trazado_608027" data-name="Trazado 608027" d="M141.763,74.654H109.226c0-.558,32.537-.558,32.537-.558a6.414,6.414,0,0,0,6.407-6.408V53.973c.559,0,.559,13.715.559,13.715a6.974,6.974,0,0,1-6.966,6.966" transform="translate(9.745 4.816)" fill="#1a1a1a"/>
        <path id="Trazado_608028" data-name="Trazado 608028" d="M60.118,135.933c-.279-.278-.279-12.512-.279-12.512.559,0,.559,12.234.559,12.234a.279.279,0,0,1-.28.278" transform="translate(5.339 11.012)" fill="#1a1a1a"/>
        <path id="Trazado_608029" data-name="Trazado 608029" d="M52.467,127.384H22.64c0-.558,29.827-.558,29.827-.558.279.432.154.558,0,.558" transform="translate(2.02 11.316)" fill="#1a1a1a"/>
        <path id="Trazado_608030" data-name="Trazado 608030" d="M52.467,131.286H22.64c0-.558,29.827-.558,29.827-.558.279.432.154.558,0,.558" transform="translate(2.02 11.664)" fill="#1a1a1a"/>
        <path id="Trazado_608031" data-name="Trazado 608031" d="M63.819,138.37c-.112,0-.758,0-.758,0H24.576a4.244,4.244,0,0,1-4.238-4.238v-8.771a4.243,4.243,0,0,1,4.238-4.238l39.158,0a1.791,1.791,0,0,1,1.192.39,1.172,1.172,0,0,1,.362.894,1.472,1.472,0,0,1-.444,1.146,1.573,1.573,0,0,1-1.136.354l-39.13,0a1.453,1.453,0,0,0-1.452,1.453v8.771a1.453,1.453,0,0,0,1.452,1.452H63.734a1.815,1.815,0,0,1,1.192.391,1.168,1.168,0,0,1,.362.893,1.471,1.471,0,0,1-.444,1.145,1.554,1.554,0,0,1-1.024.359m-.032-16.7c-.037,0-39.211,0-39.211,0a3.684,3.684,0,0,0-3.68,3.682v8.771a3.684,3.684,0,0,0,3.68,3.68H63.734a1.07,1.07,0,0,0,.738-.216.943.943,0,0,0,.256-.729.63.63,0,0,0-.184-.488,1.212,1.212,0,0,0-.794-.24H24.576a2.011,2.011,0,0,1-2.011-2.009v-8.771a2.012,2.012,0,0,1,2.011-2.01l39.158,0a1.083,1.083,0,0,0,.738-.216.941.941,0,0,0,.256-.729.636.636,0,0,0-.184-.489,1.189,1.189,0,0,0-.757-.24" transform="translate(1.815 10.806)" fill="#1a1a1a"/>
        <path id="Trazado_608032" data-name="Trazado 608032" d="M31.8,120.97c-.281-.278-.281-8.2-.281-8.2.559,0,.559,7.924.559,7.924a.278.278,0,0,1-.278.278" transform="translate(2.812 10.061)" fill="#1a1a1a"/>
        <path id="Trazado_608033" data-name="Trazado 608033" d="M58.663,116.707H36.332c0-.558,22.331-.558,22.331-.558.279.432.154.558,0,.558" transform="translate(3.242 10.363)" fill="#1a1a1a"/>
        <path id="Trazado_608034" data-name="Trazado 608034" d="M61.106,120.809a1.219,1.219,0,0,0,1.3-1.121v-5.681a1.22,1.22,0,0,0-1.3-1.121H32.215c-.426,0-1.378.049-1.378-.652,0-.876.952-.792.952-.792H61.106a2.794,2.794,0,0,1,2.964,2.565v5.681a2.794,2.794,0,0,1-2.964,2.565l-29.318,0s-.952.049-.952-.652c0-.876.952-.791.952-.791Z" transform="translate(2.751 9.943)" fill="#1a1a1a"/>
        <path id="Trazado_608035" data-name="Trazado 608035" d="M17.749,132.975a20.762,20.762,0,0,1-2.809-1.882,9.316,9.316,0,0,1,2.952,1.364c.044.469-.048.518-.143.518m-5.091-3.892a27.247,27.247,0,0,1-2.5-2.319,7.589,7.589,0,0,1,2.69,1.834c-.036.453-.11.485-.186.485m-4.471-4.6a24.173,24.173,0,0,1-2.242-2.6A7.331,7.331,0,0,1,8.4,124.021c-.081.439-.144.461-.209.461m-3.862-5.12a16.549,16.549,0,0,1-1.846-2.937,7.8,7.8,0,0,1,2.08,2.507c-.131.415-.182.429-.234.429m-2.786-5.757A12.994,12.994,0,0,1,.5,110.264a8.371,8.371,0,0,1,1.306,2.98c-.212.357-.24.361-.268.361m-1.18-6.29A6.746,6.746,0,0,1,0,104.928c0-.369.008-.74.023-1.108a1.118,1.118,0,0,1,.537,1.108c0,.694.025,1.4.076,2.087-.264.3-.27.3-.278.3m.264-6.394a.285.285,0,0,1-.273-.325,24.23,24.23,0,0,1,.733-3.158A8.727,8.727,0,0,1,.9,100.687a.278.278,0,0,1-.276.234M2.5,94.812A7.359,7.359,0,0,1,3.881,91.6a9.389,9.389,0,0,1-1.126,3.05.273.273,0,0,1-.251.158m22.21-1.184a4.327,4.327,0,0,1-1.3-.2,5.578,5.578,0,0,1-1.2-.538,1.659,1.659,0,0,1,1.368.007,3.85,3.85,0,0,0,1.8.114c-.151.594-.407.614-.664.614m3.33-1.759c.09-.933.26-1.513.26-2.107a3.479,3.479,0,0,0-.192-1.118,1.029,1.029,0,0,1,.749,1.118,3.655,3.655,0,0,1-.583,1.978.282.282,0,0,1-.235.129M20.1,90.689a2.48,2.48,0,0,1-.6-.743,13.272,13.272,0,0,1-.975-2.368,6.621,6.621,0,0,1,1.461,2.1c.109.2.227.39.349.579-.129.417-.179.431-.232.431M6.192,89.611A5.8,5.8,0,0,1,8.62,87.189a10.786,10.786,0,0,1-2.244,2.349.273.273,0,0,1-.184.072m5.4-3.431a6.052,6.052,0,0,1,2.894-1.726,8.386,8.386,0,0,1-2.775,1.7.287.287,0,0,1-.119.025m15.135-.11a7.968,7.968,0,0,0-2.8-1.676,3.489,3.489,0,0,1,3,1.2c-.057.448-.129.475-.2.475m-8.762-1.394c-.664-1.7-.891-2.466-1.169-3.169a3.159,3.159,0,0,1,1.242,2.064,16.676,16.676,0,0,1,2.632-.221,5.4,5.4,0,0,1-2.491.762c-.168.561-.191.563-.213.563m-1.908-6.118a11.8,11.8,0,0,1-.847-3.4,8.74,8.74,0,0,1,1.116,3.055c-.224.343-.248.345-.269.345M15.306,72.2a10.332,10.332,0,0,1-.072-3.511,8.466,8.466,0,0,1,.352,3.234.281.281,0,0,1-.28.277m.78-6.351c-.216-.044-.307-.195-.269-.345a26.554,26.554,0,0,1,.957-3.093,8.494,8.494,0,0,1-.417,3.226.28.28,0,0,1-.271.212m2.266-5.985A7.646,7.646,0,0,1,19.809,56.7,8.763,8.763,0,0,1,18.6,59.719a.273.273,0,0,1-.245.147m3.72-5.2a6.556,6.556,0,0,1,2.2-2.649,9.049,9.049,0,0,1-2,2.563.277.277,0,0,1-.2.086m5.04-3.924a5.794,5.794,0,0,1,2.8-1.89,9.249,9.249,0,0,1-2.669,1.854.268.268,0,0,1-.136.036m5.974-2.257a5.425,5.425,0,0,1,3.143-1.028,8.9,8.9,0,0,1-3.084,1.023.408.408,0,0,1-.06.005m9.561-.248a31.124,31.124,0,0,0-3.2-.292,5.373,5.373,0,0,1,3.244-.263c.216.455.1.554-.039.554" transform="translate(0 4.235)" fill="#1a1a1a"/>
        <path id="Trazado_608036" data-name="Trazado 608036" d="M98.516,99.139c-.28-.279-.28-10.025-.28-10.025.559,0,.559,9.746.559,9.746a.279.279,0,0,1-.279.279" transform="translate(8.765 7.951)" fill="#1a1a1a"/>
        <path id="Trazado_608037" data-name="Trazado 608037" d="M85.128,84.119c-.22-.048-.309-.2-.269-.35.5-1.882,1.834-2.735,3.122-3.56a8.047,8.047,0,0,0,2.487-2.127c1.542-2.248.57-5.978.559-6.015.582.017,1.59,3.869-.1,6.331a8.509,8.509,0,0,1-2.646,2.281c-1.254.8-2.437,1.561-2.884,3.233a.278.278,0,0,1-.269.207" transform="translate(7.57 6.43)" fill="#1a1a1a"/>
        <path id="Trazado_608038" data-name="Trazado 608038" d="M112.3,84.135a6.645,6.645,0,0,0-3.153-3.44,8.509,8.509,0,0,1-2.646-2.281c-1.689-2.462-.671-6.356-.626-6.52.527.183-.457,3.956,1.086,6.2a8.072,8.072,0,0,0,2.487,2.127c1.287.825,2.62,1.677,3.122,3.56-.221.346-.246.35-.269.35" transform="translate(9.416 6.415)" fill="#1a1a1a"/>
        <path id="Trazado_608039" data-name="Trazado 608039" d="M124.11,34.089h-3.428c0-.558,3.428-.558,3.428-.558.279.434.154.558,0,.558" transform="translate(10.768 2.992)" fill="#1a1a1a"/>
        <path id="Trazado_608040" data-name="Trazado 608040" d="M113.405,34.089h-37.2c0-.558,37.2-.558,37.2-.558.279.434.154.558,0,.558" transform="translate(6.799 2.992)" fill="#1a1a1a"/>
        <path id="Trazado_608041" data-name="Trazado 608041" d="M128.078,46.714H76.205c0-.557,51.873-.557,51.873-.557.279.432.154.557,0,.557" transform="translate(6.799 4.118)" fill="#1a1a1a"/>
        <path id="Trazado_608042" data-name="Trazado 608042" d="M171.507,88.762c-.219-.048-.309-.2-.269-.35l1.769-6.687c.537.142-1.231,6.829-1.231,6.829a.276.276,0,0,1-.269.207" transform="translate(15.277 7.292)" fill="#1a1a1a"/>
        <path id="Trazado_608043" data-name="Trazado 608043" d="M194.961,103a2.631,2.631,0,0,1-1.986-.754,3.41,3.41,0,0,1-.474-2.591c.017-.2.034-.379.034-.529a5.227,5.227,0,0,0-2.446-3.543,4.116,4.116,0,0,1,3,3.548c0,.163-.019.358-.036.573a2.958,2.958,0,0,0,.34,2.177,1.984,1.984,0,0,0,1.458.559,1.352,1.352,0,0,0,1.3-.591c.88-1.249.472-4.026-.161-5.551a4.782,4.782,0,0,0-4.375-2.743,2.478,2.478,0,0,0-2.123,1.309c-.469-.314.35-1.939,2.148-1.866a5.318,5.318,0,0,1,4.863,3.086c.658,1.582,1.144,4.607.1,6.084a1.929,1.929,0,0,1-1.647.832" transform="translate(16.895 8.297)" fill="#1a1a1a"/>
        <path id="Trazado_608044" data-name="Trazado 608044" d="M206.8,75.969c-.229-.056-.312-.211-.268-.359,1.193-3.971-.88-5-3.073-6.085-1.62-.8-3.295-1.633-3.592-3.67-.343-2.353.8-4.751,1.909-7.071,1.082-2.262,2.2-4.6,1.919-6.87-.548-4.433-9.215-5.706-9.3-5.72-1.058-1.253-4.319-2.371-7.6-2.159-2.676.18-4.689,1.221-5.664,2.93a9.537,9.537,0,0,0,0,9.047c-.506.239-3.249-4.467-.481-9.323,1.071-1.878,3.243-3.019,6.112-3.211,3.126-.213,6.646.784,7.826,2.18,1.089.17,9.1,1.564,9.667,6.186.3,2.429-.853,4.844-1.968,7.181s-2.178,4.563-1.86,6.751c.255,1.746,1.728,2.476,3.287,3.249,2.2,1.089,4.686,2.322,3.36,6.746a.28.28,0,0,1-.267.2" transform="translate(16.008 3.877)" fill="#1a1a1a"/>
        <path id="Trazado_608045" data-name="Trazado 608045" d="M182.353,69.751c-2.015-3.017.069-4.673.09-4.689.27.495-1.36,1.818.147,4.264-.137.411-.188.425-.237.425" transform="translate(16.192 5.805)" fill="#1a1a1a"/>
        <path id="Trazado_608046" data-name="Trazado 608046" d="M203.542,114.362c-2.8-3.32-1.742-8.312,2.192-11.471,2.839-2.278,6.189-2.918,8.963-1.73a10.241,10.241,0,0,0-8.612,2.164c-3.69,2.962-4.712,7.611-2.324,10.584-.094.431-.157.452-.218.452" transform="translate(18.02 8.974)" fill="#1a1a1a"/>
        <path id="Trazado_608047" data-name="Trazado 608047" d="M208.633,71.155a10.241,10.241,0,0,1,.985-3.344,7.429,7.429,0,0,1-.73,3.179.283.283,0,0,1-.255.164m2.372-5.97a13.3,13.3,0,0,1,.756-3.407A6.138,6.138,0,0,1,211.268,65a.281.281,0,0,1-.263.186m1.943-6.116c-.225-.052-.31-.206-.269-.355.284-1.005.56-2.048.816-3.093a6.174,6.174,0,0,1-.279,3.245.278.278,0,0,1-.268.2m1.528-6.233a.287.287,0,0,1-.271-.335c.217-1.055.415-2.113.587-3.142a6.034,6.034,0,0,1-.042,3.256.278.278,0,0,1-.273.222m1.052-6.328a.285.285,0,0,1-.277-.314c.133-1.064.241-2.134.324-3.179a5.958,5.958,0,0,1,.228,3.248.277.277,0,0,1-.274.245m.5-6.4a5.6,5.6,0,0,1-.257-1.928q0-.774-.02-1.55a1.78,1.78,0,0,1,.578,1.55c0,.553-.008,1.107-.025,1.657a.277.277,0,0,1-.277.271m-.183-6.408a26.942,26.942,0,0,1-.667-3.418,5.729,5.729,0,0,1,.944,3.114c-.261.3-.268.3-.278.3m-1-6.329c-.521-1.267-.807-2.3-1.125-3.283a5.577,5.577,0,0,1,1.4,2.94c-.228.34-.249.343-.27.343m-1.975-6.094c-.671-1.147-1.132-2.111-1.633-3.036a5.506,5.506,0,0,1,1.889,2.649c-.184.38-.22.387-.256.387m-3.041-5.636c-.82-1-1.461-1.855-2.134-2.67a5.519,5.519,0,0,1,2.366,2.235c-.124.419-.179.435-.232.435" transform="translate(18.53 1.158)" fill="#1a1a1a"/>
        <path id="Trazado_608048" data-name="Trazado 608048" d="M148.39,15.119c-.158-.513.7-1.331,2.278-2.585a19.287,19.287,0,0,1-2.085,2.507.282.282,0,0,1-.193.077M153.4,11.1a7.336,7.336,0,0,1,2.507-2.315,7.275,7.275,0,0,1-2.345,2.263.278.278,0,0,1-.162.051m5.4-3.469a7.019,7.019,0,0,1,2.7-2.055,7.267,7.267,0,0,1-2.555,2.018.286.286,0,0,1-.141.037m5.72-2.906A6.721,6.721,0,0,1,167.4,2.97,7.28,7.28,0,0,1,164.636,4.7a.282.282,0,0,1-.113.024M198.743,3.7c-1.082-.444-2.079-.83-3.079-1.172a5.651,5.651,0,0,1,3.191.638c.1.472,0,.534-.112.534M170.529,2.478a6.3,6.3,0,0,1,3.033-1.387,7.488,7.488,0,0,1-2.952,1.374.242.242,0,0,1-.082.013m22.153-.847c-1.1-.267-2.147-.483-3.184-.651a5.608,5.608,0,0,1,3.25.1c.172.465.059.55-.066.55m-15.909-.611A5.947,5.947,0,0,1,179.93.074a7.594,7.594,0,0,1-3.114.942.2.2,0,0,1-.044,0M186.359.6c-1-.077-2.01-.115-3.01-.115A5.121,5.121,0,0,1,186.38.045c.245.445.123.557-.022.557" transform="translate(13.238 0)" fill="#1a1a1a"/>
        <path id="Trazado_608049" data-name="Trazado 608049" d="M202.982,12.978a4.553,4.553,0,1,1,4.553-4.553,4.56,4.56,0,0,1-4.553,4.553m0-8.55a4,4,0,1,0,4,4,4,4,0,0,0-4-4" transform="translate(17.704 0.345)" fill="#1a1a1a"/>
      </g>
    </g>
    <path id="Trazado_608050" data-name="Trazado 608050" d="M3076.061-3422.378l13.279,15.8h19.26l12.18-14.811" transform="translate(-2522.265 11699.932)" fill="none" stroke="#1a1a1a" stroke-width="0.7"/>
    <path id="Trazado_608051" data-name="Trazado 608051" d="M3085.4-3410.218l-11.3,10.652" transform="translate(-2522 11699.549)" fill="none" stroke="#1a1a1a" stroke-width="0.7"/>
    <path id="Trazado_608052" data-name="Trazado 608052" d="M3074.1-3410.218l9.817,9.89" transform="translate(-2484.669 11699.549)" fill="none" stroke="#1a1a1a" stroke-width="0.7"/>
  </g>
</svg>
