<svg xmlns="http://www.w3.org/2000/svg" xmlns:xlink="http://www.w3.org/1999/xlink" width="62" height="62" viewBox="0 0 62 62">
  <defs>
    <clipPath id="clip-path">
      <rect id="Rect치ngulo_346387" data-name="Rect치ngulo 346387" width="33.395" height="33.39" fill="#627289"/>
    </clipPath>
  </defs>
  <g id="Grupo_1015763" data-name="Grupo 1015763" transform="translate(-521 -12906)">
    <g id="Grupo_1014855" data-name="Grupo 1014855" transform="translate(136.001 10848)">
      <path id="Uni칩n_12" data-name="Uni칩n 12" d="M44.385,58.97a31.027,31.027,0,1,1,10.348-8.025L58.991,62Z" transform="translate(384.999 2058)" fill="#a3bfe4"/>
      <circle id="Elipse_4842" data-name="Elipse 4842" cx="26" cy="26" r="26" transform="translate(389.999 2063)" fill="#fff"/>
    </g>
    <g id="Grupo_1015796" data-name="Grupo 1015796" transform="translate(535.302 12917.305)">
      <g id="Grupo_1015795" data-name="Grupo 1015795" clip-path="url(#clip-path)">
        <path id="Trazado_606606" data-name="Trazado 606606" d="M0,33.39V12.326c1.286-.943,2.574-1.882,3.852-2.836a.514.514,0,0,0,.122-.366c.008-1.575.005-3.149.005-4.724V4.044h.405c2.161,0,4.322,0,6.483-.007a.919.919,0,0,0,.5-.163q2.114-1.521,4.21-3.066c.356-.261.7-.537,1.052-.807h.131A1.312,1.312,0,0,0,16.9.132q2.563,1.875,5.131,3.741a.917.917,0,0,0,.5.164c2.173.011,4.346.007,6.52.007h.364v.4c0,1.543.005,3.086-.006,4.629a.575.575,0,0,0,.264.536c1.161.841,2.306,1.7,3.466,2.543a.548.548,0,0,1,.259.505q-.01,10.187-.005,20.374v.362ZM5.934,6.013v.36c0,3.021,0,6.041-.006,9.062a.678.678,0,0,0,.272.575q4.369,3.715,8.734,7.436a.684.684,0,0,0,.4.155q1.369.02,2.738,0a.634.634,0,0,0,.372-.141q4.4-3.735,8.783-7.479a.586.586,0,0,0,.235-.495q-.012-4.58-.006-9.16c0-.1-.009-.208-.014-.314Zm-3.96,8.979v15.72l11.056-6.288L1.974,14.992m29.442,0-11.054,9.43,11.054,6.286ZM4.732,31.413h23.9c-.105-.069-.155-.1-.208-.135q-4.936-2.808-9.875-5.611a.923.923,0,0,0-.431-.1c-.934-.009-1.869-.012-2.8,0a1.2,1.2,0,0,0-.549.142q-3.357,1.894-6.7,3.808L4.732,31.413M18.879,4.026c-.725-.53-1.379-1.011-2.04-1.483a.28.28,0,0,0-.253-.02c-.675.479-1.341.971-2.069,1.5ZM30.827,12.9l-1.39-1.024v2.21l1.39-1.186m-28.262,0,1.39,1.181V11.879L2.565,12.9" fill="#627289"/>
        <path id="Trazado_606607" data-name="Trazado 606607" d="M121.783,100.386a2.944,2.944,0,1,1-2.017-5.139c.986-.005,1.972,0,2.993,0,0,.851,0,1.674,0,2.5,0,.141,0,.283,0,.424a1.012,1.012,0,0,0,1,.99,1,1,0,0,0,.946-1.045,4.787,4.787,0,0,0-2.394-4.122,4.879,4.879,0,1,0-2.682,9.073,4.981,4.981,0,0,0,.908-.059c.3-.041.59-.122.923-.194l.669,1.878c-.59.113-1.151.272-1.723.322a6.851,6.851,0,1,1,6.166-7.948,4.839,4.839,0,0,1-.03,1.9,2.906,2.906,0,0,1-4.533,1.6c-.071-.05-.139-.1-.232-.175M120.8,97.2c-.366,0-.692-.018-1.015,0a1,1,0,0,0-.937.986,1.013,1.013,0,0,0,.965.962,1,1,0,0,0,.983-.941c.021-.323,0-.648,0-1.011" transform="translate(-103.129 -83.376)" fill="#627289"/>
      </g>
    </g>
  </g>
</svg>
