<svg xmlns="http://www.w3.org/2000/svg" xmlns:xlink="http://www.w3.org/1999/xlink" width="295" height="200.249" viewBox="0 0 295 200.249">
  <defs>
    <clipPath id="clip-path">
      <rect id="Rectángulo_346997" data-name="Rectángulo 346997" width="202.203" height="190.556" fill="none"/>
    </clipPath>
  </defs>
  <g id="Grupo_1016306" data-name="Grupo 1016306" transform="translate(-390 -5490.751)">
    <rect id="Rectángulo_346998" data-name="Rectángulo 346998" width="295" height="59" rx="29.5" transform="translate(390 5632)" fill="#a3bfe4"/>
    <g id="Grupo_1016305" data-name="Grupo 1016305" transform="translate(441 5490.751)">
      <rect id="Rectángulo_346988" data-name="Rectángulo 346988" width="116.481" height="78.213" transform="translate(34.891 105.259)" fill="#fff"/>
      <rect id="Rectángulo_346989" data-name="Rectángulo 346989" width="94.948" height="11.543" transform="translate(51.974 149.922)" fill="#1a1a1a"/>
      <rect id="Rectángulo_346990" data-name="Rectángulo 346990" width="116.569" height="9.733" transform="translate(34.803 95.869)" fill="#a3bfe4"/>
      <g id="Grupo_1016304" data-name="Grupo 1016304">
        <g id="Grupo_1016303" data-name="Grupo 1016303" clip-path="url(#clip-path)">
          <path id="Trazado_607797" data-name="Trazado 607797" d="M194.442,37.174A29.287,29.287,0,1,1,165.156,7.886a29.285,29.285,0,0,1,29.287,29.288" transform="translate(6.538 0.379)" fill="#33ece0"/>
          <path id="Trazado_607798" data-name="Trazado 607798" d="M74.141,42.785l6.475,11.751a5.862,5.862,0,0,0,6.019,2.736l.793-.126,6.3,4.727,4.515-9.88L95.32,44.668a3.642,3.642,0,0,0,1.9-4.561,3.6,3.6,0,0,0-5.175-2.066,4.14,4.14,0,0,0-2.011,3.288h-.692a29.62,29.62,0,0,0-2.036-3c-.6-.63-1.777-1.624-2.591-1.353A53.336,53.336,0,0,0,79.13,40.6c-1.228.868-3.833,2.522-4.989,2.183" transform="translate(3.568 1.777)" fill="#fff"/>
          <path id="Trazado_607799" data-name="Trazado 607799" d="M77.551,127.637l-6.89,7.206s2.747,4.219,4.481,6.264,2.434,2.577,4.064,2.312a44.229,44.229,0,0,1,5.859-.07l5.223,3.551a2.014,2.014,0,0,0,1.8-.8,1.435,1.435,0,0,0-.264-1.97c-.343-.332-5.784-5.043-5.784-5.043l-2.929-3.8c-.07-.383,1.136.386,1.136.386s2.028,3.032,4.08,3.33,1.82-.872,1.562-1.388a43.119,43.119,0,0,0-4.394-6.127,7.665,7.665,0,0,0-3.462-2.241Z" transform="translate(3.4 6.142)" fill="#fff"/>
          <path id="Trazado_607800" data-name="Trazado 607800" d="M88.064,56.395s-16.8.354-28.582,11.7S45.97,91.577,44.746,98.909s1.662,16.833,5.466,22.212,9.089,12.52,19.007,19.085c.344.215,10.937-10.432,10.937-10.432s-10.477-8.6-13.895-15.56-3.955-8.781-3.552-14.167,4.241-7.422,6.867-7.127l2.627.234h71.863s.372-15.592-8.513-24.007-18.44-13.138-31.3-14.008L99.012,93.152H95.276Z" transform="translate(2.14 2.653)" fill="#1a1a1a"/>
          <path id="Trazado_607801" data-name="Trazado 607801" d="M81.148,39.7c2.726-2.142,2.362-2.02,3.155-2.28s2.149-1.72,3.259-.776a24.632,24.632,0,0,1,2.958,3.839,4.283,4.283,0,0,1,1.69-1.947,2.7,2.7,0,0,1,3.859.432c1.19,1.336,1.752,3.551,1.061,4.443S95.576,45.3,95.576,45.3L96.7,48.2s2.5-4.408,2.2-7.838c-.186-2.1-.664-3.684-3.737-7.881s-4.09-5.2-5.706-5.629-4.124-.318-4.7.108A15.39,15.39,0,0,1,82.2,29.151a5.91,5.91,0,0,1-3.834,1.387c-2,.124-5.447,1.257-6.491,3.115a7.031,7.031,0,0,0-.629,6.6,5.058,5.058,0,0,0,3.17,3.025,20.32,20.32,0,0,0,6.728-3.58" transform="translate(3.403 1.279)" fill="#ffce26"/>
          <path id="Trazado_607802" data-name="Trazado 607802" d="M126.664,29.472H156.12V.017a28.758,28.758,0,0,0-21.375,9.19c-9.281,10.012-8.08,20.265-8.08,20.265" transform="translate(6.093 0)" fill="#1a1a1a"/>
          <path id="Trazado_607803" data-name="Trazado 607803" d="M192.589,82.592H130.033a3.208,3.208,0,0,1-3.2-3.2V74.5a3.208,3.208,0,0,1,3.2-3.2h62.556a3.206,3.206,0,0,1,3.2,3.2v4.9a3.206,3.206,0,0,1-3.2,3.2" transform="translate(6.104 3.431)" fill="#fff"/>
          <path id="Trazado_607804" data-name="Trazado 607804" d="M135.447,91.55s-4.026-5.278-9.787-6.058-8.781.147-10.163,1.8-1.855,3.241-1.836,7.113,1.364,4.592,2.01,4.736,1.735-.469,1.807-2.169c0,0,.794,2.623,2.134,2.667s1.811-2.884,1.811-2.884.43,2.352,1.479,2.423,2.315-1.736,2.712-3.617a36.537,36.537,0,0,1,1.088-3.854Z" transform="translate(5.47 4.101)" fill="#fff"/>
          <path id="Trazado_607805" data-name="Trazado 607805" d="M117.334,86.817,112.52,80.9l.714-3.558-2.481-3-3.687-.464,2.677,3.187-.808,3.737-3.585.2L102.4,77.342V81.4l2.6,3.031,3.534-.253,5.769,6.881a6.772,6.772,0,0,1,1.1-2.741,4.835,4.835,0,0,1,1.936-1.506" transform="translate(4.928 3.555)" fill="#ffce26"/>
          <path id="Trazado_607806" data-name="Trazado 607806" d="M166.877,118.36s2.373-5.656,9.307-13.128,12.553-9.574,12.553-9.574.249,7.2-8.272,14.446-13.589,8.255-13.589,8.255" transform="translate(8.031 4.603)" fill="#fff"/>
          <path id="Trazado_607807" data-name="Trazado 607807" d="M165.03,118.515a34.336,34.336,0,0,0-1.921-12.551,16.491,16.491,0,0,0-7.047-8.138s-.278,4.623,2.878,10.87a58.273,58.273,0,0,0,6.09,9.819" transform="translate(7.51 4.708)" fill="#bbf1ed"/>
          <path id="Trazado_607808" data-name="Trazado 607808" d="M164.193,132a58.854,58.854,0,0,0-9.855-13.751A48.083,48.083,0,0,0,142,108.9s-.563,7.544,8.665,14.78S164.193,132,164.193,132" transform="translate(6.833 5.241)" fill="#bbf1ed"/>
          <path id="Trazado_607809" data-name="Trazado 607809" d="M167.542,129.356a102.322,102.322,0,0,1,11.252-9.156c5.119-3.368,13.333-6.043,13.333-6.043s.181,5.182-10,10.4c-8.662,4.442-14.581,4.8-14.581,4.8" transform="translate(8.063 5.493)" fill="#fff"/>
          <path id="Trazado_607810" data-name="Trazado 607810" d="M164.346,151.521s11.062-5.1,15.054-9.854,6.536-7.66,6.813-13.109a45.843,45.843,0,0,0-13.575,10.687c-6.849,7.645-8.292,12.277-8.292,12.277" transform="translate(7.909 6.187)" fill="#fff"/>
          <path id="Trazado_607811" data-name="Trazado 607811" d="M163.817,167.785A78.657,78.657,0,0,1,173.835,154a51.958,51.958,0,0,1,12.318-9.51s.97,6.265-7.576,13.939a49.143,49.143,0,0,1-14.76,9.356" transform="translate(7.883 6.953)" fill="#fff"/>
          <path id="Trazado_607812" data-name="Trazado 607812" d="M160.653,159.089s-7.685-6.975-9.824-12.271-4.058-9.305-1.932-15.735a35.038,35.038,0,0,1,7.8,12.214,78.626,78.626,0,0,1,3.951,15.793" transform="translate(7.121 6.308)" fill="#bbf1ed"/>
          <path id="Trazado_607813" data-name="Trazado 607813" d="M155.664,159.415s-4.075-8.378-9.551-13.442a107.157,107.157,0,0,0-12.657-9.685s-.388,7.8,8.359,14.771,13.849,8.356,13.849,8.356" transform="translate(6.422 6.559)" fill="#bbf1ed"/>
          <path id="Trazado_607814" data-name="Trazado 607814" d="M148.147,160.931a23.955,23.955,0,0,0-13.4-10.019,67.261,67.261,0,0,0,7.446,13.161c4.467,5.889,12.118,11.569,12.118,11.569.223,0-.781-6.5-6.162-14.711" transform="translate(6.484 7.262)" fill="#bbf1ed"/>
          <rect id="Rectángulo_346991" data-name="Rectángulo 346991" width="29.039" height="29.039" transform="translate(10.751 145.08)" fill="#fff198"/>
          <path id="Trazado_607815" data-name="Trazado 607815" d="M56.922,49.37a.873.873,0,0,0-.713-.977c-1.528-.528-3.052-1.074-4.547-1.687a1.8,1.8,0,0,1-.855-.894c-.627-1.453-1.2-2.932-1.743-4.417a1.428,1.428,0,0,1,0-.985c.738-1.642,1.549-3.251,2.282-4.894a1.026,1.026,0,0,0-.122-.915c-1.233-1.315-2.528-2.571-3.775-3.872a.743.743,0,0,0-1.026-.166c-1.558.772-3.128,1.524-4.713,2.235a1.573,1.573,0,0,1-1.074.048q-2.278-.819-4.509-1.763a1.675,1.675,0,0,1-.85-.785c-.615-1.527-1.17-3.08-1.7-4.638-.171-.5-.372-.743-.955-.728-1.742.043-3.486.04-5.229,0a.869.869,0,0,0-.972.718c-.525,1.527-1.117,3.033-1.636,4.562a1.354,1.354,0,0,1-.977.935c-1.438.5-2.86,1.062-4.242,1.7a1.364,1.364,0,0,1-1.348-.013c-1.527-.768-3.084-1.476-4.611-2.241a.8.8,0,0,0-1.1.192c-1.205,1.258-2.434,2.5-3.7,3.7a.844.844,0,0,0-.16,1.184c.758,1.532,1.5,3.072,2.186,4.637a1.59,1.59,0,0,1-.029,1.135q-.954,2.225-2.039,4.393a1.858,1.858,0,0,1-.88.871c-1.625.618-3.275,1.17-4.929,1.709a.855.855,0,0,0-.724.962c.039,1.742.034,3.485,0,5.226a.8.8,0,0,0,.649.912c1.686.542,3.366,1.1,5.021,1.733a1.845,1.845,0,0,1,.859.9c.668,1.4,1.218,2.862,1.915,4.247a1.5,1.5,0,0,1,.034,1.523c-.723,1.447-1.38,2.927-2.1,4.376a.852.852,0,0,0,.186,1.181q1.893,1.8,3.695,3.7a.844.844,0,0,0,1.179.17c1.5-.745,3.035-1.436,4.538-2.182a1.336,1.336,0,0,1,1.347.035c1.445.715,2.953,1.3,4.41,1.994a1.567,1.567,0,0,1,.744.777c.619,1.656,1.193,3.332,1.746,5.013a.812.812,0,0,0,.918.658c1.742-.03,3.487-.035,5.228,0a.838.838,0,0,0,.957-.713c.531-1.656,1.1-3.3,1.717-4.926a1.707,1.707,0,0,1,.824-.827c1.488-.7,3-1.347,4.526-1.964a1.511,1.511,0,0,1,1.065-.02c1.781.79,3.533,1.641,5.362,2.5,1.433-1.451,2.865-2.871,4.245-4.338a1.052,1.052,0,0,0,.084-.928c-.71-1.588-1.495-3.141-2.212-4.726a1.484,1.484,0,0,1-.069-1c.539-1.553,1.11-3.1,1.735-4.615a1.646,1.646,0,0,1,.815-.831c1.526-.617,3.077-1.177,4.634-1.717a.817.817,0,0,0,.641-.928c-.031-1.742-.036-3.485,0-5.227M29.99,62.164a10.187,10.187,0,1,1,10.2-10.175,10.154,10.154,0,0,1-10.2,10.175" transform="translate(0.107 1.2)" fill="#fff"/>
          <rect id="Rectángulo_346992" data-name="Rectángulo 346992" width="22.158" height="22.158" transform="translate(125.259 116.256)" fill="#afafaf"/>
          <rect id="Rectángulo_346993" data-name="Rectángulo 346993" width="22.159" height="22.157" transform="translate(85.918 109.497)" fill="#33ece0"/>
          <path id="Trazado_607816" data-name="Trazado 607816" d="M79.643,46.963c1.242,2.152,1.278,4.457.078,5.149s-3.178-.491-4.42-2.642-1.278-4.457-.078-5.149,3.178.491,4.42,2.642" transform="translate(3.578 2.123)" fill="#fff"/>
          <path id="Trazado_607817" data-name="Trazado 607817" d="M79.571,46.932c1.126,1.948,1.354,3.924.51,4.41s-2.439-.7-3.566-2.648-1.353-3.924-.509-4.412,2.439.7,3.565,2.649" transform="translate(3.633 2.126)" fill="#ffce26"/>
          <path id="Trazado_607818" data-name="Trazado 607818" d="M85.669,43.57c1.126,1.95,1.354,3.925.511,4.41s-2.44-.7-3.567-2.648-1.353-3.924-.51-4.411,2.44.7,3.566,2.648" transform="translate(3.927 1.964)" fill="#ffce26"/>
          <rect id="Rectángulo_346994" data-name="Rectángulo 346994" width="5.468" height="17.062" transform="translate(12.659 148.751)" fill="#1a1a1a"/>
          <rect id="Rectángulo_346995" data-name="Rectángulo 346995" width="5.468" height="10.532" transform="translate(21.729 155.281)" fill="#fff"/>
          <rect id="Rectángulo_346996" data-name="Rectángulo 346996" width="5.469" height="6.813" transform="translate(30.704 159)" fill="#fff"/>
          <path id="Trazado_607819" data-name="Trazado 607819" d="M182.376,77.532a3.214,3.214,0,1,0,3.214-3.214,3.213,3.213,0,0,0-3.214,3.214" transform="translate(8.776 3.576)" fill="#ffce26"/>
          <path id="Trazado_607820" data-name="Trazado 607820" d="M92.9,60.727l-1.456,4.5,3.176,5.507L92.5,90.345l.521,2.54h3.736l2.232-15.328L97.5,70.733l.432-1.74Z" transform="translate(4.401 2.922)" fill="#ffce26"/>
          <path id="Trazado_607821" data-name="Trazado 607821" d="M155.679,159.729h-.449c-23.411-10.927-22.134-22.973-22.068-23.48,14.951,7.028,22.72,22.872,22.8,23.031-.074.393-.175.449-.282.449m-21.913-22.938c.025,2.3,1.3,12.763,21.359,22.231-1.465-2.778-8.813-15.734-21.359-22.231" transform="translate(6.407 6.557)" fill="#1a1a1a"/>
          <path id="Trazado_607822" data-name="Trazado 607822" d="M164.169,167.9c-.544-.666,8.3-16.9,21.827-23.677.515.745,1.731,12.734-21.7,23.649a.321.321,0,0,1-.131.028m21.67-22.9c-11.689,6.082-19.769,19.25-21.433,22.128C184.457,157.674,185.8,147.3,185.839,145" transform="translate(7.899 6.94)" fill="#1a1a1a"/>
          <path id="Trazado_607823" data-name="Trazado 607823" d="M154.536,176.114a6.436,6.436,0,0,1-.827-.525c-3.547-2.632-15.4-12.177-19.04-24.592.485-.376,14.371,1.938,20.17,24.728-.181.371-.242.389-.3.389m-19.113-24.785c3.831,12.194,15.98,21.761,18.591,23.706-5.171-19.2-16.123-23.069-18.591-23.706" transform="translate(6.481 7.265)" fill="#1a1a1a"/>
          <path id="Trazado_607824" data-name="Trazado 607824" d="M160.441,159.553c-17.715-17.308-12.048-28.161-11.8-28.615,10.388,10.218,12.1,25.227,12.341,28.132-.427.467-.484.483-.542.483m-11.429-27.908c-.821,2.1-3.584,12.191,11.307,27.035-.357-3.665-2.266-17.363-11.307-27.035" transform="translate(7.102 6.301)" fill="#1a1a1a"/>
          <path id="Trazado_607825" data-name="Trazado 607825" d="M164.208,132.315c-.127-.028-.835-.344-.835-.344-22.772-10.839-21.722-22.6-21.667-23.1,14.846,6.969,22.465,22.343,22.783,22.994-.117.416-.2.45-.281.45m-21.887-22.9c.068,2.291,1.526,12.538,21.2,21.936-1.743-3.267-8.928-15.581-21.2-21.936" transform="translate(6.818 5.239)" fill="#1a1a1a"/>
          <path id="Trazado_607826" data-name="Trazado 607826" d="M164.882,118.569c-.328-.219-8.959-10.828-9.118-20.738.515-.264,9.91,3.375,9.586,20.25-.291.448-.378.488-.469.488M156.4,98.323c.376,8.336,6.679,17.083,8.327,19.235.106-13.892-6.541-18.3-8.327-19.235" transform="translate(7.496 4.707)" fill="#1a1a1a"/>
          <path id="Trazado_607827" data-name="Trazado 607827" d="M166.887,118.944a1.554,1.554,0,0,1-.206-1.053c2-3.767,9.383-16.213,21.928-22.5.506.746,1.572,12.64-21.589,23.522a.312.312,0,0,1-.132.03m.4-.909c19.632-9.335,21.086-19.567,21.153-21.859-12.057,6.244-19.2,18.221-21.153,21.859" transform="translate(8.02 4.591)" fill="#1a1a1a"/>
          <path id="Trazado_607828" data-name="Trazado 607828" d="M164.346,151.847c.341-2.177,8.021-16.687,21.727-23.556.508.745,1.574,12.644-21.594,23.525a.311.311,0,0,1-.132.03m21.566-22.772c-12.244,6.343-19.523,18.82-21.2,21.939,19.72-9.422,21.142-19.653,21.2-21.939" transform="translate(7.909 6.174)" fill="#1a1a1a"/>
          <path id="Trazado_607829" data-name="Trazado 607829" d="M167.8,129.852c-.378-.819,11.133-12.843,24.245-15.985.309.793-1.636,11.126-24.015,15.882-.165.1-.2.1-.231.1M191.674,114.6c-11.148,2.879-21.043,12.134-23.391,14.453,18.844-4.105,22.707-12.372,23.391-14.453" transform="translate(8.074 5.48)" fill="#1a1a1a"/>
          <path id="Trazado_607830" data-name="Trazado 607830" d="M159.276,184.913a.319.319,0,0,1-.31-.349l7.981-67.021a.324.324,0,0,1,.347-.275.313.313,0,0,1,.274.348l-7.981,67.021a.313.313,0,0,1-.31.276" transform="translate(7.65 5.643)" fill="#1a1a1a"/>
          <path id="Trazado_607831" data-name="Trazado 607831" d="M155.779,182.95a.314.314,0,0,1-.312-.3l-1.12-24.271a.312.312,0,0,1,.3-.326.291.291,0,0,1,.327.3l1.12,24.27a.312.312,0,0,1-.3.327Z" transform="translate(7.428 7.606)" fill="#1a1a1a"/>
          <path id="Trazado_607832" data-name="Trazado 607832" d="M153.873,182.132a.311.311,0,0,1-.312-.3l-.235-7.144a.312.312,0,1,1,.625-.02l.234,7.144a.311.311,0,0,1-.3.322Z" transform="translate(7.378 8.391)" fill="#1a1a1a"/>
          <path id="Trazado_607833" data-name="Trazado 607833" d="M163.112,182.526a.315.315,0,0,1-.312-.327l.764-15.726a.316.316,0,0,1,.328-.3.311.311,0,0,1,.3.327l-.764,15.725a.313.313,0,0,1-.312.3" transform="translate(7.834 7.997)" fill="#1a1a1a"/>
          <path id="Trazado_607834" data-name="Trazado 607834" d="M161.327,163.13a50.942,50.942,0,0,1-1.635-5.632.312.312,0,0,1,.229-.378.306.306,0,0,1,.377.228l1.333,5.394a.313.313,0,0,1-.228.378.317.317,0,0,1-.075.009" transform="translate(7.684 7.561)" fill="#1a1a1a"/>
          <path id="Trazado_607835" data-name="Trazado 607835" d="M162.6,154.044c-.291-.107-.357-.295-.281-.45l1.629-3.336a.319.319,0,0,1,.418-.144.313.313,0,0,1,.144.418l-1.63,3.336a.311.311,0,0,1-.28.175" transform="translate(7.81 7.222)" fill="#1a1a1a"/>
          <path id="Trazado_607836" data-name="Trazado 607836" d="M164.058,141.334a.312.312,0,0,1-.311-.285l-.87-10.067a.313.313,0,0,1,.284-.339.3.3,0,0,1,.339.284l.869,10.067a.311.311,0,0,1-.283.339h-.027" transform="translate(7.838 6.287)" fill="#1a1a1a"/>
          <path id="Trazado_607837" data-name="Trazado 607837" d="M165.938,125.57c-.307-.255-1.769-8.18-1.769-8.18a.312.312,0,1,1,.614-.114l1.462,7.924a.313.313,0,0,1-.249.365.368.368,0,0,1-.058.005" transform="translate(7.9 5.631)" fill="#1a1a1a"/>
          <path id="Trazado_607838" data-name="Trazado 607838" d="M164.76,136.056c-.281-.093-.354-.278-.286-.436l3.019-7.016a.312.312,0,1,1,.573.245l-3.019,7.018a.314.314,0,0,1-.287.189" transform="translate(7.914 6.18)" fill="#1a1a1a"/>
          <path id="Trazado_607839" data-name="Trazado 607839" d="M135.569,92.036c-.3-.192-4.292-5.856-11.9-6.5-4.554-.382-7.371.629-8.845,3.2a6.806,6.806,0,0,0-.7,2.159.313.313,0,0,1-.616-.108,7.321,7.321,0,0,1,.772-2.364c1.609-2.8,4.61-3.916,9.44-3.507a17.38,17.38,0,0,1,12.1,6.634.312.312,0,0,1-.081.434.3.3,0,0,1-.176.055" transform="translate(5.462 4.082)" fill="#1a1a1a"/>
          <path id="Trazado_607840" data-name="Trazado 607840" d="M119.668,99.783a1.677,1.677,0,0,1-.89-.27,3.137,3.137,0,0,1-1.228-1.79,2.843,2.843,0,0,1-.815,1.287,1.327,1.327,0,0,1-1.1.269c-2.03-.374-2.667-5.445-2.109-8.681a.308.308,0,0,1,.362-.254.313.313,0,0,1,.255.362c-.6,3.469.255,7.709,1.607,7.958a.7.7,0,0,0,.6-.148c.672-.525.937-2.144,1-2.865.022-.3.178-.438.342-.415a.314.314,0,0,1,.291.33c-.129,1.941.525,3.034,1.132,3.415a.926.926,0,0,0,1,.053c.837-.488,1.021-2.132,1.021-2.724a.312.312,0,0,1,.625-.01c.021.593.253,2.178,1.08,2.383a.847.847,0,0,0,.624-.155c.38-.237,1.69-1.319,2.547-5.277a22.148,22.148,0,0,1,1.205-4.4.313.313,0,0,1,.556.288,22.83,22.83,0,0,0-1.151,4.243c-.623,2.875-1.652,4.944-2.827,5.675a1.424,1.424,0,0,1-1.106.23,1.861,1.861,0,0,1-1.2-1.233,2.605,2.605,0,0,1-1.06,1.519,1.487,1.487,0,0,1-.755.208" transform="translate(5.454 4.268)" fill="#1a1a1a"/>
          <path id="Trazado_607841" data-name="Trazado 607841" d="M121.082,96.644a.319.319,0,0,1-.31-.349c.006-.048.579-4.809,1.131-7.772a.312.312,0,1,1,.614.113c-.548,2.944-1.119,7.686-1.125,7.733a.313.313,0,0,1-.31.275" transform="translate(5.812 4.248)" fill="#1a1a1a"/>
          <path id="Trazado_607842" data-name="Trazado 607842" d="M117.463,96.342a.32.32,0,0,1-.31-.35c.005-.047.578-4.81,1.13-7.772a.312.312,0,1,1,.614.114c-.548,2.943-1.118,7.686-1.124,7.733a.314.314,0,0,1-.31.275" transform="translate(5.638 4.233)" fill="#1a1a1a"/>
          <path id="Trazado_607843" data-name="Trazado 607843" d="M78.984,52.466a3.026,3.026,0,0,1-1.267-.309,7.269,7.269,0,0,1-3.764-5.914,2.786,2.786,0,0,1,.391-1.515,1.783,1.783,0,0,1,.548-.553,1.853,1.853,0,0,1,1.02-.285c1.294,0,2.828,1.089,3.9,2.775A8.487,8.487,0,0,1,80.9,49.7c.029.147.027.735.027.735A2.075,2.075,0,0,1,80,52.183a1.875,1.875,0,0,1-1.02.283m-3.072-7.951a1.256,1.256,0,0,0-.683.186,1.188,1.188,0,0,0-.358.364,2.214,2.214,0,0,0-.292,1.182,6.665,6.665,0,0,0,3.4,5.343,1.763,1.763,0,0,0,1.687.065A1.466,1.466,0,0,0,80.3,50.4l.008-.5A8.2,8.2,0,0,0,79.289,47c-.95-1.488-2.307-2.488-3.377-2.488" transform="translate(3.559 2.112)" fill="#1a1a1a"/>
          <path id="Trazado_607844" data-name="Trazado 607844" d="M85.1,49.144c-1.324,0-2.865-1.073-3.926-2.738a6.593,6.593,0,0,1-1.092-3.211,2.541,2.541,0,0,1,1-2.365,1.993,1.993,0,0,1,1.09-.3c1.324,0,2.866,1.075,3.927,2.739,1.432,2.245,1.473,4.695.092,5.576a2,2,0,0,1-1.092.3m-2.927-7.992a1.378,1.378,0,0,0-.755.205,1.954,1.954,0,0,0-.713,1.814,6,6,0,0,0,1,2.9c.934,1.464,2.3,2.448,3.4,2.448a1.375,1.375,0,0,0,.756-.206c1.049-.67.919-2.828-.284-4.713-.934-1.464-2.3-2.448-3.4-2.448" transform="translate(3.853 1.95)" fill="#1a1a1a"/>
          <path id="Trazado_607845" data-name="Trazado 607845" d="M79.523,47.449c-.444-.64-.526-1.476.107-1.885a1.844,1.844,0,0,1,2.043.2.313.313,0,0,1-.389.489,1.234,1.234,0,0,0-1.315-.165c-.379.244-.154.938-.151.945a.313.313,0,0,1-.193.4.318.318,0,0,1-.1.017" transform="translate(3.81 2.181)" fill="#1a1a1a"/>
          <path id="Trazado_607846" data-name="Trazado 607846" d="M85.582,43.73c-.357-.3-.31-.492-.161-.58L89.2,40.872a.313.313,0,0,1,.322.537l-3.785,2.278a.319.319,0,0,1-.16.044" transform="translate(4.105 1.965)" fill="#1a1a1a"/>
          <path id="Trazado_607847" data-name="Trazado 607847" d="M82.042,51.669a1.579,1.579,0,0,1-.653-.134c-.9-.4-1.213-1.555-1.44-2.4-.332-1.22-1-4.479-1.033-4.617a.313.313,0,0,1,.613-.126c.007.034.7,3.378,1.015,4.549.2.753.473,1.742,1.1,2.022a1.579,1.579,0,0,0,1.333-.187.312.312,0,0,1,.281.558,2.742,2.742,0,0,1-1.216.334" transform="translate(3.797 2.124)" fill="#1a1a1a"/>
          <path id="Trazado_607848" data-name="Trazado 607848" d="M115.887,91.795H66.853a.312.312,0,1,1,0-.625h49.033a.312.312,0,0,1,0,.625" transform="translate(3.202 4.387)" fill="#1a1a1a"/>
          <path id="Trazado_607849" data-name="Trazado 607849" d="M33.219,108.673a.312.312,0,0,1-.312-.312V91.481a.312.312,0,0,1,.312-.312H46.193a.312.312,0,0,1,0,.625H33.532V108.36a.312.312,0,0,1-.312.312" transform="translate(1.584 4.387)" fill="#1a1a1a"/>
          <path id="Trazado_607850" data-name="Trazado 607850" d="M33.219,137.018a.312.312,0,0,1-.312-.312v-8.516a.312.312,0,1,1,.625,0v8.516a.312.312,0,0,1-.312.312" transform="translate(1.584 6.154)" fill="#1a1a1a"/>
          <path id="Trazado_607851" data-name="Trazado 607851" d="M149.788,175.906H33.219a.312.312,0,0,1-.312-.312V164.019a.312.312,0,1,1,.625,0v11.262H149.476V166.59a.312.312,0,0,1,.625,0v9a.312.312,0,0,1-.312.312" transform="translate(1.584 7.878)" fill="#1a1a1a"/>
          <path id="Trazado_607852" data-name="Trazado 607852" d="M144.436,157.155a.312.312,0,0,1-.312-.312v-4.1a.312.312,0,1,1,.625,0v4.1a.312.312,0,0,1-.312.312" transform="translate(6.936 7.335)" fill="#1a1a1a"/>
          <path id="Trazado_607853" data-name="Trazado 607853" d="M144.436,146.046a.312.312,0,0,1-.312-.312V116.6a.312.312,0,0,1,.625,0v29.132a.312.312,0,0,1-.312.312" transform="translate(6.936 5.596)" fill="#1a1a1a"/>
          <path id="Trazado_607854" data-name="Trazado 607854" d="M145.31,111.466a.312.312,0,0,1-.312-.312V91.795H126.274a.313.313,0,0,1,0-.626H145.31a.313.313,0,0,1,.312.313v19.671a.312.312,0,0,1-.312.312" transform="translate(6.062 4.387)" fill="#1a1a1a"/>
          <path id="Trazado_607855" data-name="Trazado 607855" d="M159,61.565A29.768,29.768,0,1,1,159,2.03a.312.312,0,0,1,0,.625A29.143,29.143,0,1,0,174.83,56.271a.313.313,0,0,1,.341.525A29.654,29.654,0,0,1,159,61.565" transform="translate(6.219 0.098)" fill="#1a1a1a"/>
          <path id="Trazado_607856" data-name="Trazado 607856" d="M186.86,35.935a.321.321,0,0,1-.31-.352,29.163,29.163,0,0,0-28.9-32.929.312.312,0,1,1,0-.625A29.8,29.8,0,0,1,187.419,31.8a30.159,30.159,0,0,1-.248,3.864.313.313,0,0,1-.31.273" transform="translate(7.571 0.098)" fill="#1a1a1a"/>
          <path id="Trazado_607857" data-name="Trazado 607857" d="M159,32.11H129.546a.312.312,0,0,1,0-.625H158.69V2.341a.312.312,0,0,1,.625,0V31.8a.312.312,0,0,1-.312.312" transform="translate(6.219 0.098)" fill="#1a1a1a"/>
          <path id="Trazado_607858" data-name="Trazado 607858" d="M148.413,101.08H61.806a.312.312,0,0,1,0-.625h86.606a.312.312,0,1,1,0,.625" transform="translate(2.959 4.834)" fill="#1a1a1a"/>
          <path id="Trazado_607859" data-name="Trazado 607859" d="M44.939,101.08H33.219a.312.312,0,1,1,0-.625h11.72a.312.312,0,0,1,0,.625" transform="translate(1.584 4.834)" fill="#1a1a1a"/>
          <path id="Trazado_607860" data-name="Trazado 607860" d="M38.539,165.665H9.5a.313.313,0,0,1-.312-.313V136.314A.312.312,0,0,1,9.5,136H38.539a.312.312,0,0,1,.312.312v29.037a.313.313,0,0,1-.312.313m-28.725-.626H38.227V136.626H9.814Z" transform="translate(0.442 6.545)" fill="#1a1a1a"/>
          <path id="Trazado_607861" data-name="Trazado 607861" d="M17.524,159.3H12.092a.312.312,0,0,1-.312-.312v-16.87a.312.312,0,0,1,.312-.312h5.431a.312.312,0,0,1,.312.312v16.87a.312.312,0,0,1-.312.312m-5.12-.625h4.808V142.432H12.4Z" transform="translate(0.567 6.824)" fill="#1a1a1a"/>
          <path id="Trazado_607862" data-name="Trazado 607862" d="M26.195,159.009H20.762a.312.312,0,0,1-.312-.312V148.2a.312.312,0,0,1,.312-.312h5.432a.312.312,0,0,1,.312.312v10.5a.312.312,0,0,1-.312.312m-5.12-.625h4.808v-9.873H21.075Z" transform="translate(0.984 7.117)" fill="#1a1a1a"/>
          <path id="Trazado_607863" data-name="Trazado 607863" d="M34.863,158.834H29.431a.312.312,0,0,1-.311-.312v-6.686a.312.312,0,0,1,.311-.312h5.431a.313.313,0,0,1,.313.312v6.686a.313.313,0,0,1-.313.312m-5.119-.625H34.55v-6.06H29.744Z" transform="translate(1.401 7.292)" fill="#1a1a1a"/>
          <path id="Trazado_607864" data-name="Trazado 607864" d="M85.488,57.135a5.9,5.9,0,0,1-4.558-1.856,21.318,21.318,0,0,1-2.043-3.044.312.312,0,0,1,.538-.317A21.2,21.2,0,0,0,81.4,54.867c2.146,2.454,6.5,1.958,9.214-.045,2.887-2.128,3.723-3.609,4.264-7.548a.318.318,0,0,1,.352-.267.313.313,0,0,1,.267.352c-.563,4.1-1.49,5.74-4.512,7.966a9.546,9.546,0,0,1-5.5,1.81" transform="translate(3.794 2.262)" fill="#1a1a1a"/>
          <path id="Trazado_607865" data-name="Trazado 607865" d="M75.117,44.685a9.872,9.872,0,0,1-1.1-1.791.312.312,0,1,1,.556-.284l.827,1.62a.312.312,0,0,1-.279.455" transform="translate(3.56 2.042)" fill="#1a1a1a"/>
          <path id="Trazado_607866" data-name="Trazado 607866" d="M96.891,48.654c-.288-.1-.355-.288-.283-.443C99,43.078,99.017,42.146,98.719,39.7c-.29-2.395-1.8-4.522-3.409-6.772l-.478-.673c-1.593-2.245-3.1-4.366-5.087-4.982-2.247-.7-4.969-.191-5.148.24-.329.782-3.144,3.316-7.279,3.481-3.9.157-7.012,2.647-7.956,4.91a8.823,8.823,0,0,0,.723,6.462,6.208,6.208,0,0,0,4.642,3.195.311.311,0,0,1,.256.36.308.308,0,0,1-.36.257,6.9,6.9,0,0,1-5.085-3.509,9.382,9.382,0,0,1-.753-7c1.043-2.5,4.3-5.126,8.507-5.3,3.808-.151,6.482-2.507,6.728-3.1.435-1.036,3.841-1.235,5.91-.6,2.192.678,3.829,2.985,5.411,5.218l.477.672c1.578,2.216,3.21,4.506,3.522,7.06.306,2.524.286,3.574-2.165,8.844a.312.312,0,0,1-.284.181" transform="translate(3.293 1.266)" fill="#1a1a1a"/>
          <path id="Trazado_607867" data-name="Trazado 607867" d="M74.242,43.111a3.106,3.106,0,0,1-1.132-.2.313.313,0,0,1,.226-.583c1.967.76,4.731-1.31,7.167-3.139,1.955-1.468,3.637-2.741,4.84-2.514,1.746.321,2.666,1.951,3.34,3.14a9.122,9.122,0,0,0,.571.933c.292.39.439.4.453.4.156-.273.336-.353.5-.293a.31.31,0,0,1,.182.4.8.8,0,0,1-.586.515c-.339.047-.683-.16-1.045-.645a9.773,9.773,0,0,1-.615-1c-.647-1.142-1.451-2.565-2.909-2.834-.94-.16-2.593,1.079-4.352,2.4-2.16,1.62-4.564,3.426-6.638,3.426" transform="translate(3.509 1.763)" fill="#1a1a1a"/>
          <path id="Trazado_607868" data-name="Trazado 607868" d="M97.289,51.788c-.289-.193-3.216-7.343-3.216-7.343a.313.313,0,1,1,.579-.237l2.926,7.149a.314.314,0,0,1-.17.409.348.348,0,0,1-.119.022" transform="translate(4.526 2.118)" fill="#1a1a1a"/>
          <path id="Trazado_607869" data-name="Trazado 607869" d="M69.573,140.058c-.439-.213-27.878-17.145-25.127-41.859,1.328-11.935,5.588-21.669,12.661-28.933a.312.312,0,0,1,.448.436c-6.974,7.162-11.176,16.773-12.487,28.567-2.583,23.188,21.933,39.47,24.459,41.08L79.7,129.126c-2.275-1.843-17.785-14.892-17.394-27.768.117-3.878,1.226-6.613,3.3-8.128a8.023,8.023,0,0,1,6.417-1.052.312.312,0,0,1-.17.6,7.516,7.516,0,0,0-5.882.959c-1.9,1.4-2.924,3.967-3.035,7.64-.411,13.506,17.249,27.337,17.428,27.477.029.466-10.564,11.113-10.564,11.113a.315.315,0,0,1-.221.091" transform="translate(2.13 3.329)" fill="#1a1a1a"/>
          <path id="Trazado_607870" data-name="Trazado 607870" d="M69.282,61.259c-.355-.34-.286-.524-.13-.6a51.1,51.1,0,0,1,18.521-4.575.312.312,0,1,1,.006.625,50.448,50.448,0,0,0-18.267,4.52.324.324,0,0,1-.131.028" transform="translate(3.322 2.699)" fill="#1a1a1a"/>
          <path id="Trazado_607871" data-name="Trazado 607871" d="M139.556,92.172a.315.315,0,0,1-.312-.324,41.478,41.478,0,0,0-1.039-9.47.312.312,0,0,1,.237-.373.308.308,0,0,1,.372.237,42.158,42.158,0,0,1,1.054,9.63.313.313,0,0,1-.312.3" transform="translate(6.65 3.946)" fill="#1a1a1a"/>
          <path id="Trazado_607872" data-name="Trazado 607872" d="M135.472,72.4c-8.5-10.05-19.54-15.556-33.98-16.942a.314.314,0,0,1-.282-.341.307.307,0,0,1,.342-.282c14.612,1.4,25.788,6.98,34.16,17.052a.313.313,0,0,1-.24.513" transform="translate(4.87 2.639)" fill="#1a1a1a"/>
          <path id="Trazado_607873" data-name="Trazado 607873" d="M139.482,152.566H46.524a.312.312,0,0,1-.312-.312V140.5a.312.312,0,0,1,.312-.312H75.965a.312.312,0,1,1,0,.625H46.837v11.127h92.646a.312.312,0,0,1,0,.625" transform="translate(2.224 6.746)" fill="#1a1a1a"/>
          <path id="Trazado_607874" data-name="Trazado 607874" d="M137.111,151.842a.312.312,0,0,1-.312-.312v-5.681a.312.312,0,0,1,.625,0v5.681a.312.312,0,0,1-.312.312" transform="translate(6.583 7.004)" fill="#1a1a1a"/>
          <path id="Trazado_607875" data-name="Trazado 607875" d="M136.4,140.815H87.484a.312.312,0,0,1,0-.625H136.4a.312.312,0,0,1,0,.625" transform="translate(4.195 6.746)" fill="#1a1a1a"/>
          <path id="Trazado_607876" data-name="Trazado 607876" d="M93.025,45.322c-.438-.02-.568-.168-.557-.341a.317.317,0,0,1,.332-.291,3.385,3.385,0,1,0-3.083-2.618.313.313,0,0,1-.61.144,4.011,4.011,0,1,1,3.917,3.107" transform="translate(4.283 1.795)" fill="#1a1a1a"/>
          <path id="Trazado_607877" data-name="Trazado 607877" d="M91.621,42.81c-.306-.377.361-3.485.361-3.485a.3.3,0,0,1,.371-.239.312.312,0,0,1,.24.37l-.575,2.685,2.525-.267a.3.3,0,0,1,.344.278.311.311,0,0,1-.277.344l-2.955.312a.192.192,0,0,1-.034,0" transform="translate(4.405 1.88)" fill="#1a1a1a"/>
          <path id="Trazado_607878" data-name="Trazado 607878" d="M97.028,93.727a.321.321,0,0,1-.309-.355l5.228-37.916-4.138-3.794-4.338,9.661c-.467.126-6.681-4.361-6.681-4.361l-.62.031,7.44,36.3a.314.314,0,0,1-.244.369A.308.308,0,0,1,93,93.415L85.484,56.761c.29-.375,1.385-.429,1.385-.429.2.059,6.189,4.384,6.189,4.384l4.358-9.7c.5-.1,5.073,4.094,5.073,4.094.1.273-5.15,38.352-5.15,38.352a.313.313,0,0,1-.31.269" transform="translate(4.114 2.455)" fill="#1a1a1a"/>
          <path id="Trazado_607879" data-name="Trazado 607879" d="M89.065,73.3c-.261-.068-.351-.244-.3-.408l3.964-12.254c.567-.06,7.261,11.472,7.261,11.472a.313.313,0,0,1-.541.313L93.11,61.494,89.362,73.08a.313.313,0,0,1-.3.216" transform="translate(4.271 2.918)" fill="#1a1a1a"/>
          <path id="Trazado_607880" data-name="Trazado 607880" d="M90.791,147.309a1.849,1.849,0,0,1-.587-.1,22.465,22.465,0,0,1-4.966-3.325,15.518,15.518,0,0,1-1.858.58,4.505,4.505,0,0,1-3.3-.629,2.608,2.608,0,0,1-1.789.262c-3.683-.893-7.722-8.765-7.892-9.1a.313.313,0,1,1,.558-.283c.04.079,4.077,7.95,7.482,8.775a2,2,0,0,0,1.5-.291.313.313,0,0,1,.417.048c.005.006.8.84,2.961.6a2.2,2.2,0,0,0,1.254-.571c.173-.144.434-.363.7-.159.063.047.188.147.362.286.953.762,3.489,2.791,4.772,3.219a1.107,1.107,0,0,0,1.31-.458,1.4,1.4,0,0,0,.119-1.561,23.408,23.408,0,0,0-2.392-2.16,36.236,36.236,0,0,1-3.341-3.033l-.654-.741c-1.656-1.867-2.662-3.044-2.7-3.638a.443.443,0,0,1,.266-.491c.429-.159,1.275.564,2.526,2.157,1.116,1.422,3.447,2.5,4.08,2.122.314-1.011-1.006-2.739-1.44-3.306-.247-.323-.5-.694-.78-1.091-1.247-1.8-2.8-4.034-5.439-4.86a20.478,20.478,0,0,1-4.282-1.646.313.313,0,0,1,.342-.524,21.083,21.083,0,0,0,4.126,1.574c2.845.888,4.532,3.323,5.765,5.1.27.387.522.75.764,1.067,1.347,1.763,1.866,2.821,1.736,3.538a.991.991,0,0,1-.461.676c-1.041.652-3.729-.769-4.9-2.265a14.111,14.111,0,0,0-1.423-1.592,34.047,34.047,0,0,0,2.291,2.763l.657.743a35.851,35.851,0,0,0,3.273,2.967,23.1,23.1,0,0,1,2.484,2.255,2.021,2.021,0,0,1-.1,2.306,1.739,1.739,0,0,1-1.432.787" transform="translate(3.386 6.128)" fill="#1a1a1a"/>
          <path id="Trazado_607881" data-name="Trazado 607881" d="M138.122,130.154H116.109a.312.312,0,0,1-.312-.312V107.828a.312.312,0,0,1,.312-.312h22.013a.312.312,0,0,1,.312.312v22.014a.312.312,0,0,1-.312.312m-21.7-.625H137.81V108.141H116.422Z" transform="translate(5.572 5.174)" fill="#1a1a1a"/>
          <path id="Trazado_607882" data-name="Trazado 607882" d="M100.642,130.154H84.593a.312.312,0,0,1,0-.625H100.33V108.141H78.942v15.373a.313.313,0,0,1-.626,0V107.828a.312.312,0,0,1,.312-.312h22.014a.312.312,0,0,1,.312.312v22.014a.312.312,0,0,1-.312.312" transform="translate(3.769 5.174)" fill="#1a1a1a"/>
          <path id="Trazado_607883" data-name="Trazado 607883" d="M57.583,130.154H40.8a.311.311,0,0,1-.312-.312V107.828a.311.311,0,0,1,.312-.312h3.1a.312.312,0,0,1,0,.625H41.116V129.53H57.583a.312.312,0,1,1,0,.625" transform="translate(1.949 5.174)" fill="#1a1a1a"/>
          <path id="Trazado_607884" data-name="Trazado 607884" d="M114.311,91.377c-.239-.11-5.822-6.735-5.822-6.735l-3.5.129c-.248-.11-2.815-3.1-2.815-3.1-.074-.218.094-4.143.094-4.143.554-.182,3.247,3.144,3.247,3.144l3.251-.187.761-3.165-2.793-3.242c.279-.514,4.173.02,4.173.02.2.112,2.684,3.17,2.684,3.17.063.264-.689,3.686-.689,3.686l4.687,5.664a.313.313,0,0,1-.482.4l-4.783-5.781c-.065-.266.685-3.689.685-3.689L110.7,74.7l-2.953-.4,2.358,2.737c.067.278-.786,3.825-.786,3.825a25.363,25.363,0,0,1-3.928.448c-.259-.115-2.533-2.925-2.533-2.925l-.128,2.978,2.387,2.782,3.5-.13c.251.111,5.933,6.853,5.933,6.853a.312.312,0,0,1-.24.514" transform="translate(4.916 3.554)" fill="#1a1a1a"/>
          <path id="Trazado_607885" data-name="Trazado 607885" d="M70.686,92.7a.311.311,0,0,1-.31-.279c-.535-5.058-.007-20.958,0-21.118A.321.321,0,0,1,70.7,71a.315.315,0,0,1,.3.324c-.005.159-.531,16.015,0,21.031a.312.312,0,0,1-.277.344h-.034" transform="translate(3.375 3.417)" fill="#1a1a1a"/>
          <path id="Trazado_607886" data-name="Trazado 607886" d="M114.061,83.959a.316.316,0,0,1-.311-.335,89.009,89.009,0,0,0-.239-12.279.313.313,0,1,1,.623-.059,89.768,89.768,0,0,1,.239,12.385.312.312,0,0,1-.311.288" transform="translate(5.462 3.417)" fill="#1a1a1a"/>
          <path id="Trazado_607887" data-name="Trazado 607887" d="M30.731,77.617c-1.791-.038-3.531-.036-5.269,0a1.123,1.123,0,0,1-1.221-.872c-.646-1.964-1.2-3.553-1.742-5a1.258,1.258,0,0,0-.584-.6c-.644-.3-1.3-.589-1.951-.874-.812-.355-1.654-.722-2.465-1.123a1,1,0,0,0-1.069-.034c-.758.376-1.524.739-2.289,1.1s-1.505.712-2.25,1.081a1.11,1.11,0,0,1-1.543-.234c-1.136-1.2-2.375-2.439-3.684-3.686a1.152,1.152,0,0,1-.252-1.547c.347-.7.678-1.4,1.011-2.11.357-.758.715-1.517,1.088-2.266A1.192,1.192,0,0,0,8.479,60.2c-.392-.779-.742-1.591-1.081-2.376-.271-.629-.543-1.258-.836-1.877a1.541,1.541,0,0,0-.692-.74c-1.756-.67-3.514-1.248-5-1.726A1.1,1.1,0,0,1,0,52.266c.035-1.9.034-3.61,0-5.217a1.154,1.154,0,0,1,.94-1.264c1.841-.6,3.38-1.119,4.917-1.7a1.57,1.57,0,0,0,.711-.721c.705-1.409,1.389-2.881,2.031-4.375a1.3,1.3,0,0,0,.029-.886c-.72-1.646-1.507-3.262-2.181-4.624a1.146,1.146,0,0,1,.227-1.55c1.141-1.082,2.348-2.287,3.687-3.684a1.167,1.167,0,0,1,1.468-.257c.735.368,1.475.723,2.216,1.077.8.382,1.6.766,2.4,1.166a1.023,1.023,0,0,0,1.076.006c1.353-.619,2.79-1.194,4.272-1.707a1.046,1.046,0,0,0,.781-.739c.268-.785.553-1.564.84-2.343.271-.739.543-1.478.8-2.223a1.176,1.176,0,0,1,1.226-.929c1.834.038,3.527.044,5.263,0a1.18,1.18,0,0,1,1.26.94c.639,1.873,1.163,3.3,1.7,4.622a1.356,1.356,0,0,0,.681.614c1.465.619,2.976,1.212,4.492,1.757a1.325,1.325,0,0,0,.841-.041c1.421-.634,2.96-1.364,4.7-2.228a1.1,1.1,0,0,1,1.389.228c.538.561,1.085,1.114,1.632,1.667.723.729,1.445,1.46,2.148,2.209a1.323,1.323,0,0,1,.178,1.255c-.379.85-.78,1.692-1.179,2.533-.374.785-.747,1.569-1.1,2.361a1.128,1.128,0,0,0,.007.749c.638,1.737,1.191,3.136,1.737,4.4a1.483,1.483,0,0,0,.689.729c1.583.65,3.178,1.215,4.53,1.681a1.18,1.18,0,0,1,.921,1.28c-.034,1.657-.034,3.363,0,5.214a1.121,1.121,0,0,1-.852,1.228c-1.875.65-3.3,1.178-4.62,1.712a1.332,1.332,0,0,0-.64.658c-.582,1.417-1.149,2.922-1.73,4.6a1.175,1.175,0,0,0,.06.774c.339.748.691,1.489,1.046,2.23.4.83.79,1.659,1.164,2.5a1.339,1.339,0,0,1-.141,1.269c-1.071,1.138-2.194,2.269-3.279,3.364l-.971.978a6.436,6.436,0,0,1-1.75-.6c-1.357-.646-2.641-1.254-3.961-1.839a1.256,1.256,0,0,0-.822.024c-1.576.636-3.093,1.294-4.511,1.957a1.389,1.389,0,0,0-.661.656c-.579,1.513-1.137,3.119-1.714,4.909a1.13,1.13,0,0,1-1.207.932m-2.61-.653q1.284,0,2.571.027c.407,0,.522-.093.652-.5.579-1.8,1.142-3.419,1.723-4.941a2.014,2.014,0,0,1,.982-1c1.426-.667,2.955-1.329,4.542-1.97a1.849,1.849,0,0,1,1.309-.017c1.327.59,2.614,1.2,3.976,1.848l1.194.564.814-.821c1.083-1.092,2.2-2.222,3.268-3.355a.807.807,0,0,0,.026-.585c-.373-.833-.765-1.658-1.158-2.484-.356-.744-.712-1.489-1.051-2.241a1.793,1.793,0,0,1-.082-1.237c.587-1.687,1.156-3.2,1.742-4.631a1.965,1.965,0,0,1,.986-1c1.33-.537,2.764-1.068,4.651-1.722.352-.122.437-.244.431-.625-.035-1.86-.034-3.574,0-5.241.007-.4-.091-.532-.5-.675-1.359-.47-2.965-1.039-4.562-1.694a2.1,2.1,0,0,1-1.025-1.059c-.551-1.278-1.107-2.685-1.75-4.434a1.743,1.743,0,0,1,.009-1.221c.357-.8.733-1.586,1.108-2.374.4-.836.8-1.675,1.174-2.521a.751.751,0,0,0-.065-.572c-.7-.745-1.416-1.471-2.135-2.2-.549-.554-1.1-1.109-1.639-1.673a45.682,45.682,0,0,0-5.385,2.138,1.926,1.926,0,0,1-1.308.059c-1.527-.549-3.048-1.145-4.524-1.77a1.97,1.97,0,0,1-1.02-.956c-.536-1.333-1.063-2.769-1.706-4.654-.145-.42-.259-.518-.612-.518-1.829.046-3.537.042-5.283,0-.4,0-.535.1-.672.506-.256.748-.529,1.493-.8,2.236-.284.774-.568,1.547-.832,2.328a1.652,1.652,0,0,1-1.17,1.128c-1.462.508-2.881,1.074-4.216,1.686a1.64,1.64,0,0,1-1.618-.017c-.789-.4-1.587-.78-2.384-1.161-.745-.356-1.488-.712-2.225-1.082-.427-.1-.54-.077-.739.131-1.347,1.4-2.56,2.616-3.708,3.706-.282.263-.3.41-.1.818.677,1.371,1.467,3,2.192,4.651a1.874,1.874,0,0,1-.028,1.385c-.646,1.5-1.333,2.988-2.045,4.408a2.187,2.187,0,0,1-1.047,1.025c-1.548.587-3.1,1.109-4.945,1.713-.419.136-.518.266-.51.658.037,1.614.038,3.329,0,5.24-.005.378.075.493.433.609,1.495.48,3.264,1.063,5.034,1.737a2.172,2.172,0,0,1,1.032,1.057c.3.626.572,1.262.847,1.9.334.778.681,1.58,1.065,2.343a1.811,1.811,0,0,1,.034,1.8c-.372.746-.727,1.5-1.083,2.253-.333.71-.669,1.419-1.016,2.121-.19.383-.167.543.122.816,1.316,1.256,2.564,2.5,3.706,3.709.2.208.319.235.4.235,1.159-.5,1.914-.859,2.671-1.218s1.524-.721,2.279-1.1a1.6,1.6,0,0,1,1.624.035c.8.394,1.632.758,2.439,1.11.659.287,1.317.573,1.968.881a1.881,1.881,0,0,1,.9.949c.546,1.458,1.1,3.053,1.75,5.026.116.352.237.443.585.443.921-.015,1.811-.024,2.7-.024m-.044-16.815A10.5,10.5,0,1,1,38.59,49.662,10.519,10.519,0,0,1,28.077,60.149m.082-20.686a10.271,10.271,0,0,0-9.944,10.173,9.875,9.875,0,1,0,9.966-9.862Z" transform="translate(0 1.073)" fill="#1a1a1a"/>
          <path id="Trazado_607888" data-name="Trazado 607888" d="M161.212,82.919H129.848a3.552,3.552,0,0,1-3.549-3.548V74.55A3.553,3.553,0,0,1,129.848,71h4.417a.312.312,0,0,1,0,.625h-4.417a2.927,2.927,0,0,0-2.924,2.923v4.821a2.927,2.927,0,0,0,2.924,2.924h31.364a.312.312,0,1,1,0,.624" transform="translate(6.078 3.417)" fill="#1a1a1a"/>
          <path id="Trazado_607889" data-name="Trazado 607889" d="M192.225,82.919H176.76a.312.312,0,1,1,0-.624h15.465a2.927,2.927,0,0,0,2.924-2.924V74.55a2.927,2.927,0,0,0-2.924-2.923H133.913a.312.312,0,1,1,0-.625h58.311a3.552,3.552,0,0,1,3.549,3.548v4.821a3.551,3.551,0,0,1-3.549,3.548" transform="translate(6.429 3.417)" fill="#1a1a1a"/>
          <path id="Trazado_607890" data-name="Trazado 607890" d="M179.121,181.8H140.044a.312.312,0,0,1,0-.624h39.077a.312.312,0,1,1,0,.624" transform="translate(6.724 8.719)" fill="#1a1a1a"/>
          <path id="Trazado_607891" data-name="Trazado 607891" d="M83.9,53.446c-.356-.309-.3-.5-.152-.585l2.279-1.276a.312.312,0,1,1,.3.544l-2.279,1.277a.305.305,0,0,1-.152.04" transform="translate(4.025 2.481)" fill="#1a1a1a"/>
          <path id="Trazado_607892" data-name="Trazado 607892" d="M75.773,44.547c-.355-.343-.285-.527-.126-.6l1.6-.712a.313.313,0,0,1,.254.572l-1.6.71a.317.317,0,0,1-.127.027" transform="translate(3.634 2.079)" fill="#1a1a1a"/>
          <path id="Trazado_607893" data-name="Trazado 607893" d="M81.984,41.181c-.353-.366-.269-.546-.107-.6L83.445,40a.317.317,0,0,1,.4.186.312.312,0,0,1-.184.4l-1.569.576a.3.3,0,0,1-.108.019" transform="translate(3.933 1.924)" fill="#1a1a1a"/>
          <path id="Trazado_607894" data-name="Trazado 607894" d="M95.519,70.775H92.641a37.446,37.446,0,0,1-2.055-3.755.312.312,0,1,1,.56-.277l1.69,3.407h2.44l.907-3.663a.312.312,0,0,1,.606.15l-.965,3.9a.311.311,0,0,1-.3.237" transform="translate(4.358 3.188)" fill="#1a1a1a"/>
          <path id="Trazado_607895" data-name="Trazado 607895" d="M91.529,85.445a.316.316,0,0,1-.311-.335L92.3,70.26a.307.307,0,0,1,.334-.288.311.311,0,0,1,.288.334L91.841,85.154a.313.313,0,0,1-.311.29" transform="translate(4.39 3.367)" fill="#1a1a1a"/>
          <path id="Trazado_607896" data-name="Trazado 607896" d="M97.958,82.76C97.653,82.514,95,70.348,95,70.348a.313.313,0,0,1,.611-.132l2.653,12.165a.313.313,0,0,1-.239.372.283.283,0,0,1-.066.007" transform="translate(4.571 3.367)" fill="#1a1a1a"/>
          <path id="Trazado_607897" data-name="Trazado 607897" d="M184.668,80.377a3.526,3.526,0,1,1,3.526-3.527,3.531,3.531,0,0,1-3.526,3.527m0-6.428a2.9,2.9,0,1,0,2.9,2.9,2.906,2.906,0,0,0-2.9-2.9" transform="translate(8.717 3.529)" fill="#1a1a1a"/>
          <path id="Trazado_607898" data-name="Trazado 607898" d="M180.5,75.072H132.035a.312.312,0,1,1,0-.624H180.5a.312.312,0,1,1,0,.624" transform="translate(6.339 3.583)" fill="#1a1a1a"/>
          <path id="Trazado_607899" data-name="Trazado 607899" d="M180.5,78.957H132.035a.312.312,0,0,1,0-.625H180.5a.312.312,0,0,1,0,.625" transform="translate(6.339 3.77)" fill="#1a1a1a"/>
          <path id="Trazado_607900" data-name="Trazado 607900" d="M67.633,160.315H42.3a.312.312,0,1,1,0-.625H67.633a.312.312,0,0,1,0,.625" transform="translate(2.02 7.685)" fill="#1a1a1a"/>
          <path id="Trazado_607901" data-name="Trazado 607901" d="M67.633,165.451H42.3a.312.312,0,1,1,0-.625H67.633a.312.312,0,0,1,0,.625" transform="translate(2.02 7.932)" fill="#1a1a1a"/>
          <path id="Trazado_607902" data-name="Trazado 607902" d="M137.095,160.315H111.759a.312.312,0,1,1,0-.625h25.335a.312.312,0,0,1,0,.625" transform="translate(5.363 7.685)" fill="#1a1a1a"/>
          <path id="Trazado_607903" data-name="Trazado 607903" d="M137.095,165.451H111.759a.312.312,0,1,1,0-.625h25.335a.312.312,0,0,1,0,.625" transform="translate(5.363 7.932)" fill="#1a1a1a"/>
          <path id="Trazado_607904" data-name="Trazado 607904" d="M102.12,160.315H76.783a.312.312,0,0,1,0-.625H102.12a.312.312,0,1,1,0,.625" transform="translate(3.68 7.685)" fill="#1a1a1a"/>
          <path id="Trazado_607905" data-name="Trazado 607905" d="M102.12,165.451H76.783a.312.312,0,0,1,0-.625H102.12a.312.312,0,1,1,0,.625" transform="translate(3.68 7.932)" fill="#1a1a1a"/>
          <path id="Trazado_607906" data-name="Trazado 607906" d="M84.6,143.147a21.229,21.229,0,0,1-4.226-4.362.313.313,0,1,1,.54-.315A24.95,24.95,0,0,0,84.8,142.6a.312.312,0,0,1-.2.548" transform="translate(3.866 6.656)" fill="#1a1a1a"/>
          <path id="Trazado_607907" data-name="Trazado 607907" d="M79.836,143.2a15.352,15.352,0,0,1-3.662-3.743.313.313,0,0,1,.54-.315,17.65,17.65,0,0,0,3.317,3.5.311.311,0,0,1-.195.554" transform="translate(3.664 6.689)" fill="#1a1a1a"/>
        </g>
      </g>
    </g>
  </g>
</svg>
