<svg xmlns="http://www.w3.org/2000/svg" xmlns:xlink="http://www.w3.org/1999/xlink" width="400" height="195" viewBox="0 0 400 195">
  <defs>
    <clipPath id="clip-path">
      <rect id="Rect치ngulo_346462" data-name="Rect치ngulo 346462" width="312.796" height="177.95" fill="none"/>
    </clipPath>
  </defs>
  <g id="Grupo_1015864" data-name="Grupo 1015864" transform="translate(-285 -3388)">
    <rect id="Rect치ngulo_346430" data-name="Rect치ngulo 346430" width="400" height="69" rx="34.5" transform="translate(285 3514)" fill="#a3bfe4"/>
    <g id="Grupo_1015863" data-name="Grupo 1015863" transform="translate(329 3388)">
      <g id="Grupo_1015862" data-name="Grupo 1015862" clip-path="url(#clip-path)">
        <path id="Trazado_606780" data-name="Trazado 606780" d="M213.291,52.58s-.971,3.555.133,4.133c0,0,1.387,1.622,1.261,2.707s-.145,2.572-1.392,3.074-2.645,1.319-4.177.44l.351,2.979.644,9.447,6.026,4.581-2.818,15.03-3.383,12.668s-4.392,5.747-4.581,5.95-4.988,2.745-4.988,2.745-8.677-9.764-9.034-10.324-2.848-7.832-2.848-8.086,3.7-18.065,3.7-18.065l4.185-3.6s1.078-.72,1.227-1.541a40.473,40.473,0,0,0,0-4.3,4.494,4.494,0,0,1-3.423-1.438C192.9,67.427,192.923,63,192.923,63l.272-11.35,4.033-.037,2.846-.952,2.229-1.4.656-.564,1.764-1.068,4.908,1.068Z" transform="translate(60.416 15.266)" fill="#fff"/>
        <path id="Trazado_606781" data-name="Trazado 606781" d="M197.242,71.561s7.371.341,8.966-1.486,1.146-6.266.877-7.415a23.458,23.458,0,0,1-.312-3.506s1.931-3.649,5.373-2.023a17.365,17.365,0,0,0,.268-7.108c-.747-3.239-3.074-5.725-7.449-4.318a12.9,12.9,0,0,0-6.893-1.577c-3.8.26-7.733,4.691-7.712,8.673,0,0,1.907,4.759,1.878,4.64s.143-4.7.143-4.7a10.769,10.769,0,0,0,4.861-.136,20.649,20.649,0,0,0,5.5-3.107s.314,5.155,3.078,7.192c0,0-.3.953-.326,1.15s-.181,4.136-1.119,4.458-3.992-.407-5.281.359-1.479,1.417-2.366,1.173a14.307,14.307,0,0,0-2.664-.5,2.617,2.617,0,0,0-1.71.537s-.737,8.07,4.889,7.692" transform="translate(61.017 14.136)" fill="#983333"/>
        <path id="Trazado_606782" data-name="Trazado 606782" d="M173.975,81.81s9.83-10.159,22.861-9.86l3.808,18.723,1.1-1.927,3.279,15.71,2.329,2.328,8.686-20.242.848.362,3.127-15.269s7.626.345,13.051,2.555,9.073,6.146,13.178,17.77,8.4,23.175,9.9,27.159,1.763,17.615-6.449,22.176-11.236,1.476-11.236,1.476v11.635h-52.64Z" transform="translate(55.765 22.961)" fill="#1a1a1a"/>
        <path id="Trazado_606783" data-name="Trazado 606783" d="M20.467,55.222v46.244a90.709,90.709,0,0,1,25.981-12.5c15.51-4.638,22.11-4.93,22.11-4.93V37.939a125.952,125.952,0,0,0-25.3,5.94A101.146,101.146,0,0,0,20.467,55.222" transform="translate(6.56 12.161)" fill="#fff"/>
        <path id="Trazado_606784" data-name="Trazado 606784" d="M101.513,90.5s-10.531-1.153-16.636-7.32L77.67,98.746s-2.155-10.151-2.714-12.616-.631-7.337-14.041-7.258l-10.577,0S37.723,78.4,33.427,85.491s-4.474,10.686-4.474,10.686L18.4,137.817,15.464,152.09H81.179l-.709-19.848a11.139,11.139,0,0,0,9.384-4.912,57.607,57.607,0,0,0,7.881-15.6c1.153-3.662,3.654-12.981,3.654-12.981Z" transform="translate(4.957 25.278)" fill="#1a1a1a"/>
        <path id="Trazado_606785" data-name="Trazado 606785" d="M184.462,62.508l-1.35-4.561-2.174-2.41-2.138-.713H109.293l-1.883.566-2.3,2.3-.718,2.125.552,2.694,11.907,43.048.9,2.02,1.529,1.443,1.643.825,43.389-.154L192.051,93.4Z" transform="translate(33.461 17.573)" fill="#fff"/>
        <path id="Trazado_606786" data-name="Trazado 606786" d="M177.383,60.33l-1.262-1.549-1.743-.524-63.318.013-1.632.841-.609,1.878,11.267,40.592,1.154,1.527,2.273,1.068h42.334s21.914-16.243,21.914-16.422S177.383,60.33,177.383,60.33" transform="translate(34.88 18.673)" fill="#fff"/>
        <path id="Trazado_606787" data-name="Trazado 606787" d="M173.283,83.392s-6.789,1.321-9.752,7.231-6.179,13.359-7.345,15.482-5.544,2.843-6.806.755S141.164,83.1,141.164,83.1s-2.242-2.642-10.239-2.168-9.069,5.11-9.069,5.11,2.568,16.5,5.142,23.1,7.472,20.957,21.789,20.919c0,0,6.139.292,8.4-.712,0,0-1.13,18.671-2.458,22.1h47.791s-.607-16.574-.584-21.6.775-13.711.309-18.921a52.892,52.892,0,0,1,0-9.426L181.724,81.287Z" transform="translate(39.059 25.922)" fill="#33ece0"/>
        <path id="Trazado_606788" data-name="Trazado 606788" d="M147.8,34.506a1.377,1.377,0,1,0-1.377-1.377,1.376,1.376,0,0,0,1.377,1.377" transform="translate(46.933 10.178)" fill="#1a1a1a"/>
        <path id="Trazado_606789" data-name="Trazado 606789" d="M155.917,34.595a1.447,1.447,0,1,0-1.449-1.449,1.449,1.449,0,0,0,1.449,1.449" transform="translate(49.512 10.161)" fill="#1a1a1a"/>
        <path id="Trazado_606790" data-name="Trazado 606790" d="M163.993,34.462a1.341,1.341,0,1,0-1.343-1.34,1.34,1.34,0,0,0,1.343,1.34" transform="translate(52.135 10.187)" fill="#1a1a1a"/>
        <path id="Trazado_606791" data-name="Trazado 606791" d="M147.816,42.7a1.448,1.448,0,1,0-1.449-1.449,1.447,1.447,0,0,0,1.449,1.449" transform="translate(46.915 12.758)" fill="#1a1a1a"/>
        <path id="Trazado_606792" data-name="Trazado 606792" d="M155.934,42.785a1.519,1.519,0,1,0-1.519-1.519,1.519,1.519,0,0,0,1.519,1.519" transform="translate(49.495 12.74)" fill="#1a1a1a"/>
        <path id="Trazado_606793" data-name="Trazado 606793" d="M164.01,42.652A1.412,1.412,0,1,0,162.6,41.24a1.411,1.411,0,0,0,1.414,1.412" transform="translate(52.117 12.766)" fill="#1a1a1a"/>
        <path id="Trazado_606794" data-name="Trazado 606794" d="M147.789,50.665a1.341,1.341,0,1,0-1.34-1.34,1.34,1.34,0,0,0,1.34,1.34" transform="translate(46.942 15.38)" fill="#1a1a1a"/>
        <path id="Trazado_606795" data-name="Trazado 606795" d="M155.908,50.752a1.412,1.412,0,1,0-1.412-1.412,1.411,1.411,0,0,0,1.412,1.412" transform="translate(49.521 15.363)" fill="#1a1a1a"/>
        <path id="Trazado_606796" data-name="Trazado 606796" d="M163.987,50.635a1.317,1.317,0,1,0-1.318-1.317,1.316,1.316,0,0,0,1.318,1.317" transform="translate(52.141 15.386)" fill="#1a1a1a"/>
        <path id="Trazado_606797" data-name="Trazado 606797" d="M138.421,85.8l1.549-5.118s1.251-3.385-.5-3.948-2.818,1.393-3.145,2.45-.736,2.81-2.875,1.919c0,0-1.171-.831-2.03-4.467a56.329,56.329,0,0,0-2.929-8.248s-.857-2.331-2.537-1.7-1.285,2.657-.774,4.2S127,76.616,127,76.616s-2.707-.234-2.866,2.039c0,0-2.307.712-2.446,2.419a15.672,15.672,0,0,0,1.093,5.736c.458.948.86,1.631.86,1.631a12.589,12.589,0,0,1,6.443-2.844,37.987,37.987,0,0,1,8.339.2" transform="translate(38.999 21.338)" fill="#fff"/>
        <path id="Trazado_606798" data-name="Trazado 606798" d="M43.19,84.776l-.108-8.892s-2.745.873-3.968-2.559,4.547-4.057,5.126-3.762c0,0,3.65-1.713,5.146-2.634,2.8-1.725,4.973-6.556,4.973-6.556l1.7,2.422,1.511,8.889s.511,5.908-.829,7.318A5.1,5.1,0,0,1,52.8,80.631l.312,4.164s1.06,3.407,1.212,3.991.951,3.359-1.564,4.117-4.613-.791-5.861-2.286a61.493,61.493,0,0,1-3.712-5.841" transform="translate(12.483 19.351)" fill="#fff"/>
        <path id="Trazado_606799" data-name="Trazado 606799" d="M70.149,88.225l2.123-3.6S73.5,78.15,74.016,77.67a4.066,4.066,0,0,1,3.87-1.808,4.113,4.113,0,0,0,.6-.408c.071-.1,5.039-5.709,5.039-5.709A2.1,2.1,0,0,1,85.49,70c.86.7.627,2.08.185,2.854S82.7,76.991,82.7,76.991s2.563.025,2.827,1.179l-1.058,1.112L84.141,89.44s-2.5,3.043-3.74,3.268c0,0-8.051-2.325-10.253-4.483" transform="translate(22.485 22.312)" fill="#fff"/>
        <path id="Trazado_606800" data-name="Trazado 606800" d="M58.021,65.993a7.169,7.169,0,0,0-1.669-6.262c-2.591-3.049-10.71-.107-10.71-.107s1.157-3.569-.552-6.389a6.615,6.615,0,0,0-8.774-2.226c-3.353,1.681-4.591,6.008-3.934,8.974s2.7,4.762,4.594,4.842a17.6,17.6,0,0,0,.162,7.9c1.093,4.236,3.764,7.581,8.117,7.885l-.018-1.467s-3.272.493-3.791-2.3a3.46,3.46,0,0,1,2.339-4.117,10.145,10.145,0,0,1,2.151.1,17.866,17.866,0,0,0,3.852-1.517,17.877,17.877,0,0,0,4.4-3.744c.528-.705,2.365-3.781,2.365-3.781a6.872,6.872,0,0,1,1.466,2.207" transform="translate(10.325 16.094)" fill="#ffce26"/>
        <path id="Trazado_606801" data-name="Trazado 606801" d="M157.731,67.5s-.514-4.9,1.571-6.876a10.993,10.993,0,0,1,7.244.361,38.365,38.365,0,0,1,6.506-.626c1.721.2,5.714,2.76,6.253,6.089a20.779,20.779,0,0,1-.24,8.331c-.543,2.121-1.537,5.451-1.179,7.51a8.088,8.088,0,0,0,4.931,6,17.8,17.8,0,0,1,7.238,5.5c1.178,1.805,3.551,6.163,3.775,9.476s-1,8.648-3.983,10.412a12.977,12.977,0,0,1-11.906,1c-4.8-1.95-5.779-4.429-5.887-6.043S173.5,99,173.216,97.241a5.519,5.519,0,0,0-4.852-4.289c-2.852-.342-7.21-1.352-8-5.122s-1.076-5.758-1.076-5.758Z" transform="translate(50.54 19.284)" fill="#fff"/>
        <path id="Trazado_606802" data-name="Trazado 606802" d="M163.6,70.842a4.455,4.455,0,0,1,3.118-.042,3.621,3.621,0,0,1,1.787,4.345,3.552,3.552,0,0,1-4.181,2.089s-3.589,2.4-3.786,5c-.2.271-3.251.029-4.03-1.993a7.467,7.467,0,0,1-.565-4.349c.207-1,.331-2.254.331-2.254l-1.159-.242-.462-.828,1.837-6.119.618-.6,1.1.541.32-.5s2.314,4.475,5.071,4.94" transform="translate(49.572 21.109)" fill="#fff"/>
        <path id="Trazado_606803" data-name="Trazado 606803" d="M81.3,88.623,80.028,135.64s18.127-11.056,20.78-26.98v-45.5a18.456,18.456,0,0,0-2.613-12.7c-4-6.385-13.241-9.994-13.241-9.994l-.2,45.405Z" transform="translate(25.652 12.971)" fill="#fff"/>
        <path id="Trazado_606804" data-name="Trazado 606804" d="M74.254,92.589,73.662,138.9s-17.8,5.133-32.636,4.121S16.075,138.3,10.594,132.928a19.639,19.639,0,0,1-5.927-11.512l-.1-47.992S3.351,86.3,19.8,92.6s34.891,3.88,36.576,3.707c3.222-.331,17.88-3.715,17.88-3.715" transform="translate(1.456 23.535)" fill="#fff"/>
        <path id="Trazado_606805" data-name="Trazado 606805" d="M45.248,108.082s21.71-1.928,28.259-6.323v16.023a80.767,80.767,0,0,1-28.259,6.295Z" transform="translate(14.503 32.617)" fill="#a3bfe4"/>
        <path id="Trazado_606806" data-name="Trazado 606806" d="M70.8,84.342l1.268-2.15s-3.6-.906-3.939-.2S70.8,84.342,70.8,84.342" transform="translate(21.83 26.194)" fill="#1a1a1a"/>
        <path id="Trazado_606807" data-name="Trazado 606807" d="M81.429,84.769s-2.344,2.873-3.308,3.079a16.7,16.7,0,0,0,3.308.627Z" transform="translate(25.04 27.171)" fill="#1a1a1a"/>
        <path id="Trazado_606808" data-name="Trazado 606808" d="M229.858,114.139,237.949,94.9l-27.92-11.973-17.314,40.315,27.669,12.076.765-.878s-10.225-6.168-12.62-9.2a36.281,36.281,0,0,0-5.277-5.31,33.648,33.648,0,0,1,5-8.782,62.589,62.589,0,0,1,5.389-6.187Z" transform="translate(61.771 26.579)" fill="#fff"/>
        <path id="Trazado_606809" data-name="Trazado 606809" d="M205.056,82.88c-.149.11-1.351,3.663-1.351,3.663l.923,7.9L199.8,105.367l-2.133-2.184-.758-3.625,1.972-12.7-1.821-4.3,3.923-6.953Z" transform="translate(63.116 24.235)" fill="#ffce26"/>
        <path id="Trazado_606810" data-name="Trazado 606810" d="M198.923,63.681a3.375,3.375,0,0,1,.841-2.537,4.4,4.4,0,0,1,1.721-.971s-.363-.9-1.142-.842-.7,1.413-1.717,1.673-1.7-.479-2.455-.021-1.037.56-.679,1.179a2.942,2.942,0,0,0,2.137,1.6c1.058.075,1.294-.082,1.294-.082" transform="translate(62.612 19.017)" fill="#1a1a1a"/>
        <path id="Trazado_606811" data-name="Trazado 606811" d="M157.1,32.547A32.547,32.547,0,1,1,124.55,0,32.547,32.547,0,0,1,157.1,32.547" transform="translate(29.49)" fill="#fff198"/>
        <path id="Trazado_606812" data-name="Trazado 606812" d="M110.507,27.753a3.442,3.442,0,0,0-4.871,0l-1.327,1.327a3.44,3.44,0,0,0,0,4.87l9.7,9.7a3.444,3.444,0,0,0,4.871,0l19.977-19.49a3.445,3.445,0,0,0,0-4.87l-1.328-1.33a3.446,3.446,0,0,0-4.871,0L116.447,33.694Z" transform="translate(33.11 5.435)" fill="#fff"/>
        <path id="Trazado_606813" data-name="Trazado 606813" d="M22.477,66.582V80.407l-7.688,3.732V70.314Z" transform="translate(4.74 21.342)" fill="#983333"/>
        <path id="Trazado_606814" data-name="Trazado 606814" d="M87.444,44.732V56.437a33.052,33.052,0,0,0-8.562-2.781c-4.14-.585-7.165-.811-7.165-.811v-11.7a33.55,33.55,0,0,1,9.192,1.233,53.942,53.942,0,0,1,6.535,2.357" transform="translate(22.987 13.187)" fill="#1a1a1a"/>
        <path id="Trazado_606815" data-name="Trazado 606815" d="M83.807,40.468l-.2,45.405s7.05-4.912,10.563-10.5,5.291-10.538,5.489-12.214.68-8.025-2.056-11.743-3.884-6.092-13.8-10.946" transform="translate(26.799 12.971)" fill="#e8e8e8"/>
        <path id="Trazado_606816" data-name="Trazado 606816" d="M169.218,102.208s-4.755,18.2-20.722,25.864l.152-5.563s7.02-2.327,11.464-6.284a35.312,35.312,0,0,0,9.106-14.016" transform="translate(47.598 32.761)" fill="#1a1a1a"/>
        <path id="Trazado_606817" data-name="Trazado 606817" d="M201.072,102.974s-1.7.291-3.418.625L195,109.777s9.657,11.7,19.069,16.673l5.582,2.435.763-.877s-10.225-6.17-12.62-9.2a36.238,36.238,0,0,0-5.277-5.309,31.722,31.722,0,0,1,2.732-5.525Z" transform="translate(62.505 33.007)" fill="#b5b5b5"/>
        <path id="Trazado_606818" data-name="Trazado 606818" d="M213,102.063s-1.153-2.685-1.472-3.724-1-4.152-2.475-3.991-2.036,1.6-1.636,3.073,1.676,4.87.2,5.19-3.828-1.216-5.487-2.685-5.805-4.718-5.805-4.718-1.322.5-1.643,1.215a2.207,2.207,0,0,0,.267,1.7,1.665,1.665,0,0,0-1.67.379c-.592.72-.833,1.97-.453,2.4,0,0-1.982,1.4-.7,3.171a32.95,32.95,0,0,0,5.433,6.123c2.316,1.916,3.918,3.583,6.769,4.267,0,0,2.413-4.746,3.649-6.463S213,102.063,213,102.063" transform="translate(61.444 30.24)" fill="#fff"/>
        <path id="Trazado_606819" data-name="Trazado 606819" d="M113.479,79.46l5.034,18.2.9,2.02,2.142,1.752,1.03.516,9.315-.033,3.563,11.034h-26.99L99.212,79.621Z" transform="translate(31.801 25.47)" fill="#1a1a1a"/>
        <path id="Trazado_606820" data-name="Trazado 606820" d="M42.007,55.3c.9,4.491.24,4.669.24,4.669H44.1l.766-.392c.121-.4,1.035-3.705-.565-6.348a6.617,6.617,0,0,0-8.775-2.226,6.446,6.446,0,0,0-.86.531c1.192-.082,6.551-.162,7.337,3.766" transform="translate(11.113 16.094)" fill="#fff"/>
        <path id="Trazado_606821" data-name="Trazado 606821" d="M44.452,56.882c1.387.107,6.711.721,6.53,3.873-.21,3.617-6.65,9.323-6.671,9.34a14.882,14.882,0,0,0,1.6-.759,17.852,17.852,0,0,0,4.4-3.744c.53-.705,2.365-3.779,2.365-3.779a6.829,6.829,0,0,1,1.466,2.2,7.167,7.167,0,0,0-1.669-6.261c-1.622-1.909-5.414-1.468-8.022-.874" transform="translate(14.203 18.069)" fill="#fff"/>
        <path id="Trazado_606822" data-name="Trazado 606822" d="M200.648,59.969s-3.73,1.369-2.417,3.365A3.22,3.22,0,0,0,200,62.276a3.853,3.853,0,0,0,.643-2.307" transform="translate(63.45 19.222)" fill="#fff"/>
        <path id="Trazado_606823" data-name="Trazado 606823" d="M192.381,52.744a9.553,9.553,0,0,0,6.749-.918c-2.288.733-6.173-1.291-6.173-1.291.261-3.247,5.125-6.078,5.755-6.431-.21,0-.421.009-.639.024-3.8.26-7.734,4.691-7.712,8.673,0,0,1.907,4.759,1.878,4.64s.143-4.7.143-4.7" transform="translate(61.017 14.137)" fill="#fff"/>
        <path id="Trazado_606824" data-name="Trazado 606824" d="M200.188,66.574c-7.98.508-6.748-7.9-6.748-7.9s-.359.054-.844.139a2.759,2.759,0,0,0-.718.392s-.737,8.07,4.889,7.692a34.606,34.606,0,0,0,5.606-.239,6.137,6.137,0,0,0-2.184-.079" transform="translate(61.493 18.805)" fill="#fff"/>
        <path id="Trazado_606825" data-name="Trazado 606825" d="M202.124,77.71l-2.77,4.828,1.594,3.967-2.373,17.621-.6-.551-.948-4.017,1.9-12.814-1.573-4.206L201.11,75.6Z" transform="translate(63.153 24.233)" fill="#fff"/>
        <path id="Trazado_606826" data-name="Trazado 606826" d="M156.711,118.467s-2.205-7.926-10.587-7.536-10.838,6.616-10.838,6.616,3.921,2.943,10.986,2.94,10.439-2.019,10.439-2.019" transform="translate(43.364 35.552)" fill="#1a1a1a"/>
        <path id="Trazado_606827" data-name="Trazado 606827" d="M70.148,87.38a26.383,26.383,0,0,1,1.912-4.47l1.051-4.095c.044-.2.091-.4.144-.607.347-1.369.819-2.9,2.028-3.659a3.947,3.947,0,0,1,2.159-.442,14.122,14.122,0,0,1,2.84.312,5.282,5.282,0,0,1,1.33.44,2.227,2.227,0,0,1,1.142,2.818,2.693,2.693,0,0,1-1.6,1.4,8.18,8.18,0,0,1-2.522.392,7.673,7.673,0,0,1-3.7-.825c1.245-.065,2.356.194,3.507.194a7.9,7.9,0,0,0,2.493-.354,2.118,2.118,0,0,0,1.243-1.058,1.608,1.608,0,0,0-.856-2.007,4.554,4.554,0,0,0-1.171-.382,13.518,13.518,0,0,0-2.712-.3,3.065,3.065,0,0,0-1.817.346c-1.012.638-1.435,2.027-1.752,3.278-.051.2-.1.4-.141.6l-1.08,4.174c-.092.193-1.652,3.14-2.228,4.091a.316.316,0,0,1-.271.152" transform="translate(22.485 23.753)" fill="#1a1a1a"/>
        <path id="Trazado_606828" data-name="Trazado 606828" d="M81.276,84.832a1.986,1.986,0,0,1-1.75-1.6,3.1,3.1,0,0,1,.189-2.143,7.968,7.968,0,0,1,1.434-2.156,6.677,6.677,0,0,1-.856,2.406,2.481,2.481,0,0,0-.164,1.7c.231.738.594,1.095,1.181,1.158.261.51.124.63-.034.63" transform="translate(25.455 25.301)" fill="#1a1a1a"/>
        <path id="Trazado_606829" data-name="Trazado 606829" d="M80.453,77.6a7.122,7.122,0,0,1,1.537-2.8c1.083-1.354,1.927-2.409,1.561-3.816-.151-.584-.585-1.2-1.294-1.039a2.633,2.633,0,0,0-1.075.646,29.294,29.294,0,0,0-4.712,5.5,14.471,14.471,0,0,1,4.3-5.977,3.223,3.223,0,0,1,1.346-.779,1.752,1.752,0,0,1,2.049,1.495c.441,1.714-.586,3-1.491,4.133-.787.99-1.383,1.748-1.97,2.512a.315.315,0,0,1-.251.125" transform="translate(24.511 22.209)" fill="#1a1a1a"/>
        <path id="Trazado_606830" data-name="Trazado 606830" d="M82.541,76.923c-.485-.795-.832-1.116-1.427-1.264a1.344,1.344,0,0,0-1.467.374c-.083-.988.695-1.219,1.616-.986a2.054,2.054,0,0,1,1.578,1.463c-.235.409-.268.413-.3.413" transform="translate(25.527 24.028)" fill="#1a1a1a"/>
        <path id="Trazado_606831" data-name="Trazado 606831" d="M79.192,82.029a2.821,2.821,0,0,1-2.436-1.31,2.771,2.771,0,0,1,.376-2.955,5.471,5.471,0,0,0,.178,2.649,2.167,2.167,0,0,0,1.879.984,2.431,2.431,0,0,0,1.606-.806,11.867,11.867,0,0,0,.821-.928c.157-.19.32-.388.51-.6.291.63.131.821-.02,1.008-.267.321-.516.623-.865.972a3.033,3.033,0,0,1-2.026.992Z" transform="translate(24.517 24.926)" fill="#1a1a1a"/>
        <path id="Trazado_606832" data-name="Trazado 606832" d="M76.56,84.548a8.446,8.446,0,0,0,.914-4.053c.639.028.812,2.072-.667,3.934a.318.318,0,0,1-.247.119" transform="translate(24.54 25.801)" fill="#1a1a1a"/>
        <path id="Trazado_606833" data-name="Trazado 606833" d="M234.258,143.565c-11.067,0-25.723-11.2-33.741-19.894a29.8,29.8,0,0,1,4.689-8.929,58.953,58.953,0,0,1,5.529-6.464c.512.02,16.216,7.589,26.191,15.98-9.711-7.343-24.054-14.461-25.91-15.37a61.339,61.339,0,0,0-5.3,6.233,38.914,38.914,0,0,0-4.6,8.267c12.059,13,29.9,23.692,39.39,17.928,13.492-8.189,5.549-27.67-.831-43.324-1.111-2.727-2.162-5.3-3.052-7.7-.1-.255-.2-.537-.306-.844-1.288-3.58-3.679-10.242-9.348-13.7-4-2.439-9.637-3.837-15.465-3.837a25.791,25.791,0,0,1,15.795,3.3c5.858,3.571,8.3,10.369,9.612,14.023.111.3.211.585.3.839.887,2.39,1.937,4.961,3.045,7.683,6.472,15.877,14.525,35.636.572,44.1a12.425,12.425,0,0,1-6.574,1.71" transform="translate(64.272 23.002)" fill="#1a1a1a"/>
        <path id="Trazado_606834" data-name="Trazado 606834" d="M204.389,113.938c-4.434-.684-11.988-8.578-12.771-11.251a2.352,2.352,0,0,1,.956-2.727,1.859,1.859,0,0,1,.317-2.31,2.239,2.239,0,0,1,.813-.578,1.926,1.926,0,0,1,1.692.222,11.517,11.517,0,0,1-1.46.366,1.632,1.632,0,0,0-.585.423,1.235,1.235,0,0,0-.073,1.772c-.169.522-1.5,1.138-1.055,2.656.733,2.5,8.112,10.163,12.215,10.8.238.516.106.629-.049.629" transform="translate(61.382 31.08)" fill="#1a1a1a"/>
        <path id="Trazado_606835" data-name="Trazado 606835" d="M201.363,104.657a48.085,48.085,0,0,1-5.7-4.639c-1.1-1.017-2.075-1.913-2.077-2.946a1.957,1.957,0,0,1,.716-1.441c1.6-1.482,3.127-.02,4.03.854.185.176.456.448.779.77a45.136,45.136,0,0,0,3.428,3.21c.823.626,3.324,2.526,4.308,2.061.709-.338.931-.986.055-3.44-.63-1.764-.688-3.416-.155-4.313a1.384,1.384,0,0,1,.994-.7c1.917-.294,2.4,1.169,2.8,2.344.092.269.181.533.285.77a11.813,11.813,0,0,1,.56,1.764,8.106,8.106,0,0,0,1.258,3.02,3.819,3.819,0,0,1-1.87-2.862,11.337,11.337,0,0,0-.527-1.669c-.111-.252-.209-.532-.305-.819-.454-1.334-.856-2.121-2.106-1.924a.765.765,0,0,0-.552.4c-.427.717-.343,2.234.209,3.777.778,2.191.967,3.584-.383,4.222-1.187.561-3.171-.762-4.959-2.129a45.433,45.433,0,0,1-3.493-3.266c-.32-.318-.586-.586-.77-.761-1.325-1.277-2.176-1.754-3.164-.846a1.338,1.338,0,0,0-.512.976c0,.755.86,1.544,1.486,2.119a58.89,58.89,0,0,0,5.83,4.883c.038.532-.065.584-.17.584" transform="translate(62.05 30.141)" fill="#1a1a1a"/>
        <path id="Trazado_606836" data-name="Trazado 606836" d="M199.539,105.895c-.2-.07-1.842-1.4-3.678-2.9a29.106,29.106,0,0,1-3.267-3.373c.359-.559,2.179,1.667,3.667,2.884,1.836,1.5,3.474,2.829,3.477,2.83-.016.52-.107.561-.2.561" transform="translate(61.733 31.903)" fill="#1a1a1a"/>
        <path id="Trazado_606837" data-name="Trazado 606837" d="M84.716,90.026c-1.748,0-4.808-.831-8.395-2.277-3.192-1.285-9.056-4.143-8.407-5.758.281-.7,1.115-.666,1.6-.648a7.478,7.478,0,0,1,2.636.543,7.278,7.278,0,0,1-2.619.091c-.5-.02-.927-.012-1.031.251-.2.494,2.463,2.683,8.055,4.935,3.465,1.4,6.513,2.23,8.158,2.232.314.49.174.631,0,.631" transform="translate(21.753 26.071)" fill="#1a1a1a"/>
        <path id="Trazado_606838" data-name="Trazado 606838" d="M138.379,86.358a14.345,14.345,0,0,1,.6-3.295c.191-.725.371-1.408.539-1.876a5.775,5.775,0,0,0,.52-3.235,1.387,1.387,0,0,0-.675-.864,1.451,1.451,0,0,0-1.379.156,3.215,3.215,0,0,0-1.039,1.223,4.369,4.369,0,0,0-.276.844c-.242.927-.573,2.2-1.68,2.463-1.594.378-2.774-.91-3.535-3.828-.312-1.207-.6-2.253-.883-3.2a39.975,39.975,0,0,0-2.331-6.15,3.49,3.49,0,0,0-.92-1.4,1.271,1.271,0,0,0-.827-.222,1.359,1.359,0,0,0-1.068.561,2.556,2.556,0,0,0-.285,2.052c.388,1.55,2.348,6.939,2.368,6.994-.383.412-1.437.153-2.216.677a2.068,2.068,0,0,0-.812,1.512c-.3.273-1.29.351-1.923,1.105a2.857,2.857,0,0,0-.515,2.221,1.984,1.984,0,0,1,.037-2.633,3.145,3.145,0,0,1,1.814-1.018,2.561,2.561,0,0,1,1.051-1.714,2.918,2.918,0,0,1,1.791-.427c-.5-1.384-1.878-5.246-2.208-6.564a3.175,3.175,0,0,1,.387-2.579,2,2,0,0,1,1.54-.817,1.875,1.875,0,0,1,1.24.342,3.562,3.562,0,0,1,1.025,1.438,41.56,41.56,0,0,1,2.458,6.438c.284.955.576,2.01.891,3.223.654,2.522,1.575,3.666,2.777,3.371.736-.174,1-1.191,1.215-2.009a4.642,4.642,0,0,1,.331-.99,3.83,3.83,0,0,1,1.253-1.447,2.068,2.068,0,0,1,2-.191,2,2,0,0,1,1,1.254,6.274,6.274,0,0,1-.522,3.6c-.169.471-.345,1.142-.533,1.853a19.739,19.739,0,0,1-.926,2.954.319.319,0,0,1-.285.18" transform="translate(38.965 21.264)" fill="#1a1a1a"/>
        <path id="Trazado_606839" data-name="Trazado 606839" d="M125.228,80.215c-1.943-2.682-1.923-4.5-1.921-4.577.63.029.625,1.727,2.185,4.086-.144.473-.2.491-.264.491" transform="translate(39.524 24.244)" fill="#1a1a1a"/>
        <path id="Trazado_606840" data-name="Trazado 606840" d="M127.336,78.2a17.286,17.286,0,0,1-1.734-3.989c.63-.063.788.8,2.022,3.544-.2.437-.244.445-.288.445" transform="translate(40.26 23.787)" fill="#1a1a1a"/>
        <path id="Trazado_606841" data-name="Trazado 606841" d="M123.718,85.122a13.663,13.663,0,0,1-2.3-7.207c.631.041.631,3.7,2.566,6.72-.148.471-.209.487-.267.487" transform="translate(38.919 24.974)" fill="#1a1a1a"/>
        <path id="Trazado_606842" data-name="Trazado 606842" d="M198.25,64.171a3.544,3.544,0,0,1-1.872-.534,2.321,2.321,0,0,1-1.191-1.574,1.236,1.236,0,0,1,.478-1.145,1.787,1.787,0,0,1,1.718-.119c.794.321.879.285,1.083.206s.292-.115.654-.887a1.784,1.784,0,0,1,1.339-1.082,1.261,1.261,0,0,1,1.13.515,2.2,2.2,0,0,1,.157,1.878,3.578,3.578,0,0,1-3.5,2.741m-1.665-2.9a.9.9,0,0,0-.543.157.6.6,0,0,0-.226.581,1.747,1.747,0,0,0,.893,1.091,2.959,2.959,0,0,0,2.665.224,3.046,3.046,0,0,0,1.763-2.063,1.661,1.661,0,0,0-.048-1.322.6.6,0,0,0-.561-.273,1.177,1.177,0,0,0-.839.721c-.427.915-.611,1.058-.992,1.207s-.614.173-1.552-.209a1.518,1.518,0,0,0-.561-.115" transform="translate(62.562 18.922)" fill="#1a1a1a"/>
        <path id="Trazado_606843" data-name="Trazado 606843" d="M198.178,63.844c-.9-2.59,1.2-3.8,2.386-4.106.044.642-2.67,1.384-2.08,3.712-.255.39-.28.394-.306.394" transform="translate(63.452 19.148)" fill="#1a1a1a"/>
        <path id="Trazado_606844" data-name="Trazado 606844" d="M193.385,57.007c-.549-.073-1.063-.42-1.137-1.727a7.881,7.881,0,0,1,.059-1.371c.493,1,.531,2.389,1.037,2.461.629-.39.877-1.6.938-2.281.61.264.428,2.114-.33,2.712a.908.908,0,0,1-.566.2" transform="translate(61.619 17.28)" fill="#1a1a1a"/>
        <path id="Trazado_606845" data-name="Trazado 606845" d="M199.037,57.053c-1.475-.244-1.07-2.831-1.018-3.124.467,1.015.473,2.4.975,2.488.638-.38.928-1.64,1.009-2.357.6.287.362,2.215-.423,2.8a.908.908,0,0,1-.543.19" transform="translate(63.443 17.286)" fill="#1a1a1a"/>
        <path id="Trazado_606846" data-name="Trazado 606846" d="M48.449,80.211c-.6,0-1.235-.013-1.884-.059a6.192,6.192,0,0,1,2.926-.585c1.758-.03,3.11-.054,4.144-1.029a3.564,3.564,0,0,0,.79-1.109,6.778,6.778,0,0,0,.44-1.858,14.36,14.36,0,0,0,.118-2.356,37.9,37.9,0,0,0-.46-4.368c-.305-2.1-1.249-6.142-1.258-6.183.655.022,1.575,3.962,1.833,5.738a41.007,41.007,0,0,1,.516,4.8,14.915,14.915,0,0,1-.121,2.46A7.3,7.3,0,0,1,55,77.69,4.207,4.207,0,0,1,54.068,79c-1.212,1.141-2.749,1.17-4.235,1.2-.659.015-1.013.018-1.384.018" transform="translate(14.926 20.086)" fill="#1a1a1a"/>
        <path id="Trazado_606847" data-name="Trazado 606847" d="M46.39,65.97c.244-.071.427.015.614.907.21.994-.028,1.206-.255,1.225s-.493-.261-.573-.981-.107-1.058.214-1.152" transform="translate(14.784 21.139)" fill="#1a1a1a"/>
        <path id="Trazado_606848" data-name="Trazado 606848" d="M51.251,64.938c.243-.081.428,0,.646.885.242.988.012,1.206-.215,1.235s-.5-.246-.606-.961-.143-1.054.176-1.158" transform="translate(16.347 20.807)" fill="#1a1a1a"/>
        <path id="Trazado_606849" data-name="Trazado 606849" d="M52.544,63.923a1.907,1.907,0,0,0-1.96-.086c.981-1.075,1.627-.829,2.134-.494.029.53-.071.58-.174.58" transform="translate(16.214 20.212)" fill="#1a1a1a"/>
        <path id="Trazado_606850" data-name="Trazado 606850" d="M42.443,74.167a3.609,3.609,0,1,1,1.288-6.982A1.918,1.918,0,0,1,44.945,68c-.952-.162-1.282-.189-1.286-.189a3.221,3.221,0,0,0-1.845-.164,2.977,2.977,0,1,0,2.67,5.077,1.376,1.376,0,0,1-1.273,1.358,3.648,3.648,0,0,1-.767.083" transform="translate(12.447 21.459)" fill="#1a1a1a"/>
        <path id="Trazado_606851" data-name="Trazado 606851" d="M41.308,72.087c-.217-.544,1.517-2.188,1.517-2.188l-2.261-1.35c.322-.543,2.943,1.022,2.943,1.022.055.5-1.983,2.428-1.983,2.428a.3.3,0,0,1-.217.087" transform="translate(13.002 21.936)" fill="#1a1a1a"/>
        <path id="Trazado_606852" data-name="Trazado 606852" d="M50.746,88.713a4.194,4.194,0,0,1-1.3-.217,9.853,9.853,0,0,1-3.977-2.807,20.519,20.519,0,0,1-3.419-5.376c1.487,1.776,2.6,3.53,3.888,4.953A9.254,9.254,0,0,0,49.644,87.9a2.862,2.862,0,0,0,2.343-.125c2.042-1.2,1.313-3.176.54-5.273a10.264,10.264,0,0,1-.724-2.6s-.013-.164-.313-4.174c.63-.046.935,4.026.943,4.121a9.9,9.9,0,0,0,.687,2.435c.75,2.036,1.682,4.573-.811,6.036a3.1,3.1,0,0,1-1.564.4" transform="translate(13.478 24.272)" fill="#1a1a1a"/>
        <path id="Trazado_606853" data-name="Trazado 606853" d="M42.255,81.325c-.316-.313-.4-9.2-.4-9.2.631-.007.712,8.885.712,8.885-.313.32-.314.32-.314.32" transform="translate(13.417 23.117)" fill="#1a1a1a"/>
        <path id="Trazado_606854" data-name="Trazado 606854" d="M65.575,141.4c-.491-4.152-.614-7.977-.734-11.677-.172-5.369-.347-10.921-.692-16.545a117.155,117.155,0,0,1,1.324,16.524c.119,3.7.24,7.522.416,11.368a3.686,3.686,0,0,1-.314.33" transform="translate(20.562 36.279)" fill="#1a1a1a"/>
        <path id="Trazado_606855" data-name="Trazado 606855" d="M67.951,108.981A180.358,180.358,0,0,0,64.07,87.695a17.225,17.225,0,0,0-1.614-4.438c-2.3-3.954-7.107-3.972-11.347-3.988-.489,0-.971-.005-1.438-.012a1.508,1.508,0,0,1,1.443-.621c4.408.016,9.4.037,11.886,4.3a17.764,17.764,0,0,1,1.684,4.6,137.1,137.1,0,0,1,3.581,21.1c-.294.345-.3.346-.314.346" transform="translate(15.921 25.205)" fill="#1a1a1a"/>
        <path id="Trazado_606856" data-name="Trazado 606856" d="M51.849,71.63a10.044,10.044,0,0,0-.193-2.741,3.548,3.548,0,0,0-1.5.508c-.457-.223-1.251-4.573-1.251-4.573.622-.114,1.34,3.824,1.34,3.824.613-.285,1.41-.553,1.8-.26.622.482.288,2.257.116,3a.317.317,0,0,1-.309.244" transform="translate(15.675 20.777)" fill="#1a1a1a"/>
        <path id="Trazado_606857" data-name="Trazado 606857" d="M26.071,94.58c-.267-.071-.355-.251-.3-.416,2.093-6.32,4.618-10.416,7.506-12.178,3.4-2.076,6.895-3.359,13.763-3.359-6.72.633-10.122,1.882-13.432,3.9-2.757,1.681-5.192,5.662-7.237,11.836a.318.318,0,0,1-.3.218" transform="translate(8.255 25.203)" fill="#1a1a1a"/>
        <path id="Trazado_606858" data-name="Trazado 606858" d="M15.465,138.047c.692-5.278,1.678-9.991,2.624-14.39a113.064,113.064,0,0,1-2.315,14.138.315.315,0,0,1-.309.252" transform="translate(4.957 39.636)" fill="#1a1a1a"/>
        <path id="Trazado_606859" data-name="Trazado 606859" d="M34.865,137.25c.409-3.84,1.03-7.248,1.636-11.107A50.465,50.465,0,0,1,35.174,137a.315.315,0,0,1-.309.251" transform="translate(11.175 40.433)" fill="#1a1a1a"/>
        <path id="Trazado_606860" data-name="Trazado 606860" d="M43.99,79.046c-5.332-.508-8.981-6.2-8.708-13.525a7.96,7.96,0,0,1,2.534-6.04,8.75,8.75,0,0,1,6.123-1.789c.957-.405,9.33-3.774,12.173.584A8.43,8.43,0,0,1,57.5,64.793,25.255,25.255,0,0,0,55.65,62.3a16.237,16.237,0,0,1-10.336,8.976,17.413,17.413,0,0,0,9.922-9.629c.535-.112,1.251.458,1.788,1.564a8.5,8.5,0,0,0-1.441-4.589C52.92,54.541,44.2,58.265,44.117,58.3c-.2.021-3.548-.346-5.892,1.661a7.366,7.366,0,0,0-2.311,5.581c-.261,6.983,3.147,12.4,8.105,12.871.268.508.131.63-.029.63" transform="translate(11.305 17.972)" fill="#1a1a1a"/>
        <path id="Trazado_606861" data-name="Trazado 606861" d="M174.353,82.126a3.979,3.979,0,0,1,1.532-2.3c7.031-6.048,13.554-7.062,19.311-7.96q.743-.115,1.468-.231a1.576,1.576,0,0,1-1.373.857c-5.672.883-12.1,1.884-19,7.812a12.355,12.355,0,0,0-1.7,1.7.32.32,0,0,1-.247.119" transform="translate(55.886 22.962)" fill="#1a1a1a"/>
        <path id="Trazado_606862" data-name="Trazado 606862" d="M195.173,92.041c-.31-.254-4.12-18.757-4.12-18.757.1-.3,5.455-4.936,5.455-4.936.467.062,6.512,9.007,6.512,9.007l5.831-8.941c.456-.078,5.878,4.021,5.878,4.021.116.314-3.011,15.586-3.011,15.586-.618-.127,2.469-15.2,2.469-15.2l-4.994-3.774-5.8,8.9,6.457,11.707c-.555.3-6.831-11.074-6.831-11.074l-7.573,13.308a.315.315,0,0,1-.273.16m-3.462-18.7,3.6,17.5,7.34-12.9-6-8.882Z" transform="translate(61.239 21.908)" fill="#1a1a1a"/>
        <path id="Trazado_606863" data-name="Trazado 606863" d="M198.957,85.372a43.435,43.435,0,0,1-2.049-4.407c.584-.244,2.259,3.774,2.259,3.774l4.312-.008,1.278-3.837c.6.2-.751,4.252-.751,4.252a41.89,41.89,0,0,1-5.048.226" transform="translate(63.115 25.929)" fill="#1a1a1a"/>
        <path id="Trazado_606864" data-name="Trazado 606864" d="M204.957,71.79c-.316-.3-.93-12.447-.93-12.447.631-.032,1.244,12.115,1.244,12.115a3.057,3.057,0,0,1-.314.333" transform="translate(65.397 19.021)" fill="#1a1a1a"/>
        <path id="Trazado_606865" data-name="Trazado 606865" d="M195.4,70.014c-.314-.321-.255-5.13-.255-5.13.63.008.57,4.817.57,4.817a.316.316,0,0,1-.316.313" transform="translate(62.55 20.797)" fill="#1a1a1a"/>
        <path id="Trazado_606866" data-name="Trazado 606866" d="M197.033,97.179c-.312-.362,1.583-13.168,1.583-13.168.626.092-1.27,12.9-1.27,12.9a.316.316,0,0,1-.313.269" transform="translate(63.145 26.928)" fill="#1a1a1a"/>
        <path id="Trazado_606867" data-name="Trazado 606867" d="M203.093,92.235c-.313-.277-1.273-8.167-1.273-8.167.626-.078,1.586,7.814,1.586,7.814-.287.353-.3.354-.313.354" transform="translate(64.69 26.946)" fill="#1a1a1a"/>
        <path id="Trazado_606868" data-name="Trazado 606868" d="M198.356,100.6c-.309-.252-3.588-15.963-3.588-15.963.618-.128,3.9,15.582,3.9,15.582-.264.378-.288.38-.308.38" transform="translate(62.43 27.13)" fill="#1a1a1a"/>
        <path id="Trazado_606869" data-name="Trazado 606869" d="M200.354,140.553c-.314-.313-.445-23.883-.445-23.883.63,0,.761,23.565.761,23.565-.313.318-.316.318-.316.318" transform="translate(64.077 37.397)" fill="#1a1a1a"/>
        <path id="Trazado_606870" data-name="Trazado 606870" d="M146.828,139.87c-.265-.071-.357-.251-.3-.416,1.442-4.312,2.115-15.485,2.475-21.486.269,6.07-.407,17.3-1.875,21.687a.315.315,0,0,1-.3.215" transform="translate(46.962 37.813)" fill="#1a1a1a"/>
        <path id="Trazado_606871" data-name="Trazado 606871" d="M50.158,72.866a2.123,2.123,0,0,1-.992-.234,2.98,2.98,0,0,1-1.355-1.849c.619-.131.866.889,1.647,1.289A2.028,2.028,0,0,0,51.181,72c-.206.773-.631.866-1.023.866" transform="translate(15.325 22.685)" fill="#1a1a1a"/>
        <path id="Trazado_606872" data-name="Trazado 606872" d="M197.323,69.694c-1.692,0-3.452-.2-4.541-1.863-1.117-1.7-1.124-3.918-1.13-5.875,0-.43,0-.852-.016-1.257-.041-1.334.16-9.477.168-9.825.629.1.425,8.488.464,9.8.013.412.016.84.017,1.274.007,1.96.013,3.987,1.025,5.53,1.076,1.641,2.97,1.607,4.824,1.569.234,0,.469-.011.7-.011a18.378,18.378,0,0,0,4-.4,4.245,4.245,0,0,0,2.822-1.427,6.888,6.888,0,0,0,.89-3.5,13.5,13.5,0,0,0-.054-2.137c-.207-1.723-.506-4.395-.506-4.395a3.953,3.953,0,0,1,1.256-1.874,4.132,4.132,0,1,1,.11,6.473,5.115,5.115,0,0,0,4.734-.578,3.5,3.5,0,1,0-5.463-4.016c.05.452.309,2.767.5,4.317a14.013,14.013,0,0,1,.055,2.238,7.444,7.444,0,0,1-1,3.823,4.776,4.776,0,0,1-3.208,1.69,18.822,18.822,0,0,1-4.136.412c-.227,0-.457.005-.689.009-.271.005-.545.011-.821.011" transform="translate(61.424 16.307)" fill="#1a1a1a"/>
        <path id="Trazado_606873" data-name="Trazado 606873" d="M192.065,53.462c-.279-.465.471-2.043,2.724-1.459a2.821,2.821,0,0,0-2.436,1.277.317.317,0,0,1-.288.182" transform="translate(61.546 16.628)" fill="#1a1a1a"/>
        <path id="Trazado_606874" data-name="Trazado 606874" d="M201.1,53.67c-1.715-1.994-3.184-1.112-3.246-1.075-.324-.545,1.664-1.775,3.5.564-.112.489-.181.511-.25.511" transform="translate(63.406 16.598)" fill="#1a1a1a"/>
        <path id="Trazado_606875" data-name="Trazado 606875" d="M207.106,59.551c-.14-.033-3.1-1.5-3.1-1.5-.086-.5,2.607-3.258,2.607-3.258.45.442-1.939,2.884-1.939,2.884l2.572,1.274c.089.535-.022.6-.139.6" transform="translate(65.39 17.563)" fill="#1a1a1a"/>
        <path id="Trazado_606876" data-name="Trazado 606876" d="M200.212,47.508c-.247-.514,1.306-2.44,1.306-2.44.493.4-1.059,2.323-1.059,2.323a.321.321,0,0,1-.247.118" transform="translate(64.166 14.446)" fill="#1a1a1a"/>
        <path id="Trazado_606877" data-name="Trazado 606877" d="M198.683,61.924c.7-1.425,2.391-1.269,3.75-1.146a5.483,5.483,0,0,0,1.379.038c.364-.1.862-2.159,1.039-4.329l.234-.944a12.29,12.29,0,0,1-2.992-6.616,11.933,11.933,0,0,1-10.7,2.744,12.836,12.836,0,0,0,10.717-3.639c.555.239.721,4.226,3.551,7.2a5.192,5.192,0,0,1-.189,1.355c-.1,1.328-.481,4.569-1.5,4.837a5.261,5.261,0,0,1-1.6-.02c-1.17-.107-2.761-.252-3.473.428a.308.308,0,0,1-.219.088" transform="translate(61.348 15.396)" fill="#1a1a1a"/>
        <path id="Trazado_606878" data-name="Trazado 606878" d="M191.891,59.43a2.052,2.052,0,0,1,2.314-.874c-.223.589-1.237.242-2.142.825a.318.318,0,0,1-.172.049" transform="translate(61.507 18.742)" fill="#1a1a1a"/>
        <path id="Trazado_606879" data-name="Trazado 606879" d="M310.023,134.707H0c0-.631,310.023-.631,310.023-.631.316.49.174.631,0,.631" transform="translate(0 42.976)" fill="#1a1a1a"/>
        <path id="Trazado_606880" data-name="Trazado 606880" d="M163.453,76.636a3.758,3.758,0,0,1-3.094-1.627,9.528,9.528,0,0,1,1.993.795,3.127,3.127,0,1,0-.795-5.41,2.414,2.414,0,0,1,3.227-1.031,3.76,3.76,0,0,1,2.192,4.842,3.776,3.776,0,0,1-3.523,2.431" transform="translate(51.4 22.16)" fill="#1a1a1a"/>
        <path id="Trazado_606881" data-name="Trazado 606881" d="M163.368,74.449a26.809,26.809,0,0,1-1.928-2.424c.168-.491,3.017-1.314,3.017-1.314.176.606-2.241,1.3-2.241,1.3l1.406,1.931c-.124.483-.19.5-.255.5" transform="translate(51.747 22.665)" fill="#1a1a1a"/>
        <path id="Trazado_606882" data-name="Trazado 606882" d="M183.157,145.634c-.325-.4-1.4-11.531-.607-23.4.372-5.587.427-12.866.16-22.251a137.2,137.2,0,0,1,.471,22.293,159.935,159.935,0,0,0,.292,23.006c-.293.346-.305.347-.316.347" transform="translate(58.422 32.049)" fill="#1a1a1a"/>
        <path id="Trazado_606883" data-name="Trazado 606883" d="M160.289,82.979a5.172,5.172,0,0,1-4.073-2.079c-1.483-2.2-.59-5.249-.552-5.379l2.484-10.15c.614.151-1.875,10.316-1.875,10.316-.013.044-.848,2.916.469,4.861a4.556,4.556,0,0,0,3.576,1.8c.271.508.131.631-.029.631" transform="translate(49.799 20.954)" fill="#1a1a1a"/>
        <path id="Trazado_606884" data-name="Trazado 606884" d="M155.94,74.057c-1.225-.3-1.612-.984-1.427-1.644l1.633-5.828a1.248,1.248,0,0,1,1.533-.86,1.445,1.445,0,0,1,.98.652,1.24,1.24,0,0,1,.116.946l-1.636,5.826a1.246,1.246,0,0,1-1.2.907m-.162-.655a.621.621,0,0,0,.753-.423l1.636-5.828c-.976-.912-1.318-.717-1.412-.394l-1.633,5.825a.612.612,0,0,0,.423.753Z" transform="translate(49.512 21.053)" fill="#1a1a1a"/>
        <path id="Trazado_606885" data-name="Trazado 606885" d="M183.827,116.122a19.558,19.558,0,0,1-5.717-.969,9.725,9.725,0,0,1-4.651-2.587c-1.5-1.717-2.026-4.3-1.556-7.675.116-.832.273-1.669.428-2.479a29.042,29.042,0,0,0,.588-4.248,4.691,4.691,0,0,0-.469-2.566c-.815-1.372-2.7-1.92-4.049-2.215-.32-.07-.64-.133-.961-.2a15.574,15.574,0,0,1-2.922-.773,8.9,8.9,0,0,1-5.17-7.841c-.051-2.427,2.009-4.449,3.954-5.532-1.476,1.545-3.366,3.371-3.322,5.519a8.25,8.25,0,0,0,4.778,7.27,15.169,15.169,0,0,0,2.8.737c.326.065.65.128.973.2,1.464.32,3.517.926,4.459,2.51a5.274,5.274,0,0,1,.555,2.912,29.141,29.141,0,0,1-.6,4.342c-.152.8-.309,1.631-.423,2.448-.441,3.185.03,5.6,1.406,7.172a9.165,9.165,0,0,0,4.359,2.4,18.938,18.938,0,0,0,5.532.943,9.738,9.738,0,0,0,9.792-10.121c-.03-6.1-3.082-12.089-7.594-14.9-.7-.437-1.458-.833-2.193-1.215-1.867-.973-3.8-1.978-5-3.752-1.983-2.914-1.142-6.129-.33-9.237a29.938,29.938,0,0,0,.721-3.231c1.322-9.244-3.148-11.619-5.932-12.212a42.692,42.692,0,0,0-6.592.6c-4.481-1.812-6.732-.639-7.064-.442-.288.44-2.311,3.68-1.422,6.842.557,1.99,2.152,3.577,4.743,4.718-3.028-.643-4.743-2.369-5.355-4.551-1.026-3.675,1.443-7.27,1.548-7.421.174-.147,2.584-1.813,7.544.217.889-.127,5.717-.8,6.731-.582,3,.639,7.82,3.167,6.424,12.92a30.893,30.893,0,0,1-.736,3.3c-.776,2.971-1.581,6.043.242,8.721,1.115,1.641,2.891,2.566,4.771,3.546.746.388,1.517.791,2.236,1.239,4.689,2.926,7.861,9.131,7.89,15.44a10.327,10.327,0,0,1-10.291,10.754Z" transform="translate(50.436 19.163)" fill="#1a1a1a"/>
        <path id="Trazado_606886" data-name="Trazado 606886" d="M130.5,110.245h-8.31a5.718,5.718,0,0,1-5.5-4.183L104.444,61.786a5.707,5.707,0,0,1,5.5-7.229h68.319a5.723,5.723,0,0,1,5.5,4.186l1.059,3.764c-.609.172-1.669-3.593-1.669-3.593a5.084,5.084,0,0,0-4.887-3.724H109.943a5.075,5.075,0,0,0-4.89,6.427L117.3,105.893a5.082,5.082,0,0,0,4.889,3.72h8.31c.314.491.174.633,0,.633" transform="translate(33.41 17.487)" fill="#1a1a1a"/>
        <path id="Trazado_606887" data-name="Trazado 606887" d="M152.394,96.882H141.041c0-.633,11.353-.633,11.353-.633.316.491.174.633,0,.633" transform="translate(45.208 30.851)" fill="#1a1a1a"/>
        <path id="Trazado_606888" data-name="Trazado 606888" d="M162.386,60.908a3.344,3.344,0,0,0-3.213-2.258H155.6c0-.633,3.568-.633,3.568-.633a3.41,3.41,0,0,1,3.519,2.489c-.25.4-.279.4-.306.4" transform="translate(49.877 18.596)" fill="#1a1a1a"/>
        <path id="Trazado_606889" data-name="Trazado 606889" d="M128.081,104.569h-3.874a4.782,4.782,0,0,1-4.594-3.5L108.681,61.556a2.792,2.792,0,0,1,2.691-3.538h48.4c0,.633-48.4.633-48.4.633a2.158,2.158,0,0,0-2.081,2.735l10.93,39.52a4.149,4.149,0,0,0,3.985,3.032h3.874c.314.49.174.633,0,.633" transform="translate(34.803 18.597)" fill="#1a1a1a"/>
        <path id="Trazado_606890" data-name="Trazado 606890" d="M154.656,93.424H139.779c0-.633,14.877-.633,14.877-.633.316.49.174.633,0,.633" transform="translate(44.804 29.743)" fill="#1a1a1a"/>
        <path id="Trazado_606891" data-name="Trazado 606891" d="M135.718,64.754H117.386c0-.633,18.332-.633,18.332-.633.314.491.174.633,0,.633" transform="translate(37.626 20.553)" fill="#1a1a1a"/>
        <path id="Trazado_606892" data-name="Trazado 606892" d="M133.923,67.777h-7.264c0-.633,7.264-.633,7.264-.633.314.491.174.633,0,.633" transform="translate(40.598 21.522)" fill="#1a1a1a"/>
        <path id="Trazado_606893" data-name="Trazado 606893" d="M125.784,67.777h-7.507c0-.633,7.507-.633,7.507-.633.314.491.174.633,0,.633" transform="translate(37.912 21.522)" fill="#1a1a1a"/>
        <path id="Trazado_606894" data-name="Trazado 606894" d="M160.082,64.754H141.749c0-.633,18.333-.633,18.333-.633.316.491.174.633,0,.633" transform="translate(45.435 20.553)" fill="#1a1a1a"/>
        <path id="Trazado_606895" data-name="Trazado 606895" d="M159.891,67.777H142.642c0-.633,17.249-.633,17.249-.633.314.491.174.633,0,.633" transform="translate(45.721 21.522)" fill="#1a1a1a"/>
        <path id="Trazado_606896" data-name="Trazado 606896" d="M136.312,73.852h-7.461c0-.633,7.461-.633,7.461-.633.316.49.174.633,0,.633" transform="translate(41.301 23.469)" fill="#1a1a1a"/>
        <path id="Trazado_606897" data-name="Trazado 606897" d="M127.169,73.852h-6.55c0-.633,6.55-.633,6.55-.633.316.49.174.633,0,.633" transform="translate(38.662 23.469)" fill="#1a1a1a"/>
        <path id="Trazado_606898" data-name="Trazado 606898" d="M133.538,76.875h-3.592c0-.633,3.592-.633,3.592-.633.314.49.174.633,0,.633" transform="translate(41.652 24.438)" fill="#1a1a1a"/>
        <path id="Trazado_606899" data-name="Trazado 606899" d="M122.144,76.875h-.633a.619.619,0,0,1,.633-.633c.314.49.174.633,0,.633" transform="translate(38.948 24.438)" fill="#1a1a1a"/>
        <path id="Trazado_606900" data-name="Trazado 606900" d="M159.045,73.852H144.983c0-.633,14.062-.633,14.062-.633.316.49.174.633,0,.633" transform="translate(46.472 23.469)" fill="#1a1a1a"/>
        <path id="Trazado_606901" data-name="Trazado 606901" d="M159.09,76.875H145.874c0-.633,13.216-.633,13.216-.633.316.49.174.633,0,.633" transform="translate(46.757 24.438)" fill="#1a1a1a"/>
        <path id="Trazado_606902" data-name="Trazado 606902" d="M138.066,82.95h-1.589c0-.633,1.589-.633,1.589-.633.314.49.174.633,0,.633" transform="translate(43.745 26.385)" fill="#1a1a1a"/>
        <path id="Trazado_606903" data-name="Trazado 606903" d="M138.924,85.972h-1.45c0-.633,1.45-.633,1.45-.633.314.491.174.633,0,.633" transform="translate(44.065 27.354)" fill="#1a1a1a"/>
        <path id="Trazado_606904" data-name="Trazado 606904" d="M164.531,82.95H148.16c0-.633,16.371-.633,16.371-.633.314.49.174.633,0,.633" transform="translate(47.49 26.385)" fill="#1a1a1a"/>
        <path id="Trazado_606905" data-name="Trazado 606905" d="M157.634,85.972h-8.582c0-.633,8.582-.633,8.582-.633.316.491.174.633,0,.633" transform="translate(47.776 27.354)" fill="#1a1a1a"/>
        <path id="Trazado_606906" data-name="Trazado 606906" d="M36.643,65.188c-3.712-.946-4.978-4.819-4.618-8.022s2.483-6.966,7.292-7.1a6.518,6.518,0,0,1,5.46,2.063c2.348,2.8,1.434,7.378,1.393,7.572-.609-.172.272-4.6-1.879-7.169A5.837,5.837,0,0,0,39.334,50.7c-4.4.124-6.35,3.6-6.681,6.538s.8,6.488,4.07,7.33c.19.526.062.622-.081.622" transform="translate(10.246 16.047)" fill="#1a1a1a"/>
        <path id="Trazado_606907" data-name="Trazado 606907" d="M20.347,89.66c8.1-6.2,17.768-10.684,28.568-13.9-10.556,3.806-20.17,8.261-28.39,13.847a.322.322,0,0,1-.178.055" transform="translate(6.522 24.283)" fill="#1a1a1a"/>
        <path id="Trazado_606908" data-name="Trazado 606908" d="M53.047,73.972a13.1,13.1,0,0,1,5.03-1.364,16.414,16.414,0,0,1-4.977,1.36c-.018,0-.036,0-.053,0" transform="translate(17.003 23.273)" fill="#1a1a1a"/>
        <path id="Trazado_606909" data-name="Trazado 606909" d="M20.468,54.843c8.469-6.481,18.762-11.132,30.417-14.4q.6-.17,1.207-.333a1.254,1.254,0,0,1-1.035.942A103.2,103.2,0,0,0,20.645,54.787a.3.3,0,0,1-.177.057" transform="translate(6.561 12.856)" fill="#1a1a1a"/>
        <path id="Trazado_606910" data-name="Trazado 606910" d="M51.75,39.334A21.142,21.142,0,0,1,58.5,37.7a32.679,32.679,0,0,1-6.69,1.628.413.413,0,0,1-.055.005" transform="translate(16.588 12.084)" fill="#1a1a1a"/>
        <path id="Trazado_606911" data-name="Trazado 606911" d="M80.778,101.014c-.317-.325.012-12.387.012-12.387,1.286-1.063,2.393-1.888,3.452-2.726l.2-45.421c.441-.288,2.563.636,3.259.963,6.688,3.134,11.091,7.88,12.731,13.727,2.723,9.7-3.083,21.119-15.622,31.087-1.17.928-2.257,1.743-3.394,2.546l-.324,11.9a.314.314,0,0,1-.314.306m4.292-60.05L84.876,85.4c12.016-9.714,17.564-20.727,14.947-30.054-1.589-5.665-5.874-10.274-12.393-13.326-.493-.231-1.7-.765-2.36-1.052" transform="translate(25.848 12.958)" fill="#1a1a1a"/>
        <path id="Trazado_606912" data-name="Trazado 606912" d="M80.044,121.342c-.316-.326.63-35.281.63-35.281.631.017-.316,34.973-.316,34.973a.313.313,0,0,1-.314.308" transform="translate(25.636 27.585)" fill="#1a1a1a"/>
        <path id="Trazado_606913" data-name="Trazado 606913" d="M80.028,122.881c12.455-9.137,20.027-19.368,20.6-28.65.017-.4.013-12.97.013-12.97.63,0,.635,12.585.635,12.585-.6,9.9-8.273,20.311-21.068,28.98a.322.322,0,0,1-.178.055" transform="translate(25.652 26.047)" fill="#1a1a1a"/>
        <path id="Trazado_606914" data-name="Trazado 606914" d="M95.952,82.833c-.316-.316-.326-28.382-.326-28.382.631,0,.64,28.067.64,28.067a.315.315,0,0,1-.314.316" transform="translate(30.651 17.453)" fill="#1a1a1a"/>
        <path id="Trazado_606915" data-name="Trazado 606915" d="M56.936,125.763c-.314-.321-.186-10.381-.186-10.381.631.009.5,10.069.5,10.069a.316.316,0,0,1-.316.312" transform="translate(18.182 36.984)" fill="#1a1a1a"/>
        <path id="Trazado_606916" data-name="Trazado 606916" d="M57.181,108.056c-.316-.32-.063-20.122-.063-20.122.631.009.378,19.809.378,19.809a.313.313,0,0,1-.314.313" transform="translate(18.277 28.186)" fill="#1a1a1a"/>
        <path id="Trazado_606917" data-name="Trazado 606917" d="M41.319,92.7c-10.272,0-19.556-1.718-26.636-5.133,13.582,5.847,34.8,6.2,55.643.351l.589-.168a.6.6,0,0,1-.416.775A109.318,109.318,0,0,1,41.319,92.7" transform="translate(4.706 28.069)" fill="#1a1a1a"/>
        <path id="Trazado_606918" data-name="Trazado 606918" d="M9.363,85.771a17.709,17.709,0,0,1-4.382-7.536,18.1,18.1,0,0,1-.662-4.809,41.168,41.168,0,0,1,1.272,4.638A18.086,18.086,0,0,0,9.6,85.244c-.085.5-.161.527-.235.527" transform="translate(1.385 23.535)" fill="#1a1a1a"/>
        <path id="Trazado_606919" data-name="Trazado 606919" d="M37.491,101.878a80.751,80.751,0,0,1-10.856-.706,137.529,137.529,0,0,0,22.416-.627,42.248,42.248,0,0,1-11.56,1.334" transform="translate(8.537 32.228)" fill="#1a1a1a"/>
        <path id="Trazado_606920" data-name="Trazado 606920" d="M37.631,105.965a80.24,80.24,0,0,1-11.434-.79,132.8,132.8,0,0,0,22.994-.547,42.157,42.157,0,0,1-11.56,1.336" transform="translate(8.397 33.537)" fill="#1a1a1a"/>
        <path id="Trazado_606921" data-name="Trazado 606921" d="M44.665,139.78a75.8,75.8,0,0,1-15.754-1.558c-13.047-2.786-21.546-9-23.929-17.486a17.967,17.967,0,0,1-.655-4.343l-.007-.647V84.768c.631,0,.638,31.611.638,31.611a17.351,17.351,0,0,0,.634,4.185c2.316,8.255,10.643,14.305,23.451,17.039,12.883,2.751,28.722,1.808,44.6-2.648a88.659,88.659,0,0,1-28.983,4.825" transform="translate(1.385 27.171)" fill="#1a1a1a"/>
        <path id="Trazado_606922" data-name="Trazado 606922" d="M4.635,88.582c-.314-.316-.314-14.727-.314-14.727.63,0,.63,14.411.63,14.411a.316.316,0,0,1-.316.316" transform="translate(1.385 23.673)" fill="#1a1a1a"/>
        <path id="Trazado_606923" data-name="Trazado 606923" d="M20.545,97.586c-.316-.317-.316-46.559-.316-46.559.63,0,.63,46.242.63,46.242a.316.316,0,0,1-.314.317" transform="translate(6.484 16.356)" fill="#1a1a1a"/>
        <path id="Trazado_606924" data-name="Trazado 606924" d="M56.961,84.35c-.314-.317-.314-46.411-.314-46.411.63,0,.63,46.095.63,46.095a.317.317,0,0,1-.316.317" transform="translate(18.157 12.161)" fill="#1a1a1a"/>
        <path id="Trazado_606925" data-name="Trazado 606925" d="M84.417,93.183c2.421-2.6,6.241-5.818,9.595-9.635a43.817,43.817,0,0,1-9.4,9.569.3.3,0,0,1-.193.066" transform="translate(27.058 26.78)" fill="#1a1a1a"/>
        <path id="Trazado_606926" data-name="Trazado 606926" d="M65.052,127.921c11.258-.633,17.451-21.863,20.155-34.6-2.125,13.057-8.455,34.6-20.155,34.6" transform="translate(20.851 29.913)" fill="#1a1a1a"/>
        <path id="Trazado_606927" data-name="Trazado 606927" d="M62.573,98.1c-.287-.45,7.02-16.231,7.02-16.231.574.267-6.732,16.047-6.732,16.047a.318.318,0,0,1-.288.184" transform="translate(20.054 26.241)" fill="#1a1a1a"/>
        <path id="Trazado_606928" data-name="Trazado 606928" d="M78.122,88.332a22.849,22.849,0,0,0,3.214-4.083,5.746,5.746,0,0,1-3.052,4.04.326.326,0,0,1-.162.044" transform="translate(25.041 27.005)" fill="#1a1a1a"/>
        <path id="Trazado_606929" data-name="Trazado 606929" d="M45.248,106.724c.17-.647,19.763-2.31,28.11-6.916-8.162,5.225-27.887,6.9-28.086,6.914h-.024" transform="translate(14.503 31.992)" fill="#1a1a1a"/>
        <path id="Trazado_606930" data-name="Trazado 606930" d="M45.248,118.837c.17-.647,19.763-2.31,28.11-6.917-8.162,5.227-27.887,6.9-28.086,6.916h-.024" transform="translate(14.503 35.874)" fill="#1a1a1a"/>
        <path id="Trazado_606931" data-name="Trazado 606931" d="M45.325,121.17c-.317-.317-.317-16.364-.317-16.364.631,0,.631,16.047.631,16.047a.316.316,0,0,1-.314.317" transform="translate(14.427 33.594)" fill="#1a1a1a"/>
        <path id="Trazado_606932" data-name="Trazado 606932" d="M66.726,116.363c-.314-.316-.314-16.363-.314-16.363.63,0,.63,16.047.63,16.047a.316.316,0,0,1-.316.316" transform="translate(21.287 32.053)" fill="#1a1a1a"/>
        <path id="Trazado_606933" data-name="Trazado 606933" d="M192.43,58.178c-.5-.61-2.372-4.445-2.307-5.484.016-.259.446-6.343,5.835-8.274a10.405,10.405,0,0,1,8.892.949c.9-.268,5.487-1.417,7.251,2.513,1.882,4.187.553,9.112.5,9.318-.6-.218.716-5.083-1.07-9.059-1.714-3.812-6.418-2.2-6.621-2.126-.324-.065-4.1-2.661-8.733-1-5,1.788-5.4,7.473-5.421,7.716-.041.656,1.182,3.411,1.96,4.99-.188.445-.235.454-.283.454" transform="translate(60.94 14.046)" fill="#1a1a1a"/>
        <path id="Trazado_606934" data-name="Trazado 606934" d="M14.6,82.305c-.314-.316-.314-14.14-.314-14.14a52.4,52.4,0,0,1,7.882-4.025c.19.6-4.845,2.7-7.252,4.2V81.424a73.836,73.836,0,0,1,7.252-3.46c.19.606-5.054,2.786-7.4,4.29a.324.324,0,0,1-.172.05" transform="translate(4.579 20.559)" fill="#1a1a1a"/>
        <path id="Trazado_606935" data-name="Trazado 606935" d="M71.794,55.522c-.316-.314-.316-12.018-.316-12.018,11.264.242,16.014,3.2,16.211,3.325-.386.5-5.071-2.4-15.581-2.991v11.37a.313.313,0,0,1-.314.314" transform="translate(22.911 13.944)" fill="#1a1a1a"/>
        <path id="Trazado_606936" data-name="Trazado 606936" d="M87.447,56.2c-.217-.081-5-3.046-15.742-3.594,10.964-.073,15.714,2.885,15.911,3.012.037.53-.066.582-.169.582" transform="translate(22.984 16.861)" fill="#1a1a1a"/>
        <path id="Trazado_606937" data-name="Trazado 606937" d="M196.192,61.406a3.2,3.2,0,0,1-1.77-.448,1.778,1.778,0,0,1-.767-1.218,2.963,2.963,0,0,1,.722-2.152,8.242,8.242,0,0,0,1.285-2.059,2.887,2.887,0,0,0-.272-2.71c.547-.326,1.593,1.066.858,2.938a8.618,8.618,0,0,1-1.377,2.224,2.333,2.333,0,0,0-.59,1.669,1.123,1.123,0,0,0,.507.79,2.629,2.629,0,0,0,1.413.333c.3.5.162.633-.009.633" transform="translate(62.067 16.915)" fill="#1a1a1a"/>
        <path id="Trazado_606938" data-name="Trazado 606938" d="M123.817,61.4A29.5,29.5,0,0,1,95.225,38.552c3.534,12.812,15.3,22.213,28.592,22.213A28.673,28.673,0,1,0,99.25,17.3a27.269,27.269,0,0,1,24.567-14.51,29.305,29.305,0,0,1,0,58.611" transform="translate(30.523 0.893)" fill="#1a1a1a"/>
        <path id="Trazado_606939" data-name="Trazado 606939" d="M116.029,42.257a3.727,3.727,0,0,1-2.658-1.1l-9.7-9.7a3.759,3.759,0,0,1,0-5.316l1.327-1.327a3.754,3.754,0,0,1,5.318,0l5.722,5.721,15.988-15.511a3.76,3.76,0,0,1,5.315,0l1.33,1.33a3.768,3.768,0,0,1,0,5.316l-19.98,19.494a3.739,3.739,0,0,1-2.657,1.1m-8.377-17.924a3.111,3.111,0,0,0-2.212.916l-1.328,1.328a3.127,3.127,0,0,0,0,4.424l9.7,9.706a3.127,3.127,0,0,0,4.425,0l19.98-19.492a3.136,3.136,0,0,0,0-4.421l-1.328-1.33a3.132,3.132,0,0,0-4.425,0L116.25,31.2c-.445,0-6.385-5.946-6.385-5.946a3.114,3.114,0,0,0-2.213-.916" transform="translate(32.875 4.461)" fill="#1a1a1a"/>
        <path id="Trazado_606940" data-name="Trazado 606940" d="M36.527,50.319c-.321-.3-.651-1.643-.766-3.906.743,2.164,1.07,3.5,1.074,3.515-.255.388-.281.391-.308.391m-.415-7.242a11.372,11.372,0,0,1,.144-3.981,9.5,9.5,0,0,1,.172,3.687.316.316,0,0,1-.316.294m1.31-7.144c-.257-.062-.354-.24-.3-.407a33.76,33.76,0,0,1,1.248-3.451,9.435,9.435,0,0,1-.643,3.633.316.316,0,0,1-.3.224m2.833-6.682a9.124,9.124,0,0,1,1.665-3.579,9.287,9.287,0,0,1-1.389,3.418.313.313,0,0,1-.276.161M44.4,23.29a8.55,8.55,0,0,1,2.249-3.206,8.994,8.994,0,0,1-2.009,3.1.316.316,0,0,1-.24.111m5.158-5.114a8.179,8.179,0,0,1,2.681-2.811A8.685,8.685,0,0,1,49.76,18.1a.319.319,0,0,1-.2.075M55.424,13.9A7.9,7.9,0,0,1,58.4,11.455a8.389,8.389,0,0,1-2.8,2.393.311.311,0,0,1-.169.05m58.305-.412c-1.125-.705-2.158-1.35-3.245-1.97a6.548,6.548,0,0,1,3.423,1.393c.021.53-.078.577-.178.577M61.778,10.372a7.657,7.657,0,0,1,3.2-2.1,8.356,8.356,0,0,1-3.06,2.068.318.318,0,0,1-.139.032m45.639-.5c-1.211-.549-2.327-1.038-3.448-1.483a6.542,6.542,0,0,1,3.584.881c.092.535-.018.6-.136.6M68.5,7.594A7.276,7.276,0,0,1,71.9,5.91a8.417,8.417,0,0,1-3.3,1.667.27.27,0,0,1-.1.017m32.163-.413c-1.24-.38-2.41-.71-3.576-1a6.543,6.543,0,0,1,3.672.379c.16.531.037.617-.1.617M75.516,5.707A6.851,6.851,0,0,1,79.068,4.5a8.61,8.61,0,0,1-3.493,1.2.3.3,0,0,1-.059.007M93.6,5.459c-1.232-.207-2.436-.366-3.635-.482a6.509,6.509,0,0,1,3.688-.147c.231.519.1.629-.053.629M82.73,4.816a6.6,6.6,0,0,1,3.642-.684,8.541,8.541,0,0,1-3.626.683H82.73" transform="translate(11.463 1.322)" fill="#1a1a1a"/>
        <path id="Trazado_606941" data-name="Trazado 606941" d="M248.937,91.474c-.247-.514.446-1.451,1.406-3.118a8.075,8.075,0,0,1-1.153,2.991.315.315,0,0,1-.254.127m3.375-5.867a16.282,16.282,0,0,1,1.155-3.769,6.506,6.506,0,0,1-.87,3.589.317.317,0,0,1-.285.18m2.649-6.772c-.259-.066-.353-.242-.3-.409.358-1.155.673-2.329.936-3.489a6.416,6.416,0,0,1-.333,3.676.315.315,0,0,1-.3.222m1.614-7.087a23.917,23.917,0,0,1,.057-3.952,6.345,6.345,0,0,1,.255,3.68.315.315,0,0,1-.312.272m.442-7.254a30.866,30.866,0,0,1-.559-3.909,6.366,6.366,0,0,1,.873,3.585c-.312.324-.314.324-.314.324m-.8-7.218c-.549-1.427-.843-2.607-1.178-3.757a6.354,6.354,0,0,1,1.486,3.377c-.268.378-.287.38-.308.38M194.942,51.5a3.934,3.934,0,0,1-2.253-.739,6.861,6.861,0,0,0,3.511-.149,1.151,1.151,0,0,1-1.258.889m59.218-1.2c-.718-1.3-1.2-2.41-1.739-3.509a6.434,6.434,0,0,1,2.034,3.078c-.217.424-.256.43-.294.43m-55.065-1.368a35.111,35.111,0,0,1,1.585-3.551,5.036,5.036,0,0,1-1.339,3.433.318.318,0,0,1-.246.118M190.633,48a9.352,9.352,0,0,1-1.354-3.741,18.42,18.42,0,0,1,1.639,3.289c-.194.442-.24.452-.285.452m60.36-4.236c-.861-1.169-1.511-2.195-2.2-3.212a6.606,6.606,0,0,1,2.476,2.737c-.164.461-.219.474-.273.474m-48.91-1.391c-.066-1.524.079-2.719.124-3.934a5.6,5.6,0,0,1,.185,3.682.319.319,0,0,1-.309.252m-12.6-1.474a8.156,8.156,0,0,1,.473-3.966,14.386,14.386,0,0,1-.158,3.679.315.315,0,0,1-.314.287m57.407-3.131c-1.006-1.067-1.805-1.982-2.62-2.837a6.325,6.325,0,0,1,2.867,2.321c-.107.493-.178.515-.247.515m-44.527-2.633c-.452-1.443-.683-2.631-.99-3.8a5.871,5.871,0,0,1,1.3,3.448c-.287.354-.3.355-.313.355m-10.441-1a6.251,6.251,0,0,1,2.294-3.2,16.483,16.483,0,0,1-2.038,3.062.31.31,0,0,1-.256.133m49.949-1.616c-1.118-.869-2.072-1.616-3.045-2.3a6.165,6.165,0,0,1,3.254,1.742c-.033.518-.12.556-.209.556M197.5,29.6a5.678,5.678,0,0,1,2.629-1.906,30.256,30.256,0,0,0-1.466-3,5.4,5.4,0,0,1,2.047,2.755,8.991,8.991,0,0,1-3.066,2.119.307.307,0,0,1-.144.033m38.426-1.241c-1.2-.617-2.285-1.144-3.4-1.6a6.113,6.113,0,0,1,3.548,1.012c.067.533-.041.593-.152.593M204.2,26.771a7.173,7.173,0,0,1,3.4-1.678,8.5,8.5,0,0,1-3.3,1.66.314.314,0,0,1-.1.018m25.025-1.2c-1.221-.345-2.4-.622-3.593-.836a6.181,6.181,0,0,1,3.68.215c.177.531.05.621-.087.621m-18-.656a6.746,6.746,0,0,1,3.564-1.153,8.69,8.69,0,0,1-3.506,1.148.431.431,0,0,1-.058.005m10.861-.635c-1.208-.094-2.436-.127-3.629-.108a6.315,6.315,0,0,1,3.653-.523c.279.5.14.631-.024.631m-25.091-2.494c-.943-1.092-1.7-2.039-2.5-2.947a6.227,6.227,0,0,1,2.759,2.448c-.128.481-.193.5-.257.5m-4.809-5.441c-1.076-.889-2-1.674-2.961-2.421A6.348,6.348,0,0,1,192.4,15.8c-.045.514-.131.548-.214.548m-5.726-4.469c-1.157-.7-2.2-1.323-3.266-1.916a6.556,6.556,0,0,1,3.439,1.335c.03.531-.071.581-.173.581m-44.7-3.366c-.141-.6.968-1.412,3.04-2.382-1.744,1.513-2.842,2.312-2.852,2.321a.33.33,0,0,1-.188.061M180.1,8.35c-1.232-.548-2.351-1.03-3.455-1.467a6.558,6.558,0,0,1,3.589.864c.1.535-.017.6-.135.6m-6.764-2.665c-1.253-.38-2.424-.7-3.577-.979a6.441,6.441,0,0,1,3.672.362c.164.532.038.617-.1.617m-25.035-.3a6.675,6.675,0,0,1,3.435-1.594,9.37,9.37,0,0,1-3.333,1.578.353.353,0,0,1-.1.016m17.963-1.367c-1.244-.188-2.451-.32-3.634-.4a6.315,6.315,0,0,1,3.68-.228c.243.515.107.627-.046.627M155.393,3.8a6.408,6.408,0,0,1,3.62-.893,9.122,9.122,0,0,1-3.581.89l-.038,0" transform="translate(45.432 0.933)" fill="#1a1a1a"/>
        <path id="Trazado_606942" data-name="Trazado 606942" d="M201.589,45.849c-.248-.057-.35-.228-.306-.4a2.567,2.567,0,0,0-1.138-2.424c2.149,1,1.766,2.524,1.75,2.586a.316.316,0,0,1-.305.235" transform="translate(64.153 13.792)" fill="#1a1a1a"/>
        <path id="Trazado_606943" data-name="Trazado 606943" d="M201.867,45.919a2.417,2.417,0,0,1,.387-2.4c0,1.064-.071,2.093-.071,2.1a.315.315,0,0,1-.316.3" transform="translate(64.648 13.95)" fill="#1a1a1a"/>
        <path id="Trazado_606944" data-name="Trazado 606944" d="M220.8,128.194c-.124-.025-28.18-12.064-28.18-12.064-.166-.415,3.952-10.014,3.952-10.014.58.248-3.414,9.557-3.414,9.557l27.475,11.791.255-.588c.578.251.2,1.128.2,1.128a.316.316,0,0,1-.289.19" transform="translate(61.74 34.014)" fill="#1a1a1a"/>
        <path id="Trazado_606945" data-name="Trazado 606945" d="M227.7,114.487c-.288-.441,7.814-19.329,7.814-19.329L208.037,83.367l-8.564,19.955c-.578-.25,8.109-20.493,8.109-20.493C208,82.662,236.054,94.7,236.054,94.7c.165.416-8.064,19.594-8.064,19.594a.316.316,0,0,1-.289.191" transform="translate(63.929 26.549)" fill="#1a1a1a"/>
        <path id="Trazado_606946" data-name="Trazado 606946" d="M222.882,137.451c.011-4.811-.314-11.865-.316-11.936.635.044.959,7.134.63,11.643a.316.316,0,0,1-.314.293" transform="translate(71.34 40.232)" fill="#1a1a1a"/>
        <path id="Trazado_606947" data-name="Trazado 606947" d="M130.4,126.469H120c-.3-.232-4.1-13.9-4.1-13.9.305-.4,14.921-.4,14.921-.4.305.231,2.939,9.718,2.939,9.718-.609.169-3.179-9.085-3.179-9.085H116.618l3.618,13.038H130.4c.314.49.174.633,0,.633" transform="translate(37.149 35.953)" fill="#1a1a1a"/>
        <path id="Trazado_606948" data-name="Trazado 606948" d="M25.856,99.286v10.46s-6.648.078-11.067-3.594V95.32s3.164,3.089,11.067,3.966" transform="translate(4.74 30.553)" fill="#1a1a1a"/>
        <path id="Trazado_606949" data-name="Trazado 606949" d="M84.59,96.983a75.91,75.91,0,0,1,5.793-5.392,22.2,22.2,0,0,1-5.606,5.331.321.321,0,0,1-.188.061" transform="translate(27.114 29.358)" fill="#1a1a1a"/>
        <path id="Trazado_606950" data-name="Trazado 606950" d="M156.668,118.562c-1.31-4.436-5.544-7.251-10.848-7.251-4.751,0-9.027,2.7-10.4,6.57.89-4.392,5.31-7.2,10.4-7.2,5.6,0,10.085,3.012,11.155,7.493-.256.387-.283.391-.306.391" transform="translate(43.406 35.476)" fill="#1a1a1a"/>
      </g>
    </g>
  </g>
</svg>
