<svg xmlns="http://www.w3.org/2000/svg" xmlns:xlink="http://www.w3.org/1999/xlink" width="295" height="242.18" viewBox="0 0 295 242.18">
  <defs>
    <clipPath id="clip-path">
      <rect id="Rect치ngulo_345731" data-name="Rect치ngulo 345731" width="295" height="212.68" fill="none"/>
    </clipPath>
  </defs>
  <g id="Grupo_1016393" data-name="Grupo 1016393" transform="translate(-390 -12389.82)">
    <g id="Grupo_1016319" data-name="Grupo 1016319" transform="translate(0 6915.798)">
      <rect id="Rect치ngulo_346998" data-name="Rect치ngulo 346998" width="295" height="84" rx="30" transform="translate(390 5632.202)" fill="#a3bfe4"/>
    </g>
    <g id="Grupo_1016391" data-name="Grupo 1016391" transform="translate(419.135 12400.063)">
      <g id="Grupo_1015254" data-name="Grupo 1015254" transform="translate(-29.135 -10.243)" clip-path="url(#clip-path)">
        <path id="Trazado_605497" data-name="Trazado 605497" d="M219.788,168.71H32.233a7.76,7.76,0,0,1-7.738-7.738V35.748a7.761,7.761,0,0,1,7.738-7.737H219.788a7.761,7.761,0,0,1,7.738,7.737V160.972a7.76,7.76,0,0,1-7.738,7.738" transform="translate(9.856 11.271)" fill="#fff"/>
        <path id="Trazado_605498" data-name="Trazado 605498" d="M87.4,75.971H7.737A7.76,7.76,0,0,1,0,68.232V7.737A7.761,7.761,0,0,1,7.737,0H87.4a7.761,7.761,0,0,1,7.737,7.738v60.5A7.761,7.761,0,0,1,87.4,75.971" transform="translate(0 0)" fill="#fff198"/>
        <path id="Trazado_605499" data-name="Trazado 605499" d="M174.758,143.061c-.2-1.69-.767-2.813-1.576-2.9s-22.456,0-22.456,0a6.269,6.269,0,0,0,1.017-6.3l-11.537-30.046c-1.189-3.1-4.667-5.2-8.6-5.2H87.815c-6.1,0-10.446,4.908-8.6,9.718l3.4,8.869,4.9,12.762,3.232,8.418a8.106,8.106,0,0,0,4.754,4.485c-.025,0,.621,2.725,2.049,2.549h76.025a2.29,2.29,0,0,0,1.177-2.35" transform="translate(31.701 39.677)" fill="#1a1a1a"/>
        <path id="Trazado_605500" data-name="Trazado 605500" d="M159.4,77.235s-7.859,1.13-12.833,5.79a37.007,37.007,0,0,0-10.84,16.412c-2.871,7.9-1.307,8.315-4.389,14.789s-3.9,8.022-3.9,8.022l7.388,20.029s.757,5.594-1.82,6.932l1.994.2s5.466-4.741,7.368-8.58,3.447-8.083,3.447-8.083a84.279,84.279,0,0,1-.38,8.632c-.432,3.8-1.451,6.7-3.413,7.891l10.738.14a2.17,2.17,0,0,1,2.433,1.649,3.5,3.5,0,0,1-1.182,3.23l5.391.229a74.362,74.362,0,0,0,16.324,3.248c8.232.539,11.324-2.213,11.324-2.213l2.241,13.192s8.4,1.027,14.669-.338a81.48,81.48,0,0,0,11.248-3.328s-7.142-34.2-7.829-37.219-4.316-18.177-5.145-21.141a65.477,65.477,0,0,0-6.151-15.533c-3.73-6.57-6.6-9.417-9.32-10.784s-9.323-4.835-16.335-4.38A100.836,100.836,0,0,0,159.4,77.235" transform="translate(51.275 30.572)" fill="#33ece0"/>
        <path id="Trazado_605501" data-name="Trazado 605501" d="M163.6,82.328l-2.115-9.85s2.88.031,3.775-2.083a3.555,3.555,0,0,0-2.4-4.674,7.776,7.776,0,0,0-2.617.024l-1.091-4.624c-.252,0-.484,1.386-.484,1.386l-9.651.321-.595-2.519-1.86,2.454-2.169.175.993,9.936s1.024,7.873,4.2,7.825,2.986-.226,2.986-.226l.858,4.044s-1.732,9.2,2.523,8.913,6.449-6.04,6.837-7.5.808-3.6.808-3.6" transform="translate(58.099 24.266)" fill="#fff"/>
        <path id="Trazado_605502" data-name="Trazado 605502" d="M178.945,143.191v1.458s-3.892,6.018-4.68,7.207-.488,3.363,1.2,3.826,3.486-1.78,4.476-3.007,2.4-2.815,3.833-2.687a32.078,32.078,0,0,1,9.8,2.091c4.353,1.766,4.994,2.635,6.912,2.68a3.384,3.384,0,0,0,3-1.415,3.068,3.068,0,0,0,2.917-.71c1.63-1.251.414-2.457.414-2.457a1.243,1.243,0,0,0,.446-1.638c-.412-1.216-2.1-1.959-4.07-2.946s-4.685-1.266-6.444-2.42a35.9,35.9,0,0,1-3.432-2.624,67.213,67.213,0,0,1-14.371,2.642" transform="translate(69.951 56.552)" fill="#fff"/>
        <path id="Trazado_605503" data-name="Trazado 605503" d="M176.57,83.112a17.007,17.007,0,0,0-4.5-7.245c-3.293-2.925-9.3-3.312-9.3-3.312s-3.029,2.834-4.87,2.761l.428,2.074a24.961,24.961,0,0,1,8.3,1.179,80.223,80.223,0,0,1,9.941,4.542" transform="translate(63.532 29.194)" fill="#1a1a1a"/>
        <path id="Trazado_605504" data-name="Trazado 605504" d="M162.5,76.935a9.05,9.05,0,0,0,5.082-4.677,15.257,15.257,0,0,0,.711-10c-.764-3.308-2.2-6.318-5.176-6.922a14.175,14.175,0,0,0-5.738.121,10.2,10.2,0,0,0-6.626-.917c-3.712.768-7.89,3.576-7.8,10.962l4.023-.286,1.949-2.653.415,2.589,9.9-.244s.642-3.527.642-3.4-.213,4.258.933,6.636c0,0,3.87-1.195,4.824,1.725s-.778,5.176-3.586,5.008,0-.168,0-.168Z" transform="translate(57.52 21.865)" fill="#1a1a1a"/>
        <path id="Trazado_605505" data-name="Trazado 605505" d="M160.477,68.785a11.334,11.334,0,0,1,2.251,3.3c.506,1.513.029,3.451-4.158,4.8-.439,0-1.674-5.761-1.674-5.761s2.774-.822,3.582-2.338" transform="translate(63.129 27.677)" fill="#ffce26"/>
        <path id="Trazado_605506" data-name="Trazado 605506" d="M185.146,107.818s-8.01,2.111-6.541,10.741,8.289,10.082,11.017,9.1Z" transform="translate(71.792 43.382)" fill="#ccc"/>
        <path id="Trazado_605507" data-name="Trazado 605507" d="M105.817,115.347c1.367,2.369,1.213,5.019-.346,5.919s-3.932-.29-5.3-2.659-1.213-5.02.346-5.921,3.932.292,5.3,2.66" transform="translate(39.93 45.221)" fill="#fff"/>
        <path id="Trazado_605508" data-name="Trazado 605508" d="M101.813,132.034S91.5,138.257,91.242,152.786h68.106a70.055,70.055,0,0,0,15.6,1.973c8.693.112,14.373-.6,18.651-1.886s6.584-2.648,8.007-5.673a14.878,14.878,0,0,0,1.407-5.816l-1.407-8.316s-5.137,3.05-13.534,1.942a64.23,64.23,0,0,1-13.637-3.154Z" transform="translate(36.713 53.055)" fill="#1a1a1a"/>
        <path id="Trazado_605509" data-name="Trazado 605509" d="M36.481,143.184s-7.2-2.534-6.539-8.991,4.394-11.771,8.423-15.838,12.551-12.227,20.932-15.1a126.149,126.149,0,0,1-2.984,16.018c-1.868,6.569-4.2,16-9.365,21.152s-10.466,2.763-10.466,2.763" transform="translate(12.031 41.545)" fill="#1a1a1a"/>
        <path id="Trazado_605510" data-name="Trazado 605510" d="M35.645,124.048l-11.4-51.861s-9.122,13.524-9.568,27.2a23.714,23.714,0,0,0,20.971,24.662" transform="translate(5.899 29.046)" fill="#1a1a1a"/>
        <path id="Trazado_605511" data-name="Trazado 605511" d="M14.557,72.721H93.5a8.122,8.122,0,0,0,8.1-8.1V49.412L87.027,41.967a19.678,19.678,0,0,0-13.313-.979L62.793,44.693A17.924,17.924,0,0,1,49.7,43.315L37.991,36.339s-11.666-8.368-20.73.993c-6.449,6.661-10.8,11.049-10.8,11.049V64.624a8.121,8.121,0,0,0,8.1,8.1" transform="translate(2.599 13.237)" fill="#1a1a1a"/>
        <path id="Trazado_605512" data-name="Trazado 605512" d="M60.662,33.225a8.374,8.374,0,1,1,8.371-8.374,8.377,8.377,0,0,1-8.371,8.374" transform="translate(21.037 6.63)" fill="#fff"/>
        <path id="Trazado_605513" data-name="Trazado 605513" d="M83.081,68.087,67.209,58.264a.981.981,0,0,0-1.5.882l.913,18.643a.982.982,0,0,0,1.479.8L72.4,76.056a.982.982,0,0,1,1.343.348l6.238,10.581a.982.982,0,0,0,1.343.348l3.4-2a.98.98,0,0,0,.346-1.343L78.826,73.405a.979.979,0,0,1,.346-1.343l3.89-2.3a.98.98,0,0,0,.018-1.679" transform="translate(26.44 23.383)" fill="#bcbcbc"/>
        <path id="Trazado_605514" data-name="Trazado 605514" d="M152.68,27.533H125.1a3.992,3.992,0,0,1-3.981-3.981V6.71A3.992,3.992,0,0,1,125.1,2.729H152.68a3.993,3.993,0,0,1,3.981,3.981V23.551a3.993,3.993,0,0,1-3.981,3.981" transform="translate(48.733 1.098)" fill="#ff7e7e"/>
        <path id="Trazado_605515" data-name="Trazado 605515" d="M143.055,4.185c-.788-1.35-2.078-1.35-2.866,0l-6.06,10.376c-.79,1.35-.154,2.456,1.408,2.456h12.174c1.565,0,2.2-1.105,1.409-2.454Z" transform="translate(53.832 1.276)" fill="#fff"/>
        <path id="Trazado_605516" data-name="Trazado 605516" d="M99.687,46.426A4.882,4.882,0,1,1,94.8,41.543a4.883,4.883,0,0,1,4.883,4.883" transform="translate(36.181 16.715)" fill="#983333"/>
        <path id="Trazado_605517" data-name="Trazado 605517" d="M96.918,58.714a4.882,4.882,0,1,1-4.883-4.882,4.883,4.883,0,0,1,4.883,4.882" transform="translate(35.067 21.66)" fill="#983333"/>
        <path id="Trazado_605518" data-name="Trazado 605518" d="M97.574,75.961a4.882,4.882,0,1,1-4.882-4.883,4.883,4.883,0,0,1,4.882,4.883" transform="translate(35.331 28.599)" fill="#983333"/>
        <path id="Trazado_605519" data-name="Trazado 605519" d="M29.72,140.343a8.982,8.982,0,0,0,4.14-8.532c-.426-6.051-4.22-9.831-11.571-15.4s-21.138-9.937-21.138-9.937,2.3,7.536,3.4,10.641,6.388,16.4,11.456,21.132,9.725,5.448,13.714,2.1" transform="translate(0.463 42.841)" fill="#7eded8"/>
        <path id="Trazado_605520" data-name="Trazado 605520" d="M150.86,59.544c2.116-3.956,2.855-4.614,6.187-4.086.335,0-2.58-1.684-6.291-.917s-7.891,3.576-7.8,10.962l4.023-.287,1.949-2.652.417,2.589,1.6-.039c-.3-.637-1.066-3.736-.084-5.569" transform="translate(57.52 21.865)" fill="#fff"/>
        <path id="Trazado_605521" data-name="Trazado 605521" d="M85.776,83.743H14.654A8.444,8.444,0,0,1,6.22,75.307V15.315a8.443,8.443,0,0,1,8.434-8.434H93.6a8.443,8.443,0,0,1,8.434,8.434V75.307a8.406,8.406,0,0,1-1.1,4.162c.077-1.5.431-2.82.431-4.162V15.315A7.77,7.77,0,0,0,93.6,7.556H14.654a7.769,7.769,0,0,0-7.759,7.759V75.307a7.768,7.768,0,0,0,7.759,7.762H85.776c.337.524.187.675,0,.675" transform="translate(2.503 2.769)" fill="#1a1a1a"/>
        <path id="Trazado_605522" data-name="Trazado 605522" d="M179.278,147.42H163.729c0-.675,15.549-.675,15.549-.675.337.523.185.675,0,.675" transform="translate(65.879 59.045)" fill="#1a1a1a"/>
        <path id="Trazado_605523" data-name="Trazado 605523" d="M194.1,147.42H6.461c0-.675,187.639-.675,187.639-.675.338.523.187.675,0,.675" transform="translate(2.6 59.045)" fill="#1a1a1a"/>
        <path id="Trazado_605524" data-name="Trazado 605524" d="M215.262,147.42H197.676c0-.675,17.586-.675,17.586-.675.338.523.187.675,0,.675" transform="translate(79.538 59.045)" fill="#1a1a1a"/>
        <path id="Trazado_605525" data-name="Trazado 605525" d="M150.415,80.351a3.543,3.543,0,0,1-1.192-.195,4.169,4.169,0,0,1-1.864-1.46c-1.938-2.564-2.241-5.779-2.534-8.887L144.747,69c-.188-1.9-.4-6.7-.4-6.747.675.021.885,4.8,1.071,6.678l.079.816c.285,3.014.578,6.131,2.4,8.545a3.509,3.509,0,0,0,1.552,1.23,4.777,4.777,0,0,0,2.676-.1c.244-.057.485-.112.728-.157a29.184,29.184,0,0,0,3.53-.9,5.894,5.894,0,0,1-3.4,1.569c-.234.043-.468.1-.7.151a8.544,8.544,0,0,1-1.86.273" transform="translate(58.08 25.048)" fill="#1a1a1a"/>
        <path id="Trazado_605526" data-name="Trazado 605526" d="M151.155,64.167c-.272-.011-.439.123-.405,1.1.038,1.085.338,1.244.578,1.2s.445-.4.345-1.163-.16-1.123-.518-1.139" transform="translate(60.654 25.818)" fill="#1a1a1a"/>
        <path id="Trazado_605527" data-name="Trazado 605527" d="M146.052,64.594c-.272-.02-.443.109-.442,1.083,0,1.085.294,1.254.536,1.224s.457-.381.384-1.151-.122-1.128-.478-1.156" transform="translate(58.588 25.989)" fill="#1a1a1a"/>
        <path id="Trazado_605528" data-name="Trazado 605528" d="M144.717,64c.2-1.048.8-1.46,2.186-1.266a4.787,4.787,0,0,0-1.938,1.158.345.345,0,0,1-.248.108" transform="translate(58.229 25.222)" fill="#1a1a1a"/>
        <path id="Trazado_605529" data-name="Trazado 605529" d="M157.5,71.438a3.85,3.85,0,0,1-1.37-.252,5.012,5.012,0,0,1,1.932-.473A3.178,3.178,0,1,0,155.29,65.3a1.6,1.6,0,0,1,1.537-1.51,3.853,3.853,0,1,1,1.353,7.587,3.872,3.872,0,0,1-.682.06" transform="translate(62.483 25.642)" fill="#1a1a1a"/>
        <path id="Trazado_605530" data-name="Trazado 605530" d="M158.606,68.953c-.121-.022-2.918-1.1-2.918-1.1-.15-.517,1.8-3.124,1.8-3.124.54.405-1.147,2.655-1.147,2.655l2.381.917c.143.569.015.652-.121.652" transform="translate(62.64 26.045)" fill="#1a1a1a"/>
        <path id="Trazado_605531" data-name="Trazado 605531" d="M153.768,87.968a2.617,2.617,0,0,1-1.269-.306c-1.381-.753-1.785-2.667-1.876-3.237a12.332,12.332,0,0,1-.025-2.847c.02-.289.039-.579.053-.874,0-.055.074-1.641.074-1.641l-.736-4.336c.666-.114,1.407,4.294,1.407,4.294,0,.073-.069,1.676-.07,1.716-.014.294-.035.592-.056.888a11.757,11.757,0,0,0,.02,2.694,4,4,0,0,0,1.533,2.75,2.4,2.4,0,0,0,1.93.043c4.008-1.443,5.616-6.581,6.262-10.64-.3,6.183-2.615,10.044-6.033,11.274a3.581,3.581,0,0,1-1.212.22" transform="translate(60.35 30.067)" fill="#1a1a1a"/>
        <path id="Trazado_605532" data-name="Trazado 605532" d="M149.772,71.846a4.293,4.293,0,0,1-.652-.055c.885-.547,1.491-.67,1.911-1.039a2.506,2.506,0,0,0,.7-1.739c.675.046.69,1.426-.252,2.249a2.506,2.506,0,0,1-1.7.583" transform="translate(60.001 27.768)" fill="#1a1a1a"/>
        <path id="Trazado_605533" data-name="Trazado 605533" d="M158.789,79.067c-.33-.264-2.444-9.814-2.444-9.814.658-.146,2.772,9.4,2.772,9.4-.281.407-.3.41-.328.41" transform="translate(62.908 27.864)" fill="#1a1a1a"/>
        <path id="Trazado_605534" data-name="Trazado 605534" d="M147.456,71.74c-.669-.907-1.47-2.662-.947-3.318.32-.4,1.22-.328,1.93-.189l-.261-4.267c.675-.042.963,4.671.963,4.671-1.151.167-1.958.1-2.115.217a4.849,4.849,0,0,0,.729,2.4c-.2.478-.248.489-.3.489" transform="translate(58.882 25.737)" fill="#1a1a1a"/>
        <path id="Trazado_605535" data-name="Trazado 605535" d="M176.31,155.378a2.842,2.842,0,0,1-2.725-2.019,3.956,3.956,0,0,1,.959-3.112c.13-.2.257-.393.367-.582a21.705,21.705,0,0,1,1.348-1.886,15.585,15.585,0,0,0,2.534-4.074l.1-1.292c.672.055.562,1.416.562,1.416a15.583,15.583,0,0,1-2.655,4.359,21.016,21.016,0,0,0-1.3,1.819c-.116.2-.248.4-.383.609a3.419,3.419,0,0,0-.872,2.575,2.175,2.175,0,0,0,2.523,1.461,3.279,3.279,0,0,0,1.569-1.02,14.773,14.773,0,0,0,1.214-1.541c.3-.426.618-.864.968-1.273a4.306,4.306,0,0,1,3.688-1.9,34.454,34.454,0,0,1,8.984,1.834,23.6,23.6,0,0,1,2.5,1.172c2.282,1.178,4.639,2.4,6.918,1.36a1.259,1.259,0,0,0,.585-.446,1.16,1.16,0,0,0-.132-1.132,9.4,9.4,0,0,0-2.822-2.534,25.017,25.017,0,0,0-3.917-2.207,24.189,24.189,0,0,0-4.465-1.638,8.319,8.319,0,0,1,4.746,1.024,24.755,24.755,0,0,1,3.751,2.081,10.9,10.9,0,0,1,3.279,2.917,1.794,1.794,0,0,1,.137,1.836,1.878,1.878,0,0,1-.881.715c-2.575,1.174-5.194-.18-7.508-1.377a22.579,22.579,0,0,0-2.423-1.137,33.764,33.764,0,0,0-8.808-1.794,3.633,3.633,0,0,0-3.115,1.666c-.332.386-.637.815-.934,1.227a15.1,15.1,0,0,1-1.273,1.614,3.921,3.921,0,0,1-1.9,1.212,2.651,2.651,0,0,1-.609.07" transform="translate(69.814 57.302)" fill="#1a1a1a"/>
        <path id="Trazado_605536" data-name="Trazado 605536" d="M198.417,152.555a3.343,3.343,0,0,1-.689-.066c.219-.649,2.2-.259,3.04-1.939a1.151,1.151,0,0,0-.017-1.039c-.882-1.955-5.876-4.482-12.147-6.145,5.628.794,11.637,3.37,12.763,5.87a1.811,1.811,0,0,1,.006,1.617,3.181,3.181,0,0,1-2.956,1.7" transform="translate(75.888 57.685)" fill="#1a1a1a"/>
        <path id="Trazado_605537" data-name="Trazado 605537" d="M183.032,169.39a41.251,41.251,0,0,1-6.138-.4c-5.337-29.642-11.979-71.627-12.045-72.049.732.316,7.337,42.071,12.394,71.42a49.648,49.648,0,0,0,25.243-3.565c-.75-3.807-9.358-47.285-14.648-64.032-.61-1.932-6.172-15.657-12.8-19.695a34.239,34.239,0,0,0-16.95-4.795,30.1,30.1,0,0,1,17.3,4.217c6.8,4.145,12.471,18.1,13.092,20.068C194,118.03,203.108,164.46,203.2,164.93a46.013,46.013,0,0,1-20.167,4.46" transform="translate(63.609 30.658)" fill="#1a1a1a"/>
        <path id="Trazado_605538" data-name="Trazado 605538" d="M201.372,150.562c-.209-.6.129-.949.032-1.522-.121-.7-.888-1.826-3.857-3.192a33.668,33.668,0,0,0-3.838-1.426c-2.572-.833-4.793-1.551-6.18-3.746,1.826,1.628,3.838,2.28,6.389,3.1a34,34,0,0,1,3.911,1.453c2.614,1.2,4.04,2.453,4.244,3.713a1.772,1.772,0,0,1-.473,1.524.337.337,0,0,1-.229.09" transform="translate(75.455 56.603)" fill="#1a1a1a"/>
        <path id="Trazado_605539" data-name="Trazado 605539" d="M108.44,153.43c-.182-6.256.488-12.21,4.311-15.728a22.38,22.38,0,0,1,12.464-5.9,28.634,28.634,0,0,0-12.007,6.392c-3.639,3.35-4.28,9.142-4.43,14.9a.338.338,0,0,1-.338.328" transform="translate(43.621 53.034)" fill="#1a1a1a"/>
        <path id="Trazado_605540" data-name="Trazado 605540" d="M159.26,152.374c-20.463,0-26.367-6.371-26.614-6.651.565-.38,6.83,6.316,28.374,5.961,21.874-.383,24.157-5.654,25-13.06-.209,7.825-2.564,13.342-24.987,13.735-.6.011-1.193.015-1.771.015" transform="translate(53.372 55.777)" fill="#1a1a1a"/>
        <path id="Trazado_605541" data-name="Trazado 605541" d="M162.789,77.334c4.91-2.413,7.06-8.894,5-16.065a7.868,7.868,0,0,0-3.82-5.2,8.868,8.868,0,0,0-6.355-.234c-.593-.157-8.6-3.621-12.722,3.16a9.534,9.534,0,0,0-1.547,6.208l3.98-.32,1.443-2.6c.627.107,1.06,2.662,1.06,2.662l9.246-.31.55-3.267c.672.1.85,5.1,1.617,6.688-1.025-.572-1.278-2.261-1.426-3.754l-.121.718c-.321.28-10.138.609-10.138.609a6.943,6.943,0,0,1-.665-2.176L147.83,65.37c-.268.174-4.73.531-4.73.531-.387-.373-1.15-3.352,1.219-7.254,4.133-6.807,12.084-3.925,13.191-3.488a9.356,9.356,0,0,1,6.761.307,8.506,8.506,0,0,1,4.172,5.615c2.158,7.528-.173,14.353-5.542,16.234a.3.3,0,0,1-.111.018" transform="translate(57.405 21.801)" fill="#1a1a1a"/>
        <path id="Trazado_605542" data-name="Trazado 605542" d="M153.91,64.435c-1.973-2.327-3.868-1.129-3.949-1.077-.346-.578,2.12-2.169,4.216.533-.121.522-.193.544-.266.544" transform="translate(60.326 25.093)" fill="#1a1a1a"/>
        <path id="Trazado_605543" data-name="Trazado 605543" d="M189.626,127.768c-5.015,1.034-9.814-2.621-10.948-8.12s1.5-10.8,6.517-11.83Z" transform="translate(71.789 43.382)" fill="#1a1a1a"/>
        <path id="Trazado_605544" data-name="Trazado 605544" d="M188,128.376c-4.49,0-8.507-3.467-9.559-8.566a11.615,11.615,0,0,1,.986-7.817,8.44,8.44,0,0,1,5.793-4.412,11.781,11.781,0,0,0-5.2,4.729,10.957,10.957,0,0,0-.92,7.364c1.113,5.4,5.747,8.838,10.55,7.857a1.651,1.651,0,0,1-1.652.844" transform="translate(71.692 43.287)" fill="#1a1a1a"/>
        <path id="Trazado_605545" data-name="Trazado 605545" d="M151.015,141.1c1.709-2.2,2.328-5.911,1.559-7.916l-11.537-30.046c-1.144-2.983-4.475-4.987-8.284-4.987H88.962a16.871,16.871,0,0,0-6.855,2.217c1.156-1.517,4.716-2.89,6.855-2.89h43.792c4.087,0,7.67,2.176,8.915,5.417L153.2,132.939c.867,2.255.194,6.276-1.972,8.08a.338.338,0,0,1-.217.077" transform="translate(33.037 39.22)" fill="#1a1a1a"/>
        <path id="Trazado_605546" data-name="Trazado 605546" d="M143.241,144.012H99.449c-4.086,0-7.668-2.177-8.913-5.419L87.3,130.177c.631-.241,3.862,8.174,3.862,8.174,1.146,2.983,4.475,4.987,8.284,4.987h43.792a9.053,9.053,0,0,0,7.573-3.636,5.929,5.929,0,0,0,.711-5.623l-11.536-30.047c-1.146-2.983-4.475-4.988-8.285-4.988H87.912a9.05,9.05,0,0,0-7.571,3.638,5.939,5.939,0,0,0-.711,5.625l3.4,8.866c-.63.241-4.036-8.626-4.036-8.626a6.583,6.583,0,0,1,.787-6.246,9.72,9.72,0,0,1,8.127-3.931H131.7c4.088,0,7.67,2.179,8.915,5.422l11.537,30.046a6.587,6.587,0,0,1-.785,6.246,9.728,9.728,0,0,1-8.13,3.929" transform="translate(31.603 39.58)" fill="#1a1a1a"/>
        <path id="Trazado_605547" data-name="Trazado 605547" d="M105.5,120.605a3.812,3.812,0,0,1-1.708-.442,7.239,7.239,0,0,1-3.688-6.388,2.89,2.89,0,0,1,4.481-2.585,7.227,7.227,0,0,1,3.688,6.386,3.142,3.142,0,0,1-1.439,2.679,2.631,2.631,0,0,1-1.334.349m-2.621-9.181a1.992,1.992,0,0,0-1,.255,2.512,2.512,0,0,0-1.1,2.137,6.57,6.57,0,0,0,3.318,5.743,2.225,2.225,0,0,0,3.5-2.021,6.572,6.572,0,0,0-3.318-5.745,3.154,3.154,0,0,0-1.4-.369" transform="translate(40.274 44.561)" fill="#1a1a1a"/>
        <path id="Trazado_605548" data-name="Trazado 605548" d="M167.841,133.9H93.106a2.669,2.669,0,0,1-2.524-2.6c.7.879,1.5,1.9,2.524,1.9h74.735a1.753,1.753,0,0,0,1.824-1.665v-1.076a1.752,1.752,0,0,0-1.824-1.665H145.967c0-.7,21.874-.7,21.874-.7a2.452,2.452,0,0,1,2.524,2.367v1.076a2.451,2.451,0,0,1-2.524,2.366" transform="translate(36.447 51.539)" fill="#1a1a1a"/>
        <path id="Trazado_605549" data-name="Trazado 605549" d="M91.244,153.156a25.117,25.117,0,0,1,10.909-21.379c.238.645-10.53,7.261-10.571,21.041a.339.339,0,0,1-.338.338" transform="translate(36.711 53.022)" fill="#1a1a1a"/>
        <path id="Trazado_605550" data-name="Trazado 605550" d="M169.681,135.7c-.676,0-1.376-.031-2.092-.1a96.283,96.283,0,0,1-15.275-3.189h-6.639c0-.675,6.688-.675,6.688-.675a98.454,98.454,0,0,0,15.289,3.19,23.151,23.151,0,0,0,11.9-2.118c.118.7-4.112,2.886-9.867,2.889" transform="translate(58.614 53.009)" fill="#1a1a1a"/>
        <path id="Trazado_605551" data-name="Trazado 605551" d="M157.766,77.125c2.6-1.365,4.1-2.385,4.385-3.7.446-2.085-2.311-4.336-2.339-4.359.55-.424,3.533,2.007,3,4.5-.338,1.587-2.007,2.779-4.957,3.549a.308.308,0,0,1-.087.011" transform="translate(63.479 27.771)" fill="#1a1a1a"/>
        <path id="Trazado_605552" data-name="Trazado 605552" d="M175.425,83.632c-4.589-11.766-14.132-10.69-14.226-10.676.018-.683,10.087-1.824,14.541,10.223-.237.446-.278.453-.316.453" transform="translate(64.861 29.2)" fill="#1a1a1a"/>
        <path id="Trazado_605553" data-name="Trazado 605553" d="M127.435,122.1a70.837,70.837,0,0,0,6.283-17.248C140.18,77.643,159.7,76.611,159.893,76.6c-.165.682-19.18,1.716-25.519,28.408-1.733,7.3-3.785,12.52-6.656,16.939a.336.336,0,0,1-.283.153" transform="translate(51.275 30.823)" fill="#1a1a1a"/>
        <path id="Trazado_605554" data-name="Trazado 605554" d="M206.147,90.911c-.337-.337-.337-54.708-.337-54.708a7.867,7.867,0,0,0-7.951-7.759H77.629c0-.675,120.23-.675,120.23-.675a8.541,8.541,0,0,1,8.625,8.434V90.575a.336.336,0,0,1-.337.337" transform="translate(31.235 11.174)" fill="#1a1a1a"/>
        <path id="Trazado_605555" data-name="Trazado 605555" d="M24.592,71.774c-.337-.338-.337-10.324-.337-10.324.673,0,.673,9.986.673,9.986a.337.337,0,0,1-.337.338" transform="translate(9.759 24.725)" fill="#1a1a1a"/>
        <path id="Trazado_605556" data-name="Trazado 605556" d="M101.934,128.774H48.361c0-.673,53.573-.673,53.573-.673.337.523.187.673,0,.673" transform="translate(19.459 51.543)" fill="#1a1a1a"/>
        <path id="Trazado_605557" data-name="Trazado 605557" d="M101.536,49.838c-.153-.036-14.722-7.479-14.722-7.479A19.193,19.193,0,0,0,73.762,41.4L62.839,45.1a18.24,18.24,0,0,1-13.373-1.409L37.758,36.718c-.136-.1-11.561-8.1-20.315.938C11.065,44.244,6.682,48.665,6.64,48.709c-.436-.519,3.945-4.938,10.319-11.522,9.163-9.465,21.051-1.118,21.17-1.031l11.685,6.959a17.5,17.5,0,0,0,12.812,1.349l10.922-3.7a19.958,19.958,0,0,1,13.575,1L101.69,49.2c.088.571-.031.637-.154.637" transform="translate(2.66 13.147)" fill="#1a1a1a"/>
        <path id="Trazado_605558" data-name="Trazado 605558" d="M57,33.658a8.71,8.71,0,1,1,8.707-8.71A8.722,8.722,0,0,1,57,33.658m0-16.746a8.036,8.036,0,1,0,8.034,8.036A8.047,8.047,0,0,0,57,16.913" transform="translate(19.429 6.534)" fill="#1a1a1a"/>
        <path id="Trazado_605559" data-name="Trazado 605559" d="M137.619,143.847c3.642-2.12,4.078-13.321,3.784-19.036-1.125-21.835-.976-27.426.077-34.171-.379,6.8-.524,12.362.6,34.134.091,1.743.732,17.072-4.333,19.053a.346.346,0,0,1-.123.021" transform="translate(55.373 36.47)" fill="#1a1a1a"/>
        <path id="Trazado_605560" data-name="Trazado 605560" d="M132.81,133.444c7.591-5.875,10.582-17.185,10.61-17.3.624.285-2.432,11.842-10.421,17.241a.34.34,0,0,1-.189.057" transform="translate(53.438 46.733)" fill="#1a1a1a"/>
        <path id="Trazado_605561" data-name="Trazado 605561" d="M145.981,18.542H133.808a2.035,2.035,0,0,1-1.879-.889,2.035,2.035,0,0,1,.177-2.071l6.06-10.376a1.852,1.852,0,0,1,3.451,0l6.064,10.377a2.036,2.036,0,0,1,.18,2.071,2.036,2.036,0,0,1-1.879.889M139.892,4.7a1.429,1.429,0,0,0-1.144.846l-6.058,10.376a1.406,1.406,0,0,0-.175,1.4,1.407,1.407,0,0,0,1.294.551h12.173a1.4,1.4,0,0,0,1.293-.551,1.406,1.406,0,0,0-.175-1.4L141.033,5.545a1.428,1.428,0,0,0-1.142-.844" transform="translate(52.999 1.62)" fill="#1a1a1a"/>
        <path id="Trazado_605562" data-name="Trazado 605562" d="M152.982,25.595H129.517a4.817,4.817,0,0,1-4.812-4.812V4.928a4.816,4.816,0,0,1,4.812-4.81h26.594a4.816,4.816,0,0,1,4.811,4.81v13.05c-.673,0-.673-13.05-.673-13.05A4.142,4.142,0,0,0,156.112.793H129.517a4.14,4.14,0,0,0-4.137,4.136V20.783a4.142,4.142,0,0,0,4.137,4.138h23.464c.337.523.186.673,0,.673" transform="translate(50.177 0.047)" fill="#1a1a1a"/>
        <path id="Trazado_605563" data-name="Trazado 605563" d="M39.453,126.878c-.188-.024-13.732-2.227-19.107-13.506-4.559-9.57-2.066-22.647,7.413-38.862.621.1,12.024,51.959,12.024,51.959-.147.37-.237.409-.33.409M27.907,75.6c-9,15.664-11.341,28.27-6.953,37.48,4.65,9.758,15.61,12.529,18.06,13.036Z" transform="translate(7.296 29.98)" fill="#1a1a1a"/>
        <path id="Trazado_605564" data-name="Trazado 605564" d="M25.92,141.174c-3.524,0-7.054-2.356-10.546-7.058,5.645,6.472,10.786,8.111,15.823,4.469,3.643-2.636,5.013-5.9,4.07-9.713-2.58-10.406-21.35-21.878-31.768-23.63.426,1.55,1.85,6.536,4.053,12.237a73.1,73.1,0,0,1-4.84-12.565c10.847,1.057,30.528,12.983,33.211,23.8,1.017,4.1-.44,7.611-4.332,10.422a9.625,9.625,0,0,1-5.671,2.042" transform="translate(1.091 42.214)" fill="#1a1a1a"/>
        <path id="Trazado_605565" data-name="Trazado 605565" d="M42.409,145.929a10.126,10.126,0,0,1-4.5-1.14c-4.175-2.059-6.133-5.215-5.817-9.376.855-11.311,19.064-27.455,29.556-30.788.282,1.725-3.5,33.873-15.143,40.227a8.481,8.481,0,0,1-4.1,1.077m18.945-40.493c-10.4,3.618-27.761,19.131-28.584,30.026-.293,3.862,1.538,6.8,5.441,8.723a8.245,8.245,0,0,0,7.975.076C56.73,138.5,60.806,109.7,61.354,105.436" transform="translate(12.901 42.097)" fill="#1a1a1a"/>
        <path id="Trazado_605566" data-name="Trazado 605566" d="M38.129,161.549c-9.546-33.16-27.181-50-27.357-50.17.641-.324,18.41,16.649,27.683,49.74-.265.425-.3.429-.325.429" transform="translate(4.334 44.813)" fill="#1a1a1a"/>
        <path id="Trazado_605567" data-name="Trazado 605567" d="M33.36,153.512c-.337-.351.48-22.162.48-22.162.675.027-.143,21.838-.143,21.838a.336.336,0,0,1-.337.324" transform="translate(13.39 52.851)" fill="#1a1a1a"/>
        <path id="Trazado_605568" data-name="Trazado 605568" d="M33.858,126.329C33.521,126,33.1,111.62,33.1,111.62c.673-.018,1.1,14.362,1.1,14.362-.331.348-.334.348-.337.348" transform="translate(13.317 44.912)" fill="#1a1a1a"/>
        <path id="Trazado_605569" data-name="Trazado 605569" d="M37.641,162.282c-5.936-35.028,15.036-52.3,15.249-52.474.213.694-20.455,17.741-14.917,52.082-.3.391-.316.391-.332.391" transform="translate(14.72 44.183)" fill="#1a1a1a"/>
        <path id="Trazado_605570" data-name="Trazado 605570" d="M79.439,85.134a1.47,1.47,0,0,1-1.139-.649L72.062,73.9c-.883-.227-5.173,2.3-5.173,2.3A1.322,1.322,0,0,1,64.9,75.134l-.913-18.643A1.319,1.319,0,0,1,66,55.306L81.87,65.129a1.319,1.319,0,0,1-.024,2.258L77.955,69.68a.647.647,0,0,0-.226.883l6.238,10.581a1.322,1.322,0,0,1-.466,1.806l-3.4,2a1.334,1.334,0,0,1-.666.182M71.5,72.911a1.318,1.318,0,0,1,1.139.652l6.241,10.581c.879.224,4.277-1.777,4.277-1.777a.644.644,0,0,0,.227-.881L77.147,70.906a1.325,1.325,0,0,1,.466-1.808L81.5,66.8a.643.643,0,0,0,.01-1.1L65.644,55.879a.644.644,0,0,0-.982.579L65.575,75.1a.637.637,0,0,0,.338.536.647.647,0,0,0,.632-.013l4.29-2.531a1.329,1.329,0,0,1,.668-.182" transform="translate(25.746 22.174)" fill="#1a1a1a"/>
        <path id="Trazado_605571" data-name="Trazado 605571" d="M147.637,46.265H103.144c0-.673,44.493-.673,44.493-.673.337.523.185.673,0,.673" transform="translate(41.501 18.345)" fill="#1a1a1a"/>
        <path id="Trazado_605572" data-name="Trazado 605572" d="M147.637,51.615H103.144c0-.675,44.493-.675,44.493-.675.337.523.185.675,0,.675" transform="translate(41.501 20.496)" fill="#1a1a1a"/>
        <path id="Trazado_605573" data-name="Trazado 605573" d="M93.608,55.283a5.219,5.219,0,1,1,5.22-5.218,5.224,5.224,0,0,1-5.22,5.218m0-9.763a4.544,4.544,0,1,0,4.545,4.545,4.548,4.548,0,0,0-4.545-4.545" transform="translate(35.565 18.044)" fill="#1a1a1a"/>
        <path id="Trazado_605574" data-name="Trazado 605574" d="M147.637,60.67H103.144c0-.675,44.493-.675,44.493-.675.337.523.185.675,0,.675" transform="translate(41.501 24.14)" fill="#1a1a1a"/>
        <path id="Trazado_605575" data-name="Trazado 605575" d="M147.637,66.018H103.144c0-.675,44.493-.675,44.493-.675.337.523.185.675,0,.675" transform="translate(41.501 26.292)" fill="#1a1a1a"/>
        <path id="Trazado_605576" data-name="Trazado 605576" d="M93.608,69.686a5.219,5.219,0,1,1,5.22-5.22,5.225,5.225,0,0,1-5.22,5.22m0-9.765a4.545,4.545,0,1,0,4.545,4.545,4.549,4.549,0,0,0-4.545-4.545" transform="translate(35.565 23.839)" fill="#1a1a1a"/>
        <path id="Trazado_605577" data-name="Trazado 605577" d="M147.637,74.977H103.144c0-.673,44.493-.673,44.493-.673.337.523.185.673,0,.673" transform="translate(41.501 29.897)" fill="#1a1a1a"/>
        <path id="Trazado_605578" data-name="Trazado 605578" d="M147.637,80.327H103.144c0-.675,44.493-.675,44.493-.675.337.523.185.675,0,.675" transform="translate(41.501 32.049)" fill="#1a1a1a"/>
        <path id="Trazado_605579" data-name="Trazado 605579" d="M93.608,83.995a5.219,5.219,0,1,1,5.22-5.22,5.224,5.224,0,0,1-5.22,5.22m0-9.763a4.544,4.544,0,1,0,4.545,4.544,4.548,4.548,0,0,0-4.545-4.544" transform="translate(35.565 29.597)" fill="#1a1a1a"/>
        <path id="Trazado_605580" data-name="Trazado 605580" d="M81.234,102.636H46.174c0-.675,34.724-.675,34.724-.675V89.441c.675,0,.675,12.857.675,12.857a.338.338,0,0,1-.338.338" transform="translate(18.579 35.988)" fill="#1a1a1a"/>
        <path id="Trazado_605581" data-name="Trazado 605581" d="M39.161,103.84c-.338-.337-.338-26.292-.338-26.292.338-.337,41.89-.337,41.89-.337,0,.673-41.215.673-41.215.673V103.5a.336.336,0,0,1-.337.337" transform="translate(15.621 31.067)" fill="#1a1a1a"/>
      </g>
    </g>
  </g>
</svg>
