<svg xmlns="http://www.w3.org/2000/svg" xmlns:xlink="http://www.w3.org/1999/xlink" width="62" height="62" viewBox="0 0 62 62">
  <defs>
    <clipPath id="clip-path">
      <rect id="Rect치ngulo_346389" data-name="Rect치ngulo 346389" width="28.066" height="33.956" fill="#627289"/>
    </clipPath>
  </defs>
  <g id="Grupo_1016396" data-name="Grupo 1016396" transform="translate(-1017 -1815)">
    <g id="Grupo_1015766" data-name="Grupo 1015766" transform="translate(0 -11091)">
      <g id="Grupo_1014858" data-name="Grupo 1014858" transform="translate(632.001 10848)">
        <path id="Uni칩n_12" data-name="Uni칩n 12" d="M44.385,58.97a31.027,31.027,0,1,1,10.348-8.025L58.991,62Z" transform="translate(384.999 2058)" fill="#a3bfe4"/>
        <circle id="Elipse_4842" data-name="Elipse 4842" cx="26" cy="26" r="26" transform="translate(389.999 2063)" fill="#fff"/>
      </g>
    </g>
    <g id="Grupo_1015800" data-name="Grupo 1015800" transform="translate(1036.045 1829.021)">
      <g id="Grupo_1015799" data-name="Grupo 1015799" clip-path="url(#clip-path)">
        <path id="Trazado_606617" data-name="Trazado 606617" d="M2.515,0H23.762a1.02,1.02,0,0,0,.18.065,4.969,4.969,0,0,1,4.122,4.846q0,1.74,0,3.48a4.989,4.989,0,0,1-3.6,4.739,10.533,10.533,0,0,1-2.759.194c-.171,0-.342,0-.524,0v.449q0,8.585,0,17.17a2.971,2.971,0,0,1-1.859,2.8c-.212.087-.436.142-.655.212H2.515c-.083-.026-.164-.057-.248-.079A2.975,2.975,0,0,1,0,30.978q0-14,0-28A2.931,2.931,0,0,1,.947.8,3.51,3.51,0,0,1,2.515,0M19.18,14.439c-1.3,1.3-2.535,2.545-3.775,3.786a1.005,1.005,0,0,1-1.773-.731c.009-1.393,0-2.785,0-4.178,0-.158,0-.277-.191-.361a4.876,4.876,0,0,1-3.119-4.812c0-.649,0-1.3,0-1.958H2.008v17.8H19.18Zm-3.56.72c.141-.134.229-.213.312-.3,1.029-1.031,2.064-2.057,3.083-3.1a1.4,1.4,0,0,1,1.087-.452c.937.016,1.875.01,2.812,0a3,3,0,0,0,3.164-3.185c0-1.016.006-2.033,0-3.05a3,3,0,0,0-3.093-3.091q-3.788-.01-7.576,0a3,3,0,0,0-3.1,3.12q-.006,1.541,0,3.083a2.986,2.986,0,0,0,2.429,3.074.994.994,0,0,1,.88,1.126c0,.894,0,1.788,0,2.766M1.985,26.013c0,1.619,0,3.2,0,4.779a1.045,1.045,0,0,0,1.186,1.175H18a1.051,1.051,0,0,0,1.2-1.194q0-2.221,0-4.443c0-.106-.009-.212-.015-.317ZM11.2,1.989H8.371q-2.644,0-5.288,0a.988.988,0,0,0-1.075.865A11.636,11.636,0,0,0,2,4.144h8.292l.91-2.155" transform="translate(0)" fill="#627289"/>
        <path id="Trazado_606618" data-name="Trazado 606618" d="M161.689,64.893a.992.992,0,1,1,1.984,0,.992.992,0,1,1-1.984,0" transform="translate(-147.391 -58.237)" fill="#627289"/>
        <path id="Trazado_606619" data-name="Trazado 606619" d="M208.586,64.9a.992.992,0,1,1-1.984-.021.992.992,0,1,1,1.984.021" transform="translate(-188.332 -58.238)" fill="#627289"/>
        <path id="Trazado_606620" data-name="Trazado 606620" d="M251.514,64.9a.992.992,0,1,1,1.984-.009.992.992,0,1,1-1.984.009" transform="translate(-229.273 -58.237)" fill="#627289"/>
        <path id="Trazado_606621" data-name="Trazado 606621" d="M104.188,316.491c.2,0,.4,0,.594,0a.994.994,0,1,1-.011,1.987c-.407,0-.815.007-1.222,0a.993.993,0,0,1,.011-1.986c.209,0,.418,0,.627,0" transform="translate(-93.504 -288.503)" fill="#627289"/>
      </g>
    </g>
  </g>
</svg>
