<svg xmlns="http://www.w3.org/2000/svg" xmlns:xlink="http://www.w3.org/1999/xlink" width="505" height="485" viewBox="0 0 505 485">
  <defs>
    <linearGradient id="linear-gradient" x1="0.532" y1="1" x2="0.536" y2="0.129" gradientUnits="objectBoundingBox">
      <stop offset="0" stop-color="#e8fffd"/>
      <stop offset="1" stop-color="#e3ecf7"/>
    </linearGradient>
    <clipPath id="clip-path">
      <rect id="Rectángulo_346402" data-name="Rectángulo 346402" width="43.88" height="47.186" fill="#627289"/>
    </clipPath>
    <clipPath id="clip-path-2">
      <rect id="Rectángulo_346403" data-name="Rectángulo 346403" width="46" height="46" transform="translate(0 0.013)" fill="#627289"/>
    </clipPath>
    <clipPath id="clip-path-3">
      <rect id="Rectángulo_346404" data-name="Rectángulo 346404" width="52.677" height="51.964" fill="#627289"/>
    </clipPath>
    <clipPath id="clip-path-4">
      <rect id="Rectángulo_346405" data-name="Rectángulo 346405" width="35.185" height="47" fill="#627289"/>
    </clipPath>
  </defs>
  <g id="Grupo_1016399" data-name="Grupo 1016399" transform="translate(3537 8543)">
    <rect id="Rectángulo_347032" data-name="Rectángulo 347032" width="505" height="485" transform="translate(-3537 -8543)" fill="url(#linear-gradient)"/>
    <g id="Rectángulo_346397" data-name="Rectángulo 346397" transform="translate(-3398 -8430)" fill="none" stroke="#627289" stroke-width="2" stroke-dasharray="4">
      <rect width="223" height="252" rx="16" stroke="none"/>
      <rect x="1" y="1" width="221" height="250" rx="15" fill="none"/>
    </g>
    <circle id="Elipse_5827" data-name="Elipse 5827" cx="42.5" cy="42.5" r="42.5" transform="translate(-3326 -8520)" fill="#a3bfe4"/>
    <rect id="Rectángulo_346400" data-name="Rectángulo 346400" width="144" height="47" rx="16" transform="translate(-3356 -8449)" fill="#fff"/>
    <path id="Trazado_608064" data-name="Trazado 608064" d="M7.994,13.186H3.312L2.333,16H.149L4.715,3.914H6.6L11.173,16H8.981ZM3.9,11.493H7.4L5.653,6.479ZM14.734,4.835V7.019h1.585V8.513H14.734v5.014a1.1,1.1,0,0,0,.2.743.943.943,0,0,0,.726.228,3.107,3.107,0,0,0,.706-.083v1.561a4.968,4.968,0,0,1-1.328.191q-2.324,0-2.324-2.565V8.513H11.239V7.019h1.478V4.835Zm7.828,4.026a4.991,4.991,0,0,0-.822-.066,1.85,1.85,0,0,0-1.868,1.063V16H17.855V7.019h1.926l.05,1a2.273,2.273,0,0,1,2.025-1.17,1.888,1.888,0,0,1,.714.116ZM28.953,16a3.113,3.113,0,0,1-.232-.838,3.393,3.393,0,0,1-4.565.232,2.47,2.47,0,0,1-.855-1.909,2.55,2.55,0,0,1,1.067-2.2,5.169,5.169,0,0,1,3.051-.768h1.237V9.924a1.573,1.573,0,0,0-.39-1.116,1.547,1.547,0,0,0-1.187-.419,1.777,1.777,0,0,0-1.129.344,1.066,1.066,0,0,0-.44.876H23.491a2.239,2.239,0,0,1,.49-1.382,3.263,3.263,0,0,1,1.332-1.009,4.68,4.68,0,0,1,1.88-.365,3.769,3.769,0,0,1,2.515.793,2.827,2.827,0,0,1,.963,2.229v4.051a4.591,4.591,0,0,0,.34,1.934V16Zm-2.216-1.453a2.294,2.294,0,0,0,1.125-.291,1.941,1.941,0,0,0,.793-.78V11.783H27.567a2.973,2.973,0,0,0-1.685.39,1.264,1.264,0,0,0-.564,1.1,1.179,1.179,0,0,0,.386.926A1.5,1.5,0,0,0,26.737,14.547Zm10,1.619a4.173,4.173,0,0,1-3.109-1.208,4.381,4.381,0,0,1-1.191-3.217v-.249a5.389,5.389,0,0,1,.519-2.4,3.949,3.949,0,0,1,1.457-1.648,3.851,3.851,0,0,1,2.092-.589,3.525,3.525,0,0,1,2.835,1.17,4.949,4.949,0,0,1,1,3.312v.813H34.473a2.7,2.7,0,0,0,.743,1.76,2.23,2.23,0,0,0,1.639.647,2.731,2.731,0,0,0,2.258-1.121L40.2,14.473a3.631,3.631,0,0,1-1.44,1.249A4.509,4.509,0,0,1,36.739,16.166ZM36.5,8.471a1.7,1.7,0,0,0-1.341.581,3.012,3.012,0,0,0-.652,1.619H38.35v-.149a2.452,2.452,0,0,0-.54-1.531A1.686,1.686,0,0,0,36.5,8.471Zm10.11.39a4.991,4.991,0,0,0-.822-.066,1.85,1.85,0,0,0-1.868,1.063V16H41.9V7.019h1.926l.05,1A2.273,2.273,0,0,1,45.9,6.853a1.888,1.888,0,0,1,.714.116Z" transform="translate(-3308 -8435)" fill="#12263f"/>
    <circle id="Elipse_5829" data-name="Elipse 5829" cx="34.5" cy="34.5" r="34.5" transform="translate(-3318 -8512)" fill="#fffbe5"/>
    <g id="Grupo_1015807" data-name="Grupo 1015807" transform="translate(-3305 -8501)">
      <g id="Grupo_1015806" data-name="Grupo 1015806" clip-path="url(#clip-path)">
        <path id="Trazado_606628" data-name="Trazado 606628" d="M225.567,0c.792.153,1.59.277,2.374.464A15.171,15.171,0,0,1,239.2,12.8a22.557,22.557,0,0,1,.185,2.379,1.4,1.4,0,0,1-1.363,1.575,1.452,1.452,0,0,1-1.4-1.556,12.281,12.281,0,0,0-7.278-11.3A11.864,11.864,0,0,0,224.5,2.77,1.419,1.419,0,0,1,222.987,1.7a1.385,1.385,0,0,1,.874-1.629c.022-.012.032-.047.047-.071h1.658" transform="translate(-195.505)" fill="#627289"/>
        <path id="Trazado_606629" data-name="Trazado 606629" d="M21.7,75.366c1.588,1.543,3.068,2.971,4.536,4.41.712.7,1.408,1.415,2.105,2.128a1.416,1.416,0,0,1-.018,2.248q-1.876,1.869-3.762,3.727a1.421,1.421,0,0,1-2.249-.007q-3.046-3.076-6.084-6.159a3.709,3.709,0,0,1-.351-.555c-.441.5-.736.873-1.074,1.2a1.38,1.38,0,0,1-2.049-.009c-.22-.212-.419-.445-.7-.749-.846.87-1.678,1.681-2.459,2.538-1.017,1.116-1.833,1.1-2.884,0C4.713,82.053,2.655,80.029.624,77.98a1.449,1.449,0,0,1,0-2.379c.9-.9,1.786-1.816,2.773-2.82a7.266,7.266,0,0,1-.6-.5,1.41,1.41,0,0,1,0-2.243c2.464-2.442,4.936-4.875,7.389-7.328a2.041,2.041,0,0,0,.513-.882c1.095-4.187,2.164-8.381,3.244-12.572a2.818,2.818,0,0,1,4.8-1.344q9.23,9.3,18.432,18.622a2.827,2.827,0,0,1-1.362,4.806c-4.244,1.057-8.5,2.082-12.733,3.162a5.949,5.949,0,0,0-1.384.86M35.307,68.6,16.678,49.78c-1.1,4.291-2.181,8.467-3.241,12.647a.6.6,0,0,0,.181.456Q17.866,67.2,22.128,71.5a.581.581,0,0,0,.641.186c2.863-.719,5.732-1.417,8.6-2.121l3.938-.968M19.956,73.146l-8.272-8.033-6.03,6.232,8.255,8.012,6.047-6.211m-2.121,6.292,5.687,5.5,1.917-1.992-5.648-5.5-1.956,1.992m-7.771.209L5.279,75l-1.835,1.88,4.765,4.643,1.856-1.875" transform="translate(0 -41.242)" fill="#627289"/>
        <path id="Trazado_606630" data-name="Trazado 606630" d="M233.53,54.2a5.651,5.651,0,0,1-.07.85,1.382,1.382,0,0,1-2.722-.383,6.846,6.846,0,0,0-4.109-6.347,7.011,7.011,0,0,0-2.672-.6,1.368,1.368,0,0,1-1.413-1.468,1.386,1.386,0,0,1,1.49-1.3,9.691,9.691,0,0,1,9.281,7.734c.1.541.155,1.09.215,1.523" transform="translate(-195.153 -39.413)" fill="#627289"/>
      </g>
    </g>
    <circle id="Elipse_5828" data-name="Elipse 5828" cx="42.5" cy="42.5" r="42.5" transform="translate(-3328 -8165)" fill="#a3bfe4"/>
    <rect id="Rectángulo_346401" data-name="Rectángulo 346401" width="144" height="47" rx="16" transform="translate(-3358 -8201)" fill="#fff"/>
    <path id="Trazado_608062" data-name="Trazado 608062" d="M5.487,13.369,8.558,3.914h2.308L6.516,16H4.482L.149,3.914h2.3Zm10.135,2.8a4.173,4.173,0,0,1-3.109-1.208,4.381,4.381,0,0,1-1.191-3.217v-.249a5.389,5.389,0,0,1,.519-2.4A3.949,3.949,0,0,1,13.3,7.442a3.851,3.851,0,0,1,2.092-.589,3.525,3.525,0,0,1,2.835,1.17,4.949,4.949,0,0,1,1,3.312v.813H13.356a2.7,2.7,0,0,0,.743,1.76,2.23,2.23,0,0,0,1.639.647A2.731,2.731,0,0,0,18,13.435l1.087,1.038a3.631,3.631,0,0,1-1.44,1.249A4.509,4.509,0,0,1,15.622,16.166Zm-.241-7.695a1.7,1.7,0,0,0-1.341.581,3.012,3.012,0,0,0-.652,1.619h3.843v-.149a2.452,2.452,0,0,0-.54-1.531A1.686,1.686,0,0,0,15.381,8.471Zm7.28-1.453.058,1.038a3.229,3.229,0,0,1,2.615-1.2q2.806,0,2.855,3.212V16H26.172V10.181A1.85,1.85,0,0,0,25.8,8.915,1.554,1.554,0,0,0,24.6,8.5a1.944,1.944,0,0,0-1.818,1.1V16H20.76V7.019Zm7.205,4.424a5.34,5.34,0,0,1,.963-3.333,3.085,3.085,0,0,1,2.582-1.258,2.931,2.931,0,0,1,2.308,1V3.25h2.017V16H35.909l-.1-.93a2.973,2.973,0,0,1-2.416,1.1,3.068,3.068,0,0,1-2.552-1.27A5.535,5.535,0,0,1,29.866,11.443Zm2.017.174a3.739,3.739,0,0,0,.527,2.137,1.71,1.71,0,0,0,1.5.768,1.9,1.9,0,0,0,1.81-1.1V9.583A1.876,1.876,0,0,0,33.925,8.5a1.723,1.723,0,0,0-1.511.776A4.163,4.163,0,0,0,31.883,11.617Zm11.912,4.549a4.173,4.173,0,0,1-3.109-1.208A4.381,4.381,0,0,1,39.5,11.742v-.249a5.389,5.389,0,0,1,.519-2.4,3.949,3.949,0,0,1,1.457-1.648,3.851,3.851,0,0,1,2.092-.589A3.525,3.525,0,0,1,46.4,8.023a4.949,4.949,0,0,1,1,3.312v.813H41.529a2.7,2.7,0,0,0,.743,1.76,2.23,2.23,0,0,0,1.639.647,2.731,2.731,0,0,0,2.258-1.121l1.087,1.038a3.631,3.631,0,0,1-1.44,1.249A4.509,4.509,0,0,1,43.795,16.166Zm-.241-7.695a1.7,1.7,0,0,0-1.341.581,3.012,3.012,0,0,0-.652,1.619h3.843v-.149a2.452,2.452,0,0,0-.54-1.531A1.686,1.686,0,0,0,43.554,8.471Zm10.11.39a4.991,4.991,0,0,0-.822-.066,1.85,1.85,0,0,0-1.868,1.063V16H48.958V7.019h1.926l.05,1a2.273,2.273,0,0,1,2.025-1.17,1.888,1.888,0,0,1,.714.116Z" transform="translate(-3315 -8187)" fill="#12263f"/>
    <circle id="Elipse_5830" data-name="Elipse 5830" cx="34.5" cy="34.5" r="34.5" transform="translate(-3320 -8157)" fill="#fffbe5"/>
    <g id="Grupo_1015809" data-name="Grupo 1015809" transform="translate(-3309.628 -8145.641)">
      <g id="Grupo_1015808" data-name="Grupo 1015808" transform="translate(-0.372 -0.372)" clip-path="url(#clip-path-2)">
        <path id="Trazado_606631" data-name="Trazado 606631" d="M44.47,31.388a3.988,3.988,0,0,0-5.123-1.067c-1.189.62-2.39,1.263-3.551,1.885q-.843.451-1.686.9l-.053.028V23.629l.441,0c.514.007,1.046.013,1.568-.016a6.284,6.284,0,0,0,1.733-.266,4.1,4.1,0,0,0,2.93-3.86,4.173,4.173,0,0,0-2.134-3.97,4.832,4.832,0,0,0-2.6-.614h-3.27q-5.946,0-11.892,0h-.061a6.523,6.523,0,0,1-1.034-.054,3.515,3.515,0,0,1-2.837-3.574A3.443,3.443,0,0,1,20.1,8c.471-.025.953-.027,1.42-.029.363,0,.737,0,1.107-.015a.425.425,0,0,1,.409.225c.615.828,1.244,1.665,1.852,2.476.655.872,1.332,1.774,1.992,2.664a1.421,1.421,0,0,0,1.227.615h0q7.931-.007,15.861,0c.891,0,1.255-.367,1.255-1.266q0-5.68,0-11.361C45.223.336,44.9.01,43.929.01H40.308C36.34.012,32.236.013,28.2,0a1.6,1.6,0,0,0-1.4.7c-.688.935-1.4,1.879-2.081,2.793-.551.735-1.121,1.5-1.678,2.247a.469.469,0,0,1-.452.225c-.714-.017-1.559-.029-2.417,0a5.472,5.472,0,0,0,.292,10.939q4.156.006,8.312,0,3.8,0,7.593,0a2.331,2.331,0,0,1,2.359,1.972,2.244,2.244,0,0,1-1.806,2.653,11.441,11.441,0,0,1-2.114.051c-.251-.009-.509-.018-.768-.022V21q0-.933,0-1.861c0-.886-.345-1.232-1.225-1.232q-10.2,0-20.406,0c-.876,0-1.218.347-1.218,1.237q0,3.73,0,7.461v2.633a1.569,1.569,0,0,1-.052.575,1.185,1.185,0,0,1-.406.27l-.17.092a4.143,4.143,0,0,1-2.149.417c-1.972-.011-3.977-.006-5.915,0l-2.257,0H0V32.56H8.894V43.27H0v1.962H29.134l.05-.025c.271-.134.552-.264.823-.391.6-.278,1.211-.565,1.789-.907,3.689-2.185,7.336-4.38,11.379-6.817a4.122,4.122,0,0,0,1.986-2.7,3.789,3.789,0,0,0-.69-3.006M19.056,43.264H10.941V40.786c0-2.73,0-5.553-.007-8.33,0-.239.039-.3.247-.392a9.489,9.489,0,0,1,8.261.169,3.186,3.186,0,0,0,1.441.333c2.318-.016,4.706-.011,6.813-.005a1.62,1.62,0,0,1,1.707,1.3,1.569,1.569,0,0,1-.291,1.3,1.479,1.479,0,0,1-1.11.593c-.816.034-1.65.031-2.457.028-.313,0-.627,0-.94,0q-.726,0-1.451,0-.825,0-1.651,0a3.779,3.779,0,0,0-.555.048.968.968,0,0,0-.071,1.9,2.473,2.473,0,0,0,.572.06l1.069,0c2.113,0,4.3.007,6.447-.01a2.477,2.477,0,0,0,1.1-.274c2.364-1.246,4.761-2.525,7.08-3.761l3.006-1.6a2.127,2.127,0,0,1,2.429.121,1.837,1.837,0,0,1-.025,2.831,5.454,5.454,0,0,1-.62.423L37.57,38.141q-3.859,2.315-7.715,4.634a3.343,3.343,0,0,1-1.772.493h0q-4.511,0-9.023,0M19.4,23.282a.973.973,0,0,0,1.073,1.065c1.429.007,2.87.007,4.283,0a.983.983,0,0,0,1.079-1.106c.005-.833,0-1.647,0-2.508q0-.406,0-.816h6.237v3.131c0,3.524,0,7.169.01,10.753,0,.35-.071.479-.324.574a2.829,2.829,0,0,0-.342.16c0-.036,0-.071,0-.106a5.875,5.875,0,0,0-.1-1.084A3.468,3.468,0,0,0,27.953,30.6c-1.313-.014-2.647-.014-3.937-.014-.986,0-2.006,0-3.009-.006a1.544,1.544,0,0,1-.645-.141A11.7,11.7,0,0,0,15.189,29.2a11.413,11.413,0,0,0-1.918.164.436.436,0,0,1-.092.006V19.9h6.212v.236q0,.46,0,.921c0,.729,0,1.484,0,2.226m2-3.372h2.448v2.44H21.392Zm6.7-12.943a.468.468,0,0,1,.131-.336.487.487,0,0,1,.347-.146.48.48,0,0,1,.351.134.469.469,0,0,1,.139.334.484.484,0,0,1-.137.345.475.475,0,0,1-.338.145h-.005a.486.486,0,0,1-.487-.475M26.272,7.976a.726.726,0,0,1,.144.19,2.479,2.479,0,1,0,2.794-3.6,2.421,2.421,0,0,0-2.766,1.172c-.11.211-.186.241-.376.23-.235-.014-.47-.012-.716-.01l.012-.016.5-.663c.771-1.031,1.568-2.1,2.366-3.135a.485.485,0,0,1,.306-.154c4.423-.012,8.921-.011,13.271-.01h1.434v9.931c-.079,0-.156.008-.231.008h-3.57c-3.541,0-7.2,0-10.8.008h0a.518.518,0,0,1-.494-.237c-.654-.889-1.326-1.786-1.977-2.653l-.805-1.075c.335,0,.627-.007.919.015" transform="translate(0.389 0.39)" fill="#627289"/>
        <path id="Trazado_606632" data-name="Trazado 606632" d="M27.448,317.822a2.481,2.481,0,1,0-.033-4.961,2.481,2.481,0,0,0,.03,4.961Zm-.484-2.514a.479.479,0,0,1,.848-.281.475.475,0,0,1-.406.788.466.466,0,0,1-.441-.507" transform="translate(-21.597 -275.175)" fill="#627289"/>
        <path id="Trazado_606633" data-name="Trazado 606633" d="M301.654,29.781c.43.2.88.423,1.409.7-.106.008-.217,0-.333,0l-.184,0h-2.221v1.984h1.449l.056.723h1.921l.041-.788.142-.048a1.841,1.841,0,0,0,1.317-1.59,1.763,1.763,0,0,0-.852-1.8c-.351-.214-.721-.4-1.08-.577-.232-.115-.471-.235-.7-.36a.5.5,0,0,1-.047-.029l.028,0c.361-.011.731-.009,1.088-.007l.432,0h1.137v-2h-1.466l-.045-.713h-1.932l-.039.77a1.854,1.854,0,0,0-1.462,1.761,1.974,1.974,0,0,0,1.34,1.969" transform="translate(-264.121 -21.878)" fill="#627289"/>
      </g>
    </g>
    <circle id="Elipse_5826" data-name="Elipse 5826" cx="42.5" cy="42.5" r="42.5" transform="translate(-3123 -8344)" fill="#a3bfe4"/>
    <rect id="Rectángulo_346399" data-name="Rectángulo 346399" width="144" height="47" rx="16" transform="translate(-3254 -8325)" fill="#fff"/>
    <path id="Trazado_608061" data-name="Trazado 608061" d="M10.451,12.065a4.364,4.364,0,0,1-1.428,3.017,4.867,4.867,0,0,1-3.312,1.083,4.713,4.713,0,0,1-2.544-.685,4.5,4.5,0,0,1-1.7-1.947A7.024,7.024,0,0,1,.847,10.6V9.476a7.075,7.075,0,0,1,.606-3.013A4.567,4.567,0,0,1,3.192,4.454a4.851,4.851,0,0,1,2.619-.706A4.672,4.672,0,0,1,9.031,4.831,4.527,4.527,0,0,1,10.451,7.9H8.359a2.985,2.985,0,0,0-.76-1.88,2.51,2.51,0,0,0-1.789-.577,2.452,2.452,0,0,0-2.1,1A5,5,0,0,0,2.955,9.38v1.072a5.308,5.308,0,0,0,.7,2.991,2.328,2.328,0,0,0,2.054,1.03,2.715,2.715,0,0,0,1.859-.556,2.9,2.9,0,0,0,.789-1.851Zm1.3-.639a5.3,5.3,0,0,1,.523-2.378,3.819,3.819,0,0,1,1.469-1.627,4.14,4.14,0,0,1,2.175-.569,3.923,3.923,0,0,1,2.951,1.17,4.6,4.6,0,0,1,1.224,3.1l.008.473a5.343,5.343,0,0,1-.51,2.374,3.773,3.773,0,0,1-1.461,1.619,4.17,4.17,0,0,1-2.2.573A3.9,3.9,0,0,1,12.9,14.9a4.848,4.848,0,0,1-1.141-3.374Zm2.017.174a3.619,3.619,0,0,0,.573,2.171,1.862,1.862,0,0,0,1.594.784,1.842,1.842,0,0,0,1.59-.8,4,4,0,0,0,.569-2.333,3.572,3.572,0,0,0-.585-2.158,1.973,1.973,0,0,0-3.158-.012A3.922,3.922,0,0,0,13.771,11.6Zm9.911-4.582.058,1.038a3.229,3.229,0,0,1,2.615-1.2q2.806,0,2.855,3.212V16H27.193V10.181a1.85,1.85,0,0,0-.369-1.266A1.554,1.554,0,0,0,25.616,8.5a1.944,1.944,0,0,0-1.818,1.1V16H21.781V7.019Zm10.75,6.425,1.9-6.425h2.083L35.3,16H33.552L30.414,7.019h2.092Zm9.089,2.723a4.173,4.173,0,0,1-3.109-1.208,4.381,4.381,0,0,1-1.191-3.217v-.249a5.389,5.389,0,0,1,.519-2.4A3.949,3.949,0,0,1,41.2,7.442a3.851,3.851,0,0,1,2.092-.589,3.525,3.525,0,0,1,2.835,1.17,4.949,4.949,0,0,1,1,3.312v.813H41.255A2.7,2.7,0,0,0,42,13.908a2.23,2.23,0,0,0,1.639.647A2.731,2.731,0,0,0,45.9,13.435l1.087,1.038a3.631,3.631,0,0,1-1.44,1.249A4.509,4.509,0,0,1,43.521,16.166ZM43.28,8.471a1.7,1.7,0,0,0-1.341.581,3.012,3.012,0,0,0-.652,1.619h3.843v-.149a2.452,2.452,0,0,0-.54-1.531A1.686,1.686,0,0,0,43.28,8.471Zm10.11.39a4.991,4.991,0,0,0-.822-.066A1.85,1.85,0,0,0,50.7,9.857V16H48.684V7.019H50.61l.05,1a2.273,2.273,0,0,1,2.025-1.17,1.888,1.888,0,0,1,.714.116Zm4.217-4.026V7.019h1.585V8.513H57.607v5.014a1.1,1.1,0,0,0,.2.743.943.943,0,0,0,.726.228,3.107,3.107,0,0,0,.706-.083v1.561a4.968,4.968,0,0,1-1.328.191q-2.324,0-2.324-2.565V8.513H54.113V7.019H55.59V4.835ZM62.878,16H60.861V7.019h2.017ZM60.737,4.686a1.071,1.071,0,0,1,.295-.772,1.113,1.113,0,0,1,.843-.307,1.127,1.127,0,0,1,.847.307,1.062,1.062,0,0,1,.3.772,1.038,1.038,0,0,1-.3.76,1.136,1.136,0,0,1-.847.3,1.122,1.122,0,0,1-.843-.3A1.046,1.046,0,0,1,60.737,4.686Zm9.04,4.175a4.991,4.991,0,0,0-.822-.066,1.85,1.85,0,0,0-1.868,1.063V16H65.07V7.019H67l.05,1a2.273,2.273,0,0,1,2.025-1.17,1.888,1.888,0,0,1,.714.116Z" transform="translate(-3217 -8311)" fill="#12263f"/>
    <circle id="Elipse_5831" data-name="Elipse 5831" cx="34.5" cy="34.5" r="34.5" transform="translate(-3115 -8336)" fill="#fffbe5"/>
    <g id="Grupo_1015811" data-name="Grupo 1015811" transform="translate(-3106 -8327.982)">
      <g id="Grupo_1015810" data-name="Grupo 1015810" clip-path="url(#clip-path-3)">
        <path id="Trazado_606634" data-name="Trazado 606634" d="M0,111.523q4.945-6.136,9.892-12.272a1.058,1.058,0,0,1,1.582-.231c1.722,1.087,3.411,2.229,5.169,3.253a10.608,10.608,0,0,0,2.341.835c1.243.369,2.5.7,3.754,1.024a1.607,1.607,0,0,0,.79-.009c1.63-.449,3.25-.932,4.879-1.383a4.525,4.525,0,0,1,1.157-.17c2.142-.016,4.284.006,6.426-.022a2.134,2.134,0,0,0,1.041-.307c1.675-1.033,3.327-2.1,4.989-3.159a1.121,1.121,0,0,1,1.794.325l8.432,10.951c.623.808.583,1.242-.2,1.923-1.476,1.278-2.964,2.544-4.434,3.829a2.205,2.205,0,0,0-.515.682c-1,2.06-1.98,4.131-2.978,6.193a.762.762,0,0,0,0,.755,3.623,3.623,0,0,1-3.047,5.273c-.066,0-.131.02-.189.029-.536,2.532-1.416,3.414-3.727,3.718a3.762,3.762,0,0,1-3.689,3.714c-.731,3.672-3.323,4.678-6.525,2.476a3.755,3.755,0,0,1-3.922,1.5,3.619,3.619,0,0,1-2.839-3.131,3.942,3.942,0,0,1-2.948-.909,3.816,3.816,0,0,1-1.28-2.742c-2.816-.791-3.732-1.856-3.646-4.242a3,3,0,0,0-.318-.1,3.631,3.631,0,0,1-2.24-5.7.548.548,0,0,0,0-.786c-1.361-1.8-2.694-3.63-4.053-5.436a5.654,5.654,0,0,0-.828-.835C3.493,115.377,2.11,114.2.739,113.01c-.267-.232-.494-.51-.739-.766v-.72M20.11,105.6c-.9-.245-1.732-.449-2.546-.7a.619.619,0,0,0-.781.243q-3.439,4.225-6.908,8.426c-.77.938-1.537,1.877-2.318,2.831l3.969,5.343A3.691,3.691,0,0,1,17.6,123.9a3.763,3.763,0,0,1,3.119.766,3.718,3.718,0,0,1,1.327,2.883A3.585,3.585,0,0,1,24.91,128.9a3.784,3.784,0,0,1,.754,3.055c.053.039.066.055.081.059a3.686,3.686,0,0,1,2.679,5.11.384.384,0,0,0,.04.319,1.669,1.669,0,0,0,1.709.537,1.488,1.488,0,0,0,1.121-1.371,1.685,1.685,0,0,0-.559-1.377c-.752-.751-1.523-1.486-2.228-2.278a1.423,1.423,0,0,1-.358-1,1.014,1.014,0,0,1,1.773-.506c.79.76,1.547,1.555,2.317,2.336a1.574,1.574,0,1,0,2.274-2.169c-1.05-1.106-2.141-2.173-3.214-3.257-.41-.414-.827-.821-1.226-1.245a.881.881,0,0,1-.214-1.082,1.364,1.364,0,0,1,.826-.643,1.485,1.485,0,0,1,1.016.431c1.449,1.41,2.853,2.867,4.284,4.3a1.508,1.508,0,0,0,1.916.33,1.451,1.451,0,0,0,.759-1.691,2.348,2.348,0,0,0-.594-.984c-2.12-2.169-4.264-4.316-6.4-6.474a1.054,1.054,0,1,1,1.483-1.467q1.129,1.125,2.247,2.261,2.1,2.119,4.193,4.242a1.647,1.647,0,0,0,1.512.584,1.466,1.466,0,0,0,1.23-1.038,1.636,1.636,0,0,0-.468-1.735q-5.951-5.937-11.9-11.876a1.316,1.316,0,0,0-.763-.321c-1.211-.106-2.428-.147-3.638-.256a.63.63,0,0,0-.716.389c-.76,1.378-1.532,2.75-2.329,4.107A3.435,3.435,0,0,1,19,118.036a3.626,3.626,0,0,1-2.789-5.551c.639-1.152,1.3-2.293,1.946-3.439.639-1.129,1.277-2.258,1.95-3.447M42.27,121.78l.174-.127c.832-1.742,1.649-3.492,2.508-5.221a.829.829,0,0,0-.108-1.041q-4.122-5.19-8.2-10.413a.806.806,0,0,0-.724-.353c-2.073.014-4.146,0-6.22.012a2.633,2.633,0,0,0-.7.1q-3.422.974-6.838,1.971a.784.784,0,0,0-.434.306c-1.266,2.211-2.536,4.422-3.751,6.661a1.906,1.906,0,0,0-.1,1.226,1.353,1.353,0,0,0,1.253,1.05,1.506,1.506,0,0,0,1.59-.8c.925-1.619,1.849-3.237,2.753-4.868a1.259,1.259,0,0,1,1.333-.728c1.707.136,3.416.239,5.125.342a1.782,1.782,0,0,1,1.213.575q5.386,5.409,10.787,10.8a3.213,3.213,0,0,1,.346.511M6.1,114.872l9.057-11.035-4.15-2.638L2.484,111.759,6.1,114.872m44.091-3.756-7.626-9.9-4.15,2.643,8.159,10.377,3.617-3.115M16.084,131.509a2.3,2.3,0,0,0,.807-.351c.928-.861,1.836-1.748,2.692-2.68a1.554,1.554,0,0,0-2.262-2.125c-.868.827-1.718,1.673-2.541,2.544a1.452,1.452,0,0,0-.254,1.673,1.63,1.63,0,0,0,1.557.939m3.565,3.776a3.255,3.255,0,0,0,.952-.425c.914-.85,1.807-1.727,2.654-2.644a1.522,1.522,0,0,0-.1-2.134,1.5,1.5,0,0,0-2.093-.054c-.9.839-1.772,1.713-2.616,2.611a1.446,1.446,0,0,0-.223,1.678,1.69,1.69,0,0,0,1.422.968m2.636,1.546a1.507,1.507,0,0,0,.829,1.451,1.394,1.394,0,0,0,1.635-.132,13.824,13.824,0,0,0,1.587-1.6,1.492,1.492,0,0,0,0-1.859,1.415,1.415,0,0,0-1.729-.522,5.445,5.445,0,0,0-2.251,2.237,1.113,1.113,0,0,0-.074.425m-9.547-9.468a2.959,2.959,0,0,0,.878-.359,13.115,13.115,0,0,0,1.591-1.6,1.525,1.525,0,0,0-.183-2.091,1.563,1.563,0,0,0-2.14.045c-.461.434-.916.877-1.34,1.346a1.48,1.48,0,0,0-.25,1.674,1.626,1.626,0,0,0,1.445.98" transform="translate(0 -88.59)" fill="#627289"/>
        <path id="Trazado_606635" data-name="Trazado 606635" d="M130.7,37.224a2.407,2.407,0,0,1-.6-.358q-3.482-3.453-6.939-6.931a1.044,1.044,0,1,1,1.456-1.488q3.48,3.455,6.938,6.932a1.018,1.018,0,0,1,.28,1.213,1.089,1.089,0,0,1-1.139.633" transform="translate(-110.128 -25.184)" fill="#627289"/>
        <path id="Trazado_606636" data-name="Trazado 606636" d="M301.164,37.395c-.27-.212-.655-.378-.795-.664a1.832,1.832,0,0,1,.014-1.008c.024-.144.2-.27.319-.39q3.338-3.343,6.679-6.683a1.18,1.18,0,0,1,1.125-.468,1.016,1.016,0,0,1,.6,1.676c-2.373,2.419-4.78,4.805-7.187,7.19a2.849,2.849,0,0,1-.751.347" transform="translate(-269.356 -25.255)" fill="#627289"/>
        <path id="Trazado_606637" data-name="Trazado 606637" d="M247.54,43.946c0,.94.005,1.881,0,2.821a1.035,1.035,0,1,1-2.059-.02q-.007-2.8,0-5.591a1.045,1.045,0,0,1,1.014-1.17c.625-.01,1.043.459,1.046,1.189,0,.923,0,1.847,0,2.77" transform="translate(-220.18 -35.866)" fill="#627289"/>
        <path id="Trazado_606638" data-name="Trazado 606638" d="M246.534,2.055A1,1,0,0,1,245.528.994a1.028,1.028,0,0,1,2.055.042,1,1,0,0,1-1.049,1.019" transform="translate(-220.227 0)" fill="#627289"/>
      </g>
    </g>
    <circle id="Elipse_5825" data-name="Elipse 5825" cx="42.5" cy="42.5" r="42.5" transform="translate(-3530 -8344)" fill="#a3bfe4"/>
    <rect id="Rectángulo_346398" data-name="Rectángulo 346398" width="144" height="47" rx="16" transform="translate(-3458 -8325)" fill="#fff"/>
    <path id="Trazado_608063" data-name="Trazado 608063" d="M8.292,10.6H3.329v3.719h5.8V16h-7.9V3.914H9.073V5.607H3.329V8.944H8.292Zm4.225-3.586.058,1.038a3.229,3.229,0,0,1,2.615-1.2q2.806,0,2.855,3.212V16H16.029V10.181a1.85,1.85,0,0,0-.369-1.266A1.554,1.554,0,0,0,14.452,8.5a1.944,1.944,0,0,0-1.818,1.1V16H10.617V7.019ZM23.79,14.556a1.824,1.824,0,0,0,1.253-.44,1.5,1.5,0,0,0,.531-1.087h1.9a2.963,2.963,0,0,1-.523,1.565,3.43,3.43,0,0,1-1.328,1.15,3.958,3.958,0,0,1-1.81.423,3.829,3.829,0,0,1-2.988-1.22,4.84,4.84,0,0,1-1.1-3.37v-.208a4.759,4.759,0,0,1,1.1-3.283,3.8,3.8,0,0,1,2.988-1.233,3.69,3.69,0,0,1,2.611.934,3.345,3.345,0,0,1,1.058,2.453h-1.9a1.847,1.847,0,0,0-.527-1.27,1.7,1.7,0,0,0-1.258-.5,1.775,1.775,0,0,0-1.511.71,3.621,3.621,0,0,0-.54,2.154v.324a3.682,3.682,0,0,0,.527,2.179A1.773,1.773,0,0,0,23.79,14.556ZM34.365,16a3.113,3.113,0,0,1-.232-.838,3.393,3.393,0,0,1-4.565.232,2.47,2.47,0,0,1-.855-1.909,2.55,2.55,0,0,1,1.067-2.2,5.169,5.169,0,0,1,3.051-.768h1.237V9.924a1.573,1.573,0,0,0-.39-1.116,1.547,1.547,0,0,0-1.187-.419,1.777,1.777,0,0,0-1.129.344,1.066,1.066,0,0,0-.44.876H28.9a2.239,2.239,0,0,1,.49-1.382,3.263,3.263,0,0,1,1.332-1.009,4.68,4.68,0,0,1,1.88-.365,3.769,3.769,0,0,1,2.515.793,2.827,2.827,0,0,1,.963,2.229v4.051a4.591,4.591,0,0,0,.34,1.934V16Zm-2.216-1.453a2.294,2.294,0,0,0,1.125-.291,1.941,1.941,0,0,0,.793-.78V11.783H32.979a2.973,2.973,0,0,0-1.685.39,1.264,1.264,0,0,0-.564,1.1,1.179,1.179,0,0,0,.386.926A1.5,1.5,0,0,0,32.149,14.547Zm7.919-7.529.058,1.038a3.229,3.229,0,0,1,2.615-1.2q2.806,0,2.855,3.212V16H43.579V10.181a1.85,1.85,0,0,0-.369-1.266A1.554,1.554,0,0,0,42,8.5a1.944,1.944,0,0,0-1.818,1.1V16H38.167V7.019Zm10.11-2.183V7.019h1.585V8.513H50.178v5.014a1.1,1.1,0,0,0,.2.743.943.943,0,0,0,.726.228,3.107,3.107,0,0,0,.706-.083v1.561a4.968,4.968,0,0,1-1.328.191q-2.324,0-2.324-2.565V8.513H46.684V7.019h1.478V4.835ZM58.67,16a3.113,3.113,0,0,1-.232-.838,3.393,3.393,0,0,1-4.565.232,2.47,2.47,0,0,1-.855-1.909,2.55,2.55,0,0,1,1.067-2.2,5.169,5.169,0,0,1,3.051-.768h1.237V9.924a1.573,1.573,0,0,0-.39-1.116,1.547,1.547,0,0,0-1.187-.419,1.777,1.777,0,0,0-1.129.344,1.066,1.066,0,0,0-.44.876H53.208a2.239,2.239,0,0,1,.49-1.382A3.263,3.263,0,0,1,55.03,7.218a4.68,4.68,0,0,1,1.88-.365,3.769,3.769,0,0,1,2.515.793,2.827,2.827,0,0,1,.963,2.229v4.051a4.591,4.591,0,0,0,.34,1.934V16Zm-2.216-1.453a2.294,2.294,0,0,0,1.125-.291,1.941,1.941,0,0,0,.793-.78V11.783H57.284a2.973,2.973,0,0,0-1.685.39,1.264,1.264,0,0,0-.564,1.1,1.179,1.179,0,0,0,.386.926A1.5,1.5,0,0,0,56.454,14.547ZM67.2,8.861a4.991,4.991,0,0,0-.822-.066,1.85,1.85,0,0,0-1.868,1.063V16H62.5V7.019h1.926l.05,1A2.273,2.273,0,0,1,66.5,6.853a1.888,1.888,0,0,1,.714.116Z" transform="translate(-3420 -8311)" fill="#12263f"/>
    <circle id="Elipse_5832" data-name="Elipse 5832" cx="34.5" cy="34.5" r="34.5" transform="translate(-3522 -8336)" fill="#fffbe5"/>
    <g id="Grupo_1015813" data-name="Grupo 1015813" transform="translate(-3505 -8327)">
      <g id="Grupo_1015812" data-name="Grupo 1015812" clip-path="url(#clip-path-4)">
        <path id="Trazado_606639" data-name="Trazado 606639" d="M18.6,0c.4.1.794.183,1.185.294A7.963,7.963,0,0,1,25.5,7.164c.01.1.034.208.06.36h7.652C33.87,20.707,34.527,33.84,35.185,47H0L1.973,7.541H9.609c.08-.476.117-.934.235-1.37A7.843,7.843,0,0,1,16.426.08.616.616,0,0,0,16.582,0ZM3.21,38.475H31.975c-.335-6.711-.668-13.394-1-20.1H4.213l-1,20.1M30.566,10.322H25.543v2.406h-2.8V10.32H12.41v2.408h-2.8V10.319H4.617l-.259,5.188H30.83c-.089-1.742-.175-3.449-.264-5.186M2.92,44.237H32.266q-.08-1.473-.157-2.9H3.071c-.051.976-.1,1.921-.151,2.9m19.8-36.73a5.144,5.144,0,0,0-10.255,0Z" fill="#627289"/>
        <path id="Trazado_606640" data-name="Trazado 606640" d="M91.509,191.09a1.177,1.177,0,0,1-.117-.1c-1.91-1.92-3.837-3.825-5.725-5.767a4.413,4.413,0,0,1,1.754-7.327,4.207,4.207,0,0,1,3.878.592.45.45,0,0,0,.63-.007,4.376,4.376,0,0,1,5.782.646,4.327,4.327,0,0,1,.012,5.89c-2,2.069-4.108,4.027-6.215,6.077m.036-3.911c1.4-1.358,2.787-2.653,4.111-4.011a1.609,1.609,0,0,0-.677-2.621,1.541,1.541,0,0,0-1.686.4c-.559.557-1.115,1.117-1.662,1.666a.97.97,0,0,1-.092-.06c-.52-.519-1.037-1.041-1.56-1.556a1.623,1.623,0,0,0-2.337-.082,1.657,1.657,0,0,0,.025,2.383c.769.789,1.551,1.566,2.329,2.346.528.529,1.06,1.054,1.549,1.54" transform="translate(-74.019 -155.862)" fill="#627289"/>
      </g>
    </g>
  </g>
</svg>
